<mxfile host="app.diagrams.net" modified="2024-05-30T06:43:53.983Z" agent="Mozilla/5.0 (Windows NT 10.0; Win64; x64) AppleWebKit/537.36 (KHTML, like Gecko) Chrome/125.0.0.0 Safari/537.36" etag="R2zboEjf7kDISYHybvy7" version="24.4.10" type="github">
  <diagram id="C5RBs43oDa-KdzZeNtuy" name="Page-1">
    <mxGraphModel dx="1434" dy="746" grid="0" gridSize="10" guides="1" tooltips="1" connect="1" arrows="1" fold="1" page="1" pageScale="1" pageWidth="1654" pageHeight="2336" math="0" shadow="0">
      <root>
        <mxCell id="WIyWlLk6GJQsqaUBKTNV-0" />
        <mxCell id="WIyWlLk6GJQsqaUBKTNV-1" parent="WIyWlLk6GJQsqaUBKTNV-0" />
        <mxCell id="WatQzWpxmWLszt0OcihC-1" style="edgeStyle=orthogonalEdgeStyle;rounded=0;orthogonalLoop=1;jettySize=auto;html=1;exitX=0.5;exitY=1;exitDx=0;exitDy=0;entryX=0.5;entryY=0;entryDx=0;entryDy=0;" edge="1" parent="WIyWlLk6GJQsqaUBKTNV-1" source="WIyWlLk6GJQsqaUBKTNV-3" target="WatQzWpxmWLszt0OcihC-0">
          <mxGeometry relative="1" as="geometry" />
        </mxCell>
        <mxCell id="WIyWlLk6GJQsqaUBKTNV-3" value="OrderStroageServerCore服务中添加&lt;font color=&quot;#ff0000&quot;&gt;EndActiveOrder&lt;/font&gt;队列触发发送支付宝消息&lt;br&gt;队列中放的是Order对象" style="rounded=1;whiteSpace=wrap;html=1;fontSize=12;glass=0;strokeWidth=1;shadow=0;" parent="WIyWlLk6GJQsqaUBKTNV-1" vertex="1">
          <mxGeometry x="135" y="150" width="170" height="80" as="geometry" />
        </mxCell>
        <mxCell id="WatQzWpxmWLszt0OcihC-4" style="edgeStyle=orthogonalEdgeStyle;rounded=0;orthogonalLoop=1;jettySize=auto;html=1;exitX=0.5;exitY=1;exitDx=0;exitDy=0;entryX=0;entryY=0.5;entryDx=0;entryDy=0;" edge="1" parent="WIyWlLk6GJQsqaUBKTNV-1" source="WatQzWpxmWLszt0OcihC-0" target="WatQzWpxmWLszt0OcihC-5">
          <mxGeometry relative="1" as="geometry">
            <mxPoint x="220" y="400" as="targetPoint" />
            <Array as="points">
              <mxPoint x="220" y="480" />
            </Array>
          </mxGeometry>
        </mxCell>
        <mxCell id="WatQzWpxmWLszt0OcihC-13" style="edgeStyle=orthogonalEdgeStyle;rounded=0;orthogonalLoop=1;jettySize=auto;html=1;exitX=0.5;exitY=1;exitDx=0;exitDy=0;" edge="1" parent="WIyWlLk6GJQsqaUBKTNV-1" source="WatQzWpxmWLszt0OcihC-0" target="WatQzWpxmWLszt0OcihC-12">
          <mxGeometry relative="1" as="geometry" />
        </mxCell>
        <mxCell id="WatQzWpxmWLszt0OcihC-0" value="&lt;font color=&quot;#ff0000&quot;&gt;GeneralPositiveButtjoint&lt;/font&gt;服务接收到Order对象" style="rounded=1;whiteSpace=wrap;html=1;fontSize=12;glass=0;strokeWidth=1;shadow=0;" vertex="1" parent="WIyWlLk6GJQsqaUBKTNV-1">
          <mxGeometry x="135" y="270" width="170" height="80" as="geometry" />
        </mxCell>
        <mxCell id="WatQzWpxmWLszt0OcihC-3" value="" style="edgeStyle=orthogonalEdgeStyle;rounded=0;orthogonalLoop=1;jettySize=auto;html=1;" edge="1" parent="WIyWlLk6GJQsqaUBKTNV-1" source="WatQzWpxmWLszt0OcihC-2" target="WIyWlLk6GJQsqaUBKTNV-3">
          <mxGeometry relative="1" as="geometry" />
        </mxCell>
        <mxCell id="WatQzWpxmWLszt0OcihC-2" value="开始" style="strokeWidth=2;html=1;shape=mxgraph.flowchart.start_1;whiteSpace=wrap;" vertex="1" parent="WIyWlLk6GJQsqaUBKTNV-1">
          <mxGeometry x="170" y="50" width="100" height="60" as="geometry" />
        </mxCell>
        <mxCell id="WatQzWpxmWLszt0OcihC-5" value="1.删除db12的Hash键为&lt;font color=&quot;#ff0000&quot;&gt;GeneralActiveOrder&lt;/font&gt;的&lt;font color=&quot;#ff0000&quot;&gt;ActiveOrders&lt;/font&gt;中的活动订单&lt;span style=&quot;color: rgba(0, 0, 0, 0); font-family: monospace; font-size: 0px; text-align: start; text-wrap: nowrap;&quot;&gt;%3CmxGraphModel%3E%3Croot%3E%3CmxCell%20id%3D%220%22%2F%3E%3CmxCell%20id%3D%221%22%20parent%3D%220%22%2F%3E%3CmxCell%20id%3D%222%22%20value%3D%22GeneralPositiveButtjoint%E6%9C%8D%E5%8A%A1%E6%8E%A5%E6%94%B6%E5%88%B0Order%E5%AF%B9%E8%B1%A1%22%20style%3D%22rounded%3D1%3BwhiteSpace%3Dwrap%3Bhtml%3D1%3BfontSize%3D12%3Bglass%3D0%3BstrokeWidth%3D1%3Bshadow%3D0%3B%22%20vertex%3D%221%22%20parent%3D%221%22%3E%3CmxGeometry%20x%3D%22135%22%20y%3D%22270%22%20width%3D%22170%22%20height%3D%2280%22%20as%3D%22geometry%22%2F%3E%3C%2FmxCell%3E%3C%2Froot%3E%3C%2FmxGraphModel%3E&lt;/span&gt;" style="rounded=1;whiteSpace=wrap;html=1;fontSize=12;glass=0;strokeWidth=1;shadow=0;" vertex="1" parent="WIyWlLk6GJQsqaUBKTNV-1">
          <mxGeometry x="360" y="440" width="170" height="80" as="geometry" />
        </mxCell>
        <mxCell id="WatQzWpxmWLszt0OcihC-11" style="edgeStyle=orthogonalEdgeStyle;rounded=0;orthogonalLoop=1;jettySize=auto;html=1;exitX=0;exitY=0.5;exitDx=0;exitDy=0;exitPerimeter=0;entryX=0.5;entryY=0;entryDx=0;entryDy=0;" edge="1" parent="WIyWlLk6GJQsqaUBKTNV-1" source="WatQzWpxmWLszt0OcihC-8" target="WatQzWpxmWLszt0OcihC-5">
          <mxGeometry relative="1" as="geometry" />
        </mxCell>
        <mxCell id="WatQzWpxmWLszt0OcihC-8" value="" style="strokeWidth=2;html=1;shape=mxgraph.flowchart.annotation_2;align=left;labelPosition=right;pointerEvents=1;" vertex="1" parent="WIyWlLk6GJQsqaUBKTNV-1">
          <mxGeometry x="480" y="166.46" width="80" height="100" as="geometry" />
        </mxCell>
        <mxCell id="WatQzWpxmWLszt0OcihC-9" value="" style="shape=image;verticalLabelPosition=bottom;labelBackgroundColor=default;verticalAlign=top;aspect=fixed;imageAspect=0;image=data:image/png,iVBORw0KGgoAAAANSUhEUgAABM8AAAHwCAIAAAA+Yd9GAAAgAElEQVR4Aey9+Vcb2Z33Pz/mz0lOlj6ZnJn0PJl+ztM5+X4n8zyTM5M86Ynbdmhv7Q1ss9jGNgaDVzA7GJvdYAwIA8YGm31HYhVgbAQCjIRYtKEdiXqivu7blaqSkEACLW8fTnfp1q27vG6hqhefW7f+gfn+n/FHP2L/fJ+M/4MACIDADgRWXf/7KJfvcDB2gwAIgAAIgAAIgAAIhCiBf6D9Yqum8Uc/ounYAAEQAAH3BFzL5ips0z067AUBEAABEAABEACBECYA2wzhwUXXQGCfCMA29wk0qgEBEAABEAABEACBoCIA2wyq4UJjQSAgCcA2A3JY0CgQAAEQAAEQAAEQOGACsM0DHgBUDwIhQAC2GQKDiC6AAAiAAAiAAAiAgM8JwDZ9jlSgQIvF6nA4BHb4Lslisdrtdt+Vh5L8RUC/uSmXL+o3N7e2tmRz8s6uvraO7vGJSaPR6K8q/V8ubNP/jFEDCIAACIAACIAACAQfAa9tc25u7svf/u6rr/6i0Wh27K5YLPnxT34qmJmU8+Of/NT9z5e//d3c3JxgRbWiuh//5KdpaQ/NZnNMbJxYLBHMdrCJ6+sbt26l/PdfvmbjYmOhvfCwnRqN5tS3pwkTjUbz1Vd/IR2vFdX9f///79+8eetvrfWwnQGVTb+5OTk1YzKZGYaZly+MjkkVypWDauHw6Hh61qOq6rrcR0Wp6bn0Jz3rUUdXL2mk522TLyxl5hTQQkqfPjebLYKJnpe5i5ywzV1AwyEgAAIgAAIgAAIgEPIEfGmbRH7c2yPZK+ifRBp//JOfeuiNxNliYuMmJyc9F+Ddjej29vbU9PTb1la9Xu95CfPz8j9/9d+/+OyXKbfvGAyfIle0m25AxcTGaTSamNg4Tp5aUR2x0y9/+7vJyUmSISY2zmw2SySSr776y89+/llubh6CnOwxkssX8x4Vp6bnFpVUrK1v1NY1pqbntnf2sPPs5/bw6PjDzPzU9NzsvMLW9q73H2QfZuf6ByUFhWWp6bm1dY1eBTkFxVIw0a999KttWiw2xYpaJlfOzitC72dZuRF6nUKPQAAEQAAEQpXAkmJNoVLrN027uK8I9gs6Ltm7O6t3tk1PgpCC9ujtWUg1zFvbNJvNxMFolI9K2j//+l9uJNxUKBReNYZ4bK2ojh61ubl54uS3P/v5Z29bW2mi+w2z2Xw1/to///pfBgYG2Dk5wUyi6MQY2dnIdq2ojkR3ySiUlz/lKyiFb7FYHjxI+9nPP+vs7OIXFZ4pE9LpzJyC0vKqqemZ/Mcl2XmF+Y9LPLTNLbu9p28w/3HJ1PTM9va2rwBS28wrKGnr6LFabaRkk8nc8LI5NT33TWvH1taWh9UJiqVgoocF7i6b/2zTYrHNzitWN/QGo8VotoXez+y8d99OuxsgHAUCIAACIAACviKg0RkUKxveCmcIXNBxyd7dKeSpbVKl4cykJbJE95JGUEGlwkb8jT8tlq1ermzT85ApiYvWiup+9at/SrqVnJWdk5CQ+IvPfnn8xEmtVuc5IL5ten4szTk+MfGrX/1T/qMCtqiQ/lIZdrUhFksEc1KAZC9fy5UrK//1xz+5clfatnDY2LLbW9u6Hmbm19Y1EmkUS0bLKqrJpFNPYptO2+wdeJiZn51X6EPhfP9B9rSypri0sqTsGds2GYbR6fRlFdV5BSUflz01EEGxFEz066D7zzYVK+rVDX3oSSbtES5dfj0zUTgIgAAIgIA/CGh0m4qVDa9KDoELOi7ZXo04zexj2ySe5kqiaDq1UE9sk7aVs8HxXrqXxgMZhtne3i4pLfvZzz8bHhlhGMZkMj1+/OQ3//o/f/yTn/7xT3/u7u6hTznOzsoiIo797OefJSQkdnR2/vgnPyWN5LguW/AsFsvjJ4WktF989stL0THsICrpGjuwSXWaPG5KGuw+tpmW9pCYPOkshxu7MaQ0m812I+Hmf/7XH1UqFQUShhsWi0X04uXDzPyWN+0tb9rTMvJS03MfZub39g+9aHiVlpHX2NSy5cGiSltbW53dfT4XTlcjsr29PTg0nJFdMCQZYf+RwlV+hmEExVIw0U0he9/lP9uUyZWhGtUkwolL195PP5QAAiAAAiCw/wSWlle9qjQELui4ZHs14jSzp7ZJRVFwg8Y22VFBsdj5JKHmu390YRviYBxrSkt7yDAMlTG+RNHmsjcEw6oMw7iyTbvdfu/e/Z/9/LNLl2IyMjK/PnyUTjrVanUREcd+8dkvExISU27fiY6J/dnPPyONNBiMpaVlWdk5p8+c4zxTWln57Gc//yw9I7O/f+DVq9f/9vt/ZwdRXYUfPRFysVhC48Ns4IIzaTmRzLS0hzQEysYVPttqtaaopCIzp2BgaPjZ8zq6gk5qei7xzLaOnoeZ+VXVdfRhWjdwfCucywplV0//4tKyqxpn3s9m5jxu6+imfwdxldPn6Xup0X+2OTuvoGHAkNzApcvnZzIKBAEQAAEQ2AcC3l6/QuCC7m2X92EUgqIKT22T+iQnoshRPqJSVIoSk24R2ywvf0qnudKwITFDGuijtsn2KyKigobW3Nzy1Vd/4ZuVq5m0KpXqP//rj0m3kskiOhsbG3/6v1/dSLhps9mmp9/9j998QWe9trW1sxtJBpJvj5mZWf/jN19IpZOCI83PT7KRvpB+MQzjJrbJiWeya3FVOMMwYW6bDoej4WVz3qPi4dHxopIKtmrS7bKK6v5BSWZOweuWNjZVV9tbW1ttHd1pGXl5j4oXFj+6yuZJ+uTUTEZ2QVdPvyu1M5vN8oWlDfXOCz57Up3nebbs9oaXzQ0vmz0J+fKLhW3u2oRx6eKfTkgBARAAARAIfALeXr9gm4E/pn5qoV9sk62LnO0TJ79lixyxJg9jm0TMqF5SO+XEQkmZtN6U23fW150zywWjhSQwSAyQRlw5Hwl6vuCJxZJ//vW//PgnP/39v/+fyMgLjY0vTaYfVuji5yflCJozbS3ZIG7vqgRq6ZyOk/LD3DYZhtmy27e2tsjas9QwORvtnT0Wq9VDs1pb2ygtr0pNz31eU6/Tb+7lV3Fx6WNOflFt3Uuz2bKXcuixgpNmBRPpIfyNLbu9salldFw6Oi71cI4xpxDYJmyTc0rgIwiAAAiAQGgTgG2G9vj6sHee2iZHhzgfaeSTqFRi0q3y8qdfffUX4nJEC7/66i/NzS3kQOp1RKh2Z5skjseZ3cqeSUv08tq161arldrmXw59nZWdQ3/q6l7YbDaOXnI+EtyC7qdcWamorLxz594f//Tnn/38M89n0tLYZlraQ34X2POK2ag53GCbbn4T2LZZXln9ouFVISvU6ckqQaRwqppVNS+0Oi/WmhJsm9Fkel5Tn5335P0HGc3gcDi6evrJw6Wp6bmvmt/u55q0VqutsallbPxTiH5sfLKxqYWulEsb6X4DtgnbdH+GYC8IgAAIgECIEYBthtiA+q87ntom9UnOTFrSMiqN1NPYE0SpbWo0GpKTY027tk12aWQdV7Ztkgc1//nX/zI+Ps4wDJlJS+XT4XBotTq9Xr+9vb2LmbTb29t6vV6r1ZEpkdvb2/cfpNK4K8MwnZ1dP/7JT1+9es0ePOKWbIF0tZ36nYXSacYEe2LSrS9/+zvOIexKDQbj2XPnD3192Ks1eNktDJlttm1OTE4zDNPe2UMjnB7apm9Vk7Cdlc3n5Bc+elI6N79AUhwOx+iY9NHjUtK8/bRNi8XS8LJZOvmOPe7SyXcNL5stFi+ir7BN2Cb7FMI2CIAACIBAyBOAbYb8EPuqgzvbJqcmQdskEpWW9pBjm2wvYs8O3Ytt0jK/+uovYrHky9/+jkRQqXmyVwl6//79F//zf928mWi1WtmrBGVl5xw/cfJnP/+svr6BYRitVnf8xMlffPbLmNi4lNt3yDKzpJHz83ISCCWrBF2Nv5aVnfO2tXV7ezv/UQFdJejNm7d//uq///R/v1pd/bRC19LS0r/9/t/PnY/c3BSYe0kwfvnb3/35q/+mPWKv9yMWS/781X9/+dvfERUn+Tnc+LHNnt7eX/3qn+7du0+eTeWMXVh93LttWq028gJMGtW0WCzi4bHWti6Bn/au8YlJT2KS37nlRGZOQVpG3vOa+v4B8eiY9EXDq4zsgv23zfcfZNPv3vNPjMmpmQ+zc/x0VymwTdimq3Nj7+nz8/K+/kGz2bz3olACCIAACICArwjANn1FMuTL8do2OQ9Psud8isUSjm2y9Ymg5EwcpUFRTjls7vT5TMEZp7RA+rwi2zbtdvvtO3dpeJP9zhLBN6D8+Cc//Y8//Ofz6uovf/s7onakR1QIyQYxQIPBkJOTS9SUTKOdmpqiLd/e3hbV1f3s559Fx8QuLX2kL7QgAGnQkrafVkSVkuaktdNdhBvbNu12e2dn15e//d2//f7f5+bnaTPCdqOuvolGMvmxzc7uPk/IrKhWxZJR/fd/L1hRreY/LqHFcjaKSivVGq0nxTIMs7S0XFklYpfwpOhpy9uO7LzC/YxtetjaHbMFuG1KRqXF5VVq7abRbFOqNh4Xlc98mPfWD3d9oPuKvL1aMwyzuWlIz8g+fPTY0YgTZeWV5EmBHcfIHxmycvIOHY44dDgiMSnFZOLaoKiu/shfj3d2dXtStclkTkxKGRJLOJm3t7c7u7pLSsvVu106a3t7u6e37/TZqEOHI6JjrnyY/WESO6cu/kdRXX1WTh4/HSkgAAIgAALeXr/2uErQm7Yu9l1TanpuZk7BzIf557UNnPTcR8VK1cbMh/nHReVK1Yb7q7BXe73tspuTxOFwNL58dTTiRDhcZby2TbpEDVUgtoBR2+TwpSrFsSxOIYIf6SOOnDLJR7aLus8peLhfE+12e0lp2S8++yWJ69KmUmnkP3pKYphkISVimx7GNol//p//+IOrNXL92tMwKXxra+vjR8WsbP7D7BznZ1Y2r1CuuFpp1hUfrU4nm5PPyub3fxFaV03aXTps06vLFTuzt5eu7e3tx4XFNxOTl5Y+vv8we+FirKiufnejtvejDAajWq1p7+jk26bVaruf+vDuvdTc/AJPKnJlm54c6z6PTDZ3+mxkc8vb9Y2NisrnMXFXNVpP/yoE23TPFntBAATCmYC316892qZau6lUbShVG5XP65petypVGyurap3BvK7WKVUbCx+VhSUVvQNikr5ptASybVqttuzc/OiYKxmZObDNcP4l8lnfl5eXy8rK/f0gZVdXd319A3tRXJ91AAWBwE4EgtQ2NbrN+sbm9KxHaRl5hSUV8qVP7/aULykKSyrSMvLSMvKeVdevbehoULS1rScnv+hhZn7jq7c6g5ntjbvb9vZqrdPp46/fnJr+9Kjt5NR0Q8NLMoV7eVlxPSHp6yPfHD95uv77xCGx5EZCUmFRydGIE6fPRg0Pj5LB5ET8Jic/zcuQyebu3k8T1dUfP3k64tip169byLyM5WXFzcRkElAtKi5lz2sdEkv4trmxoU64mdzW3nEzKcVgMNAzaHJyKjrmCgkzkkqJZ5IYKfnv8ZNnZDLnRG5RXT1JiYyKprHNoSFJ/PWbtMzmlrekdlc9am55m5qWQR4uYNNz1dP1jY0b32G8ey+1/GklvQ8QxKtWaxKTUt68bTt9Nurw0WNl5ZWeTKenNLABAiAAAgFIwGgyLywp6aQ8Vy309vq1R9ukF9nntQ1v2rroR7Kh1m4Wl1dJRqU0PZBt02yx9Pb2W63WMPmb5m5im65OO6SDAAiEJ4Egtc32rv7ismdzCx8/LqtqX7wse1qt1Rn1BvOz6vqqmoaPy6q5hY/FZc/qX7YQ28wvKKkWNX5cVg2PSrPzCsel7+hVbdcb3l6t1WpN3JVrRMbYJ5vT2W7drqh8vr6x4Yx5Xort7u5lGGZILDl56uybN60kshcbF/8342IYRiabu3AxViwZVqs1zS1vL1yKValUJP181KWa2rr1jY2/xQNPnT43M/PearXevvuAFC6TzcXEXW161UxrF7TNsfGJ23fuLysU124kLi19ekutSqW6cCm2ueUtu1Ky4ppSuXI9Iam9o1Ot1mi0WuJsJpNZrdaMjo7FXo6ntqlSqaJjrszMOJ83ttvtqWkZJLrrqkfsazk7giqTzfF7arfb0zOySeh4cnIqNi6e2KYrvGq15mL05UePC1dX18SS4VOnzxPsFA42QAAEQCC4CBhNZsno1OS0zG53uG+5t9cv2CafJ/sKxd8bMimwzZAZSnQEBA6MQODbJvuhDvKkB8cP6R9BNTpDSfnzvsFhTgalauPRk9LJd7NGs01vMFdW1fH/tso5xJOP3l6tXdnm3x4Ov3otYX3D+W5hhmGeVjwrLCohthl/LYFEAldWVNGxV4ipNre8zcjKIX+6NhgMNxKSxsYniG3GXo4n5ZgtllvJd/gPXnKujoK2WVNb97TimdVqu3P3AS1hSCxJuJlMpmCQv+nOz8tJg9keSFLof2Wyubgr16htEiEkhrmyoroYHUfM01WP2K1l1yKTzfF7yg5+EozENl3hVas1sZfj6bOgufkFTyue0ZZjAwRAAASCi8An1Xwn2zGwyTCMt9cv2Cb/ZGBfofh7QyYFthkyQ4mOgMCBEQh82ywsqVj4qFSqNmZlCwVPysgqQQrlWnF5FX3TKVlXwGi2dfUOpmc9Kigsq6t/9e69jEgjZ5UgwZk8nuglJ4+3V2tqm0NiCXuFHpls7vjJM+z5qEST2CpIj2VPUqWHkBV6OGr3/sMsiUwOD4+ei7xIM9P5pURoOTNprVbb3ftpf5vyyvZewZz0lGV7IE0kG5wmMQzT3d2beOu2yWQeGnLOEzYajW56xL6Ws2vhFEt6ykZEyiQ9dYWXk588TMtpPz6CAAiAQAASsNm29JvOL0/6zyvVhG1Sbu436HJ65ALKWWqBfYVyX05Q74VtBvXwofEgEBAEAt82BdekrRY1Vj5/8XFZpVRtjE5MFxSW0cXr5EuK7t7BZ9X1GdkFnd0D9LlNupjtgdum1Wpjr9DjjNTFxc/L5Wq1hvwYDM7bCDe2mfYwk2ZWqzVWq43ENtmBRHJ6bWyoL0Zffv26heSvqHzu3jbXNzbORV6iakqDq+zGcE5ctgdydnG0kLw8+fLV63L5QnZuPo0liurqBXvEvpaza+EXyzAMxx7psa7wcvJzWo6PIAACIBCwBBTKtX7xhFK1TlrorWrCNj0cWbKcHr3actZvp1cZD0sL0mywzSAdODQbBAKIQDDaJmdFgcl3s4+elFLbpBHIlredz2sbAsc2OVM9m1ve3rn7wGq1LS19jIm7Sp+QpCcHW/DYakQPpDnJhqCDcRKfVjxzb5tj4xM3k1KUyhW1WjM1NR0dc4U0zCczaenjms+ra9kLJrnqkZtVgvherdPpL1+9TiYVc2bSCuJlI+WQxEcQAAEQCHACy4pVIpy7UE3Ypk8GF7bpE4woBARAIPQJBKNtktWASGxz5sN8xTMReTHXukZXWFLR+OqtQrlGVgl60fA6cGzTbrfn5hew34BCFuwhUbuMrJzV1TXOKkF0mitbjeh7QdgL9riKbTpX97kYS2Kb7R2dN5NS2LZJltsZG59QqzVarc7hcDyteEZffGIymRJuJvcPDJKYJH+VIPLrQdb7qXpeQwshqweRVYKiY6/My+V09SCGYTq7us9FXkxKvkMXp3XTI/YbUOIuXyMrhHMUmjbD5SpBSSl8vGykof97jh6CAAiEHAEinIMS6aRnz2qyAXj7JMj+P7dZ8KRsVrZA3puiVG2Q127TvybvYsPbLrNxsbcdDodWq1OrNRWVz8msHL1e78mzsuxCgmgbsc0gGiw0FQQClEAw2qbRbFMo1wpLK1PTcwsKy8al74rLq0hsk/0GlMrnL5SrzndDB8hzmwzDaDSatPRM/stIBF/R4Sq26ep9IYIOxjDM8PDoyW/PHT56LDe/oKu7h22bW1tb5RXPjkacOHQ4IjIqWqVaTblzn64MxDBMbn4BWbKIYRj+G1DoOT07KyOPhpL3nRB/ptNxDx2OoG9GYRhmZUV19twFWizDMK56RNO/PvKNc7Lx9+sSueqpt29AEVwimHYKGyAAAiAQ4ASUqvWZWfkuVMdb9dp/28zMKWCvEbj3tf287bKroVerNZFR0ewLHP27sKtDgjodthnUw4fGg0BAEAhw29zF3y/37RBfXboC4jxAI0AABEAABMKGgLfXL1/Z5r5doPkVedvlsDkXdugobHMHQNgNAiCwIwHYJv+a5GEKLl07nl3IAAIgAAIgEIAEvL1+wTYDcBD3p0mwzf3hjFpAIJQJwDY9dEt+Nm+v1qF8GqFvIAACIAACwUPA2+sXbDN4xtbHLYVt+hgoigOBMCQA2+RrpIcp3l6tw/DsQpdBAARAAAQCkIC31y/YZgAO4v40Cba5P5xRCwiEMgHYpoduyc/m7dU6lE8j9A0EQAAEQCB4CHh7/YJtBs/Y+rilsE0fA0VxIBCGBGCbfI30MMXbq3UYnl3oMgiAAAiAQAAS8Pb6BdsMwEHcnybBNveHM2oBgVAmANv00C352by9WofyaYS+gQAIgAAIBA8Bb69fsM3gGVsftxS26WOgKA4EwpAAbJOvkR6meHu1DsOzC10GARAAARAIQALeXr9gmwE4iPvTJNjm/nBGLSAQygT8Z5syudJgtHhobsGYzdurdSifRugbCIAACIBA8BBYWl71qrEhcEHHJdurEaeZYZsUBTZAAAR2ScB/tqlYUa9u6INRIz1sMy5duzzncBgIgAAIgMDBEdDoDIqVDa/qD4ELOi7ZXo04zQzbpCiwAQIgsEsC/rNNi8U2O69Y3dCHaoQTl65dnnM4DARAAARA4IAIaHSbipUN/abJq/pD4IKOS7ZXI04zwzYpCmyAAAjskoD/bJNhGIvFplhRy+TK2XlF6P0sKzdCr1PoEQiAAAiAQKgS+KhYV6jU3qomub0I9gs6Ltm7O6thm7u8vcZhIAAClIBfbZPWgg0QAAEQAAEQAAEQAIHgIgDbDK7xQmtBIBAJwDYDcVTQJhAAARAAARAAARA4aAKwzYMeAdQPAsFPALYZ/GOIHoAACIAACIAACICA7wl4ZJsWi02pCtnnpnY3BTm0j5LJlUqV2mKxuTrj1ta1cwsroQ0BveMQmFtYWVvXCp4SsE1BLEgEARAAARAAARAAgTAnsLNtWiw2mVyp1RsdDkeYwwqf7jscDq3eKJMrBYVzbV27uq6123E+hM8Z4eyp3e5YXdcKCidsM7xOBfQWBEAABEAABEAABDwjsLNtKlVqrd7oWWnIFVIEtHqjUqXmd2luYQWqyccSDil2u2NuYYXfU9gmnwlSQAAEQAAEQAAEQAAEdrZNmVyJqGZ4nigOh0MmV/L7jtcN8ZmET4rg6MM2w+cEQE9BAARAAARAAARAwHMCO9um4M2l5xUgZ1ATEBx9wcSg7iYa7zkBwdGHbXoOEDlBAARAAARAAARAIHwIwDbDZ6x301NBtRBM3E3pOCYICQiOPmwzCEcSTQYBEAABEAABEAABvxOAbfodcVBXIKgWgolB3U003nMCgqMP2/QcIHKCAAiAAAiAAAiAQPgQgG2Gz1jvpqeCaiGYuJvSA/IYmWwu7so1tVoTkK07+EYJjr5fbdNaWmo6e9Z46tQ+/5jOnrWWlnpCvGgm8WTXr7/p/Md9/jnZ9euimcQdW5jcyXxRxHz++AB+vihikjt3bCAygAAIgAAIgAAIhCwB2GbIDq1POiaoFoKJPqnOH4VsbKg3NgRW1nVTV1ZO3pBYwsmQlZOXlZPHMIxarcnKyTOZzAzDiOrqE5NSyDbNwDkwxD4Kjr7/bNOpmpGR++yZtDpTZOSOwlk0k3i69zf77Jm0utO9v3EvnMmdzJclB+CZVG6/LIFwhth3ALoDAiAAAiAAAl4Q8L1tqtWayKjoQ4cjDh2OiI658mFWRpqTlZNHEo9GnCgqLjWbnTfrDMPI5QvRMVcio6JpNMlsNhcVlx6NOHE04kRmVq7RiPevEFQH8F9BtRBMPIDGeVblkFjCV0fBQ2WyueMnz5CzlPy3ueUNPZlpIdQ2RXX17MxkmxgpNc/t7e2Kyufx12/qNzcFKw26RMHR959tHkhUk9qm8dQp09mz7sfoQKKa1Da/6fzHk12/dtPCg4pqUtv8/LEzsop/IAACIAACIAAC4UnAL7YZd+WaTDa3vb3d09t3+ep1jVbLMExWTp6orp5hmM1Nw83E5LetbQzDTE5ORV2Mqa4RxV6Op7b5rKo6LT3TZDJtbhqSku80vWoOz7EJhF4LqoVgYiC0VrANntsmiVUSq5TJ5u49eLisUCQmpdAzk2GYIbGEWOXxk2fuPXhYUVnV3PJmSCwR1dUPiSUVlVVPCkvI2U60U6VSnYu8FErnsODo+8822eJ3UNuC5xVNZIvfQW3TxvA32NZ3gNv8hiEFBEAABEAABEAgHAj40TYZhjGZTHfvpcpkc2zbZBim6nkNMc/1jY3NTQPnSbn3H2ZXV9cIfVFdPblrD4fB8G0ft7e3p2fmlpZVgsUuLaumZ5x/ERDcSxMF1UIwkR4SaBte2abJZL734KFUOpWVk6dWa9RqDcc22TNpiWE2t7whkllR+Vwmm+PYZtOr5uiYK+QPLlartay88mjEicNHj2Vk5ZCgPTuDSqU6H3Wpu7s30Biy2yM4+rDNg/JMUi97gDjbB2iY7Ko5rcJHEAABEAABEACBMCHgb9t03rtzbFOlWr12I3FsbIIi5tgmTd/e3n5cWEy8lCZiw3MCa+uavqHxxSUl55DFJWXf0Pja+s4L4QiqhWAip4rA+ei5bfJnxiYmpdCZtIcORxw/eUYmm/N8Jq1Wq4uNi6cncNOr5lOnz4klwzLZXEzc1ZLScoZhVlZUZ89fHBpyPiba3d174WKst0+Z7jNqwdGHbcI22W7J397nsxTVgQAIgAAIgAAIBAiBfbVNMgXx8NFj5ffPHisAACAASURBVBXPrFYrReDKNj98mI27fE2pXKE5seEtgbV1Tf/Q+PzCMj1wfmG53zPVZBhGUC0EE2n5B75hsVgKi0oTk1LIT3TslejYK/RjYVGpxWJx38gnhSXkTyQ0tknmypKjqG26KYQ+pXzq9LmFhUWSkz7MyV5eyG63p2dkp2dkW63W9Izs7Nz8HQPOburdh12Cow/bhG3yDZOdsg9nJqoAARAAARAAARAIQAL7apskyGMyme7cffCsqpriELTN+Xn5xejLff2DNBs2dkdgXa0dEE8Q4ZxfWB4QT6yrnU/SevJPUC0EEz0p7UDyeB7bFFwliMykFbRNfn4S/CTzxtMeZi4uLl2KuUxjm1RByZ9d6GK2I6NjkVHRY+MTFy7GjoyOHQglzysVHH3YJmyT7Zb8bc9PMOQEARAAARAAARAIJQL+tk3h5zY5T2PybXNsfCLqYoxYMhxKrA+wL2qNbkAiHR57NyCRqjU6z1siqBaCiZ6Xuc85PbdNk8mcmJQyJJY8KSy59+DhkFhC1goymcyubPPeg4fk9SekUzQoSsOYorr6i9Fxa2vrVEHJ46BqtUav15MwptFovHYjMT0jmz7huc+IvKpOcPRhm7BNvmGyU7w6x5AZBEAABEAABEAgZAj40TZdrUm7Y2yzf2Aw6mLMzMz7kKEcCB1Ra3SjEzNeqWaQzqTl0PbcNkV19SQOSaTxSWFJRWUVSeHYJnmYs6KyivPGFHZsk6xutba2fjE6jhTS3PLmwqVYqXRqWaHIyX1UVFzqcDhIa8kjo4VFzvVsA/wfbJMzQAfrmaR2TpPYH9nKd4Db7CZhGwRAAARAAARAIHwI+MU26cIqgu/bZC/IyVmXhbx1kzPhEGvSHuDpKKgWgokH2Ej3VXtum7QcYptkfVryACe1TfIGFGKPNPLJOZD9BhTyiOaFi7Eq1Sp7Tdq09EyN5odVmmZm3n97JnJq+h0tKmA3BEc/AGOb5gcPHCrVtsWybbE4VCrzgwe7foGK+7GAbXoise4ZYi8IgAAIgAAIgECoEvC9bYYqqfDsl6BaCCYGLJ+NDbXnq7ySP3+Qv3oMiSX0Lx3UNtnddPPcJjubJ9t/09f4awkGg8GTzAebR3D0A8c2zXfuWIuLnT9VVY7FRWtV1Q8b36Wb79zxVjvdA9+FbbYtP59UD0xpBo1berPdaNranNEO3xs7uYui9ie2eb+Xud/LeGKVrvK4Z4i9IAACIAACIAACoUoAthmqI+ubfgmqhWCib+oLy1LIc5vsdbMCGYPg6AeObdoaG7fX1raNRsfHj5yfbaNxe23N1th44LbZray3OaztipozPf/6Tec/nun513ZFjcq0mD5xfnfC6eaEcaV/O6b/sYr5Y9Unw5xeZWqnmGMvdi+cblqIXSAAAiAAAiAAAiFMALYZwoPrg64JqoVgog8qQxHBQEBw9APHNo2nTtmamhyLi3yldCwu2pqa+Ok7prgfll34Ydvyc7PdaLBpRfM59PAB1esZ7TD96NWGmxbuaJWCGS41Mwo90zbn1Mtrrc7tfDGzZmRef9ilcLppIXaBAAiAAAiAAAiEMAHYZggPrg+6JqgWgok+qAxFBAMBwdEPTNu0v3u31du71dtrf/fOeOpU4NimoElmSi98NHzIlF4Q3Os+0c2JIyiT7hOJag59ZH5b4nTLygnmw4Zz+34vozHvUjjdtBC7QAAEQAAEQAAEQpgAbDOEB9cHXRNUC8FEH1SGIoKBgODowzbd2yB7b4Y0amS9/dbIEXbiN53/eGvkyMh6e4Y0ipPuyUc3J457seTv5ajm548ZiYJp/S7I+fnj3QunmxZiFwiAAAiAAAiAQAgTgG2G8OD6oGuCaiGY6IPKUEQwEBAcfdimJ05I8uwlhumqFjcnDt8n3afki50BzKfjn2bMHnvBzGuYnKFPH/9Sw8xuMJOrzJ+fezel1k0LsQsEQAAEQAAEQCCECexsmzK5kr4VMIRBoGt8Ag6HQyZX8tMFfYOfDSkhSUBw9GGbrjxQMH1GOzygek13ieZzDDat2W5sW35OE73acHOmuXdLwb1Php3CWTrm9Mm0PmZRy5xrcm4T1ZzdcG4IHugm0U0LsQsEQAAEQAAEQCCECexsm0qVWqs3hjACdM0VAa3eqFSp+XvnFlbsdgc/HSkhT8Bud8wtrPC7GZi2udXdbWtstDU2bnV3B9Rzm+kT51WmxU6lKHrg9990/mP0wO97Vxq3tm3dynqvJJNm5o8ITXFjgG52UeFsnWPGVvaqmp8/ps3BBgiAAAiAAAiAQHgR2Nk2LRabTK7U6o2IcIbPqeFwOLR6o0yutFhs/F6vrWtX17UQTj6Z0E6x2x2r69q1dS2/m4Fpm5zFZgNqlaDkkb9OaQZNW5vkfZtTmsFJ9UCAxDaJhaZ0Mbc6nesDVU44bfMPlc5laXcR1SSl8c8ZpIAACIAACIAACIQDgZ1tk2EYi8WmVKllcuXsvAI/4UBAJlcqVWpB1SS/FWvr2rmFlXBAgT5SAnMLK4KqyTBMYNnmixfbBsO2xcL9MRhsL15wFNSTj+6vBDTAeIAbblroJoC5465jLxjxMnPlrdfzZvklu2khdoEACIAACIAACIQwAY9sM4T7j66BAAjsnUBA2aYnAulVHvd8DlAyadVuWsgXvwNJcdNC7AIBEAABEAABEAhhArDNEB5cdA0E9okAbJOK34FsuBnmA3FLfqVuWohdIAACIAACIAACIUwAthnCg4uugcA+EYBtHohk0krdDDNf/A4kxU0LsQsEQAAEQAAEQCCECcA2Q3hw0TUQ2CcCsE0qfgey4WaYD8Qt+ZW6aSF2gQAIgAAIgAAIhDAB2GYIDy66BgL7RAC2eSCSSSt1M8x88TuQFDctxC4QAAEQAAEQAIEQJgDbDOHBRddAYJ8IwDap+B3IhpthPhC35FfqpoXYBQIgAAIgAAIgEMIEYJshPLjoGgjsEwHY5oFIJq3UzTDzxe9AUty0ELtAAARAAARAAARCmABsM4QHF10DgX0iANuk4ncgG26G+UDckl+pmxZiFwiAAAiAAAiAQAgTgG2G8OCiayCwTwT8Z5ums2e9ejemzzObzp51D/Fk168PxDBppSe7fu2mhV8UMXz32+eUL4rcNBC7QAAEQAAEQAAEQpmAR7ZpsdiUKrVMrpydV+AHBEAgDAnI5EqlSm2x2AS/Dv1nm9bSUlNkpM8d0sMCTZGR1tJSwS7TxKKZxNO9v6Hut88bp3t/UzSTSBvD30juZL4sOUjh/LKESe7ktwspIAACIAACIAACYUFgZ9u0WGwyuVKrNzocjrBAgk6CAAjwCDgcDq3eKJMrBYXTf7bJMIxTOA8iwmk6e3ZH1SScimYSDyTCebLr1+5VkzQvuZM5qAjnF0VQTd7vEhJAAARAAARAIJwI7GybSpVaqzeGExP0FQRAQJiAVm9UqtT8fX61TX51SAEBEAABEAABEAABEAgKAjvbpkyuRFQzKMYSjQQBfxNwOBwyuZJfC2yTzwQpIAACIAACIAACIAACO9vm7LwCmEAABECAEBD8QoBt4vQAARAAARAAARAAARDgE4Bt8pkgBQRAwCUB2KZLNNgBAiAAAiAAAiAAAiDw9wRgm3/PA59AAATcEoBtusWDnSAAAiAAAiAAAiAAAj8QgG3+wAJbIBBEBBwOx+T0TENTS1VNfVVNffObdoVixav26/TG+cUV929zmV9c0f39ImGwTa8gIzMIgAAIgAAIgAAIhDMB2KZ3o7+1tSUZHpmamt7e3vbuSOQGAd8RMBiMTc2tL1+9WVj8aLVaTSbzuHSqWtTQ3TuwtbXlYT3ziyuCrzNhH26x2OYX/05iYZtsPtgGARAAARAAARAAARBwQ8Avtrm8rLiekPT1kW9On43q6e3bZzGTyeaOnzxz6HDE8ZNnZLI5duetVtvd+2kXLsVubAi8xYGdk2EYUV29qK6ek7i1tTU+IX03834Xndra2npa8Szi2KnDR49lZOUYjR69V0at1sRducbpCKdV+BhWBLa2tl41t/b0DXIWiyYK2jcg9pCGoDfyj+Vk43wk+bFKEJ8bUkAABEAABEAABEAABHxvm1ar9fbdB02vXjtfljA3HxN3dWFhcf9BC0raxoY65c79xKSUsfGJHZskaJs7HuUmQ3d375X4GyrVqtVqzc7Jf1ZV7SYz3SXYEboXG2FIYPrd+6bXby1WK7/vyhVVXcMr1eoafxc/RdAbd8wmeBRsk88NKSAAAiAAAiAAAiAAAr63TbVaczMxeX1jgwPXaDRmZOUcPnrsaMSJ8opnZL6fqK6+/Gnl3Xuph48eu33nvk6nYxhma2urvOLZ0YgT7BigyWS+9+Dhi/rGc5EX2SVMTk5Fx1w5dDji9Nmo4eFRWqmgpI2NT+Q/etzc8qamto7k3N7eft385vjJ04ePHktLz9RoNCSqeehwBP2hMVJRXT1JzMrJI4cbDIabSSlT0+/Ix86u7pQ7961Wq2AXRHX1tN4hsYQU4qpfU1PTpKclpU8vX71OYpuCDGWyudt3Hzz9jhgHAqWBjVAi0NrePS6dctWj1o5u6eSnE9JVHpIu6I38QzjZOB9JftgmnxtSQAAEQAAEQAAEQAAE/GKbiUkparVT29j/nlVVP0jLMJvNm5uGm4nJ3d29xOuu3UhUKlfMZvPde6lk5urfdsVfv6lWa9gxQJPJnJxyt7CoxGq1KhTKuCvXZmbeb24a7qc+FEuGHQ7H2NhEdMwVlUpFKhW0zacVzzq7uj/MytIzsq1WG8MwMzPv465cUyiUVqs1N7+gqLiUTpF1FdsU1dVT22QY5llV9dOKZwzD2O321LSM5pa3DMMIdoFdINs2+f0yGo03EpLetrbZ7Y7+gcGoizHENgUZymRzURdj+gec8yq7untuJiZ7OEeXPTrYDhYC29vbb9s65a7nC/T2D/X2D3nSHUFv5B/Iycb5SPLDNvnckAICIAACIAACIAACIOBH28zKyWM/PJmVk9c/MEiIU+9imxvddhUDTExKGRJLGIbZ3t7OyMoh23QIOXrJ+cgwjNVqy8zKnZfLdTr97Tv3SfS1oeElVUer1abX6721zZmZ94lJKQaDQaVSXb2WsLT0kVg0P4xJe80wDNs2+f1ix4fZHRFkKJPNxV25RvR+fWPjZmIyX/UpJWyEAIGWtx3vZmZddaSnb7Dfs0c3Bb2RXywnG+cjyQ/b5HNDCgiAAAiAAAiAAAiAgB9tk2EYMk2UxOWIfNLpqSSMSQ2TGBoRPzphlT1t1WQyUyujw7a1tVUrehFx7BTJSae8MgzDljSSf2VFdfbcBZLzyF+Pk0c32Q2gxZINthyyd3EOMRqNScl3pqbfDQ1J0tIz7XY7fy4u7RdddkjQNmktarWGxofZHRFkyLZNWgI2QpjAwNBwV0+/YActVmvT67eyObngXk6ioDdy8jAMw8nG+Ujywzb53JACAiAAAiAAAiAAAiDgF9ukz22aTKa791KpbdLYJuXONje6zY5t0pyCtjkvl8dfv6lQKPl6yZY0UsjQkCT/0WOy3dDwkkx/3Xtsk0ymLa94lp2b39nVTcoX7AI7cUfbpAzZHWHHNikZ2CZFESYbqtW1uoZXypVPk8bZvR4bn3S1gBA7G9kW9MYdswkeBdvkc0MKCIAACIAACIAACICA722TPHPY9Oq13e4YHBLHX7+p0WqJkmXn5FutVrPZ/KK+cWzMuSosNUz2dnd3783E5M1Nw9bWVlt7Z1t7JwmT8mObMtnc1WsJCoXS4XD09vXT5xsZhtFotbGX4yekk3SMn1Y8a2h4ST6OjU/cT31otdo4z20+LiymM2kbGl4+KijkvGSC3U5askw2dyX+xtVrCSvfC4BgF+iatGazOSs7j6xJK2jRbIac5zb5DGGbdCDCZ2NcOlUjalxcWqZddjgcI2PSyuei0XEpTXS/IeiN/EM42TgfSX7YJp8bUkAABEAABEAABEAABHxvmwzDzM/LY+Pivz7yTeSFmImJT/e+7PVUi4pLzWYzx9yoebIXdKXrxApaGc15/ORpUV393ftpJI5Knu18/bqFTLKNjIpWKFaSU+7SF5/8TQvjv5NDwTVpyWmxurp2Jf7GocMRkVHRarWGNIDOBD50OII+8El2paZlkGm0nGV1aRcE37cp2C+GYeiatE8rnt2++4D0S5AhbDM8f43ff5irETVWixpa3nY0v2mvqql/+frt+w8yUX3T5PSMJ0wEvZF/ICcb5+P3vywuffOj3KNpvfx6kQICIAACIAACIAACIBDsBPxim8EOBe0HgaAgsL29vaHWTE69m575oNPpSZuVKyoPhVPQG/kd52TjfCT5Xbrm6urebTO5k/miiPn8cSj/fFHEJDvncOAfCIAACIAACIAACIQUAdhmSA0nOgMCDMMQ4dxxraD5xRWLxfkeIDf/LBbb/OIKO8M+22ZyJ/NlSSh7JrXoL0sgnOwTDdsgAAIgAAIgAAKhQAC2GQqjiD6AAIeA2WzZ2triJHI+6vTG+cWV2XmFm5/5xRWd3sg+cJ9tM+SjmtQ2P3/sDOHiHwiAAAiAAAiAAAiEEgHYZiiNJvoCAn4nsM+2yZaxcNj2+/ihAhAAARAAARAAARDYRwKwzX2EjapAIPgJwDb9Kr3Bf4KgByAAAiAAAiAAAiDwAwHY5g8ssAUCILAjAdgmbHPHkwQZQAAEQAAEQAAEQIAQ2Nk2ZXLn2yzBCwRAAAQcDodMruRz8N+atH5VuwAsnM8WKSAAAiAAAiAAAiAQvAR2tk2lSq39+2VCgre3aDkIgMBeCGj1RqVKzS8BtukrceWzRQoIgAAIgAAIgAAIBC+BnW3TYrHJ5Eqt3ogIZ/AOM1oOAnsk4HA4tHqjTK4UfGkKbBO2uccTDIeDAAiAAAiAAAiEJIGdbZNhGIvFplSpZXKlmzclYBcIgEAIE5DJlUqVWlA1GYYJVduUKBi5Zl/f9hmSlxl0CgRAAARAAARAIGwJeGSbYUsHHQcBEPCEQODYZuMMY7QxSR3OH6ON23ay6/PHzLkmp0YmdexgkkkdzJqRm42U3Djz6ViSp2iEWx2ty6uwJ7fF+AwCIAACIAACIAACwUwAthnMo4e2g0BgEAgc2/z8MVM0wmjNPyhi44xAfJJjm0UjzBZrKbTGGUai+DuyRhvTs/gphaORcg1DzdMrsRTM/He14gMIgAAIgAAIgAAIBDkB2GaQDyCaDwIBQCCgbJNjcXwb5JikXOMUVIXeGfD8/LHTMxtn/i74KVF8SuTPqpVrnLs4Ne7lYwAMJpoAAiAAAiAAAiAAAj4jANv0GUoUBAJhSyBwbJPqn1wjMBo0LEmnyBaNMO/XBWyTxEgVeub5pDPD54+dCsqxTWKhnz/+VMJeJJMeK9BoJIEACIAACIAACIBA0BKAbQbt0KHhIBAwBALHNj9/7HRCGm8k23xRdG+b/UvOxzU5/zj6umb8IRZKFhPi5GcYrp1SpXSzwS8EKSAAAiAAAiAAAiAQvARgm8E7dmg5CAQKgYCyTeJyZC0fqp0ShVMgyVzZzx87n+oky/+QRzT5M2lpIXLNp6OospJYKMnAeUaUJNKYJ/no1X8DZUTRDhAAARAAARAAARDwBQHYpi8oogwQCG8CAWWbcg0jVTlXiC0a+eE5TDIzdsvxaUUfqpeubJPzbCdZJYjMpKW2SdYWorNzqVXCNsP7twG9BwEQAAEQAAEQ+IEAbPMHFtgCARDYHYHAsc1zTc71fqhnEvGTqpyJCv0Pi8fSQKUr2yRBSyKlCr0zFkodktrm+3VngfxXpNCc1D8939gdfxwFAiAAAiAAAiAAAoFJALYZmOOCVoFAMBEIHNtM6nA+LXmu6Ye5shIF83bOqZo9iz+8GYUuVCtom/1Ln5SVlJY54CyTLF3LWROIzshl+yRsM5jOXbQVBEAABEAABEDAnwRgm/6ki7JBIDwIBI5tkjVmyYtMyEOb5I0mxADJf0lAkr7vRKJwxkI579sk9kjdlc68hW2GxxmNXoIACIAACIAACPiGAGzTNxxRCgiEM4HAsU12XLFxxjkmW45PE2uJQNKptuy9bJmk79sky9KSZzVpLNSNbZJ1ifg1ssOeO26H81mEvoMACIAACIAACIQeAdhm6I0pegQC+00gcGxzR50L8Az7PXKoDwRAAARAAARAAAT8SQC26U+6KBsEwoMAbNNXEhse5wt6CQIgAAIgAAIgEC4EYJvhMtLoJwj4jwBsE7bpv7MLJYMACIAACIAACAQvAdhm8I4dWg4CgUIAtgnbDJRzEe0AARAAARAAARAIJAI726YU/0AABEDg7wlwvsRgm7BNzimBjyAAAiAAAiAAAiDAMAxs8+9vovEJBEDAAwKcb0/YJmyTc0rgIwiAAAiAAAiAAAjANj24rUYWEAABHgHOtydsE7bJOSXwEQRAAARAAARAAARgm7ybaCSAAAh4QIDz7QnbhG1yTgl8BAEQAAEQAAEQAAHYpge31cgCAiDAI8D59vSfbX5RxPhK5AK/nC+KOFzxEQRAAARAAARAAASCmwCe2+TdR3uWMDY2VlMjqqkRjY2NeXYEcoFA6BDgfO35zzaTO5kvS8JCOL8sYZI7OVzxEQRAAARAAARAAASCm8DubbOx8WVkVPTXR7755vip7Jz8QJCuvPyCQ4cjyE9NrYh/a/+ivuHw0WPx1xJGRz1VxFspd26l3OEXNTo6mpdfkJWdK5FI+Hs9T+nv709MSjny1+NfH/nm2o3E3r4+z4+VSqWumudVIcgMAt4S4Hzt+c82GcbpYCEf4fyiCKrJOafwEQRAAARAAARAIBQI7NI2u7u7vz1zPiMzp7evr7Gx6cy5qILHhd7esPo8v0Qy3N8/0NXVHR17RdA2MzKzL1+9HnUxxnOp86vOjY+PJyalxMZdbW/vaG/vuH4j8dqNxNHRUc/J+LV5njcDOcONAOfLz6+2yakLH0EABEAABEAABEAABIKFwC5ts6ZWdCk6TiwWk5tskehFQcETEt4cHh5+kJZ+NOLE10e+iYyKbm55Q/LU1IpOn4ksKS0/duL0kb8ef5D6cHh4mOxix/firlzr7u4h6S0tb749c764pOx85KWvj3wTG3eVWOLExMSzquenTp87dDjiu8hqHtvQJJLhuMvxfNt0pl+5VlZeERN75UV9A6lCKpU6G5z6kEQXae2kEBopJRskyMneFXc5XiL51IvW1rbTZyJfvXpNSibZsrJzyUcaCj4acSI9M5s0uL9/4FzkxZdNr0ie5pY3Z85Gtbd3SKVSV32XSqUi0YsTp85+feSb23fup9y5R0Ovrsj39w+cPhNZWFQSG3f16yPfnI+89PZtK+0+NkBgFwQ4X3CwTQ4QfAQBEAABEAABEAABENj9KkE1tSK2aLHvVrOyc2Nir7xtbe3t68vIzDl7/mJPT69UKq2pFR0+euzO3fs9Pb21orrjJ08/KSyWSqUkvpeYlNLR2dnT05uUfJuW3NLy5vjJM/HXEkjoLzbuamJSyvj4+KtXr789c/5Z1fP+/oHXzS1nzkUVl5TSNhDN49tme3tH1MWYrq7u5Nt3MzKzSf6JiYkHqQ/PnI163dxCar8Uc1kikUxMTAwNDfX3D9xMTL6ZmNzfP9DfPyAWOyfN0l3lTytoU6VS6ejoWPy1BKqXLS1vTp0+T+Szu7v7zLmoJ4XFvX19zgafjcrLL5BKpf39A1EXY1q+F3JimOSjq763t3ecOv0pqlwrqrsUc5napivyxDYvRcdx+kiJYQMEvCXA+faEbXKA4CMIgAAIgAAIgAAIgIDvbZOY3vPqGnLz2t8/cPb8BRJIrKkVnfr2XFdXN9lFg3L9/QORF34Igba0vDl7/gKN75389iwN/T2vrjlzNqp/YIBzZ8yZTerKNisqn125en14ZKSi8hm1RLFYfCk6rqLyGW1wRmYODa66fzCSr9zFJWVEVqVSaV5+Aa2lplYUGxdPY7l5+QXk2VH3tinY95pa0fmoS4ODQ8R7k5JvsyOuguSJbdI+Nre8OX0m8m0rwpuc8wgfvSDA+faEbXKA4CMIgAAIgAAIgAAIgIAPbJMuzEPMipgeZwIqCTOSmbT9/Z9cMS+/gGgScSH2IRHHTtH43rdnztPQX19fv0j0YnR0dGxsLCMz+2jECXoUje9JpVJB25yYmKAhTbbQktr5gVB6381RWZpOorXUJ0l6V5czhvmy6dXo6OjVawkkgEly0qaSDXKge9sU7DtHcWnz3JDn9HFoSFwrqhsa+jQLmt0jbIOAhwQ4356wTQ4QfAQBEAABEAABEAABEPCBbZKFeTIyc9i2Wf60gkw9Jf8lC8C6sc3IC9EvXtT/cMjAAHkElD2zlH0TXFpWfvps1OvXzeSQm4nJO9rm4ODQ+ahLVPm+PvJNTY1z0VqOibFrIdtU5/i7OOJHZwVnZGa3tradi7zY2tpGjqqpFUXHXunq6qZ9HBoampiY8Nw2ae2cSmnziG0Kkt+xj7RwbICAhwQ4356wTQ4QfAQBEAABEAABEAABENiTbbJXCcrNe0SmhhLnIQ9kcm5b3djm2fMX6l7Uc/LTlXJobJNmoIrFmU1KMgjGNl82vTpzLqq5uYX4XtKt2w9SH0qlUt/OpJVKpZWVVZdiLuflF1x1vmfl0+qyzumvkZf4c4B3XCWI33f3M2kFycM26ZmDDV8R4Hx7wjY5QPARBEAABEAABEAABEBg97bJfQPKWecSOORGNis7lyy609vXl5dfcOZcVHe381lNV7bJfgtIT0/v3XupMbFXyEssXcU2i0vKTp+JfP26ubev70lh8fnIS+zYJlmt50Fqem9fH13aJy+/gDy0SRrpfMDyuzV1ySpB56MutbS8Ya8SRG/KCwqexMbFd3Z19fcPkOVnx8bG+geciwaVP634FLH8PhgrlUr7+vqjLsZ8e+Y8BSKVStm4WlreRF2MIYsJsfvOeQOKq75zg0Y9OAAAIABJREFUVgk6F3mR9t0VedgmHU1s+IoA59sTtskBgo8gAAIgAAIgAAIgAAK7t02pVEpf6cF5BwnnPRyNjS/JDa4r2/xuOmt/YlIKeQdJbNzVjo5Ocogr4xoeHr595/6Rvx4/8tfj6ZnZObn51LjIgW/ftp6P/DRv9lbKHeKfdB1aqVTa/N2CsSRyKPgGFHpT3tvXR14ccuhwBHkOs6XlTcSxU3RS7qHDEfRBUxJrTb599/jJM2ShI1oOxXU04sSDtHS6YhD77S83k5L7+/vd9539BpSk5NvpGVm0767IwzbpKGDDVwQ4356wTQ4QfAQBEAABEAABEAABENiTbfrqthXlgAAIBB0BzrcnbJMDBB9BAARAAARAAARAAARgm0F3k48Gg0BAEOB8e8I2OUDwEQRAAARAAARAAARAALYZEDfuaAQIBB0BzrcnbJMDBB9BAARAAARAAARAAARgm0F3k48Gg0BAEOB8e8I2OUDwEQRAAARAAARAAARAALYZEDfuaAQIBB0BzrcnbJMDBB9BAARAAARAAARAAARgm0F3k48Gg0BAEOB8e8I2OUDwEQRAAARAAARAAARAwCPbBCYQAAEQcE8AtumeD/aCAAiAAAiAAAiAQHgS+AfabeOPfsT+oenYAAEQAAH3BGCb7vlgLwiAAAiAAAiAAAiEJwHYZniOO3oNAr4kANv0JU2UBQIgAAIgAAIgAAKhQgC2GSojiX6AwMER8Kttbhqt6xoTfkAABEAABEAABEAABIKOAGzz4O7QUTMIhAoB/9nmptFqsW6FCif0AwRAAARAAARAAATCiwBsM7zGG70FAX8Q8J9trmtM/mgwygQBEAABEAABEAABENgHArDNfYCMKkAgxAnANkN8gNE9EAABEAABEAABENgVAdjmrrDhIBAAARYB2CYLBjZBAARAAARAAARAAAQ+EYBt4lQAARDYKwHY5l4J4ngQAAEQAAEQAAEQCEUCsM1QHFX0CQT2lwBsc395ozYQAAEQAAEQAAEQCA4CsM3gGCe0EgQCmQBsM5BHB20DARAAARAAARAAgYMiANs8KPKoFwRChwBsM3TGEj0BARAAARAAARAAAd8RgG36jiVKAoFwJQDbDNeRR79BAARAAARAAARAwB0B2KY7OtgHAiDgCQHYpieUkAcEQAAEQAAEQAAEwo0AbDPcRhz9BQHfE4Bt+p4pSgQBEAABEAABEACB4CcA2wz+MUQPQOCgCcA2D3oEUD8IgAAIgAAIhDgBi8WmVKllcuXsvAI/QUQAthniv5noHgjsAwHY5j5ARhUgAAIgAAIgELYELBabTK7U6o0OhyNsIQRpx2GbQTpwaDYIBBAB2GYADQaaAgIgAAIgAAIhR0CpUmv1xpDrVlh0CLYZFsOMToKAXwnANv2KF4WDAAiAAAiAQJgTkMmViGoG6TkA2wzSgUOzQSCACMA2A2gw0BQQAAEQAAEQCDkCs/OKkOtTuHQIthkuI41+goD/CISSbQbjn06Dsc3+Oxv5JcsXFfJF3KbwwYRgCsY6BAcVXQKB7wgEl20ajKZBifTjsgqjxzAMbBOnAQiAwF4JhIZtzryfLSgsm5ic3iuOfT9evrCU/7ikf1ASjNopX1jKzCkg2NfWNnIfFTW8bPYhQvmior1b3N4thnD6kCq7qMamloLCMv3mJsMwdru9qvpFxbNam83GzkO2yVinpuempue2d/bwM+wxBWO9R4A4HAQCmYCgbX5cVg2PvaPNNhhN/UPjnb0SvuZNTM2KR6ZoTv6GeGRqYmqWnS4emZqdX6IpE1Oz7I8MwxiMJvHIlFqjo3nYG7PzS/1D4wajiZ3IMMzs/BKtaHZ+qXdgrH9onN9getTE1CzNTxODawO2GVzjhdaCQCASOEDb1Gp1eQXF5P41NT03M6dAvrBkNltKnz4nielZj163tFmtAve+bJRDkpH0rEeVz0XrG2qGYWrrGmmZntwcT0xOk6rZZXK2fXWrPTw6nplTwK7OYDA2vX6bnvWovvH1lt3OqTfAP7Jts6dvMCO7YG5+wVdtpvoB4fQVUn45E9LpzJzHcvkiwzD6zc2CwjJXJmkwGMcnpvoHJVm5T1zl4ZfvYQrG2kNQyAYCQUpA0DbZ5jYxNUs8U63RdfeNcMyQYZgdtU08MkX9kCOfVCw/Lqs6eyWdvZJBiZRcWdq7xd19I2qNbnZ+iaYIbpAmkTYTMe7uG1lZ3RiUSElp7PYLltDeLRZ06QAfU9hmgA8QmgcCQUDgAG3TarVNTs20d/akZz161dw6PjFlMBiJbZaWV42OSV+3tD3MzHd/a0tCao1NLTQ2OC9fGB2TvmpuTc961N7ZMzomVShX3IyEJ7bpk1tt0qTS8iq2bZKGiSWj6VmPpt99cNPOANxFbdNoMhWXVj6vqSfCrNXpntfUp2XkPczMf9XcarXaSIaq6hf274y6p28wK/fJskLpqlMc/SBXbkQ4XeHadbpCuZKd90Q8PMYwjFy+mJX75N2M8yRkj+CLhtdG06c/8JO/ELF/JWvrGkufPjebLeQPPXR7ZHQiO68wNT23oLCM2KyrRmKsXZFBOgiEDAG+bfYPjbOVrHdgjH7s7hvpHxqn6kgguJrdSsSPHsvZICZJJLO9WzwxNavW6MQjUwajiSjoyuoGiXCy1ZePfWJqdvr9PG0zDWmyWzU89o4f5NxRkvl1BVoKbDPQRgTtAYHgI3CAtklgUWMhH4lt1tY10ql9ZRXVFqvVFVnx8Bhf3px/B+VFLN9/kBUUlqWm52bnFY6MTjhvr7+bCMoOhJJ6LRbLy1dvHmbmp2XkVVaJ1GoNqZ1/q03Su3r607MeTUh3mMfb2t718aOis7uP32ASVmpsanHVzcBMp2M3NT2TnvVoanqGjFp1bUNW7pPevsHvOvu4r3+IYZievsHsvCcK5YrVantaWeNqxqZzXL6fQMu5b8CUWp+fBuTXra6+iWEY8fBYXkGJWqO12+3VtQ15j4r7B8QdXb0Z2QVvWjtI1fxfAUHbnJtfyMguqKp+MTw6XvGs9nFhuU6nF2w8xloQCxJBIMQI8G2TeFrvwBjf0AT7TmKe7ufTcma60nLY02gnpmanZua6+0bY1xdqtuKRKXY62WZPhWXHNtu7xUQ7x6TvadzSwxgpbVvgb8A2A3+M0EIQCHQCgWybnGiJIMr2zp68gmKtlvvoBcc2SQi0uOzZ8Oi46EUTmfNJIpbsKOi83DkR9E1rR2ZOQWd3X1//UG5+UXVtA4nI8W+1SZOaXr9Ny8gbGJQItpCT2N7Zw7dNtmNz8gfyR7auPyl+umkw0AmZzW/aSMtrRI0kpLmsUGblPukbEJMNEk8L5N6FSdua37SVlFeZzea6+iYafKZ955yZ/F8BQdvsGxDn5Betra2TkGl2XuGsbJ6WiQ0QAIFwI8C3zY/LKvHIFFmMZ2JqlngdtT62HxJWs/NLZM6qezsVDFGOSd939krau8XDY+9IYJM+t0ljm4IjMjE1S6KjdC+1TdJyfmyTNkCt0fUPjZPnQtUaHXkElN8vWnLAbsA2A3Zo0DAQCBoCYWKb72Y+ZOYUkFtetVqT+6iIzgbkeCln5Ng30/xbbZLZ4XAYjZ6+tzr0bHNIMtI/IH6YmU9im4QSO2JMZleSiNnTypqOzl6qIhza+Lj/BCak09l5hbK5+aKSCvpLIRkey8guoINIYv7OGbbfPWtNs3H+HkR/Wdo7e+ixZCMYV/Da/7FAjSAQqgT4tjkxNTsmfU9tk85xnZmVk9mn7Ec3yXTZ2fml2fklTniTmio/JklSSH6ieSTw2N03Mjz2jubn+CQdAr5qktgpCWmyp/6SotjPZHJa1d03ErxPgsA26SmBDRAAgV0SCBPbZCsl546ZvYtA/DA7l/uoiN4u00fROAfujnjo2ebE5PSmwVBUWllZJbJabWRW8KvmVq1WR342N50xT4ZhpqZn8gqKi0oqaLhYkCFmVwpi8VPi2tp6bn5Ra3tXXkEx+XOMTqfPf1xSVV23olpVra4Vl1a6sc3Gppaikgry15Ya0adnOElsc2HxIz0HBNe5xaxpP40pigWBQCPAt006Z5W9Zk//0LigbdIVYtmxRH4fiZRydNT5mMD382NJsJE8qMl+blOxskqfyaQWytnoHRzrG3Q+XMqeWOumPR+XVb0DYyS2SSyX7c/8xgdsCmwzYIcGDQOBoCEQyLZJXsng/rnNzu4+wUAZxyE9j21arNayiuqikoqlpWWtVldV82JH2/RFbNNcUl5F7+mD5eyhz22SxzIzsgs+zM6xn/rrHxAXlVS0dXSTHhERTcvIGx4Zd99HQeEM3r8Nu+/swe4lc2ULSyoeF5aTV6EQ2yyvrB4eHW9r785/XELPTDKCZBdZ1mt4ZJysHd373cpPTa/fMgxDntsUvWgaHZPWN74uKq0ks2oFe4qxFsSCRBAIJQJ82yRzWT2JbXJWqeWHNyko8qIUEgKliWSDxDYnpmaHx94NSqTsyCQ7JkmPclULnUnLt1NquXRRIo6v0mc7aS1BsQHbDIphQiNBIKAJHKBt+mRNWnJfK5aMcihzbFPwuU1yyKxsPiO7oLGpZXRMOi9fILZZUFgmHh7r6ukvKqmgtsm/1SYlePjcJlkst0bUSBbLnZyaoS93+TA7l5Fd0Dcg5vQiwD+ybVOn0xcUlpFlaV2taMowTMPLZrIUzY5d40gIVHNHYrvO0PymLTU9l/3QZm//UEZ2AVkRurq2gdomwzDjE5Nkki15/HjLbidrR6dl5D2vqdfqPj1BTdekzX9cMv3uvfu2Yazd88FeEAh2Aq5skzgbdT/B2CbndSYkVskOMBI4NP5JMnACiWRxIDI5lhxLX4siyNa9bRJV7h8aJ7WoNTpXyx25Kkew0sBMhG0G5rigVSAQTAQO0DY5D/iRm1cSaSGzWD153+aW3f6i4VVW7pPJqRn6EhQP16Ql47Rlt79qbk3LyEtNzyV31ZNTM9l5hWkZeXUNr960dlDb5N9qkxI8XJOW8yJQurjR4tJy/uMSN+t2BtP55LatRqOxqKRC9OKl21w/7KQSAtX8AUqIbmGsQ3Rg0S0QcBLg2ybxTBJXJA9q0neTkLdrzs4vuZoZS9KpcAouVysemWI/kEne5ylfVPQPjZNK92ibZFzJHF12RSSdPvNJbJNEO2nwM7jOCdhmcI0XWgsCgUjgAG3TVziMJlN1rfPtjsG4EgkJDxaXPVtb3/AVkIAth/2iFA8bKV9UQDU9ZBXs2TDWwT6CaD8IuCLAt03OTNpBibSzVyIemSKPOBIh5Ec1aflUODlWSTMwDMO20OGxd0Q1Z+eXSDp7mitdC5f9kCcnOkocmDy3SR8EJQJJP/YPjQ9KpCQPXSiIlkO6FnTOCdtkn1TYBgEQ2A2BELBN0m2FYsXNs2G7QbMvx2i1uoXFj+yo7L5Ui0pAAARAAARAYJ8ICNrmPtWNavZGALa5N344GgRAgGFCxjYxmCAAAiAAAiAAAgFIALYZgIPiYZNgmx6CQjYQAAGXBGCbLtFgBwiAAAiAAAiAwJ4JwDb3jPDACoBtHhh6VAwCIUMAthkyQ4mOgAAIgAAIgEAAEpDJlXhgJADHxZMmwTY9oYQ8IAAC7gjANt3RwT4QAAEQAAEQAIG9EVCq1Fq9cW9l4OiDIQDbPBjuqBUEQokAbDOURhN9AQEQAAEQAIFAI2Cx2GRypVZvRIQz0IZmx/bANndEhAwgAAI7EIBt7gAIu0EABEAABEAABPZGwGKxKVVqmVw5O6/ATxARgG3u7cTH0SAAAliTFucACIAACIAACIAACICAEAHYphAVpIEACHhDALFNb2ghLwiAAAiAAAiAAAiECwHYZriMNPoJAv4jANv0H1uUDAIgAAIgAAIgAALBSwC2Gbxjh5aDQKAQgG0GykigHSAAAiAAAiAAAiAQSARgm4E0GmgLCAQnAdhmcI4bWg0CIAACIAACIAAC/iUA2/QvX5QOAuFAALYZDqOMPoIACIAACIAACICAtwRgm94SQ34QAAEuAdgmlwg+gwAIgAAIgAAIgAAIMAxsE2cBCIDAXgnANvdKEMeDAAiAAAiAAAiAQCgSgG2G4qiiTyCwvwRgm/vLG7WBAAiAAAiAAAiAQHAQgG0GxzihlSAQyARgm4E8OmgbCIAACIAACIAACBwUAdjmQZFHvSAQOgRgm6EzlugJCIAACIAACIAACPiOAGzTdyxREgiEKwG/2uaa2ogfEAABEAABEAABEACBYCQA2wxXP0C/QcB3BPxqm0azDT8gAAIgAAIgAAIgAALBSAC26bs7bpQEAuFKALYZjN/+aDMIgAAIgAAIgAAI+JsAbDNc/QD9BgHfEYBt+vubGuWDAAiAAAiAAAiAQDASgG367o4bJYFAuBKAbQbjtz/aDAIgAAIgAAIgAAL+JgDbDFc/QL9BwHcEYJv+/qZG+SAAAiAAAiAAAiAQjARgm76740ZJIBCuBGCbwfjtjzaDAAiAAAiAAAiAgL8JwDbD1Q/QbxDwHQHYpr+/qVE+CIAACIAACIAACAQjAdim7+64URIIhCsB2GYwfvujzSAAAiAAAiAAAiDgbwKwzXD1A/QbBHxHALbp729qlA8CIAACIAACIAACwUgAtum7O26UBALhSgC2GYzf/mgzCPiQQFW16NDhiEOHI6qqRexidZum4tKKoxEnOOnsPNgGARDYHYGm12/6+iW7OxZHgcC+EYBthqsfoN8g4DsCsM19+8pGRa4ILCwp37R2rKxuuMqAdL8SqKoWpWfm8KuYfj97JT5Bvqjg7/J5yvTMbHtXn1qj93nJKBAEApNAemZOuP0dJ3fQ8W9lDPn5Q8V2rdRuMNv8MTotH+znmrYnFVs+L/zlOzvtwst3dp+XH4AFwjZ9d8eNkkAgXAkcrG1qdIbyiurDR4+F20U3AK8ou27SoHgk4tgpT0ZwQ62/fS9tcvo9p66FJWVnT//ubHNdrX2Ynn004sTRiBPFpRW6TROncMGPrvxKMHPIJ7qiMTE1k3I3dUP9gwGS++PuvsGEm8kkncZFj0acKCp5qtEZdofr3Ye5nv6h3dnmxNTMpejLhw5HXIq+PDE142EDdrzX53fWVcmT0+9jLsfL5hcTbiZ39w0azbYNtT7hZjKJGJP/cny+5W1H4q0762qt0WxTa/QFT4rJOfwwPZskTk6/P3byDC2BHj49Mxsde/XrI998eyaKRMZc1aXbNJWUVkQcO3X46LG09Cw3dRnNtuGR8UvRl78+8k107NXpmVl+F85HXlpWrhnNNsHfOMG66LlBekHIfFeyLj0z5+sj39AUo9nG75fRbDOYrINDI9+eiaTnm9FsE6yru2+QsmJH6fv6JWfPXyDnBumX0WwTvO543q9No+VFQ9Oxk6cPHz2Wmpa5uq4hJ4ZgXYL9Ivn5Z+C797JL0ZcpanY29i+d5+eh0WzjjIInX9Suyt97+oMeR430k6HNrm3976fbqT0OvdHHwrmis0U2bb+asX/bsH2lxaHQ7rV8g9m2sLE1u+b8KRq2Fw3b2Ruza1sLG1u+1Wb5xpZ4yfeqvLsRhG2Gqx+g3yDgOwIHaJsanfFBakZ6Zk7K3dSDvQTu7isYRxECVdWi+6np91PTNTqjeyaubNP9Ue73lj2tSr59f0OtW13X3Ei41drW5T4/2evKrzw5NvTyuKIxOf0+5c6DDbWOdpkvYPTY1XXNzaTbLxqaaOb92VCtq6/G32zr6N40Wto6uq/G31Stqz2pmn+vzzmK31lOBvrRlW1Smyp7WlX2tIrmly8qrsbfnHr3gaSUPa26n5ZOzmE+w3W19n5aeo2onpjeteuJLxpebhoto+OT0XFX5YvLxDb5dbW2dcVdvS5fVGh0hozMXNIAwboUqrXYK9faOrr1BsuLhpfXrieuq7WuflsFf+ME66L9nZ6Zjbt6nfTXOV7Xbj4pKr1y9QZt87pay++X0Wx71dwaHXu1vKKabZuCdXX3DVIhp/XKF5cvRV/u6h3YNFretnXeSLi1rtYKXncMJmvBk+LMnHyNzrCh1qXcedD0+o3RbGt4+Tox6fbqukajMxQ8KX5SVGo02yTD4zFx8fPyjxqdITMnnyQK1uWqX6SFnDNweGQ88kJ0xbOa6LirROzZ2fZim4FzeeXY5rmX23e6HJeaHSr9XoWQDrrRbCsetv97OdM0Y9cbbddaHcXDe41AruttaT2OP1Rsn6zfvtTsbDD9OVm//YeK7bQex/qeu6A32jSGTxzyBh15gw61weZbiWVT8nwbtum7O26UBALhSuBgbXNufslgsnIuup5/CSLngRPQ6IxpD7P6BiS3Uu4tKVSkPfR5v6MRJwqeFKs1en74hdw+LivXzkdeOnQ44tjJMzTm+aa1496Dh3qD2Wi2rW1orl1P7B8cJtEPEsKiUR2j2ZaemdPR3UfqraoWkfuqyen3t27fL/numUOaWaMzZOU8Onz0WNzV63mPntB7075+ybdnojjRj/TMnOc1ddFxV9lxoSWF6kbCra+PfMNOPPAh2HsDqDFyiiISxbnxrRXVs2Oe7GM7uvvcUB0Zk964mby24QwE6Q3mew8eEjWlQTx2SMdgsta/fE3CR/fT0hUrzqgaPa/Y/NmN1OgMg0MjJNb0YVYee+UaOwZoNNtWVtdvpdw7fPRYyp0Hd+8/JGeLYLHk1OJ0lvB51dx67OTp4ZFximty+v3lqzeWlWtp6VnEoPQGs2R4/KNi1Wi2KVRrNxJuzXyYI/n1BnNO/uNnz0UGk5WkjE++W1hSkm02T9Ll7NxH2bmPSNB+WeksivyiURt0VVdVtaiyqpYUS2VMsC42Q7pNyycl0P8K/sYJ1kUOWVhSxsTFt3d9+iXdUOv5hizYL6PZJptf1OgMHNESrIt2kLbTaLax/1yyrFxLuJm8rFzT6Iz86w7H2Ns7esiZzL42jU1MfffHFz17jD4qViXD43qDWbAuV/0ijWQXbjTblhSq1XUN5U87kp6ZI3ge0gx0g38ektgm3zarqkXFJU9T7jw4fPTYrZR7K6vrtBC/bnBs8z8qtv+tjPnXQuZQzbZszTehvLn1rahXzjm0d7ocf6raPtWwvaLzjcpebnF0z3Eb2T23dbnFsXdoGoMtttmR1OEsal1vO/tyu3XWfvalM/Z74MIJ2wxXP0C/QcB3BA7QNukXNOeiS9OxEfgE5heWb99NVa2rM7JyB8UjpMGtbV03Em6trmtW1zWJSbcbXr4m6a7uX5eVazGX46ltyheXr167Ob+wbDTbRsakV+ITVlY3SJSg6fUbdlSHKAGNkLBtM/JCdEd3Hzum0drWdSU+YVm5trquufsgndxNkojE4NAIOycp9u6DdNIFGjKtFdVnZOZqdAZnTCM7/21bZ+APkCctZN89s/MPDo3cvf+QPTk2Mye/u29wcvr97XtpdCYtNUx6xy9IdV2tvZl0e2RMajTb5heWYy7Hf5iV0+o4N9ljE1Mxl+Pn5pdI+KjgSbHBZKUjyA7WcQ4kBWp0hlu373NigEazrexp1d0H6WqNfl7+8eq1m+QuXLBYo9nG7ywpnG+b0+9n79x3AknPzKFnI+1aa1tXyt1UGvkfHBq5kXBLMABrMFnzCgrZblAjqr91+z6ZBGs024gyTb37cCU+YWR0gj8vnV0X+XWoFdWTjtBhIg1j17Wu1t5IuPW2rVNvsDx7LnqQmqHbNJHf1ozM3Ihjp46dPF3/8jXRY9LHzJz8WlE9/Y1zVdeGWn8r5V6NqJ6qNamdY3fu+8W3zapqEadfJM+1G0lfH/mGCjk5UUdGJ67EJ0y9+0Bsk44L+7pDaGRm56s1ehKlf/S4yGi2vWhoupl0W6laJ+dh8u37Gp1R8PdFsC73/WI3gLaKfz67Og/pIXRD8DykY0SzEQV1fsfKP6o1+pQ7D9inHDubz7fZtskuvEZqf9DjA2czmG0pnY5n485gpsFsu97qaPmw18AmbSexzdm1rfNN2/S/PrFNopqxzQ4S25Qqts40OiV5WWuLqDt44YRt+u6OGyWBQLgSgG3Sawk2dkFgUDySk//4uylnzTSQkpmTT29fNtT6tQ3nw2nkSTD+/TG5h2bbpt5gTk3LfNPaQfSA3Pa5ihKw7+/pfRX7jo0EJJeVa+yQCL1fFIxIENukXaisqiXbtaL6+2npy8pVzq3zLrgF1CGUBm1VemaOM9gbe2VsYoomCm6wj6W26Ypq2dOqktIKo9nGliJSLHvIjGZbraie2pFGZ1StbRhMVvYIsuuKuRzPDsCSM4oqB/tvHOy4HL3XFyxWsLO7SCTeSyd4q9bVNxJuDQ45/y5DT1da7MTkOzJFk6aQ5xvps5TEXibffYi5HC8ZHuf8NnHqIuX/P/be/aup4/sb/5eSlR+e7/oCP6truept+fzS4sNyYR6r8FZ4q2iRll5ELdqitgpBvIBY+QoGUBS8FbBFg4KAIpUQIiGhEHKFUC414Svuut2fOXNCCJcS2C6XzpnM7Jn9mn3OmdfZM3tggBAulCy01WPp25+RmbRd/823R+FDj9s3evrMuYZHTaNjE61tL/ZnfAFfB+COA/RQBbW2YPFCsn4X7keFDkjZpppeUrYp6NX87HnuD6ecLq/HO3Lmp3x4aAADnFn4evirzrBsE1yL33x7dHvyzv/uP5jyn//CegqXx3fqzNntyTv3ph9I+c9/wRtPbR7xlLYVfrzQAlEI+GOV9kwLzDVN923iEhKqAk3PVfhcy//4e/By69tvfv24EjXjbvCbX2cyF4RtPu3/+0BdCBa13jO/zbof9H1YmzrXrirLLxLbFKjm2PhUxcu3R+r/4d7LgXAy21yt/ID1ZgQWDgFmm8qXCudEjkDJlWsYnAM+/AtUjYqi836aL/g2gY38cOrMsNt79PsfwBuGa26hOZw2zco2sSGcGcNEH8gMLuMEsbiYUzoRdHl8BYUXP9+9d3vyzm+PHMeVw9hEjCYdrYh7AAAgAElEQVTUppvPWtu/y/keHWtS7WhdpDRqqLa/ePXtd8fAEw5fE1CmwDapWCxD581J2/U4gsrZOczygYJSq6PWgkMsFYuNzjPR/uJV1lffDgzNrASGjzK4SpwaJCwU35+RiStOsV3wusN+1PC+MqEtkC/4AEFs1+se2tYbm+OLrOy2F68Cf03+2vBb1pff/Dn0P5ZWUnIIGEbo24TmPN6Rn8/9s78RcqjAWX22UrYp1QuEY3mpvxHKqD2mYAMn3SYK5d8t0NifkWmzD9KnB4oClvj9yVOCHzX8eKEFCnKU9kwLzDUtmBlUp/cXTc9V+FzL//h78HrH217XPxF3IO5Or+vv6x0LwDa9gams+/8sdnWNTB28G+xY0Ji0i8Q2e4b/TroRutr2MTxv9sMgRrsNjE/l/R78z3tX51zRXqjyzDYXbsbNkhiB1YoAs82FeiKvQjluz0juD6e6umciWMLmNPCKzNO3OTY+BYtpf2347cjRXNjpR32bFGrqrcJ5lUBdoDx1YeEEi3rhBLHo26T5kPZ4R078eMb4PnCL8teYy0E0hJ7DNjBkSsKvcEnr4r5NNVRhMe3DXx99/c0/DjSUKQzZrL5NaUXct0mtRWCbuMsX5/rUMFDsgiRgfSa4c0GgwGzRxpqfPf/v/oO/P3mK7Xr9Y7goAD/HqOkF4VsNRZeEtnC5AX4IGBufUraF9Ey50AD6Q8mh9I6jGGJbw+6ZkDwggTaBAW9x1XEYvcbGp4S60rYQN1qe2iH9AAGF0QBo3c6u7tQ9/wXnM+a/I5n7MzJxRwC1+QXctwnNCTcC9iHqBD4VqQSqAqbdvlH/6F/wN/DXpNs3SqssSHpR2WZN19v/cyPUNTiztfJq29szTQuwNJdqvUhsc2x8qnvo7/9zI1TWPrPo1+6dSr0V6nbOaAFUU18Vcsw7rC5VZK5pZpurlR+w3ozAwiHAbHOuT14ujwhY+xzffHsU2IjXP5b7wynYukn3bdIYm27f6NHjJ+mUGkThZBolB/6a/OlsQfY3OTh7xq1lgb8me639JaX/H/gZMELmn0Mu3GApnbFhKEth3+bBzC/bOjoDf02+ePX66rVyCMEqnYleLvnll7KK0bEJrz9w8sfTq4Ft4v5MHBohgVNVGpP2jc0hRRX8QllffZt36meIAoXShCET9m0aii7Bvk3YD+wf/avu3q91934dG5+SxqTFfZsjgZlVoBC7FRZmQwRjYd+mUix2TJlQ7ttUloEc2L+qthoZacC7Dcb/3X9QKPba3Hv4y2+6unuobxNjnAp6wQeajIOHqRA0eFhcCjFp1dran5GJvs2Mg4ftA84/h1xZX34DwX6lGNI7TtpW9a07EGt3Vt9mGL0oewRUpW1h8FiqLMaJHQlM3HvQADFpcbCU9/hIYPzn/MKf8wsF47xeUUm9neFj0tK2wuul7MCcVtI2/PZ4d2oaRp9CvYQEmhnNx9sWXbVu3+j7PfZ34UNPJF+aqMAI04u6kvb2H28P3g3uqQkdqJsJHtvrEiP6RNhJtWLANh3eqaJnb/HfBdm3SQnnu42m++tCvvfRaPN+D/7rVHNsfIrZ5sLNuFkSI7BaEfgX2aawNpIekqb2uOf8ZYXAb03NNPxJyZVrQA4xyCfGpMVuvztXc+fu/+AySOGUPFwfOzPFbGr+v5+nwjJaqN71ugdj0v7a8BtsnpSekidQF6iOMWkPZn5ZfqMKtwXSmLQYaFQ6EaQxaX/M+2nJAjkieouUoFNP2kT7i1dff3NUWFRJC8BUFRYhC+dtSlGFyfTO3XvoMlrB3QeLmWeNSYuBasfGp6TnbYaPSXv0+MmiSyXgWkRz3Z68k4oVNMXLyNlm9a07OcdP0jBLKASggw7ALllckQ6WCYtaU/fsgzMw8RxRtfMblW1Jz6UM3xZEZsa7AIHdm74fzvac03mb9BzRU2fOQqxgYZV10nY9eDilegm9Bcon1cvrD1wu+UU4s3RsfEp5BmaY987zthf79h/qNlvpMFnf2PftP0S9nYt03qb0RqA9EdLnL1zGVdnCT/RSEAsmR295SHv9Yyd+PPPw10dVN2+fKzjf1d3z7ZHj0lhWVPhc04saJejlwN9f3A1ebXv7v8tCFR9O9ZxrD8OUB7YpFFgotjnzwcj9d+eff//4e7Dk+T9Rjlrsfy/s2TBC5yO8ZLa5WvkB680ILBwC/yLbjPBJx8UYAUZgURHA+Sgu7ITmkIYJ+YvaGRbOCKwSBKSftCLUfWZt85HjGH0qwlr/erGC5uCG0mnp34Lm+S58HfRPffdr8Je2t0MjU72umbWptCHcCRk1CNkP5J3PfjDfntMuvYPouWOBvbJUfhRpZpsLN+NmSYzAakWA2WYUD1+uwggwAowAI8AI/FsIWPscR47mht9T/W/1jdtdYQgw21yt/ID1ZgQWDgFmmyvsxcDqMAKMACPACDACjAAjsCAIMNtcuBk3S2IEVisCzDYX5HHMQhgBRoARYAQYAUaAEVhhCDDbXK38gPVmBBYOAWabK+zFwOowAowAI8AIMAKMACOwIAgw21y4GTdLYgRWKwLMNhfkccxCGAFGgBFgBBgBRoARWGEIMNtcrfyA9WYEFg4BZpsr7MXA6jACjAAjwAgwAowAI7AgCDDbXLgZN0tiBFYrAsw2F+RxzEIYAUaAEWAEGAFGgBFYYQgw21yt/ID1ZgQWDgFmmyvsxcDqMAKMACPACDACjAAjsCAIMNtcuBk3S2IEVisCzDYX5HHMQhgBRoARYAQYAUaAEVhhCDDbXK38gPVmBBYOgcVjm27vXyvsmcvqMAKMACPACDACjAAjsHoQYLa5cDNulsQIrFYEFo9tjo5Njk/+vXqeyKwpI8AIMAKMACPACDACKwkBZpurlR+w3ozAwiGweGxzenp6NDA57Bnjv4wAI8AIMAKMACPACDACMYcAs82Fm3GzJEZgtSKwqGxztYLKejMCjAAjwAgwAowAIxDzCDDbjPkhZAUYgX8dAWab//oQcAcYAUaAEWAEGAFGgBFYhggw21yGg8JdYgRiDAFmmzE2YNxdRoARYAQYAUaAEWAElgQBZptLAjM3wgisaASYba7o4WXlGAFGgBFgBBgBRoARiBIBZptRAsfVGAFGABFgtolQcIIRYAQYAUaAEWAEGAFGABFgtolQcIIRYASiRIDZZpTAcTVGgBFgBBgBRoARYARWNALMNlf08LJyjMCSIMBsc0lg5kYYAUaAEYgNBPLzC/LzC2Kjr9xLRoARWGQEmG0uMsAsnhFYBQgw21wFg8wqMgKMACMQEQL5+QUarU6j1THhjAgvLsQIrHQEmG2u9BFm/RiBxUeA2ebiY8wtMAKMACMQAwgg1WTCGQOjxV1kBJYEAWabSwIzN8IIrGgEmG2u6OFl5RgBRoARiAgBgWoy4YwINS7ECKx0BJhtrvQRZv0YgcVHIIbY5ujYpMv717BnjP8yAowAI8AILCACP/z4E9BL5b8//PjTAjbEohgBRiC2EGC2ufgzcW6BEVjpCMQK2xwdmxwdmwwGQyt9QFg/RoARYASWFAGpV5PSTt7DuaTjwY0xAssJAWaby2k0uC+MQGwiECts0+X9a5VTzVevXu1NS/9f/8//S2eBnGYEGAFGgBFgBBgBRmCREGC2GZuze+41I7CcEIgVtjnsGVtOsC11X169esU8c5FepSyWEWAEGAFGgBFgBKQIMNtc6gkft8cIrDwEmG3GxJjuTUuXvgY4kxFgBBgBRoARYAQYgUVCgNlmTMwSuZOMwLJGgNnmsh6eD51jx+YivUdZLCPACDACjAAjwAioIcBs88NEjP9nBBiBaBFgthktcktaT+01wPmMACPACDACjAAjwAgsEgLMNpd0tseNMQIrEgFmmzExrIv0FmGxjAAjwAgwAowAI8AIqCHAbDMmZoncSUZgWSPAbHNZD8+Hzqm9BjifEWAEGAFGgBFgBBiBRUKA2eaHiRj/zwgwAtEiwGwzWuSWtN4ivUVYLCPACDACjAAjwAgwAmoIMNtc0tkeN8YIrEgEmG3GxLCqvQY4nxFgBBgBRoARYAQYgUVCgNlmTMwSuZOMwLJGgNnmsh6eD51bpLcIi2UEGAFGgBFgBBgBRkANAWabHyZi/D8jwAhEiwCzzWiRW9J6aq8Bmm8ymaBPJpOJ5m/esrW9vT0YDAr5tAynGQFGIDoEHjx8WF5REV1drsUIMAKMwDJHgNnmks72uDFGYEUiwGwzJoY1kreRyWSyWCzKkmfP5bvd7iM5R5U/LXjOufyCmzdvJe/QL7hkFsgILE8ELBZLTH/H2bxla0XFjeKSK3HxCcsTYe4VI8AI/IsIMNuMiVkid5IRWNYIMNtc1sPzoXORvGnU2Gbh+SK73aHX70QhMD82GiuHhoYgH/2iwWCwo6MjcVsSFp5T4sxPP9+4YYyObRaeL/L7/dPT036/v/B8UYTtzjrXVyqrJtlgKPR6vSdOnBwaGjIaKzVanV6/c2ho6MMgzPwv8Pm6u3f/HBzcnZKq0eqSd+g7OzuD7//09vZCpsFQODU1hRKw+rn8Ap/PHwqFxsfHwTOm1tbmLVvb2trfvn0bCoWsVmuYtjRa3ZXSUr9/RqzP5z+XX6BUIRAYyzycpdHqdqek9vb2Qm/b29s3b9mq0eqkbaFtgBaAjEar27UrxWKxhEIhzNFodUq9NFpdXHzCtbKyiYkJtDe1tozGSsRqenoaWVx5RcXY2BjYBuil0eoStyW1tLSEQiEsNie91qxd19j4aGpq6j2wb/ampYNhSNuS6gXllRb4889n/X4/Qk2L0ZsucjvUaHXCKFCV1eRALTA5i8VCgaXYbt6y9ZdrZRcvXY6Obc7n/prTeEmNU80OpZhIbV6j1UnHSyqBMxmBVYgAs03h4cmXjAAjMGcEmG3OGbJ/o0Ikbzg1tmkwFNrtjp2f70Ihygki1t2blj44ONTY+AgLL00iPX2fy+Wuqbm9Zu26mprbLpc7PX1fJE0r5/pCLaWyQgG8VGObyKZaWltbWlux/JGcoy6XO/89qdNodS2trX19fbt2pUgx3J2S2tfX19T0GGbYLpfr0aPf1qxdd/lysc/nyzl6DNimsq07d2o9Hs+RnKOJ25IsFgt0QNrWoS8yvV5vTc3t9es/efToN5fLtTslVa/f2W+3GwyF2G1ItLS2OhwO6K3T6bxzp1aj1Unbworn8gs8Hg/oC+P18mWn2+3GPu9OSVXqpdHq7j944PP5W1paKNuUtmU0ViIhx3Zzjh7z+/2VVVVr1q6rra1zOp27U1I//SzxzZs+i8VitzuQesXFJ3R2dnabzYnbknbtSrHbHQ8ePtRodfUNDYODQ3vT0hO3JXV2dr582anR6kpLr/p8vuPf5yZuS+o2myFT2paaXtBDwQKvlJYGAoGnT5/5fD4g9rTYfNgmqonIzJrA+xpKgoXTXs0qYdYC87m/4K6J0A6lBiO1Q7U+S21ebbzUhHA+I7DaEGC2+W9M+rhNRmBlIcBsMybGM5LXmzCzxCrKKabFYmlqekx9nrRudfVNnPGXV1SMj49Tn1JxcYnT6dyzJ02j1W3YuMlmswE1RScedenExSfUNzSA+6ivry8zc8arhvtIqbOOdjJxW9K1sjLwNeXlnfJ6vdQHqNHqDhw4ODAwEAwG7XZHf38/zMKlYt95wJTKAjL3HzyYmpq6UlpKgfJ4PJmHs6xWKzCoDRs3lZZe/fKrbI1Wd+iLTKfTefrMT1B+w8ZNr1+/NjU3o0eoqOjCd0dy4FeKJ6jc/f4PuBAzD2c5nc7s7K/B9whsUK0tk8nU3PwUxCIZk7ZFMcS0Gtu0WCzV1Text4ChtC0o892RHJ/Pd/PmLbjU63cqGbJUL41Wd+LEycRtSQLRkraFCkIr8C/9XJJ5OGtoaCjzcNannyXm5p6Mi0+gZE9g7LdqatCzh1TtwsVL4OqnY/TlV9mlpVc3bNwkbUtNL+ge7YBGq8vO/npvWjrij4qo2SEWwITBUCjYIXgpUQUsaTKZOjo67HZHMBgcGBg4cOAguHy7zeZQKOTxeLq6/sB7WaPVKXuFLlMslnk4y+VyORwOv9//5IkpGAw+fPir2m07z/sLqkdoh1KDkdoh4iMkpDavNl5CXb5kBFYtAsw2Y2KWyJ1kBJY1Asw2l/XwfOhcJO85Onum5a+VlfX399PFsd1ms9FYaTAU9tvtuJIWp5s44wc/z7WyMupT2p2SOjg4VFxcotHqjh077vV68/JOYXPCdPbCxUterzc3d4ZsdJvNnZ2dcfEJd+7Uut3uzMNZicRZJ1QEgYnbkhwOh+ADBH+IzWZL3qE//n2uy+WGWbhUrEarUyoLwpVs8+y5/P7+fr1+p8ViQX8dqnbnTq3d7vj0s0TIuVZW5nQ6pQ7YuPiErq4/KDdoanrscDhgEaxGqwPKlJ9f4Ha7i0uuKH2PtC3T+z9NTY9BERwm6AZta3dKqtPprK2tW7/+E1Nz85s3fZu3bAW2abFY3r59OzU1Vd/QAPQYdOw2m5uaHkMTSGmUben1OwcGBpqaHiO1htYFdhdeLyXbNJlMQltQZnh4OBQKISEHQy0uueJ2z3iSgW3iuFCyB2iYzT3JO/TgYX7V1aXR6hobHw0ODmUcPAR26HDMjKP0fpG2FV4v2gHsldKe1ewQq2BCaoc4RlgMxsvlch//Pjd5hx59vHgj7E1Lt9ls1GCUvQJpFIrMw1ler9dQeL69vb3u7l1jZdWfg4Pbtyej2ERy287//orcDsPcCIIdUohoWtoWFFBDhlbnNCOwOhFgtvlhIsb/MwKMQLQIMNuMFrklrRfJS45OGaE8bNby+fwXLl4KL4HWRbYp9fMA2Wtra4eFl5SAKZ0nTU2PcbL76WeJ/923Py4+QeqjkM721HxK1EeBc32p2PBaR/4r8F5YbqrR6tLT9zmdzmtlZcjQqKjz54tgiSZmwv5G3EsJ7KWgwOD1ektLrwpsU2gLJtkwQDg0KFlo68e8UyMjI9PT006n89ix4xqtbvv25N7e3lu3atasXVdypXRkZAS+DsDMG9BDJqPWVubhrEBgLBgM4n5U6IAwyw+vl5RtCnrBl5G9aenJO/S9vb3AFYEBlpZe9Xq9BQWGMGwTXItOpzMYDAYCgYmJievXy2HpstVqDYVCY2NjExMT4I2nNo94StsKrxdaIApR3gj0p+jS6IScnp6empqCpdFUBUzTGwEzoVHpXQY2jPfpP2zTUGgymeg3KSpWaYfRKQW+TZCGtof3FHQe28ICaLrYqGCHcIkPaFxtgRVRFEoQkFHbP4zlOcEIrB4EmG3iw4QTjAAjECUCzDajBG5pq0XyYhNmlljl6tVfBgeH0LGG+TRB6+L0DhfHgq44abtw8dLQ0FB6+r6eHkttXR2VI0zaqFgsRufNGHdHqAiFYZYP28zoilCYNUIZnOtLxWKj80xcuHjJ7XYf+iIT5NTXN9hstg0bN+HMGOWfyy8YGRnBFaeYD/5h2I8Keqn5NoW2YGYs+ABBrNBWztFjXq8Xwr3U1Nx2u90ZBw9hBzBiELhtAcMIfZsgJHmH3mzugf2NkCPM8sPrJWWbUr1AOJaX+htRLzQAzIG4RJ2dnXSbKPxa39AwMjLyzbffCRQL60rbCq+XtANSe8ZWokiAGQgV6f2FaVoSM6GiWq9osTBskz7zkJ0KXZrrZeR2GOZGEOxQrQ/StsIjoyaK8xmB1YMAs0366OM0I8AIRIMAs81oUFvyOpG82OiUkZaHbWDIlOhPmKZ1cd8m9W1iSfAUDQ4O3blTOzw8DA40/FWYzs7q25RWxH2bUfs2UeyCJGB9JrhzQaDAbHHR7LWyskAgcOOGEdv99LPE1P/sgUucx6vpBTSpq+sPoS3lvk2NVqdsC+kZLNadWQ/5P4MD0Uk59Q8jP5H6r1L/swfXD9MmBPoKjeLyV/p1ANQX6krbQtw0Wh2Wp3ZIP0BAYTWyNzExAc5nlPnNt9+NjIzUNzRADrX5Bdy3CcKFGwH7EHUCx4hKoCpgmgKLmeF7RYuhlYbxbdI+zDMduR1SvfCLGLRODTtMf6RtQfkFH68w3eCfGIHYQoDZ5pLP+LhBRmDFIRArbNPl/SsYDK04+CNVKJKXE50y0vLgrqEnoNBfIY11aTzVnKPHfD7f5cvFcfEJheeLWlpbd+1KwfJut9tqfQP+PRQoTNqEfZtdXX/Avk2n07k3LX3zlq337t2/d+8+rE1VxqTFfZvr139ScqUUYrfSOJbCvk2lWOyYMqHct6ksAzmwf1VtNTLSgOrqm4FAQCh2+sxPHo/n7Ll86tvEGKeCXhqtTtkWhuKExaUQk1atrZGREfRtvjsK5cuvsjMOHnK7/wn2K8Uw4+AhZUxa2lZj4yOItTurbzOMXpQ9AqpSvTB4LO0Axoldv/6Turt3ISYtDpaSbW7YuKnbbO42mwXjNJlM1NsZPiYtbSu8XsoOzGklbXX1zcnJSYw+hXoJCTQzmo+3LXXVIrDz2repWEl7507tYtxfGCd2VjtEvahtABoRsk1pWyBBeHBRkDnNCKxyBJhtRjpR43KMACOghkCssM3RscnRsclVSzgjedvRqSctf+HipeHhYWFRJS0AU1WwEOG8TRqTVgjfOjU1RZfRCu4+WHY7a0xaDFSr0eqk522Gj0k7MDDQ2dkJrkUak5aKFTTFy8jZZmPjo4GBARpmCYXQlbTCkYaw1DAuPqGm5vb4+DicgYnniKqd36hsS3rMYPi2IIYwjhcCOzY2Bmd7zumcQ3qOqNVqhVjBwirr6elpWKAr1UvoLVA+qV6J25I6OjqEM0s1Wp3yDEzYSkofa+hhLi65Mjo6eur0GTpMx7/PHR0dpd7ORTpvU3oj0J4I6VddXbgqW/iJXgpiQVl6y2MaIiG9tzffkycmuuRV4FRA0iiGFotFzbe5SPeX9AxMqW1IM9XskEKHaWlbArC4XwBrcYIRWOUIMNukD0lOMwKMQDQIxArbnJ6eHh2bdHn/GvaMrcK/kbztcNqE026ohdNEIT8SmVyGEWAEwiMg9W2Gr4K/At/D6FOYzwlGgBFgBJYJAsw2o5lbcx1GgBGgCMQQ26TdXm3pZfLW4W4wAozAAiJw7NjxPwcHw++pXsDmWBQjwAgwAnNFgNnmaptwsr6MwMIjwGxz4TFdBIlzfT1weUaAEWAEGAFGgBFgBOaJALPNRZjTsUhGYJUhwGwzJgZ8nm8Lrs4IMAKMACPACDACjMBcEWC2GROzRO4kI7CsEWC2uayH50Pn5vp64PKMACPACDACjMCSIfDdkZzaurr9BzKWrEVuaGkQYLb5YSLG/zMCjEC0CDDbjBa5Ja0360tFGgs0Lj7hWlnZxMQEHvygjOQ5NTVlMBRK4z1KY4Gq9UQa71FNrFSIMu6oRquT6oUHHmAcTqlAyIQgLnh4I2RK2wojhIqatRgtIAAOA0Ez/X4/Bqqdp15C/Ntz+QW0J+np+5xO582btyBTOl5GYyU1awgrRWPS9vb27k5JRbGbt2zt6+szNTfHxSdAZuK2pJaWllAoRENSSdtCIXV37/45OAhipdFrseTx73N9Pt/580WQc/LkDy6XKxQKRRdrV1AWYrfSqK14ticEPq2vnzmo88LFS3///TcE4FXTS2pyqAVNgFmeOHGSHo4qtXlaS5qO5F4QKmJcMRx0GsBWKDynS6leUglqGEoLK4GlMWmnpqYaGx+tWbtOWndBMhdDrzk9JME+T5w4OTQ0BEao0eqSd+i7zWaI5NzZ2Zm8Qw/KKs+8nSsIwrmmFG2wGRrC97sjOVVV1dGxTalear1VmoHaM0r6nL9SWur3+6enp+lzA9qKi094/rytu7t785ataq1Lx4s+0qenp/GFqyYktvKZbeITkhOMACMQJQLMNqMEbmmrhX854XmAa9auu3y5GM+lvP/ggc/nb2lpUb78hLkpnmWXuC3JYrHAoY54ziGcFSmccyh0Cc+y25uWrjy/kYoVKsKltC01vebJyqRtSXslZMIsR8iM5JJyGI1Wh4dMAD/0er0QJ2aeel24eMnn88PZnqbmZofDgae2xMUnmJqbX79+jUdQSsdLmFyCai2trXDeJj2LFX4yVlY5HA7kn59+lvjmTZ/FYrHbHcg24+ITOjs7u83mxG1Ju3al2O2OBw8fImhHco66XO78D8SYInznTq3VasUOb96y1WzuaWp6DHXhLFZTc/P69Z9UVlX5/f6co8foWayz2qFUWTpSlG263e7u7u5PP0tsanocCIzBRF+KoUarU86GUV8hoWQvajYvVFReCne0soBaDlqjWoEo8pV6qQlRw1BaXgksHa/c3JM+n7+09Kq07oJkLoZe0mevWm+lrKy+vsHhcOzalbI3LX14eBg+i2i0ugVnm9grep9i5nwSUr3UBCrNQPqMkj7n4RDp6+UVa9auq6m5jc9eaKuo6ILL5crO/lqtaY1WJx0vfFaEqRi7PzHbXNrpHrfGCKxEBJhtxsSohn9RZR7Ocjqd8I6kM4wTJ04mbkuCGZJev5MKEeamJpOpufkpFMBZuMFQaLc7dn6+CwjS0NBQ5uEsKHOltHRqaur+gwco02KxVFffhEs8iV4qVqPVffpZYl9fn9vtTk/fB1WkbanpBaysvKKiuvrmrN4Yi8XS1PS48HyR3e4AEKRtAUl48sTk8/lCoZDVagUSdeDAwYGBgWAwaLc7+vv7gUThoTK0pMFQ6HA42trag8Hg+Pg4nmyp0eronJiyTY1Wt/PzXXa7w2AohNnh0NCQUi8lXNBbQa8vv8q+eOkyuBmFFvPzC1wu95Gco+HHC4cei2m0uqKiC98dycGRRcDT0/c5HA70NMKw5uaejItPoJNRpNAg4VZNDUrYsHHT69evqWu0qOhCXt6pd9olbkuy2x3Xr5djT4yVVegCFTCkfClyO5QqS3HDGSQYTHd39/nzRS9evLTbHcA2pW1Jhwa1EBJGY2OzviMAACAASURBVOXg4MxthTagZvNGY6XNZus2m0OhkN/vB8c1Hq3p8Xi6uv4AYKXGCY+Fx4+fjI2NBYPB9vZ29N5Q9OAgVqfTicjX1tX19/dv3rLVZDJ1dHTY7Y5gMIhPG2lbGq1OqRcoHuFzQ0AJL6X3stfrxeeSxWJ59Og3jVanPKe3uLik22xG45wBpL//7Ll8qQpq9/Ji6KX2kEStacJgKPR4PJmHs6xWK/o2TSZTW1s7FMvLO1VQYICbjr7a4IMj+gDpg0tqG4LnHw/UhVboDQ43YyAwNj09DStlkOjabLaJiYnGxkeTk5MvX3bCo4me4YzrL6R6abS69PR9bre7r6/v088SEQelGUifUdLn/N609JIrpWD8guXr9TsdDkdNzW1sSJqQjhc+K6RVYj2T2Sa9lTjNCDAC0SDAbDMa1Ja8TvjXFbzq8vML3G53ccmVfrsd2AvUipBtmkympqbH3WYzzsINhsJ+u7245IrbPeN9mpVtGo2V3WZzU9NjyjaVYtXYprItNb22b0+22WwGQyF2NQw+oBHogmyz326HNJ0lWCwWm822Ny2dusVaWlttNlvyDv3x73NdLjewzTt3at1ud+bhrETiCjYYCgOBQHX1TaUrmHIYgSnRrwNqeknZplIvCsL16+V/Dg6Cjonbkvrt9rq7d2kBi8WiHC8wleHh4VAohIwCa8XFJ3R1/YFOy4cPfx0ZGXn79u3o6CjOGqEwnYxCLbO5J3mHHryjr7q6oNi1sjKn04lfHLAhWLDqcrlxVV7GwUMul6u45AqW2bBxk9X65tmzlvXrP6mpuY1ypHqhQQIRAlYmNR46UmgbYDy1dXWdnZ2/NzVBE8Aq6YwfkQk/NKgCrFTv6bFQG8BGccoO97LRWBkIjBWeL1qzdt2zZy1W65sNGzehHe5NS7fZbKAXZiYS49Trd/45OPiqqytxW1Ju7szC3QsXL0FPhDm3RqtrbHwE8j/9LNHhcNTW1Wm0OpPJ5Ha7c3NnPmDh8gdpW1K9oC0p21TaIRRW/qsElo4X6gV+70ePfqNrPc6ey+/v78/MzOrpsbzq6jr0RSbwfKkKavdyeUWFMF7z1wuMU3j2KnWHHNBCr9+JRqjR6mC7xN279yglE+wHqtfW1lmtb94tMUjeobfZbLCGJYxtSO8RsHy0duwqNaR/vjFVVt2//+D58zZD4XmPx3Poi0zwN14rKxMeklK91Nim0gywD/QZFeb9BeVPn/nJ7XZ/+VU2XNY3NLx504dfYVCmkJCOV+bhLJfL1dvbGwqFhE+NQvVYvGS2ueQzPm6QEVhxCDDbjIkhDf+KghlqQYHB6/WWll6Nmm2CwxNnGPC2Li296vV6CwoMlG0q+wOzH6AZOLmHhCBWWRe8f/12u9BWeL2kciLJpMyTTu4pR2pufgrTKeq/wgLSz9t04pud/bXT6USXC/0pDNuMpPORlNmdkvrn4CDSy7q7d/vt9sRtSYKyMNA4RjBt7e/v35uWnrxD39vbi7QQGj1/vsjn8x3/PhdmgS6Xu6bm9vr1n/z6az11Uysno4BGMBgMBAITExPgN4N9pNfKyoDJ0MkrTBlhKqzR6mAzVWfnjG+Ejh0Qhunp6UAgUFBggE6GsUMogOYteG+AN9KRQrig0ZM//Oj1eouLS3CijwmlCpEMk7QMNiqwBfrNCB311A5xtQLNRGWphzkuPoF6xihJgC7lHD3m8Xjy8k7l5Z3yeDywRBnlU8YubUuql1qmdLzUCivz6U7CycnJ+oaGuPgEqX8483DW4ODQ2XP53WZzx4sXP/981mp9o9fvlKpAzUC4l5V9kOZErhfegFhFKjBMZlx8wi+/XPP5/G/fvqVea/oVQ1kdBzSMbaD9CNXxSUjzqSGhTKOx0mQyoVVL/Y1UyDzT9BkV/v21ecvW7u7u58/bwON6/Ptcj8dz6vQZ+hVJeETAM0o6XhkHDw0MDFy4eGnN2nV1d+96vd79BzIABJxg0D2u81Rziasz28RB5AQjwAhEiQCzzSiBW9pq4d8u8C5fSt+msj8wVYrQt6msDjMDwY8aXi+lkAhzKGPBaZCSI4E00AvTOOGg4w8+JTpDFXoi/CRMy4SvA0LduV7uTknt6+vDQBf7D2TMeLyLS4Dl4icD6XjRtii9gXBNIyMjGGSouLjE4fhnZfL+AxnDw8PUnS6djMIGTtxCXF/fYLPZYFsmTOCw9Zyjx7xe7+kzP0EOrIo8duw4fpXQ63fuTkkdGhqqqbkdF59w8dJlv99PZ4pSOwRpOIHGBLYrrHlG26AGQyej1DYEFajMOaWx0TBsEwXSRpE8CLF/wDhx9o91MUGtETLj4hN6eiyNjY/QyQl0GkQJbFN5I6DkSBKz2mF4IcKdBYWlGOr1O63WN0Zj5fPnbc+ft924YXz9+vXMfmaTSamCVGz4ngi/Rq4XDGKEvk2hFeHy5A8/+v3++oaZcFaC/UAOLjAGlWe1Dek9ovaopIaE9qZkm1NTUwj4whKwc/kF9BklfacADpu3bH3x4iVdmf+qqwtXI9P7WkAYvyuFGS+Kg7J6LOYw20SL5QQjwAhEiQCzzSiBW9pq4V9R0m/5WEWgDZCPc1O8nNO+TRSOCeoDxEmw1G+AVWhC+s07vF60+pzS0rbUplBULyRRVC9sOswMVfiJTkfovk0UFXUiM3NmB++LFy9xPZgQLBGnd1QvHC/aLjWba2VlgUDgxg0jFqC/Ats8ey4ff0WgMAeI3MTEBDgzYdJG7yHq22xsfIREFCrSGSrwVQopTm1hECPcPyydSVOxx44dd7lcmYezwrBNZVtU5SjSajZPAUex1A7xjqaZWJJChJmQoNaIP12/Xg6vBmNlFWSifIFt4nMD684pMasdhpdGxwtLSjGMi094/fr1kyemu3fvPXvW0tz8FNiFFC6pWJQfSSKMXp9+lghL3EEO7YDUJsM3t2HjptLSq7gclA6T0rfZbTY/e9YCYXuxZBjbUOuP9AanhoQylWwTYwGE12uuvyqfUWrPeVi40dfXh+HN4LlBH0e4Ql7ZjVnHi+KgrB6LOcw2qW1wmhFgBKJBgNlmNKgteZ3wryiMY7l+/SclV0oxJi3UUpunoqeCxtmDN7EQk3b9+k/q7t6lMWmV+68wtmTGwUPKmLRUrHTfJsYPpG2F10uJCSwRHBgYwFisyjIarU7alhrbRL2EfZtOp3NvWvrmLVvv3bt/7959wS0mtCtMXnE6IsSkFWrhpXTfJv6Kie+O5Hi93idPTGqHQFCfD+pFx6u+oWFwcAhX0oIZVFffDAQCuM0Pmss5emx0dBRX0lLbkCK5YeOmbrO522zGGLPYbXQXQA4M+p07tbQAppH4Hfoi0+v1om9zdHQUnKtSvTCMJLVD6Uz60BeZbre7sqpqzdp19+8/QGaLG31BO5iMStvCrgqJCI1TzealdzHqJezbVBonzv6FXgnruvFX6IbP54NoyTBGXq9XuW9T2RYKUSYifG7A8mmr1TrrvSzcWdAi7tsUnodtbe0Wi+VaWVl9Q8PAwADEbr1zp1apglSsUh3MiVyv98C6x8bGYH2y2rMXJFdX35ycnEQnPzZHE7DsHGI+U/PWaHXbtycPDAzgRyJwWQPbzDh4CDf6hrGN8oqKgYEByo2h6ajZJoSEvXy5OC4+ofB8UUtr665dKVQdIS2NEiSU0Wh1as8ov99fWVUlvFMcDsfr16/DvCPC+zbxpqNonzp9xu/3X7x0GVbSCs9DZYdjK4fZ5pLP+LhBRmDFIcBsMyaGdNaXk/SMvjCnF+KHbZAsPUMszHmbytmV9Nw8NbFS+iQ9G02qlxoa+w9k+Hx+CGqiVgbypW1Jp1AYk3ZgYKCzsxNccDSOZV9fX2bmTKhe6QxVcC0Ce6GZ9LxNtT5L4VIWFnYZoRsTS1K2KR2vxG1JHR0dcHAfHq0pWBF+pIBj60KhkMvlOnnyB+AtEJoS7yn0WBaXXBkdHYXFrtgfTFDn6vXr5ZTkYBlIINvUaHV4bt74+DjQTgip2tvbCyrgHjapHQpwoV7KmJm0Uco2EcPp6enOzk70Jwt9hsvIjVNq81K2iTFpfT7fkycmUEFqnGEYBX77ELrd8eJFV9cfsKsN2Kbd7ggTkxZvBEEOvYzwuaHR6iKES3rTSWPSarS696fXBM6eyzcaKycnJ+GTgRQuNbFUF5qOXK/EbUk2m83j8WQcPAQSpMYJP73q6qJOftoiTWdmZvX19YVCoWAwiLctFKiqqoZ1AWAb5/IL/H4/xABrbHwEmWFsY3dKqt3uCIVCGGwWxAqPSuFWmpqaunWrBk4EFXyb8E4ZHx+fnp72+/1XSkupIsp0hGxT7RmlfM7Tjb40iC5tOjzblI5XXHzCjRvG8fHxUCjk8/0TMprKjOk0s018o3GCEWAEokSA2WaUwC1ttZh+Vy1Z5w2GQsGvu2RNc0OrFgE4y7Svb5ZolrFlnHv2pLlcLlz2DGwTCfkSjHVswbUYgAAJVHPyL0aLLJMRkCLAbHNpp3vcGiOwEhFgthkToyp9B3CmgEBtXR31xgi/8iUjsEgIpKfvGx4eDn9SX2wZ5/Xr5S6Xa8+eNERMWA2B+YuUiC24FgOEY8eO/zk4iCuZF6MJlskIRIIAs82YmCVyJxmBZY0As81lPTwfOhfJK4HLMAKMACPACDACjAAjsIAIMNv8MBHj/xkBRiBaBJhtRovcktZbwDcHi2IEGIFliwDs6fX7V9rWr2ULOHeMEWAEwiPAbHNJZ3vcGCOwIhFgthkTwxr+ZcC/RoFA8g79zZu3zuUXRFF3rlWWsq259o3LLzcE4uITfvvt954eC0boWW495P4wAozA6kGA2WZMzBK5k4zAskaA2eayHp4PnZv1xYbxOcfGxsorKmj54pIrXq/3SM5RadRQDDb4889n/X6/EMhUGdOPSlam4+ITnj9v6+7uhvicQqhAiMiqrEVzjn+f6/P5zp8vgsyTJ39wuVyhUIjqhUEUI9lLBuETlSE9k3fob9wwnvnpZ9o6pNWidCpLCjnKA+6ggLQt6QkcgkA42/CDFcz8D1Fe8Uj6YDDY0dGB0fxBzRMnTnq9XjgRRClwTjk0fC49gw5HNpLIMXMarzl1L8LCQszM5Y+h0Vg5ODi0fXtyhApyMUaAEWAEFgkBZpv0FcxpRoARiAYBZpvRoLbkdcK/ReAQs+vlFWvWrqupue31ejG2hF6/02533Lx5S5Ag8LQrpaWBQODp02c+ny/z8Mx5HhqtDs8Qe+djqayqGh4eTk/fJ8gRLouKLrhcruzsryGfBsq/c6fWarVKj1tEIZu3bDWbe5qaHkMOnJtnam5ev/6Tyqoqv98Ph9TNib2osU1sVJlYcLapbAJoZCRUDeoK44WXe9PSBweHGhsfQbEFZ5sgFgEXFMFuCPnCJVaPsLxQfaEuhdbxchliGOGXiIVChuUwAowAI6CGALPNJZ/xcYOMwIpDgNlmTAyp2msA8vempZdcKQV3osCU6u7eff36tfIkQJxqg4Ts7K/3pqULp8xRf+DulNSBgQF0lynPl9NodXr9TofDQSNzFhVdyMs79e6IwsRtSXa74/r1cmhO7QBJY2XVn4ODu1NSoRjVhaaBvZRXVFRX35yVsFkslqamx4Xni+x2Bx5Tjq45PBBSo9UVl1wZGxsLBoMvXrxE3+DulFSr1Qpn2eH5jSaTqaOjA84eHBgYeHcmJ3SJ2hI6cpVtCa626elpo7Fyd0qq0+lEiGrr6vr7+3HghPGilxQE8IllHs6y2x04WHA05dTU1P0HDwBYODTyt99+93g8oVAIjoYXTrmgTSBdxOqQoGWEn+ildLw2b9na0dEBXuu2tnYYRyqQppVnYIIKT56YfD5fKBSyWq27U1JXDIb3HzyY1bApwpxmBBgBRmCREGC2Sd/snGYEGIFoEGC2GQ1qS14n8rfI6TM/ud3uL7/K1mh1GQcPOZ3OQCAQCoU6OjqQugi8AoULbPP0mZ9GRkaKi0vAZTo2NgbUUcpeNFpdfUPDmzfyUwcvXLzkcrn3H8iAtqRsM+PgIZfLVVxyBfuzYeMmq/XNs2ct69d/UlNz2+l0gnN1+/Zkm81mMBRG4gLqNpuNxkqDobDfbke2CU1Q1+vulFSXy/Xg4cP16z+prr4ZCASArbW0ttpstuQd+r1p6U6nE46/M5lMLpf7+Pe5yTv0drsDKavaSlqgRlgMWld2vrHxkdX6ZsPGTZ9+luhwOGrr6hAKSr2E4aNyyisqenosym4ovw5YLBabzbY3LT07+2uPx2OsrBLE0hbnyTal43WtrMzv9+fmnkzclvSO7oZhmzlHj/n9/mtlZWvWrqutrXM6nfA9AlWgQ7MyMLxWVmaz2XCBNJoBJxgBRoARWGIEmG0u+YyPG2QEVhwCzDZjYkgjfLts3rK1u7v7+fM2iC/y4OHDwcGhGUbx9TdApVAO5RKYKbDNuPiE+oaGqampv//+2+/3DwwMhJn+Hv8+1+PxnDp9BpgV3eMXF5/Q1fVHS2srNqRMwIbPzs7OuPgEygwPfZE5ODg0PT0dCAQKCgzKivPJoWwz83CW0+mENcDUj2qxWKqrb0Irpvd/wrOyfrudOhWxe7QtyKQsEXJyjh7zeDx5eafy8k55PB5YNoxNU2cXHT6lHGw0TIL2B9NULE3Pk21Ku9HU9Bg1QhVoo5g2GArtdsfOz3fBxuOhoSFY7I3d1mh1zc1PgcyvDAw3b9na1tb+9u1b3FYtxZAzGQFGgBFYbASYbcbELJE7yQgsawSYbS7r4fnQuUheJ5u3bH3x4iWuRN2wcZPNZkPWV1/fgJN7gS+hcIFtYv6p02fGxsaQdGE+Tbzq6mpra4cci8WC7Wq0upyjx7xe7+kzP9HyQjov75TX6z127LhGq0O2uTsldWhoqKbmdlx8wsVLl/1+P7BZoW7Ul5SuZB7OQhojsM0PgzDzP1AaJEICkkqnIvaNtgWZSLGwTFx8Qk+PpbHxETro8CfaotCoUg7WCpOg/cE0bYWmF4NtUvmoAs3EtMFQODU1haOAgayw21TNlYGhsbLKZrPRxQhUR04zAowAI7BkCDDbxLcPJxgBRiBKBJhtRgnc0lab9b2SvEPf29vb19eHmx4FhlBf39BtNqMcnMpjDtA8r9eLUYLgpw0bN3WbzXa7I4xjE/yZFBLKNhsbH9lstvDxgQRGAZseKfsV1KHdjjpN6Uokvk1siKJH0/Nkmxqt7vr1crglYWmrtEWBbdJ9m1h+1gTVHdP0k4Sg19DQEB1TkE/LzNqiUEDq25R2gPo2qRDsNs1cGRhGN6YCDnzJCDACjMD8EWC2Sec2nGYEGIFoEHA6nX19fa2trY2NjQ0NDY2Nja2trX19fU6n0/7mTTQSuc4iIBD+hbE7JdXhcLx+/VoghC2trXQlLew5BFFSnkDZHbZoMBQGAmPC6lDlPkAsL6ykhf2QtGmNVifdt4kS0Ld56ItMr9eLvs3R0VGhG1gFEnHxCVarNfyKX1qF0hXo56NHvyn3bVoslndRjpJ36B8/fnKtrEwgexTJ7duTBwYGbtww0lYgTduCnPKKioGBAWErKXTD5/NhVGEoTFuhHRDiqSrbhRzleNH+YPpaWZnP5z/+fW7itiSbzVZf3wDVt29PHhwcun//Y5AhyG9qekxDGUFm4fmiyclJDHcEmcp/pfs2pR2AkMuXLxfHxScUni9qaW3dtStFuhUWWlkBGBqNlcoPNDs/3zU8PNzV9Qefw6k0J85hBBiBRUKA2eYizOlYJCOwyhDo6+sDntlA/jQ2Nvb19THbXD62EP4tIjgGca9X8g59Z2dnMBicmppqanpMF+Yp2QtVFhcrbt6yta+vD7ZT0j4o2Qv9la6kvX69XMmdImSbEI7I7/dPT0+Pj48D7aQNCen9BzJ8Pj8NriMUgEt6hiRoDetjMSZtW1u7w/FPTFcak7azszN5h56SPSGt0eqqqqph2SesW1ZrS6PV7U5JtdsdoVAIxwu61/HiBWUUQgBbXMoLPRfO25TqK43qhAyT0rbNW7Y+ffosGAxilFcUWF5RMTk5OT09TXubnf21y+WiGM4Ei6pvcLvde/akYV1pQhqTVq0DNCbtldJSEEhVEJqIaQzj4hMePHzocDg+/SyR6pWXdyoQGCsuLqGZnGYEGAFGYFERYLZJZ0ecZgQYgWgQaG1tJTTzY7K1tZXZZjSALk6dRX2XrBjhBkOhz+ejwXViTrU9e9JcLhd4UGOu8xqtDrZNho8IpdQL920qf4oiJ6YxhM8Tfr//XH6BoLuxssrlcuFSeeFXvmQEGAFGYDEQYLa5ONM6lsoIrCYElI5NYJyNjY3MNpePISzGK2Tlyaytq6NewVhU8Pr1cpfLNatjcNmqtmdP2sDAQPiIUMrOLyzbjHUMlfhATltbe2PjI7VfOZ8RYAQYgcVAgNnm8pkKck8YgVhF4KM3U5Fitrl8BnUxXiEskxFgBBgBRoARYAQYgTAIMNtcPlNB7gkjEKsIKDjmxwxmm8tnUMO8CehP2dlfO53OycnJ8NF0aBVOMwKMQCQIpP5nT0tLy5Gco5EU5jKMACPACKwMBJhtLp+pIPeEEYhVBD6SS0WK2ebyGdQIX1pNTY97eiw0GlCEFedabPOWrRUVN4pLrnB4zLlCx+VjFAF6CmuMqpC8Q3/z5i3ljtAYVYe7zQgwAkuAALPN5TMV5J4wArGKgIJjfsxgtrl8BjXCN0pz81OIWQrl8YxKGoHWZDKBXhGGM5U2vXnL1l+ulV28dDkKtrlm7brGxkdTU1PvA5++2ZuWLm1CyIxkrg9BSo3GSjiuU5BAL6HMiRMnvV4v+oHP5Rf4fP5QKDQ+Pl5eUQHl4+ITrpWVTUxMUJkY7DcYDPb29gqBW+ru3v1zcBAzyysqxsbGpqenaeiXxG1JLS0toVCIjtfulNTe3t7g+z/t7e3w1WDzlq1tbe1v375VxonVaHWRtCXVS9oW2gZYCB6w+fPPZ/1+P0YqBmTmqZc01q6asrt2pVgsllAohF3SaHVR6EVtXq0tqV4arU5pgVLbwBi/0dkh3LP45KERgKkBK9NwjytjIFMJyTv0N24Yz/z0s7J6JDmLcX9J7VBtaKR2KO251DbUxksqgTMZAUYAEGC2iQ9kTjACjECUCHwkl4oUs80oMV2EahG+9kwmU3PzUyysxjbhcI4Ij2pEaQuVKC296vP54FDHbrP55cvOSCQr5/rKWvOZDWccPOR2u+GQlYICg9frPfnDjxqt7v6DBz6fv6WlhbLNlvdn0u7alaLE8EjOUZfLnf8hoGjO0WN+v7+yqmrN2nW1tXVOp3N3SuqnnyW+edNnsVjsdgdlmy2trQ6HA8Q6nU44pPTOnVqPx3Mk52jitiSLxULDvQptnTp9xu/3wyeAyqqq4eHh9PR9eI7omrXrLl8uxpi90rYQ0nP5BR6PB7S4UloaCASePn3m8/kyD2dBmfnrJY0MJFU2PX2fy+V++bLT7XYj25SOV1x8QmdnZ7fZnLgtadeuFLvd8eDhQ3pKDR0vaVtSvUBlpQVKbWP+bLPfbscvIDgisyboFyWq8qwVIy8wn/trTnYoHRqpHUo7r9aW2nhJhXAmI8AIAALMNhdhTsciGYFVhoCCY37MYLa5fGwhwteeMOMEtlleUVFdfRMYpjANxfzNW7a2t7cLBy3W1tXhEfNwqsT16+UgAZBBmRqtDiUEg0E8lxIzqV+OdvLLr7JLS69u2LhJo9X98su1QCAg+ADxDMwXL16iH5KegYk+QJjlNzU9LjxfZLc79PqdAJr0bE+jsXJwcCjzcJbd/s+5mgZDodfrBTa1Zu06q/UNEJsTJ04mbksS/FRFRRe+O5ID8qk6GzZuev36tam5GV2+BkOh3e7Y+fkucI4NDc00+ulnibm5J+PiE2D6joNrsViqq2+iWDxaE78gUIambIt2cndK6sDAgMFQmHk4y+l0Zmd/rdHq9PqdyGSkbUHT3x3J8fl8N2/egsvs7K/3pqVTfDRa3fz1orogAvRzCRbQ63fmHD2Gn06gMO0PjpdQ5lZNDZgoHSO0eWlbUr2gRSXblNqGmh2ijjShtEM6RrSkxWL57bffPR5PKBQCOv2uocRtSd1mcygU8ng8XV1/0PuRqgxyLBYL3Lb4gcNorBweHvb7/d1ms9X65q+//srLOwUnwVqt1lAoFAwGF+r+mpMdSodGaocUIkyrtaU2XliRE4wAI6BEgNnm8pkKck8YgVhF4CO5VKSYbS6fQVW+AJQ5a9aue/HiJT0jYfv2ZJvNZjAU4sRdYJuYf+dOrdvtzjyclUgcaDlHj7lc7mPHjmu0uuLiErfbvf9ABrYrTGfv3Kl1Op1709LBfVTf0KDR6qRihYog8NAXmW63W/ABgo/iwcOH69d/Ul19MxAIgM+npbXVZrMl79DvTUtHH6BGq+s2m43GSoOhsN9uD882yysqenosdGZ/6ItMr9dbW1u3Zu26i5cuj4+P00MvKZFDBOB4ya6uP3D6fq2szOl0pqfvwzLQmeKSK273jMMT2Cb+qmSbRmNlt9nc1PTY9P4PjJfJZGpqegzaIaNQtnX6zE8jIyPFxSVr1q6rqbk9NjaWl3cq83DW0NBQfn6B2+0uLrlC2aayLWCkAwMDTU2PkTBDbym7A7bZb7fPRy+AdHh4OBQKIR8GrZXKQseGhobQtykdr7j4hK6uP8zmHrCNwcGhV11dajYvbSvMeCnZJiCjtA2pHeKg04TSDqlN0pIWi8Vms+1NS8/O/trj8Rgrq+j9tTct3WazoW0IKgty0Fyh5zlHj/Xb7bm5J3t6LE1NjzVa3WLcX3OyQ+nQgBaCHVLVMK3WFhRQjhdW5AQjwAgoEWC2uXymgtwTRiBWEVBwzI8ZzDaXz6AqXwA0BzZrBYNBq/UNJYS0DKYp2UO2KXUmbNi4yWp9U1tXBxNQmLhL5QDTw1msXr8z9T97YMqr9MvRDqA07WV4wgAAIABJREFUqU+J+ijoXD+MXw4FRpEor6gYHx8PBoN+v9/n8x36IhOFqM1Qz58vglXBGq0uPX2f0+kEjgrTZWRlpaVXvV5vQYEhErYJFBQlQAJAw/GSthUXn1Df0DA1NfX333/7/f6BgYHEbUkw84a1waWlVwW2KbQFDthAYEy5H1WY5QMrm49e18rK+vv796alJ+/Q9/b2Ii0EfS0WCyoLoyD4LTVanXS8ICxzMBgMBAITExPojUcmhmKlwIbRi1ogGoZGq1OzDVom8jSoiU8eXL9NP0xgmt62wm0lXGIHsC72/N03JovFknk4C01uMe6vOdmhdGhABcEOhX2qAJdaWyBBGC/p/mGEixOMACPAbBMfyJxgBBiBKBH4SC4VKWabUWK6CNUieeHFxSd0dHTQfX3SWnQaSmfetNc4Nb9zp7avr2/PnjSHw1FcXEIFUjm4V40WALapFCtUhCowyweHJEwWMw9nYUKI0YJrAkE4slyh9eguMw4e8vn8gkxhhgqSz+UXjIyM4IrT+voGXHiME/cwvjIlaECxIvFtSttCfU+dPjM2NgaLcgHDyH2bICR5h95s7qFbaoVZ/vz1wt4i7dHrdwJukfg2sbp0vGADJ1I1anLU5pVO4zB6LRnbxC8CqKNgKsgY0cyUzkyqspocsGop26S3rXAvUGmRp+dkh2HMQLBDaQfU2oLC0ntZKoczGQFGQKPVMdukz0NOMwKMQDQIKDjmxwxmm9EAujh1InznmUymbrM5fGE6DZXuYaPVYTFtTc3tPwcH9+xJoz9ROZH4NrEurYj7NqP2baLYhUqYTCafz59x8BAVqJyhXisrCwQCN24YsZgQ0BXm6FK9sArSBsiR+pSo/4oyJWpolA9s2Lip22y22x2J25KApeM6VbpKU9pW6n/2fPpZInRGUFmY5c9fLwRBYJtKZziUVPo2IV86XgZD4cTEBK6FpiYntXkENoxey5NtIlxURyX5RLSpyYVhm7h/GCvOM0HXKcxqh1Kbhw4IdijtlVpbUFgwbKkEzmQEGAFEgNkmfdtymhFgBKJB4CO5VKSYbUYD6OLUwed++AT1daiVxFmpEJ8Tdl1u3rL13r379+7dh+px8Qk9PZbh4eG2tnZBIMqBfGHfJmwfxUwqVhqTFvdtrl//Sd3duxC7FWNLKvdtWiyWxG1JyTv0jx8/QVIh9BAupVGCpCU1Wt03337n8/mVU21hhgqbSC9cvKQmBwcCY5xSvbAWnfrDcmWISZtx8BDuR8X4nLDiVOm7xrZArMFQGAiMYVBTimHJlVJlTFraVmPjo76+vnfRXGf1bc5fr/qGhsHBIVxJC3qFUVbKNqXjBXy722yG6FOUegk2D8F+KbBh9Jon24yLT7BarbC8GQ1AmaBMjP5KTQXTCNd89m0qfZstra0Lfn/NyQ5RLzo0aN4YzYviQ9NqbUEZ4V6mFTnNCDACSgSYbS7OtI6lMgKrCQEFx/yYwWxz+RiC8gUgzWlpbX3x4uWateukv0ImuuCEswcxJm1fX19m5j8HXcz4nSqr/v77b1xGK+wrm56ehmW3GH5WLSYtilU7bzN8TNq2tnaH45/4sTQmLca/VVM5crYZF5/w/HkbegVBoLBqFxZnCpm48Bj7QBmg8vxGYbPZ9PQ0OCfndPagtK3NW7b29fV1dnbSGD/SswelbdFzRK1WKxyFigYDtwOeujlPvRK3JXV0dATf/8EzS6UHLRoMhVNTU/RmhFhB0vGaiWhVcmV0dPTU6TMUIqgu2Lz0IFOlXiBHyTYFM8CFu9guTew/kOHz+WEXNM0X0sL9hadlIsOkq2oxJq3P53vyxETtUPgYJDU5Nd/mIt1fkduh1AzU7FAAEC6lbc1pvKRiOZMRWIUIMNukbx9OMwKMQDQIfCSXihSzzWgAXZw6Eb7hIETK5OQkurYirMjFGAFGIDwCSrYZvrzwq8FQiI5l4Se+ZAQYAUZg2SLAbHNxpnUslRFYTQgoOObHjDBss+L6dQAJE6sJs39B12X7HuKOMQKMQCQI1NbVdXX9QX3OkdTiMowAI8AI/LsIMNv8F+Z83CQjsMIQ+EguFSlmm8tnrP/dlw23zggwAowAI8AIMAKrEAFmm8tnKsg9YQRiFQEFx/yYwWxz+QzqKnzDscqMACPACDACjAAj8O8iwGxz+UwFuSeMQKwi8JFcKlLMNpfPoP67LxtunRFgBBgBRoARCIPAd0dyauvq9h/ICFOGf4pFBJhtLp+pIPeEEYhVBBQc82MGs83lM6izvqKkMRjj4hOulZVNTExgtExlaEoIeikNAqnR6tTicyr7I41xqiZWWV2tLaleeBiGEHhTKhaCeQrHHkSuF5VJ44LS/DBpAXAYCJrp9/sLzxeBhHnqFRefUFNze3x8PBQK+Xz+c/kFtGPp6fucTufNm7cgUzpeRmMltXmIlEsD1WLwWBACIXBNzc24HfFKaanf75+enh4bGyuvqAjTlkar+/nns36/H4PcarQ6NYPZtSvFYrGEQiGIRgtipbYh1Wvzlq3NzU/fvn0bCoUwNjIdBQwLTE+s3bBxk81mgyiyR3KOOp3OUCg0Pj5+44YR9KUxTjF4LMaMFUwO+iz8C2VOnDjp9XoxspdUL6Gi8jKSe0GoJUR5xfjSQrEoLqV6SeVIx0taUgosjVc8NTXV2PgofERuNckR5i+GXmo2L+0SHDd64sTJoaEhvBeSd+i7zebg+z80RrfaaTpSydJMPIcWfqVow4OC3rzfHcmpqqqOjm1K9ZJ2SWoGas8o6XNe+oyCtiDMdXd39+YtW9Val46X8DDBF66akNjKZ7ZJX4ucZgQYgWgQ+EguFSlmm9EAujh1wr+c8Hy5NWvXXb5cjKEv7z944PP5W1palC8/YW6KB9wlbkuyWCxw+CGePbhm7bra2jo4A1OtJy2trXBW5N60dOVZkVSsVIK0LTW95snKpG1JeyVkRsE2QYJwJD1GNwV+6PV6D32RqdHq5qnXhYuXfD7/2XP5a9auMzU3OxyOxG1J0IG4+ARTc/Pr16/xCErpeAmTS6jb0toKh3DSwyrhJ2NllcPh2J2SCpc5R4/5fL7r5RVr1q6rqbmNeknbulJaGggEnj595vP5Mg//c+KO1A7T0/e5XO6XLzvdbjfOsDMOHnK73TU1t+PiEwoKDF6v9+QPP8bFJ3R2dnabzYnbkt6dGmq3Ox48fKjR6q6Vlbnd7iM5RxPfm/erri7oMP6LJ9ZcKytzuVx79qRptLpDX2S6XK68vFOffpZos9lMzc1r1q67eOmyz+c/+cOPWFej1d24YXS53NnZX0Om9AMHLY9pJXtRs3msopYQ7mi1Ysp8tEblT1HnKPVSEyW1DbXCSmDpnZWbe9Ln85eWXlWrPv/8xdBLavNqXZWysvr6Bnz2Dg8P19c3QPUFZ5vYq6ifhChBSEj1EsrgpdIMpM8o6XNe7RkFwouKLrhcLryRsUWakI5X5uGsoaEhfI7R8isgzWxzcaZ1LJURWE0IKDjmxwxmm8vHEMK/sTIPZzmdTnhH0hnGiRMnE7clwQxJr99JhQhzU5PJ1Nz8FAog5TAYCu12x87Pd2m0OuFteqW0dGpq6v6DByjTYrFUV9+ES5y7S8VqtDrlGZjSttT0AlZWXlFRXX2TnjGInaEJi8XS1PS48HyR3e4AEKRtwSfzJ09MPp8vFApZrVYgUQcOHBwYGAgGg3a7o7+/H9x9eLgoLWkwFDocjra29mAwOD4+jp49jVZH58QAJvqydn6+y27/5xxRNb2UcEFvBb2+/Cr74qXL4HYTWszPL3C5ZugWIiMdLxx6LKbR6oqKLnx3JAdyqNmkp+9zOBznPzhmNVrd3rT0kiul4BagHEbaVnb213vT0oV+Sg1Gr9+Zc/QYUnHoCa24Zu06q/WN0VgplLlVUwPmYTRW2mw2YNpffpVdXHJF8IChxX75VbbL5c7LOzVzbmdxicMxYzNUlw0bN5WWXv3yq2yE6Pz5opGREYqD0uSwsJAwGisHB2cmqWgDajYPKnSbzaFQyO//x3GN5216PJ6urj9AWalxwmPh8eMnY2NjwWCwvb0dvTdUO41Wtzsl1el0Xr9eDl2travr7+/fvGWryWTq6Oiw2x3BYBCfNtK2Zg7pVegF0iJ8bggo4aUSWGoGcFM8evSbRqvLyzvl9XrBFw13YnFxSbfZHBefAFxlBpD+/rPn8qUqqN3Li6GX1OZRZSFhMBR6PJ7Mw1lWqxW/vJhMpra2diiZl3eqoMAANwJ9f8EHR/QB0geX1DaEZQ7T09PYHHoXsW/o2UMPP8i02WwTExONjY8mJydfvvznEODyiorx8fHp6Wk0Y3hCKvXSaHXp6fvcbndfX9+nnyVic0ozkD6jpM95tWcUfOxzOBw1NbexIWlCOl7C+1FaMXYzmW3SW4nTjAAjEA0CH8mlIsVsMxpAF6dO+BcVvOry8wvcbndxyZV+ux1X5cHMb1bfJsy2m5oed5vNSDkMhsJ+u7245Irb7c7PL6DfbqWzRqOxsttsbmp6jHN3qVg1tqlsS02v7duTbTabwVCIXQ2DD2gEuiDb7LfbIU1nCRaLxWaz7U1Lp+7ZltZWm82WvEN//Ptcl8sNbPPOnVq32515OCuRuIINhsJAIFBdfVPpChbmxHR+D9MyGC81vaRsU6kXBeH69fI/BwdBx8RtSf12e93du7SAxWJRjhd8mBgeHg6FQsgosFZcfEJX1x+AgEare/jw15GRkbdv346OjgqrdjVa3ekzP7ndbmBl0rZArICMmsFQxy9UPPRFptfrra2tA3/j+Pj4tbIy6KHZ3JO8Qw+eWHBjnjp9JhAYMzU3oxsWlYIEWuyGjZv6+vqMlVUara6+vgGq0/ESKmZnf+12u/E7C/wafmiohPKKip4eC7UBapA032isDATGCs8XrVm77tmzFqv1zYaNm9AO96al22w2YJuYmUiMU6/f+efg4KuursRtSbm5Mwt3L1y8BD1RatfY+Ajkf/pZosPhgLXEJpPJ7Xbn5s58wMLlD9K2YFW8oBe0FeFzAwor/1UCS+0H9UrcluRwOB49+o2u9Th7Lr+/vz8zM6unx/Kqq+vQF5nA86UqqN3LyvGav15hbF6JAGih1++EewoKwHaJu3fvUUoGt4zwLqitrbNa37xz+yfv0NtsNljDEsY21B6wUt8mNaR/vvtUVt2//+D58zZD4XmPx3Poi0zwN14rKxMeklK91Nim0gwQKPqMCvP+gvL0GTVzvzc0vHnTh19hUKaQkI5X5uEsl8vV29tLP3AIFWP3ktnm4kzrWCojsJoQUHDMjxnMNpePIYR/UcEMFdYTlpZeFWYYEfo24SUKkxiYtsLburT0qtfrLSgwULap7A9WBDnASTCNvyorQo60rfB6qYmaNZ8yTzq5p1Oo5uanoAL1y2EB6edtOvHNzv7a6XTiwir6k+DbpIxi1p5HWGB3Suqfg4NIL+vu3u232xO3JQnKwlQSxwhWnPb39+9NS0/eoe/t7RVWnJ4/X+Tz+Y5/nwuzQJdrZiHr+vWf/PprvdvtTk/fh93bvGVrd3f38+dtuL9R2RYUFpDBzigNRvBbAqUZHx8PBoN+v9/n88FqZEA+GAwGAoGJiQn00Z06ddrpdAaDQfRaY281Wh20CzngKYqLT+jt7QXaSafRtBb4ZKampt6+fdvW9tFbKJSZ0yUdI2ob9C5GRz21Q3Q700xkCxS9uPgE6hlTapdz9JjH48nLO5WXd8rj8eQcPQYQwWMBPmBBWtrWnPTFgcahn1N1upNwcnKyvqEhLj5B6h/OPJw1ODh09lx+t9nc8eLFzz+ftVrf6PU7pSpQsxTu5Qi7F7leqDhWibAJLBYXn/DLL9d8Pv/bt2+p15raDxbGBBpMGNtA+8FakMAnIc2nhoQyjcZKk8mEVi31N1Ih80zTZ5T0nYLyhWfU8e9zPR7PqdNnwHMLjlzBwRvmpZZx8NDAwMCFi5fWrF1Xd/eu1+vdfyADQMBZBN3jit2IiQSzTRxETjACjECUCHwkl4oUs80oMV2EauHfSfAuX0rfprI/MFWK0LeprA4zA8GPGl4vpZAIcyJhmygK9IJLnGMJ4VWQnHu9XmSYKCH8StrwM0IqJML07pTUvr4+DHSx/0DGjMe7uERYDi0dL9oEpTcare5cfsHIyAgGGcJVphqtbv+BjOHhYXSnb96y9cWLl38ODqIjMUxbdFqPrE/wsUOvcP5KO6nR6jIOHvL5/OhxhV9hA6fSpZ9x8NDg4FBn5z+L+lAUZZvFxSV2u+NIztE/BwePHTsufB3AKjQBYmGPKM2PIo3zcsE3JQwHSKbdRvIgNU419KTaxcUn9PRYGhsfoZMzDNukTzuko5ErHsY2IhEi2A9UkWKo1++E5dbPn7c9f95244bx9evXM/uZTSalClKxkfQHy0SuFwyi1OZRWoSJkz/86Pf76xtU923iAmNQGcYrjG0sBtucmppCwBeWgAnPKOk7BZBUPqNedXXhamQYOzXMZx0vyrrVhMRWPrNNtFhOMAKMQJQIKDjmxwxmm1FiugjVwr+cpN/ysYraPJVODdU+8Kvt20ThmKA+QJwES8ViFZqQfvMOrxetPqe0tC3lZiSQSfWibBO3uWLTYWaowk90OkL3baKoqBOZmTM7eF+8eInrwXBLFVglTu+oXjhetF1qNtfKygKBwI0bRixAfwW2efZcvkarA6doX18fUk0AFteaCm0JyIQxGLU5sclk8vn8GQcPYd+A3k9MTFwrK4PMoqILsBUTF5ZnZBzafyADUWpra0e++uVX2cPDwzU1t61WKyxNpOOF+zbj4hP2pqWjBCR7tBtRpNVsngKOYilc2AGaiSXV0JOyTY1Wd/16ufP9H/DuhmGbyhsBG40kMasdhhci2A8UlmIYF5/w+vXrJ09Md+/ee/aspbn5KbALKVxSseF7IvwaRq9PP0uEJe5QhXZAjd0JwuklGiRKwwe78ktWt9n87FkLbFpGgwljG2r9wSch7Qm9TVBmGN8mrTv/tPIZpfacV3tG0fc23aQq9G3W8aI4CHVj9JLZJrUNTjMCjEA0CHwkl4oUs81oAF2cOuHfUhjHcv36T0qulGJMWqilNk/FSYlGq8M4e/AmFmLSrl//Sd3duzQmrXL/FcaWzDh4SBmTloqV7tvE+IG0rfB6KTGBJYIDAwMYi1VZRqPVSdtSY5uol7Bv0+l0Atm4d+/+vXv3lQ5M2rQwecXpiBCTllahaem+TVoA0t8dyfF6vU+emIQQOFiS+nxQLzpe9Q0Ng4NDuJIWzKC6+mYgEMBtfiAt5+ix0dFRXEkLtrE7JdXhcLx+/VrAX9oWyBGQkdohlMT5K6qj0eq++fY7n8+PVBZ+2rBxU7fZ3G02YwDexsZHoNfmLVth0+Pnu3ZbrVYIM3v8+1yfz4exTDds3GS1vrFa36CvQxqTFnaItbW1J25LisS3GaFxqtm89C5GuIR9m0rjlKIHcKE1UmChG7g+Gdim1+tV7ttUtkXlCOkInxsarS5CuAT7geZw36bwPHw3WBaL5VpZWX1Dw8DAAMRuvXOnVqmCVKygC72MXK/3wLrHxsZgfbLasxeEV1ffnJycPH3mJ9qWkAY7hDjMwmN2+/bkgYEB/EgELmtgmxkHD+FG3zC2UV5RMTAwQLkxtB4124SQsJcvF8fFJxSeL2ppbd21K0XQiF5KowTRApBWe0b5/f7KqirhnSJ9RlGZ4X2beNNRtE+dPuP3+y9eugwraem7kkqO0TSzzcWZ1rFURmA1IaDgmB8zmG0uH0OY9S0lPaOPngc4PT1NFxbih22QLD1DTO0MTI1Wp5xdSc/NUxMrpU/Ss9Gkeqmhsf9Ahs/nh6AmamUgX9qWdAqFMWkHBgY6OzvBA0bjWOL5jdIZquBahCGgmfS8TbU+S+FSFhZ2GaEbE0tStikdr8RtSR0dHcH3f/BoTcGK8CMFHFsXCoVcLtfJkz/gJka8azBApbQtYQUj9FZqMHRvHggHzwMcjme3fzzoBTQtLrkyOjoKW7Agh4biHBoagujNmZlZfX19oVBIeU5jU9Pjt2/fomtUo9VJz9tECbBfTuDYCDskIjdOqc1L2SbGpPX5fE+emGBopMYZhlFI2ea7s087Xrzo6voDT1I1mUx2uyNMTFq8EQTF6WWEzw1Ynh3JvSy96aQxaTVaXVPT40AgcPZcvtFYOTk5CVYkhUtNLNWFpiPXK3Fbks1m83g86I2X2jwIf9XVhbGUaXNCGu0wGAzibQtlqqqqYeUq2Ma5/AK/3w8xwBobH0FmGNvYnZJqtzvgHsGl8soPc8KTZ2pq6tatGjgRVPBt4nZriEl7pbRU0EW4jJBtqj2jlM954WGCzyjabni2KR2vuPiEGzeMamcdU+GxmGa2iS81TjACjECUCHwkl4oUs80oMV2EarH4ilr6PhsMhYJfd+n7wC0yAlIEYss49+xJc7lclG8L36ekOi5gZmzBtYCKoygggXfu1GIOJxiBfwUBZpuLMKdjkYzAKkNAwTE/ZjDbXD628K+8Y2Ku0dq6OuqNibn+c4dXMAKxZZzXr5e7XK49e9JwRJaYbcYWXIjSAiaOHTv+5+AgRFpeQLEsihGYKwLMNpfPVJB7wgjEKgIfyaUixWxz+QzqXF8PXJ4RYAQYAUaAEWAEGIF5IsBsc/lMBbknjECsIqDgmB8zmG0un0Gd59uCqzMCjEBMIAB7ev1+/7n8gpjoMHeSEWAEVjYCzDaXz1SQe8IIxCoCH8mlIsVsc/kM6sp+mf0r2iXv0N+8eWtp5vRL2da/AiY3uoAIxMUn/Pbb7z09FozQs4DCWRQjwAgwAnNCgNnm8pkKck8YgVhFQMExP2Yw21w+gzrruwEChE5PT4+NjZVXVNDyxSVXvF7vkZyjcLZeIDBG9YKgfBi0U4hqqIzpRyXTdFx8wrWysomJCRr5Vhq+j9ai6V27UiwWSygUomednTz5g8vlCoVCVC8MohjJXjKINKsM6Zm8Q3/jhvHMTz/TPkBaLUqnsqSQozzgDgpI21I7y06QKcR7hKC4GNA1GAx2dHRgNFRQ88SJk16vl8aQFGRGfknD59JxwSCQGKI2jMw5jVcYOVH/FHMYGo2Vg4ND27cnR60yV2QEGAFGYEEQYLZJp0ycZgQYgWgQ+EguFSlmm9EAujh1wr8z4BCz6+UVa9auq6m57fV6MbaEXr/TbnfcvHlLkCDwtJbW1r6+vl27UvampQ8ODjU2PqLnUq5Zu662ti78GWL3Hzzw+fwtLS2UbeLRZInbkiwWC5zfKPQELtPT97lc7pcvO91uN7IaODfP1Ny8fv0nlVVVfr8fDqmbE3tRY5vSbkDmgrNNaVsRsk2oK4wXXtLx0mh1C842oXUEXFAEuyHkC5dYPcLyQvWFuhRax8tliOGcbGOh8GE5jAAjwAgoEWC2uTjTOpbKCKwmBBQc82NGGLa5mhBaFroqXwA0Z29aesmV0s1btoL3kvq16u7eff36NfxEq+BUGzKLii58dyQH0viTwVBotzt2fr4LxA4NDWUezoIyyvPlTpw4mbgtSXAhmkym5uanUIVOoJUHSOr1O3OOHkNaAlUo66NpKFZeUVFdfXNW35rFYmlqelx4vshud+Ax5eiaA1chNFdccmVsbCwYDL548RIx3J2SarVaQ6FQMBhsb28HJE0mU0dHB5w9ODAw8O5MTugStRVk3cq2BFfb9PS00Vi5OyXV6XRev14Onamtq+vv78eBw0GBX+klBQF8YpmHs+x2B/VtKsfLYrH89tvvHo8nFArB0fAarY6KpWlhXKAPQnnMVCak47V5y9aOjg7wWre1tcM40kZpuryiYnx8HM7ow8XPFovlyROTz+cLhUJWq3V3SuqKwfD+gwezGrYSZ85hBBgBRmDBEWC2Sd/snGYEGIFoEPhILhUpZpvRALo4dSJ/f5w+85Pb7f7yq2yNVpdx8JDT6QwEAqFQqKOjA6lLGJ4QF5/Q1fUHcDCDobDfbi8uueJ2u/PzC8KzTeihkm2aTKampsfdZnN4tgnVBVazYeMmq/XNs2ct69d/UlNz2+l0pqfv02h127cn22w2g6GQylSDCJoGXZBtQmFwe0J6d0qqy+V68PDh+vWfVFffDAQCwNZaWlttNlvyDv3etHSn0wnH35lMJpfLffz73OQdervdgZRVbSWt8jx08EMKjKKx8ZHV+mbDxk2ffpbocDhq6+pQKUq9hOGjIJRXVPT0WJTdkLJNm822Ny09O/trj8djrKwSxNIWhXFR6xXmCwnpeF0rK/P7/bm5Mx8p3tHdMGwz5+gxv99/raxM8LFbLBZQgQ7NysDwWlmZzWbDBdICnnzJCDACjMCSIcBsc3GmdSyVEVhNCCg45scMZpvLxxAifK9s3rK1u7v7+fM2iC/y4OHDwcGhGUbx9TdApVAO5RKYqdHqzp8v8vl8x7/P1Wh1wNBKS696vd6CAgNlm7QKTUvZJrRFSRGtQtNKVnPoi8zBwaHp6elAIFBQYKCF55+mbDPzcJbT6czO/lrwD1sslurqm9CW6f2f8Kys326nTkXsJG0LMpWA5Bw95vF48vJO5eWd8ng8sGwYm6bUlA6fUg42GiZB+4NpKpamleMi7VWY5pQ/NTU9Ro1QBdooptV87NhtjVbX3PwUOP/KwBA3PMO2aiV6nMMIMAKMwNIgwGxz+UwFuSeMQKwi8JFcKlLMNpfPoEbyUtm8ZeuLFy//HBzcnZKq0eo2bNxks9lwD2R9fQNO7gW+hMLP5ReMjIzgJs8wvk2sIiSkbFPp2xRq4aXAananpA4NDdXU3I6LT7h46bLf7z91+gwWnn+C0pXMw1lIp+mqXVwHC8YAlAaJkICk0qmInaRtQSZSLCwTF5/Q02NpbHyEDjr8ibYoNKqUg7XCJGh/ME1boWlhXFAsLYOZESZoXVSBZmLaYCicmprCmzEQGIMV3dhAJXZsAAAgAElEQVRt2uLKwNBYWWWz2ehiBKojpxkBRoARWDIEmG3i24cTjAAjECUCCo75MYPZZpSYLkK1Wd8ryTv0vb29fX19QDU1Wp3AEOrrG/5/9t7+q6mj6x/+l5KVH4Gf1bVc9W35UwuLx4VZVvESeNoqRVu879aXqtftS18gaKu89JIvYBCkglUfwF5gUBBUSiEcIiFJISTkRMMFcpnwVHfvnf2dmRNiML2CbpbLNWcys2fvz8w5Zz5nz+wZczpRDk7lMedyfX0kErlyxY45Rj4lLCAnZLap3LcpV4QcQWebrSoUCgG1EH4ykvBa+ZSuJOPbROEUPZpeJds0mS0NDY3+V3+wtFXZosA26b5NLL9igtqOafpJQrBrZmYGv1ygcFoGM5NMKH2bSgXoOKTCUW2a+XZgmFqfCjjwJSPACDACq0eA2WYa5nQskhF4xxCIk0spxWwzc8ZC4hfGnsK9Xq93dHRU2OjVPzBAV9LCnkMQJfAE2Kn4/Q8XaUOwX6756tWNG9/ruHGDxqSV9wFCRYFtYkxaIMMYk1aOEgTVBUpZ+mlZKBRC3+azZ8+Ui1RR56zsHJfL5fP5BBywgJCgdAX2bd6584u8b1PTtNy8/IKd1t7eu5fr6wWyR5HcsaPA5/NRxo4t0rYgs7GpyefzCVtJQQ1d1zGqMBSmrVAFhHiq2JyQkPuL6oPpy/X1uh4+/tWJ3Lx8t9vd2dkFcnbsKJienrl585Ygtqenl4Yygl+rzl94/vw5hjsSquClct+mUgEIuXzpUnVWdk7V+Qv9AwO7dxcqt8KC8LcAQ7u92e12b9q8BeEymS27Ptw9Ozs7MvIbn8NJYeE0I8AIpBUBZpuZMxVkTRiBtYqAxDHjGcw2M6dTE79LhKWGuNcLT9FcWlrq6emlC/ME9iKsF8U1t0bnbSrZC4ULIrLi9jOMGgqGyGxTMAHCtJrMFjxHdGFhAWhnAig+/mS/rodpcB1lYXqGJOgM62MxJu3g4JDX+2dMVxqTdnh4uGCnlZI9IW0yW65ebYFln4ChUVsms2VP4V6PxxuLxbC/QNuHjx5RRiEEsMWlvKC5cN6m0l6AcWlp6eatOF1Ehklp29Zt2+/dux+NRoX+MpktjU1Nz58/X15eptqWlx8OBAIUQ5PZ0tnZFQwG9+0rNlIG8pUxaY0UoDFpa+vqQAI1QWhrTWOYlZ1z6/Ztr9f7/ge51K7Tp89EIvPV1TU0k9OMACPACKQVAWabdG7DaUaAEUgFgTi5lFLMNlMBND110voueWuE22xVuq7T4DprzrR9+4oDgQB4UNec8iazBbZNohM7SRNw32aS5RMXW9MYwueJcDiMB72gsfbmq4FAAJfKYz4nGAFGgBFIHwLMNtMzrWOpjMC7hIDEMeMZzDYzZyCk70XyNklu7+igXsG1aFpDQ2MgEFjRMZixpu3bV+zz+c6e+/q1NHyzbHOtY2gE3eDgUHf3HaNfOZ8RYAQYgXQgwGwzc6aCrAkjsFYRiJNLKcVsM3M6NR2vEJbJCDACjAAjwAgwAoxAAgSYbWbOVJA1YQTWKgISx4xnMNvMnE5N8CagP5WXH/b7/c+fP08cTYdW4TQjwAgkg8Dev+3r7+//8sjRZApzGUaAEWAE3g4EmG1mzlSQNWEE1ioCcXIppZhtZk6nJvnS6unpHR/XaDSgJCu+brGt27Y3NV2prqnl8JivCx2XX6MI0FNY16gJBTutra3X5B2ha9QcVpsRYAT+AgSYbWbOVJA1YQTWKgISx4xnMNvMnE5N8o3S13cPYpZCeTxQhEagdTgcYFeS4UyVTW/dtv0fl+t/uHgpBba5bv2G7u47S0tLrwKfPikqLlE2IWQmM9eHIKXCKSyCHLiEMidPngqFQugH/q6iUtfDsVhsYWGhsakJSmZl51yur19cXIQou5CJwX6j0ejExIQQuKXjxo3fp6cxUxnXNzcvv7+/PxaL0f5Kvi2lAkL8W6pwVnbOgweD9EvEnsK9ExMT0Vd/Q0ND8IUCxwaMEDxg85tvvg2Hw5HIPJx9CiAkb5eyLWWsXaMgxrt3F2qaFovFUCWT2aLsr2TagnDBRm0p7TKZLfIIVPYXxvhNbRzCPYtPHhoBGGA3+h/ucWEMCDGEC3Zar1yxn/v6GyMhifPTcX8p+8uoa5TjUKmzcmwY9ZdSAmcyAowAIMBsEx/InGAEGIEUEYiTSynFbDNFTNNQLcnXnsPh6Ou7h4WN2CbMtpM8qhGlvalEXd2Puq7DoY5jTufjx8PJSJbn+nKt1cyG9x8oDQaDcMhKZaUtFAqd+vv/mMyWm7du6Xq4v7+fkrf+gYHJycnduwtlDL88cjQQCFZUVIJ6eGbpuvUb2ts74MzS9z/IffJkUtM0j8dL2WbybSkVKDt4aGZmhhJChKiionJ2dvaLL49gTv/AgNfrBRP8fj89ixWI3NzcHFhRW1cXiUTu3buv6zoKfy27lG0pIwPhAa25efmapkFs25KSjwKB4OPHw8FgENmmsr+ysnOGh4fHnM7cvPzduws9Hu+t27dNZkvybSntAtDkEajsr9WzzSmPB7+AYH+tmKBflOSDeVasnkyB1dxfeJ7tuvUbLl2qxtjRyrGhHAbKcahU26gto/5SCuFMRoARAASYbaZhTsciGYF3DAGJY8YzmG1mzlhI8rUnzDiBbTY2NbW0tOIRmrQM5m/dtn1oaEg4aLG9owOPmIdTJRoaGmEiC8igTJPZghKi0SieS4mZ9PxGqsBnn5fX1f0Ip9j/4x+XI5HI8vIyPf4Bz8B89Ogx+iHpGZjol4NZfk9Pb9X5Cx6P12rdBaDJZ3sC/ZiefknMPJ4/z9W02apCoRCwqXXrN7hcT4DYnDx5KjcvX/BTXbjwPTI3as6mzVtGR0cdfX3o8rXZqjwe764Pd4NzDNjg+x/knjhxKis7B6bv2LnJt6VUwIhtbt22fWJiorX1GjYEWLW0tEKO49Uf/vrFl0d0Xcfy5eWHi4pLKD4ms+W17NI0TW5LyQDp5xIsYLXuOnL0GH46AT2pPthfQplrbW0wRFEU2gjDGD/NYAGlXVBLZpvK/jIah7RpTNvtzcI4tFp3Kdmmpmm//PLPubm5WCwGdPqPhnLz8seczlgsNjc3NzLyG70f6bCE5vBMXfzAYbc3z87OhsPhMafT5Xryr3/96/TpM3ASrMvlisVi0Wj0Td1fZQcP+f3+8vLDJrOF2qgcG8phoByHiCRNGLVl1F+0LqcZAUZAQIDZZuZMBVkTRmCtIhAnl1KK2WbmdKrw9Fderlu/4dGjx/SMhB07Ctxut81WhZNpwemB+devtweDwbKDh3KJT+nI0WOBQPDYseMms6W6uiYYDH78yX5sWpjOXr/e7vf7i4pLwN3X2dVlMluUYoWKILD007JgMNh89Sr1AYKP4tbt2xs3vtfS0hqJRMDn0z8w4Ha7C3Zai4pLqF9uzOm025tttqopjycx22xsahof1+ist/TTslAo1N7esW79hh8uXlpYWKCHXgpsE0HIys4ZGfkNp++X6+v9fn9JyUdYAJSprqkNBl86PAXfo8A2oVaSbUFhqkDZwUOBQGBiYkJYDHy5vj4cDj9/9YcrhDVNs9ubx5zOnp5eyjat1l0+n6+npxcJMzRE2R2wzSmPJ0m7lG2BmbOzs7FYDHkIaNLT0wtdSemTwCSV/QVoOJ3jMDamp2d+HRkx8m0q20rQXzLbNOov5TiEwsL/8jikY5IW1jTN7XYXFZeUlx+em5uzN1+l91dRcYnb7aZwKe8yYMI4XKELjhw9NuXxnDhxanxc6+npNZkt6bi/4FNIRUVlMBisrqlFRq0cG8quATSEcUghwrRRW1DA6P7C6pxgBBgBigCzzcyZCrImjMBaRUDimPEMZpuZ06n00S+nYbNWNBp1uZ5QQiiXNGKbSmfCps1bXK4n7R0dMAGFiTvKFKazY04nzmKt1l17/7bPyH0kVASBSp8S9VHQub7SH4KKpZxobGpaWFiIRqPhcFjX9dJPy1CU0Qz1/PkLsCrYZLaUlHzk9/uBoyJ/A/ZSV/djKBSqrLSthm3StlAxmrn/QKnP5/v+h4vr1m/ouHEjFAp9/Mn+9z/Idbvdjr6+jRvfa2hsCofDsEIYZvlAd1FbcMBGIvPyflRhlv9adinbulxfPzU1VVRcUrDTOjExAaMLNIERgp9CwFiBbZrMFmV/QVjmaDQaiUQWFxfBGy/sEQWvtbKtBHbREYj4A5Wlq6zpTymkwUx88qBk+mEC0/S2FW4r4RI1wbqo+R/fmDRNKzt4CIdBOu4vYICwRr2u7keBbQrjUNk1YIIwDoV9qgCXUVsgQbiXhbGBDzFEjBOMwDuOALNNfCBzghFgBFJEIE4upRSzzRQxTUO1ZN52Wdk5Dx8+hK1uCcrTaShO6IXwMOgkuX69fXJyct++Yq/XW11dQ8VSOYLPBIspxQoVoTDM8sEhCZPFsoOHMCHEaME1gYD0m50g7j9QquthQaYwQwWdv6uofPr0Ka447ezswoXHOHEHu5L0AYLYZNpSKgCZ8D9So2PHjgcCAVgh/P4HuV6vF7iW0qeEEgp2Wp3OcbqlVpjlv5ZdidtC2mO17gLckvFtoqrK/oINnEjVcJxjLfgU4nA4hLYS2IWQUiFUeSE/tcsEvk0ck8gYcZgJX5HkS1QG66LmSrZJn2HYLgpJIQH3Mvs2U4COqzAC/1kEmG3S5yGnGQFGIBUEJI4Zz2C2mQqg6amT5MvG4XCMOZ2JC1Oyh/s2qZOEVofFtG1tP/0+Pb1vXzH9icoxmS0r+jaxLq2I+zZT9m2i2DeVcDgcuh7ef6CUCpQZ4OX6+kgkcuWKHYsJ1Brm6Eq7sAqd+mNmMm2ZzBZZAZRAyTllie9/kOvxeGExrdJ/tfdv+97/IBfkCGpQOUb7NlEBwS5lW1gYaQ+wTXkvJZSUfZuQr+wvm61qcXER10IbsU25rQT9lZlsE02gt9Xq2Sbus6XdtJo0XadAGbVybNDHkdB3wjhUqmTUFhQWBrZSAmcyAowAIsBsMz3TOpbKCLxLCMTJpZRitpk5AwGf+4kT1NdhVBJnpTSeKu663Lpt+88/3/z555tQPSs7Z3xcm52dHRwcEgSiHMhHCSuKVcakxX2bGze+13HjBsRuxdiS8r5NTdNy8/ILdlp7e+8iqRA0hEtllCBlSZPZ8l///YWuh+WptjBDhU2k3/9w0UgOdgTGOKV2YS2BlUF+Mm0pFThz9lw4HP7h4iVYSUsxxJW0cizQ/QdKce9rd/cdiLW7om/ztezCuKO0rc6urunpGVxJCz55DEYKy2upo17JNpX9tWnzljGnc8zphOhTwGbRXY/gK9tKYNcq2WZWdo7L5fL5fLl5+aiDnKBMjP5Khwqm0YTV7NuUfZv9AwNv/P6i93JNbV3icYh2ycMgGbZp1BbgKdxfFGROMwKMgIwAs83MmQqyJozAWkVA4pjxDGabmdOp8gtAmdM/MPDo0eN16zcof4VMdMHR8zZp8NjJycmyskMowd589d///jcuoxX2lS0vL8M8HiUYxaRFsUbnbSaOSTs4OOT1/hk/lsakxfi3qLCQSJ5twqGUHo+X8gFh1S4szhQyZSaDbBO2F87Pz9NYu8Jms+XlZXCECmITtCWUBAWysnOuXLEvLCzEYjFdD3/3v6ewnDr190AgEIvFwuFwbV0d4KM855Ae4+lyueAoVBwwcDvgqZvyuZRGdinbys3Lf/jwYfTVH55Zqjxo0WarWlpaojcjLAZW9tfLiFY1tc+ePTtz9hyOBGFvHo7YwcGhFy9e0IDJyv4COTLbFHoBF+5iuzTx8Sf7dT0Mu6BpvpAW7i88bxMZJl21jjFpdV2/e9dBx6HwMUjZNcC7ZLaZpvtLeQamcmwoh4HROBQAhEtlW6/VX0qxnMkIvIMIMNukbx9OMwKMQCoIxMmllGK2mQqg6amT5BsOQqQ8f/48hfP6kmyCizEC7yYCMtt8LRxstip06L1WRS7MCDACjMB/EAFmm+mZ1rFURuBdQkDimPEMZpuZMxD+g28abpoRYARWj0B7R8fIyG/CuTKrF8sSGAFGgBFIKwLMNjNnKsiaMAJrFYE4uZRSzDYzp1PT+i5h4YwAI8AIMAKMACPACMgIMNvMnKkga8IIrFUEJI4Zz2C2mTmdKr8AOIcRYAQYAUaAEWAEGIG0IsBsM3OmgqwJI7BWEYiTSynFbDNzOjWt7xIWzggwAowAI8AIMAKMgIwAs83MmQqyJozAWkVA4pjxDGabmdOp8gtAyFHGYMzKzrlcX7+4uIjRMuXQlBD0UhkEMkF8TqF1k9mSfGxJuS7kyDFOTWaL0i48DEMIvKmUDME8hWMPlG0pq9NMGheU5idIC4BDR9DMcDhcdf4CSEiHXUKMU4woq+wvk9nyzTffhsNhLGYyW15rbNTW1YXD4eXl5fn5eTjYE8GBELJjY2Nbt21PIFZWwGS27N5dqGlaLBaDaLQgU9lWWdmhycnJWCz24sWLwcEhaEuISQsRgEHI8a9O6Hr4woXvUU/l2FCOQyWGQuhUVFhpFzbKCUaAEWAEMhMBZpuZMxVkTRiBtYpAnFxKKWabmdOpiV9CeL7cuvUbLl2qxtCXN2/d0vVwf38/sk2UI/A0POAuNy9f0zQ45xDPHly3fkN7ewec34gShASeqVhUXILnNyrFChXhUtmWkV2rZGXKtpRaCZkpsE2QIBwSiNFNs7Jz2tp+CoVCpZ+WmcyWdNhldH6jsr9q6+oikci9e/d1XS87+OcpOHgwZm5e/vDw8OPHwyazBc/2/CPsTfPVq7OzsyUlHx05ekzX9YbGpnXrN1C7AIQLF74PBALl5YfhUjk2lAqUlHwUCAQfPx4OBoNI3pRtbdq8xeV6Mjg4lJuXDzSyoaHR6LxNk9myafOWkZHf7t51YPAe5dgwGodKDHHMfFdROTc3V/HqHBqlXViSE4wAI8AIZCwCzDYzZyrImjACaxUBiWPGM5htZk6nJn4PlR085Pf7YR5P2cXJk6dy8/IFtx6IEtimw+Ho67sHP9ntzXBwn81W5fF4d32422S2lB08NDMzgwyktq5uaWnp5q1bqJimaS0trSgc3EdKsSazRT4DU9mWkV3AyhqbmlpaWukZg6gMTWia1tPTW3X+gsfjtVp3mcwWZVtwjOHduw5d1+kBjJ98csDn80WjUY/HOzU1BXbh4aK0pM1W5fV6BweHotHowsIC9ewZsU2T2bLrw90ez5/niBrZJcMF2iZjFx0PAixyf5WXHy4qLhG0pRz7+x8uAox0UO0p3Ovz+f444aOouKSmtg7ciciooVGrdZfX621r+wl1UI4NpQJW664jR48hFQcJyrY2bd5SXVP78Sf7oQxqjkMaW4dEdU3tlMezp3Av5ivHhtE4VI55EPXFl0d0XW9tvQaXSruwUU4wAowAI5CxCDDbzJypIGvCCKxVBOLkUkox28ycTk38HgIqWFFRGQwGYQJNz9ukxADlyGzT4XD09PSOOZ04NbfZqqY8nuqa2mAwWFFRuSLbtNubx5zOnp5ex6s/k9kCCUGsEduU2zKya8eOArfbbbNVoapol5wAi8AWZJtTHg+kKYvWNM3tdhcVl1D3bP/AgNvtLthpPf7ViUAgCGzz+vX2YDBYdvBQLnEF22xVkUikpaVVdgUL/I0yMcoGjexSsk0ju4T+Avmapr148WJpaamzqwv8eJqmyf0F6AnadnffmZ6e2X+gNDcvf8zp9Hq973+Qe/bc10+fPq2urgE35vz8/OnTZyj4Z899HQwGP/u8HDI7u7qePJkEIgo5RmMDPgeEQiH8tAHlBbaZoC34KTcv3+v12puvgm9zZmZmdnY2Fovhd5ncvHyX68nTp0+j0ajL9QQ4p3LMG41DIwyt1l0+n6+npxddpqCSACw1gdOMACPACGQmAsw2M2cqyJowAmsVAYljxjOYbWZOpyZ+CcFsuLLSFgqF6up+nPJ4UmObQEGRwsHMu67ux1AoVFlpo2xT1gdm3uBNEtimIFauCwRjyuMR2kpsl1JOMpmUeQpsE3f09fXdgzT1X6GvTOmXo1yivPyw3+9HvkR/AkdxKBSCPqJsMxnlE5RR9teOHQUTExPXrrWtW7+hprbu6dOnQAuV/QXCBW33FO51uVyxWGx+fn5xcbG7+47JbMnKzuns6lpaWvr3v/8dDod9Pl9uXj7qtnXb9rGxsQcPBoFuHf/qxNzc3Jmz58AlC6thYZAox4agAIg1YptCW6hDa+s1v99fUvKRyWy5XF8/NTVVVFxSsNM6MTHx68iIyWypq/tR1/XjX53YvbtwcnISVggrMTQah0YYwr7caDQ6MTEhOE4pi6bbd5eXl+Xl7mgLJxgBRoAR+E8hwGwzc6aCrAkjsFYRiJNLKcVsM3M6NfFrBmbDf6VvU9ZH6edJ4L8SJMAsX/DLJbZLkJD8ZTJsE6WBXXBJ2SYdG7jwmHIJlCA764x8m7RKCmklhlQOJWzK/oLCSrJnMls6u7qePn36X//9BZV55uy5+fl5XJQL4X8ePXr8+/Q0Eq1fR0YGB4egFuKZYGwoFaDKowJbt20X2oKfrlyxRyKR8/8bfgnLo5/Tat01ODiEHxcu19f/Pj1tte5SYmg0DhNgaDJbCnZanc5xILGggNIuqhunGQFGgBHINASYbdLXPacZAUYgFQQkjhnPYLaZCqDpqZP49WO0rwxqJbmS9rX2bcr6UB8g9W3KYuW6RnspE9ullJNMpnJvHrjdkH6gHGoXZZtoF5ZMwCWEnyjbpPs2UVRqCSO7UBolbNQu7C8oKWgLmf/13188ffq0s6sLpUGUnTGn0+PxomMTnIeTk5NINQFYelugbxMxRHd6AgWo8lBM2VZWds7Nm7eePn363avwPFRbSOPtgL0Jzk+fz7djR4ESQ6NxqMRw79/2vf9BrtAWXCqBlTXkHEaAEWAEMgcBZpv0/cVpRoARSAWBOLmUUsw2UwE0PXUSv3gwZubGje/V1NZhTFqohdNrKkTYt4kBQmEGL8Sk3bjxvY4bN2hMWjlKEMbn3H+gVI5JS8Uq921iLFDaVmK7qDmQzsrOcblcwqpOuZiyLSO2iXYJ+zb9fn9RccnWbdt//vnmzz/flB2YtF2BZiDbFGLS0io0rdy3SQtAWmnX/gOlwWCwre0nWEmLYwPtov0FcgRtIdPhcMhLPV9tVZ3HZdt7Cvd6vd7R0VEkn7KS6NtUDrkECghsU9lWVnZOT09vKBQ6/tUJ2jSG1aXj8Pr19nA4jCtpE4x5o3GoxLC7+87k5OTu3YXs26RdwGlGgBFYowgw20zPtI6lMgLvEgISx4xnMNvMnIGw4ltKeR6gpmnUBMoWBLb5WmcqmswWmW0qzx40EqukT8mfc2iExsef7Nf1cHtHh1EBzFe2RZ1dWBJj0vp8vuHhYXB+0pi0k5OTZWUvDwtRkjTl3jyaSc/bxEaFhBIuoQxcKu2qOn9BPgNT2V/CWZF46ubxr048e/bscn09bXTrtu2Tk5PDw8MYC8dmq1paWsIhB0e50ip036ZybCgVEMQuLy/b7c1CJrQFjBQVWF5ehv7Kzct/+PBh9NUf7qXcum17T0/v0tJSNBodHh4u2GlNgKHy/lJiWLDTOjw8DG25XK6i4hIIl0W1QmAFcPiSEWAEGIFMQ4DZJn16c5oRYARSQSBOLqUUs81UAE1PnUx7/WSmPn8cwoG+u8zUkLViBBgBRoARYATWEALMNtMzrWOpjMC7hIDEMeMZzDYzZyCsoTfTf1DV9o6OkZHf0NX2H9SEm2YEGAFGgBFgBN4CBJhtZs5UkDVhBNYqAnFyKaWYbWZOp74Fbyw2gRFgBBgBRoARYATWFgLMNjNnKsiaMAJrFQGJY8YzmG1mTqeurZcTa8sIMAKMACPACDACbwECzDYzZyrImjACaxWBOLmUUsw2M6dT34I3FpvACDAC/1kECnZaW1uvGZ0N85/VjVtnBBiBzESA2WbmTAVZE0ZgrSIgccx4BrPNzOnUFV9CtXV1ScYdpTEzMT4nyu+4ceP36Wk8LFGOcSqE/cTommVlhyYnJ2Ox2IsXLwYHh7Zu2y4ftIhBcb/55ttwOIx1oXW5LRq7dXl5GatnZedcrq9fXFzEHDnsJxzqaGQsnApz8uSpUCiEB3ggCDSBB2/QKL7KeKq0ljKtDFqrLImZAgLLy8vKQK9YPvmE0i5l9dcyFmw8efLUzMwMdAEdBrFYzO/3f3nkqLKhN5KZJruUMWmNFIbgxvTkoa3btvf13Xvx4kUsFsMgxlBdOOzUSKZRvtW6a8rjwTGceMAU7LReuWI/9/U3RtIS58t2GZVX3l9pekYpdVD2lxDxGMenUgJnMgKMACDAbDNzpoKsCSOwVhGIk0spxWwzczo18WvvyNFjuq43NDatW7+hre2nUChU+mmZyWzB8wCLikvwDMz+gQE4D7CouGR6eqa7+w4K//LI0UAgWFFRCTl4fuO69Rva2zvgvE1hdgslN23e4nI9GRwcys3LP/7VCV0PNzQ0CidYXr/e7nK5Nm3eUltXF4lE7t27r+t62cGXZ4eYzBZlW6jY1m3bHz16PDLy26bNW0xmy81bt3Q93N/fT9kmFv6uonJubg6sMDJWORtGCTShZC94VmRuXr6maXBUI62lTKfANlEO5bqYuZqE0i6lwNcy1ohtwkkk69ZvuH+/f2pq6v0PcpVtrT4zHXbheZvr1m+4dKl6xbjHMiu7XF8fDAa/PHI099WA+XVkBC19s2yTitU0DS/fSEK2y0isfH+l6RmlVMCov1YJtbItzmQE3noEmG1mzlSQNWEE1ioCEseMZzDbzJxOTfw+KyouqamtA3di2cFD6K/TNK2lpRXq4kzrwoXvv/jyCGbilHTT5i2jo6OOvj6M6WqzVXk83l0f7jaZLWUHD83MzJQdPGTENqtraj/+ZD+IhVmpyWy5cOH706fP/Oe7oYkAACAASURBVEE7c/PyPR4vUNDy8sNFxSUC9VK2BdKysnPu3nVQj+vJk6dy8/Kp7whKmsyWL748out6a+s1yDEy1m5vnp5+aY7H40W/EAqhCWAvjU1NLS2tiJXD4ejruwfF7PZmyLfZqrxe7+DgUDQaXVhYaGxqggLt7R1Lr/4GB4dCoRAQ7O8qKsEXTUva7c1ut3vM6YzFYuFwmK54pGwTuD1+Jqiurpmdnf1/P/oYMOwfGBAUULaltMtktshneyqNpRDRtM1WNTc3V3bwkMvlQt8Rjgc4lTQQCO4/UErdfS6Xa0/h3mPHjk9OTu76cDcaOz6uAYyNTU0LCwvLy8sUFk3T7t516Loei8VAgslsSYddZQcP+f3+8vLDIJ/6EqntmNY0raent+r8BY/Ha7XuMpkt0LPwreSzz8ura2rXrd8guNrQa40+wMRjAyylzyj68QUxpFpBYWD+oNXs7Gw4HB5zOl2uJ//617/gbt1TuNflcsVisWg0OjT05zoF+Hgk2KUcMCBZuL/S9IxC62jCqL/wGUgLc5oRYAQSI8Bskz5mOc0IMAKpIBAnl1KK2WYqgKanTuKXAf317Lmvg8HgZ5+Xw+zQbm8eczp7enrlmVZWds7IyG849bxcX+/3+0tKPkJpNlvVlMdTXVMbDL50eFK2qWnaixcvlpaWOru6kJ1Cxdy8fK/Xa2++inJMZsv3P1wMBIJIR4F1IPWCS7ktkGBvvhoMBpEho1iZbVqtu3w+X09Pr6CSyWwRjG1sahof15TMGeVDYseOArfbbbNVIauEVbuIG+bbbFWRSKSlpZW6gsFne7m+fuPG93755Z9Pnz4tO3gIfC+3bt8WfGV2e3MkMl91/gL4AF2uJ8BPoEXkuiazpaGhEVzNJrPl15GRwcEhwDASiVy71kYVMGpLaZeSPMDI6enpHXM60VgBJbz89ruKqakpq3WXpmky26R2NTQ0Undf/8BA6adlQFEePx7WNK2s7BAgjxhSu2B4u93uouIS6rpPh13wqaWiojIYDFbX1K7INgEouH2AbZ45ey4SmXf09eEadURMuDGLikumpqauXLGvW7/hcn19OBw+cvQY8Dfl2DAawzLbhBYp84c76MjRY1Mez4kTp8bHX5JkWBPhdrsLdlopsCazRbZLOWBMZkvi++sNPqMQRpow6i+Hw/HkyeSzZ8/o5wlakdOMACMgI8BsMz3TOpbKCLxLCEgcM57BbDNzBoL8AlDmbN22fWxs7MGDQaBbMOOH+aUwqTWZLefPX9B1/fhXJ0xmS0nJR36//3J9PaVSMF2uq/sxFApVVtqAbe7YUTAxMQGUpqa27unTp+APQX1aW68JrBWYnrDcVPZtTnk8QlsgE1xA8/Pz6C2EfJltwqa1aDQq70elxqKqKScomEjAqEXl5Yf9fn/ZwUPUZ4sFjHwv1CLqGZPZ5p7CvdBfH3+yPxAIfv/DRYHAoy/aqK3kbQdjgb2gsclXB1oIt1IsFpuZmQEnoewyfUmcpqYuXap+/Hh4dHT09OkzbrdbwBDtArHI+fv67mE6Sd2Stwsaray0hUKhurofV2SbSgXOnDnr9/uj0Si6YaEYHUtCRbpOwWhsrJ5tlh089JLbHzyEmijXRAi6pXz5Zp9Rwj5V8O4a9VdnV9evIyO5efn7D5TOzs52dnYBjafP+dcdRSnjwBUZgbWCALNN+ojgNCPACKSCQJxcSilmm6kAmp46ybyWYHMjXXEKbFPp2/yuovLp06e44rSzs8vtdoMnDSedSt8m1QTW8qELy2S2XLlij0Qi589foMWOHD0WCoXOnvuaZiL1gszEbWVl51RX1+h6+NTf/weF0Pk3ZprMloKdVqdz/PHjYcwUjMX8lBMIEcxWcSUt9daCcOrgQpOFKTIuoTSySGabkDMy8ltDYxM6OVE+Xfls1FbytoOxSfo2lWKpPw0LKDEcHR1taWl99OhxX9+9//N/Glwu164Pd9tsVUtLS3hjYXAppViUv2IiebuAvSTv20zQ9P4DpdPTM8PDw+h+pziYzBZcYAz2rjg20sQ2Ee3l5eU3SMDe+DNKCXUy/WXk+1UK5ExG4F1GgNkmfR5ymhFgBFJBQOKY8Qxmm6kAmp46K77qCnZaJyYmJicn6VI9Ix/F5fr6SCRy5YodxQpbyGB+Sf1yMIHDoD5QkbLNrOycmzdvPX36lO42hGLd3XeQymKLlBqBX07eI7p12/ai4hKYl9O2QIjAzfb+bR/GnqE/ycaiDiknZL+c4FpEyRRDNJn6G7EkEFe69Y7+JE+Oz577OhAIut1uJAMoX2CbuOeQCkw+rTQ2+eqCExIrKsWCi7Kv797NW7f6+u45neObNm+hGGJ1I7G0QOK0UgGosm79hn37ipEQ0v4yYneJ28INzHIvC2zz2+8qgsHgiROnoBNxDzYd0rQtI33kAQO1KEUHmYl9m7StVabT8YxSqpRMfxnhoxTImYzAu4wAs830TOtYKiPwLiEQJ5dSitlm5gyExK+6PYV7vV7v6Ohobl4+LYkxafcfKMWYtC0trZFIBNZe0sKYxukvxonduPG9jhs3wIe2/0BpMBhsa/tp3foNNbV1EJ8zKzunp6c3FArBulwUZTJbYN/g9evtNFPmZsq2Sj8tCwQCEGt3Rd9md/cdiLVLfZsrGitoVXX+wvPnzyGakfATvcQwrTCBhkXClOxhYWoX3bfp9/vb2zuysnNOnDj14MHgf/33FzIPQSFK3+arWEGuxcVFdBrbbFXz8/PX2sR9m8q2qHCalqMEKY2FKi0trc+fP0cFqByapgwH83HfJsWwvaPD4/G2t3c0NjW53e7h4ZcOaghneulSdVZ2TtX5C/0DA7t3F74u23wtu/oHBmKxGA5ajHG6ceN7OObBkF0f7p6dnR0Z+Q2pKRpIE93dd6anZ4qKS7Zu237/fj/dkdvT0zs6Orpu/QYoD2GWTpw4tW79hmttbZFIBKJYGbHNHTsKfD4f/XIEcozYFO0LI7bZPzCgadofkb0Kdlp7e+/CAntqDk3LwNJfMZ2mZxTKpwllf2Vl5wwPD485nbCSFp+HtCKnGQFGQEaA2WbmTAVZE0ZgrSIgccx4BrPNzOlU+QVAc4Slhrj6bk/h3omJieirP4wtqWkatYvGngGZyDYh2sf8/LwQC7Tq/AXhbE85PCY63BoaGnVdhxNZUD5VABdGyudtmswWjM85Pz9/5Yod5vSCCeAPpEdrulyuouISICS0LdlYCqPJbOns7AoGg/v2FQv5wqXyCEol2zSZLRiT9u5dB+x9NZktNE5sW9tPYJcRo1CyzZcnwdy85fP58BODzVal6/rjx8MJYtJiW4JFeCmTB6WxUP7XkRHZa42iMEEZDmbiklEasqWxqWlxcbGxqQlCLuEoojFpa+vqQIhSLMoXEq9l1+3b/9/S0hJlWcrzG01my+nTZyKR+erqGqE54RIHJ925CmW++PLI3Nzc8vIy3Ahbt20fGnoZ1nhpacnhcGDM5ARj4+rVFlhpTIe3wDaFBdWwPtaIbdKYtMPDwwU7rYI59FIGlv6K6fQ9o7AJmlD2V1Fxicv1RDgTmNbiNCPACMgIMNukswhOMwKMQCoIxMmllGK2mQqg6akjvwA4540jkJWdMz6e7OGZb7z11xW4afMWt9sNkU6grhHdfV3JSZaHTwzoAEyy1ltWzN58NRAI0OXrb5mBbA4jwAi84wgw20zPtI6lMgLvEgISx4xnMNvMnIHwjr/t/hrz9+0r9vl8K64L/WuUWbGVs+e+1nX92LHjWPIvZpvHjh3/fXqaeq1Rk3cnMTg4hAefvjtWs6WMACPw7iDAbDNzpoKsCSOwVhGIk0spxWwzczr13XmxsaWMACPACDACjAAjkCEIMNvMnKkga8IIrFUEJI4Zz2C2mTmdmiFvHVaDEWAE0ooAbLAMh8NybOe0tsvCGQFGgBFQIsBsM3OmgqwJI7BWEYiTSynFbDNzOlX5DuDM1SBQsNPa2nrtr5nT/5VtrQYTrpsJCGRl5/zyyz/Hx7XEcW4zQVXWgRFgBN56BJhtZs5UkDVhBNYqAhLHjGcw28ycTl3xfUZjtzY2NZnMFjlOrKZpcmhKDGD7zTffhsNhjBALLSrjxCqVoXFiUabJbFGKlSUIISsxuqZsF5pmtzcLgTdlsXhOhhzSs2Cn9coV+7mvv5FrlR08hOccyr8myDE6/FDZlt3ejGYmkGm3N9NxCGFa8XzUaDT68OFDDEsLZp48eSo1/WU16ICx25uxAHZ3MibgWanJ9Bc28QYTaw5Du715enpmx46CNwgCi2IEGAFGIAUEmG3SVzCnGQFGIBUE4uRSSjHbTAXQ9NRJ/IaAAwnhXMq2tp9CoVDpp2U4xYe6/QMDcCwkXArz/tq6ukgkcu/efV3Xyw4egjJ4VuS69Rva2zvgvM3EmpjMlitX7IFAsLz8MJxfIotNLGFP4d7Jycmenl48aFGw602xzQRqvHG2qWwrSbYJdYX+wsui4pLp6RkMVPPG2Sa0LowlNAfVwBxlAqsnWV4pZPWZQut4mYEYvtbYWD0yLIERYAQYASMEmG2mZ1rHUhmBdwkBiWPGM5htZs5AMHoNQH5RcUlNbd3WbdtNZgsypU2bt9TV/fjZ5+Ums6X00zK/30+jreJUGySUlx8uKi4RgprabFUej3fXh7tBLJ4VCTRyaWnp5q1bgmLnz194+vTp+fMXEog1mS1GZ/Rt3bZ97NUf2KK0C9lmY1NTS0vrir41TdN6enqrzl/weLxW6y5QDF1zeKKjyWyprqmdn5+PRqOPHj1G3yA9exDPLHU4HA8fPvR4vNFo1OfzffLJASBUdMDAKaD0zE9sS3C1LS8v2+3Newr3+v3+hoZG0LC9o2NqagpwkM/bpN1HQQCfWNnBQ3hOI0irrasT+kvTtF9++efc3FwsFoMj74VWaBNIF0Ea/k/LYKacgOpCf23dtv3hw4exWGx+fn5wcAj6kQqkaXreJi5+1jTt7l2Hrut4Yudbg+HNW7dWHNgyzpzDCDACjMAbR4DZJn2zc5oRYARSQSBOLqUUs81UAE1PneTfH2fPfR0MBoFkYq3r19s9Hu/7H+RiDp3KY6bMNqc8nuqa2mAwWFFRuSLbLC8/HAwGW1paUSAkBLEJ2GZPT6/X61WeXkjt2rGjwO1222xVybiAxpxOu73ZZqua8niQbYJimqYhA9xTuDcQCNy6fXvjxvdaWlojkYjNVmUyW/oHBtxud8FOa1Fxid/vh+MlHQ5HIBA8/tWJgp1Wj8eLQoxW0uKCXoqMrHx39x2X68mmzVve/yDX6/W2d3RgeaG/6CWV09jUND6uyWoo2abb7S4qLikvPzw3N2dvvpo+tqnsr8v19eFw+MSJU7l5+X/Q3QRsE3zsl+vrBR+7pmlgAu2atwPDy/X1brcbF0jjMOAEI8AIMAJ/MQLMNtMzrWOpjMC7hIDEMeMZzDYzZyAk+XYB3+CDB4M0vkhuXr7X6wWahHIoXcFMgRYCQ6ur+zEUClVW2ijbxCo0AXsvX7x4MTg4hE45k9kiiKVVhLSmabFYTNfFgJxKu4S6KVxStll28JDf74cFwOgfBpaI/Nnx6i8xK5vyeICmCvrQtuAnyhIh58jRY3Nzc6dPnzl9+szc3NyRo8dQiNBf9FKWg7USJKg+mKZiaXqVvk2lGj09vei+QxNoo5g28rGj2iazpa/vHnD+twPDrdu2Dw4OvXjxgm6BVsLImYwAI8AIpBUBZpuZMxVkTRiBtYpAnFxKKWabmdOpybxLtm7b/ujR49+npwXf4Pc/XAwGg6WfllEhOJWnmQItBLap9G3SWkJ6/4HS6emZW7dvY74gFvOVCfBfBQLBkpKPoICRXcrqr5VJ6UrZwUNIpwW2SYcBUBqKHk3LTkXUh7YFmUixsExWds74uNbdfQcddPgTbUWgu7IcrJUgQfXBNG2FptPBNql8NIFmYlqIIIWBrFBtaubbgaG9+arb7aafbKiNnGYEGAFG4C9DgNkmnQNwmhFgBFJBQOKY8Qxmm6kAmp46K75XCnZaJyYmJicnBaqZlZ0zMvLb4OCQIAGn8jRfoIVGPiVaBdJZ2TlFxSU4ORaEC2Ll6rC2du/f9sFPlOwZ2aUU8rqZlK4k49tE+dRAml4l2zSZLQ0Njf5Xf7C0VdmiwDbpvk0sv2KC2o7pzs4u9DcKds3MzNCYtCCfllmxRaGA0repVICOQyoE1aaZbweGqfWpgANfMgKMACOwegSYbaZnWsdSGYF3CYE4uZRSzDYzZyAkfmHsKdzr9XpHR0fljV6w5+37Hy4KEpQ8QaCFGJN248b3Om7coDFphX2AyGlz8/KT8W3KUYLOnvt6bm7u2+8qqG8zgV2COXCZlZ3jcrl8Pp+Mg7I8pSuwb/POnV/kfZuapuXm5RfstPb23r1cXy+QPYrkjh0FPp/vyhW73BxtC35tbGry+XzCVlJQQ9f1xL5obFSIpyq3CzlCfwn7SFG3y/X1uh4+/tWJ3Lx8t9vd2dkF1XfsKJienrl5UwwK1dPTS0MZQeGq8xeeP3+O4Y6MVFLu21QqACGXL12qzsrOqTp/oX9gYPfuQsEE2spbgKHd3ux2uzdt3kLt2vXh7tnZ2ZGR3+g6eVqA04wAI8AIvHEEmG1mzlSQNWEE1ioCEseMZzDbzJxOTfz+EJYa0r1e3d13lOwL6QpIxvMbwWRcrGh03qbMXsrKDk1OTsZisRcvXgwNDQHfMxIrs82s7Jy2tp8WFhZg32bVq6i2CexSAvLxJ/t1PUyD6yiL0TMkwV5YH4sxaQcHh7xeL2y/pDFph4eHC3ZaE7BNk9ly9WrL0tLS8vIyOAmN2jKZLXsK93o83lgsRvvLZLY8fPSIMgohgC0u5QXNhfM2lfYqYwgjw6S0beu27ffu3Y9GoxjlFQU2NjU9f/58eXmZaltefjgQCFAMTWZLZ2dXMBjct68Y6yoTypi0RgrQmLS1dXUgkJogNLGmMczKzrl1+7bX+3+F9TKZLadPn4lE5qurawRj+ZIRYAQYgfQhwGwT3nH8PyPACKSOQJxcSilmm6nD+qZrpu9F8jZJttmqdF2nwXXWnHX79hUHAgHwoK455U1mC2ybpCe7JmMF7ttMpvCKZdY0hvB5IhwWA2WZzBZ789VAICAslV8RDS7ACDACjMBqEGC2+aYndCyPEXj3EJA4ZjyD2WbmDIfVvCrenbrtHR3UK7gWDW9oaAwEAis6BjPWtH37in0+Hz3ZNRlV3yzbXOsYGiE2ODjU3X3H6FfOZwQYAUYgHQgw28ycqSBrwgisVQTi5FJKMdvMnE5NxyuEZTICjAAjwAgwAowAI5AAAWabmTMVZE0YgbWKgMQx4xnMNjOnUxO8CehP5eWH/X7/8+fPlUc+0pKcZgQYgddCYO/f9vX393955Ohr1eLCjAAjwAisaQSYbWbOVJA1YQTWKgJxcimlmG1mTqcm+a7q6ekdH9fwJJIka6VQbOu27U1NV6prajk8ZgrocZW1iAA9mGct6m8yWwp2Wltbr31XUblG9We1GQFG4K9HgNlm5kwFWRNGYK0iIHHMeAazzczp1CRfMH199yBmKZS3WnfBMYk0Ai3GiU0ynKmy6a3btv/jcv0PFy+lwDbXrd/Q3X1naWnpVeDTJ0XFJcomhMxk5voQpNRub56ZmRFOFhGkQZmTJ0+FQiHwAwvxb5eXl+nxklnZOQ8eDI6NjQGTL9hpHR4ejr76m5iYgMAtCCwMG6yujOt76tTfA4FALBabn59vbGoC9fYU7p2YmACxQ0ND0JYyJu3WbdsHB4devHhBg8cKJuDJmbV1deFweHl5ecW2jEz45ptvw+EwRioGbZV25ebl9/f3x2IxOg5XaZfJbNm9u1DTtFgshqiazJbvKip1PRyLxRYWFhJjqBxySgxNZovSLpPZIo/ArOycy/X1i4uLwnhbzTiEexafPDQCsDCGhUu4x+UYyFRCwU7rlSv2c19/I9RN8nI1dr1Wfxl1jXIcKpVXjg2j/lJK4ExGgBEABJht4gOZE4wAI5AiAnFyKaWYbaaIaRqqJfnaczgcfX33sLAR2wQekuRRjSjtTSXq6n7UdR0OdRxzOh8/Hk5GsjzXl2utZjZMzxrdU7j39+lpekjphQvfBwKB8vLD0Gj/wMDk5OTu3YVKDL+rqJybm6t45UHCM0vhHFE4szQ3L9/r9Tr6+jZufK/56tVwOAxxdPsHBrxeL4j1+/3Xr7e/jERqb0beiCZfv94+Nzf35ZGjuXn5mqYJMWD3FO6dnJzs6ek1mS1wWGVDY9O69Rva2n4KhUJwkqeyLZRPTaitq4tEIvfu3dd1vezgISijtOv9D3KfPJnUNM3j8VK2qWwrebtKSj4KBIKPHw8Hg0Fkm/sPlAaDwba2n7KycyorbaFQ6NTf/ycrO2d4eHjM6czNy9+9u9Dj8d66fdtktiiHnBJDpV1gsjwCb966pevh/v7+N8s2pzyeFFbC0y9KwiE92K2rTKzm/sLzbNet33DpUjXGjlaODWXXKMeh0iKjtoz6SymEMxkBRgAQYLaZhjkdi2QE3jEEJI4Zz2C2mTljIcnXnjDjBLbZ2NTU0tKKjIWWwfyt27YPDQ0JBy22d3TgEfNwqkRDQyNMZAEZlPnHKZEoIRqN4rmUmEldcFSBzz4vr6v7EU6x/8c/LkcikeXlZXr8A56B+ejRY/RD0jMw0QcI50b29PRWnb/g8XjRtymf7QkUbnp6puzgIY/nz3M1i4pLLtfXwzGhDQ2NHo8X0iazxWrd5fV629p+wl64cOH7L748ApfUHJPZ8sWXR3Rdb229Br/abFUej3fXh7vBOTYz87JRyltoWtO0lpZWFAuETcnK6GcFocDWbdvHXv2Ba7SouKSmtg7SK7YFTQsmlJcfLiouoWzcZLYo7Xr/g9wTJ05lZecALQFp0C+rsctq3XXk6DH8dILAhkIhYL/r1m9wuZ7Y7c1CmWttbTBEaR/hkFNiqLQLWqToQc7Jk6dy8/JlX7qmafI4RDRowm5vFsah1bpLyTY1Tfvll3/Ozc3FYjGg038Am5uXP+Z0xmKxubm5kZHf6P1ITYYWNU2D2xY/BNjtzbOzs+FweMzpdLme/Otf/zp9+gycBOtyuWKxWDQafVP3V9nBQ36/H77XUBuVY17ZNcpxSMHEtFFbRv2FFTnBCDACMgLMNjNnKsiaMAJrFYE4uZRSzDYzp1PlF4Ccs279hkePHtMzEnbsKHC73TZbFSUkdBqK+devtweDwbKDh3KJr+zI0WOBQPDYseMms6W6uiYYDH78yX5sl8oxmS3Xr7f7/f6i4hJw93V2dUGmLFaoCAJLPy0LBoPNV69SHyD4KG7dvr1x43stLa2RSAR8Pv0DA263u2Cntai4BH2AJrNlzOm025tttqopjycx22xsahof1+isF+3atHmLy/Wks/Ol/vCvs6vryZNJIGyYCYms7JyRkd9w+m617vL5fD09vbjAGJSprqkNBoMVFZXANqGJ+/f7N258r63tJ7/fX1LyEbAyu715zOns6el1vPoDYjwzMzM7OxuLxXC+Dr/29PSCyZRm9PT0er1e5amMZ899HQwGP/u83KgtoNaCCWCpzDanPB7BLgRHZpurt0tgkqWfloVCofb2jnXrN/xw8dLCwsLl+nroDqdzHMbG9PTMryMjRo4+JYbK/gK7ZLYJ+TLbVI5DBIcm5HGoHJPQX263u6i4pLz88NzcnL35Kr2/iopL3G43HQbKuwzk4HAFzY8cPTbl8Zw4cWp8/CVJNpkt6bi/yg4empmZqaioDAaD1TW1yKg1TZPHhrJrADdhHFIwMW3UFhSQ+wsrcoIRYARkBJhtZs5UkDVhBNYqAhLHjGcw28ycTpVfADQHNmtFo1GX6wklhLQMpuk0FNmm0pkApKi9owMmoDBxV8oBpoezWKt1196/7YNZPq7spW3RaTEIVPqUqI+CzvWV/hBUbJWJs+e+DoVCsLTVZLYc/+rE3NzcmbPnkKFR+efPX4BVwZCJHYGbOYG91NX9GAqFKittwDZNZkvpp2XT0zPLy8uRSKSy0gbVYeYNVA0m3Caz5XJ9/dTUVFFxScFO68TEBNInKIBVUCvY36jrYSEYDPg8HzwYBCaMFUEO9p1sAkgWZvlGdqEhKBBxW6VdAtuEDZYLCwvRaDQcDuu6DiuEISxzNBqNRCKLi4vojZeHHBqOUIDPdsrjkftLuW8TjH2z7AXMxCcPrtGlBB7T9Lal97URwVayzT++MWmaVnbwEA65dNxfwABhzXNd3Y8C2xTGhrJrlOMQhqsAl1Fbyv5S7ouGkvw/I8AImMwWZpv4hOEEI8AIpIhAnFxKKWabKWKahmrJvPOysnMePnwobOGTK9JZKWWAVGucml+/3j45OblvX7HX662urqHSqBxhFovFhKgzIFaoCIWBvYBDEiaLsOIU6ZnANqm2lNhg0ykn+gcGRkZ+Q+fkryMjg4NDIA1oCUr+rqLy6dOnuGgW8wt2Wp3OcdiPqvSV7SncOzMzA3sOf7h4KRwOUzYr+DZRLPo5rdZdMB1X+jZNZgv4hwOBILhMYZ3zo0ePf5+eRp8n2GLUFjUBFFCyzdX4Nl/XLpltgoT9B0p1PSyMAdjAiVRNOeSUGCr7CxqiI1CpPM1MOZ3At4k2UraJmYKNwiXqg3VxOCnZ5hu/v4z8jcpxqOwaMEEYh2gXTRi1BWXe7NcB2i6nGYG3EgFmm/R5yGlGgBFIBQGJY8YzmG2mAmh66iT5DnM4HGNOZ+LCdBqK+zapk4RWh8W0bW0//T49vW9fMf2JyknGt4l1aUXcRJeybxPFvpFE6adlc3NzlFfjbjfoWIxSc7m+PhKJXLlix3b3/m3f+x/kwiXOaJV20RkzJVEr+pRQLO0v/GTw/ge54FIWHHHgFJ2cnESqCV8H5L2UShPAIqqz0b5NhIJSGqO2sDDSHmDRaPEywgAAIABJREFUsjMcSlKgaF2Hw6Hr4f0HSmmmzVa1uLh4ub4eMpVDTomhsr9ASGayTYSL2vgGfZsU1dWk6ToFyqiVY17ZNdC6MA6VKhm1BYXxJlLW5UxGgBEQEGC2mZ5pHUtlBN4lBOLkUkox28ycgSA8/Y0uwSdg9Cvk46yUxlPFXZdbt23/+eebP/98EwpnZeeMj2uzs7Po30PhKAdyUMKKYpUBQnHf5saN73XcuAGxWzG2pLxvU9O03Lz8gp3W3t67SCpQN5pQRgmiBWj6+vX2QCBAWRn9FX2bsImUBq01mS3d3XcgUC11DGKMU2oX7DlE3+azZ89wPyrEpN1/oBT3o3Z2dU1Pz+BKWvBdY9BOYJKQefbc13Nzc99+V0F9m3sK93q93tHRUQx6BBZhLFDaltIEKC/M8pV2IVYC21S2lbxdIFbJNv/rv7/Q9TDSZii5afOWMadzzOmE6FMrxqSlGCawa5VsMys7x+Vy+Xw+oSMQNDQTV5nSnyikmMZhsJp9m7Jvs39g4I3fX/Rerqmtk2PS0nGIdtGuATSEcUghwrRRW1CA2SYCxQlGIBkEmG1mzlSQNWEE1ioCEseMZzDbzJxOTeaVALsrHz16vG79hgTlcXUrPW+TBo+dnJwsK/vzoIuXfqfmq//+97/R3QeTfooMrI9FCUYxaVGs8vBDk9mSOCbt4OCQ1/tn/Fgakxbj3xqZnDzbzM3L9/l8NMySIBPZpuDwBAToIZwulwvPEVWe34hnYC4sLADthFig8nmbuXn5Dx8+jL76w+2gygMJs7Jz2tp+WlhYiMViuh6uOn8BnJBLS0vYX3j6ovIMTKUJOGBACJ66KdslbKJbXl6GdZ7KtpK3SzhHFI9ChUNQafRg6K/qmtpnz57B4mTIUQ45JYavdd6mMAxw4a4wbODy40/263oYdkErC0CmcH9hfyHDpKvWMSatrut37zpwAbzs21R2DfAumW2m6f5SnoGpHBvKrjEah0owlW29Vn8pxXImI/AOIsBsE1+gnGAEGIEUEYiTSynFbDNFTNNQLck3HIRIef78eQrn9SXZBBdjBN5NBIx8m0miYbNVoUMvySpcjBFgBBiB/zgCzDbTMKdjkYzAO4aAxDHjGcw2M2cs/MffN6wAI8AIrAaB9o4OGn1qNaK4LiPACDACfxkCzDYzZyrImjACaxWBOLmUUsw2M6dT/7L3CjfECDACjAAjwAgwAowAIMBsM3OmgqwJI7BWEZA4ZjyD2WbmdCq/9hgBRoARYAQYAUaAEfiLEWC2mTlTQdaEEVirCMTJpZRitpk5nfoXv124OUaAEWAEGAFGIHkEvvjySHtHx8ef7E++CpdcEwgw28ycqSBrwgisVQQkjhnPYLaZOZ264jtJGYMxKzvncn394uIiRsuUQ1NC0EtlEMgE8TllfZKPLSnXhRw5xqnJbFHahYdhCKewKCVDME/h2ANlW8rqNJPGBaX5CdIC4NARNDMc/jN4rMlsWaVdQkza7yoqqWIlJR/5/f7W1muQqewvu72ZjnmIKEsD1WJQXKEkhk7Nzcvv7++PxWJQlyoAIWTHxsa2btsO+d988204HMYgt7Rwx40bv09P41E0yv46dervgUAgFovNz883NjVh9VfRX3Uc80KAVjyedOu27T09vUtLS9FoFO2C+LednV1wZunMzEzZwUNCnFhUWIkhxowVhhyqRxNQ5uTJU6FQCCN7Kcc8raVMJ3MvCBWFKK/Ly8s0qq1Q+LUulXYpJRhhqCws38s0XvHS0lJ3953EEbmVYpPPTIddRs9epVZwAMzJk6dmZmbw7N+CndYxpzP66o/G6KbnmiqlrZiJNwuUpGjDgwLvBZPZ8sWXR65ebUmNbSrtMlJPHgbKZ5TR+wvjgQvPDZPZIj+jZB2U/UUf6cvLy/ThI0tYcznMNulrkdOMACOQCgJxcimlmG2mAmh66iR+P+H5cuvWb7h0qRpDX968dUvXw/39/fLLT5ib4gF3uXn5mqbB+Y149iCc3whnYBppgmcqFhWX4FmRSrFKCcq2jOxaJStTtqXUSshMgW2CBOGQQIxuCvwwFAqVflq2erb5/Q8XdT0M5206+vq8Xi8e7ZiVnePo6xsdHcUjKJX9JUwuQfn+gQE4R5SepEqp1JGjx2ZnZ48cPfb+B7lPnkxqmubxeGW2eeHC94FAoLz8MIitrauLRCL37t3Xdb3sYPzEHZPZ8uWRo4FAsOJ/2bKyv3Lz8r1er6Ovb+PG95qvXg2Hw0eOHkO0f5+enpmZOX36DOTQ0Y42NjQ06nr4+Fcndu8u9Hq9MOZttqpnz55NTU3l5uWXHTyEbFM+AzMrO2d4eHjM6czNy9+9u9Dj8d66fRuak2fDkC//L7MXozEv1xVyqI3CT4kvcTQmLvZav8p2GVVXjkOjwjKw9M46ceKUrofr6n40qr76/HTYlfxDEg40CoVCAtvs7OyCc3qLiktmZ2fhWwk8T+Rx+1og4M0i1Er5SSjIwctVsk3lM0r53Dhy9Jiu6w2NTevWb2hr+wmfvaCJ8IxC9WhC2V/4rKAl35o0s830TOtYKiPwLiEgccx4BrPNzBkIid9bZQcP+f1+mMfT79knT57KzcunxADlCHNTh8PR13cPfsUZhs1W5fF4d324m/p5oExtXd3S0tLNW7dQoKZpLS2tcOl49Qc+JVmsyWyRz8BUtmVkF7DNxqamlpbWFb0xmqb19PRWnb/g8Xit1l0wY1PapWna3bsOXddjsZjL5QLH2iefHPD5fNFo1OPxTk1NAYnCw0VpSZutyuv1Dg4ORaPRhYUF6m2jc2IAE31Zuz7c7fH8eY6okV0yXOBAE+z67PPyHy5eysrOwVkpsriKispAIPjlkaOJ+wu7HouZzJYLF77/4ssj2LMA+Gefl9fV/Qjctbv7DkRbff+D3BMnTmVl58iTUat1l9frbWv7CSWXlx8uKi4RkDGZLZs2bxkdHXX09YEhRv1FORJNm8yWzs4uh8Px68gIHZA4TtBGegtg2mar+n162ufzff/DRZxB0nsK9cdPHpBzra0Nm5CHHNYSEnZ78/T0S/cpjgGjMW+3N7vd7jGnMxaLhcNhcFzjeZtzc3MjI7+BAsrBCSb09t6dn5+PRqNDQ0PoYRbQ21O41+/3NzQ0gqrtHR1TU1Nbt213OBwPHz70eLzRaBSfNsq2Xh7SK9kF0pJ8bggo4aUMrDB+NE27c+cXk9ly+vSZUCgUi8XwTqyurhlzOnFwvgRkaurb7yqUJhjdy+mwS/nsRZOFhM1WNTc3V3bwkMvlQt+mw+EYHByCkqdPn6mstMHgpO8v+OCIPkD64FKODWHxAh5yC60INzh69nCNA8h0u92Li4vd3XeeP3/++PEw3NGNTU0LCwvLy8s4jOEel+0ymS0lJR8Fg8HJycn3P8hFKORhoHxGKd8pRcUlNbV1MPiFkS8/o7BFmlD2Fz4raMm3Js1sk95KnGYEGIFUEIiTSynFbDMVQNNTJ/F7C151FRWVwWCwuqZW+J6dJNt0OBw9Pb1jTidOx222qimPp7qmNhh86WgCPw9oopw12u3NY05nT08vZZuyWCO2KbdlZNeOHQVut9tmq0JVE+ADFoEtyDanPB5I01mCpmlut7uouIS6Z/sHBtxud8FO6/GvTgQCQWCb16+3B4PBsoOHcokr2GarikQiLS2tsitYmBPTWQ5My2AVpZFdSrYp20VBaGho/IM1gY25eflTHk/HjRu0gKZpcn/BUJmdnY3FYsgosFZWds7IyG+C0xLIyeX6eiyGS0lpTmdX15Mnk8hw8CcBGZPZcrm+3u/3l5R8RMvIY2PT5i0u15P79/s3bnyvre0nrLJp85aJiYnq6pqWltZfR0ZACJJJIELAyr7/4WIoFPrDIQY+W8AHxklnV9fIyG+ffV5OfZuapr148WJpaamzqysrOwfQcDrHC3ZaQQI2l7hr0C5Y6Tc+rtExQAckzbfbmyOR+arzF9at33D/fr/L9WTT5i04DouKS9xuN9iFmblkcFqtu36fnv51ZCQ3L//EiZcLd7//4SJoQkcj5HR33wH573+Q6/V62zs64MtRMBg8ceLlByxc/qBsS2kXSE7yuQGF5f9lYOn4QbvA733nzi90rce331VMTU2VlR0aH9d+HRkp/bQMeL7SBKN7ubGpSeiv1dsFT0vh2SvbDjlghdW6C+5fyITtEjdu/EwpmdK32d7e4XI9+cMVX7DT6na7wZ+fYGwYPWAFtglq0IH057eY5qs3b9568GDQVnV+bm6u9NMy8Dderq8XHpJKu4zYpjwMEC76jErw/oLyZ899HQwGP/u8HC6NnlEoHBLK/io7eCgQCExMTNAPHELFtXvJbDM90zqWygi8SwhIHDOewWwzcwZC4hcVzFArK22hUKiu7seU2SZMynGGAW/rurofQ6FQZaWNsk1ZH5j9wCxEYJuCWLkufNue8niEthLbpZSTTCZlnnRyT6dQfX33gFZRny0WUH7ephPf8vLDfr8fXYv0J8G3SRlFMsonU2ZP4d7fp6eRXnbcuDHl8dCloUAIoaOhs8DYy/X1U1NTRcUlBTutExMTSJ+g0fPnL+i6fvyrE1SHhoZGeYk1AgUlj391Ym5u7szZc9guShCQgc2lwF1xFBmNQyAMy8vLkUikstIGMj/+ZP+Ux1P6adnp02empqbAM69km1nZOTdu/PzixYtoNPrw4cP8/2cHjsNvvvl2dnb24sVLMOZ37CiYmJi4dq1t3foNNbV1T58+hTW60MvRaDQSiSwuLqI/EK1LIUEHJB0b9JsROurpOEQbaSbey9QTm5WdQz1jlCSAwkeOHpubmzt9+szp02fm5uZgiTLKp4xd2dZrWa18biQvge4kfP78OXwIUPqHyw4emp6e+fa7ijGn8+GjR998863L9cRq3aU0gQ5L4V5OUrfk7cIbEKsk2QQWy8rO+cc/Lut6+MWLF9RrTccPFsYEdmiCsYHjB2tBQrjBIZMOJJRptzc7HA4c1Up/oyB8NZf0GWX03AD5W7dtHxsbe/BgEDyuymeU4OCFh6Syv/YfKIUFEevWb+i4cSMUCn38yX4AAWcRdI/ramz86+sy28RO5AQjwAikiECcXEopZpspYpqGaolfMPAu/yt9m7I+MFVK0rcpV4eZgeBHTWyXLCTJnGTYJooCu+AS51hCeBXwKdEZKlaHhPCTMC0Tvg4IdV/3ck/h3snJSQzG8/En+196vKtrhOXQyv6ibVF6A+Ganj59ikGGoCQ4GLu779CKsm/z15ERXOlH8QR2FwqFkJZ3dna53W5YoCuwTWFs7CncOzMz09b2U1Z2zg8XL4XDYWCz1dU1L168gFtwcXERaCFOrClTun69fXp6pqi4BNajDg+/XOkHY2P37sLxca239678hQWn0WgybOCUt0ZjgddK4Lxc8E0J3QEyESIaCUk5OGW1USs6GiEzKztnfFzr7r6DTk4qn2KobAslJ5NYcRwmFiLcWVBYiaHVusvlemK3Nz94MPjgweCVK/bR0dGX+5kdDvrAXvFeTqwP/pq8XdCJSfo2Ub4ycerv/xMOhzu7Xsa4EsYP5OACYzAZjE0wNtLBNpeWlhDwN0vAvquopM8o5TsFcNi6bfujR49pHLIEzygB6hX7S76hBAlr7pLZJo5YTjACjECKCEgcM57BbDNFTNNQLfH7SfktH6sYzVNhqgHFjD7wK/c3omSaoD5AnAQrxdJamFZ+805sF9Z93YSyLZkjgVhqF2WbuB8VW1dOfOFX4Sc6HaH7NlFUyomyspc7eB89eoxrVnFLFYxKnN5Ru7C/aLt02Fyur49EIleu2GkBk9ly9tzXuq4fO3ZcyEegIF/TNHpP4H4zmW0KU39wJij7i0JKp8uwchvaHXM6cRUojvb2jg5IUyXRWPwS0dDQGHj1h0wYZNK2IMdmq1pcXBTWEsNPKfxvNOZRQyqT3l/IqGkmFpbVxp/oaMRMcFn7/X5781XIRPkC25RvBBSSTGLFcZhYCB0GWFKJYVZ2zujo6N27jhs3fr5/v7+v7x58AVHCpRSL8pNJJLDr/Q9yYYk7yKEKGLG7BC1u2rylru5HXA5Ku0n2bY45nffv90PYXiyZYGwY6UPvHdSNDiSUmcC3iRXfSEJ+RimfGyazBRZuTE5OYshrePgbPaME9VbsL4qDUHeNXjLbpGOD04wAI5AKAnFyKaWYbaYCaHrqJH5LYRzLjRvfq6mtw5i0UMtonorzb5PZgnH24E0sxKTduPG9jhs36IJJef8Vxpbcf6BUjklLxSr3bWL8QNpWYrtkTGCJoM/nw1ischmT2aJsy4htol3Cvk2/319UXLJ12/aff7758883ZeJEmxYmrzgdEWLS0io0rdy3SQtA+osvj4RCobt3HUaHQFCfD9pF+6uzqwvcfbS/WlpaI5EIbvOj7fYPDMAGP5pphCSUSezbpHKQAyv7q/TTslAohL7NZ8+e2WxVmzZvmZycxPhMnZ1dsBi4oaExGHwZJCk3L9/tdgOJ7e6+Q32b4+Ma+jat1l379hUHAsFIJFJ28ND+A6XBYLCt7SdYSUvvr02bt4w5nWNOJwb7pSbQdJKD02jMK+9ivG2FfZvy4MTZP1UJ0jga6U+ghq7rEC0ZfJuwzTX3/963KbdF5QjpJJ8bcBaFy+Va8V4W7ixoDvdtCs/DwcEhTdMu19d3dnX5fD6I3Xr9ertsglKsYAu9TN6uV8AG5+fnMYQydiK96UB4S0vr8+fPz577mrYlpGGnIsRGFiTs2FHg8/nwIxG4rIFt7j9Qiht9E4yNxqYmn89HuTG0njLbhJCwly5VZ2XnVJ2/0D8wsHt3oWARvVRGCaIFIK18RimfG3sK93q93tHR0QTvCOEZJTSn7K8zZ8+Fw+EfLl6ClbT0XSlUX4uXzDbTM61jqYzAu4SAxDHjGcw2M2cgrPiKUp7RJ/iU6GI//LANkpVniBmdV2YyW+TZlfLcPCOxSvqkPFNRaZcRGq8OWgyDO8uoDOQr21JOoTAmrc/nGx4eBqJC41hOTk6Wlb08wEM5QxVci9AFNJOet2mksxIuubCwywjdmFiSsk1lf+Xm5T98+DD66g+PoBRGEX6kKP207OVZAv8bvBRW6kYi8/SuAbhQASCi4NsU3Jiytsg2jcYhnpu3sLAAtPOzz8sDgSAefFJdXeP3+/ftK6b9hdGGaXxO2okYQap/YAC1qjp/IRwOLy8vC2f0VdfUPnv2DBbxUjPldPKDUznmlWwTY9Lqun73rgO6hhqLdiVgFEq2aTJbHj56BKGGwRaHw+HxeBPEpMW2ZNsxJ8nnhslsSRIu5U2njElrMlt6enojkci331XY7c3Pnz+HcaiEy0gsGiIkkrcLvnfMzc3tP1AKQowekiaz5deREVxYLrRIL8vKDk1OTsZiMXpyLBS4erUFVq7C2PiuojIcDkMMsO7uO5CZYGzsKdzr8XhjsRgGmwWxwqNSePIsLS1du9YGJ4IKvk24lzEmbW1dHTVETifJNo2eUfJznm70XV5eFuxC6+j6C0ErZX9lZedcuWJfWFiIxWK6/mfIaKHi2r1ktklfapxmBBiBVBCIk0spxWwzFUDTU2ftvqj+Ss1ttirqd/orm+a2GIHECKytwfnKtRugy4OF71OJjV39r2sLrtXbK0sAEnj9erv8E+cwAn8lAsw20zOtY6mMwLuEgMQx4xnMNjNnIPyVr5a121Z7Rwf1xqxdQ1jztw+BtTU4Ydvqvn3F2BF/MdtcW3AhSm8wcezY8d+np3El8xuUzKIYgddCgNlm5kwFWRNGYK0iECeXUorZZuZ06mu9G7gwI8AIMAKMACPACDACq0eA2WbmTAVZE0ZgrSIgccx4BrPNzOnU1b8wWAIjwAhkPgKwpzccftu2fmU+8qwhI8AIKBFgtpk5U0HWhBFYqwjEyaWUYraZOZ2qfAdw5moQKNhpbW299l1F5WqEJFn3r2wrSZW4WMYikJWd88sv/4QYuRmrJCvGCDAC7wgCzDYzZyrImjACaxUBiWPGM5htZk6nrvhWw/icGDMTgkxQEzRNo9FQ4ScMyvfNN9+Gw2EMwklbPP7VCV3Xz5+/QDOFdFZ2zuX6+sXFRRr5Fst03LhBj9LGfJqQ4weazBZlfE4MopjMXjIInyiH9CzYab1yxX7u62+oDpA2itIplxRy5APuoICyLaOz7ASZQrxHiPKKAV2j0ejDhw8xmj+YefLkqVAoZLNVCaJSuKQDhsZpxCCQGKI2gfDX6q8EclL+ac1haLc3T0/P7NhRkLLJXJERYAQYgTeCALNNOo/iNCPACKSCQJxcSilmm6kAmp46id8ZcIhZQ2PTuvUb2tp+CoVCpZ+W4RQf6vYPDMApmnAp8LTaurpIJHLv3n1d14Xj7Ldu2+50jvf09CbW4eatW7oe7u/vl9nml0eOBgLBioReRDwbbd36De3tHXBeGZ5zmJWdU1lpC4VCp/7+PyazBU0TrFBqaMQ2lYUh842zTWVbSbJNqCtYipdFxSXT0zPd3Xeg2BtnmyAWARcMQTWEfOESqydZXqj+pi6F1vEyAzF8rbHxpvBhOYwAI8AIyAgw20zPtI6lMgLvEgISx4xnMNvMnIEgvwBoTlFxSU1t3dZt2+HMQ/Brbdq8pa7ux88+LzeZLaWflvn9fnpKOE61QU55+eGi4hLlKXP25quyW1I+X+7kyVO5efmyC3HT5i2jo6OOvr6s7BzUWT5A0mar8ni8uz7cDSbMzMyUHTxE9Vm3foPL9QTca8BeGpuaWlpaV/StaZrW09Nbdf6Cx+PFY8rRNUcPhKyuqZ2fn49Go48ePUbf4J7CvS6XC86yGxoaApAdDsfDhw/h7EGfz/fHmZygEh0wyLrltgRX2/Lyst3evKdwr9/vx+Mr2zs6pqamoDmT2SL0F72kIIBPrOzgIY/HS32bcn9pmvbLL/+cm5uLxWJwNLzQCm0C6SL2ICRoGeEneqnsr63btj98+DAWi83Pzw8ODkE/UoE03djUhGf04eJnTdPu3nXouh6LxeAUzbcGw5u3bq04sCnCnGYEGAFGIE0IMNukb3ZOMwKMQCoIxMmllGK2mQqg6amT/Fvk7Lmvg8EgkEysdf16u8fjff+DXMyhU3nMpOwOMvcfKA0EAtU1tVgGEjJ7gXyZbV6ur/f7/SUlH1EJSrY55fFU19QGgy+9oMA2Sz8tC4VC7e0d69Zv+OHipYWFBTgAcMeOArfbbbNVJeMCGnM67fZmm61qyuNBtgnK0DPK9xTuDQQCt27f3rjxvZaW1kgkAmytf2DA7XYX7LQWFZf4/X44/s7hcAQCweNfnSjYafV4vEhZjVbSmswW2hZiJTCK7u47LteTTZu3vP9Brtfrbe/oQNCE/qKXFITGpqbxcU1WQ+4vTdPcbndRcUl5+eG5uTl789X0sU1lf12urw+HwydOvPxI8QfdTcA2we99ub6e+r0BUjCBds3bgeHl+nq3240LpHEYcIIRYAQYgb8YAWab6ZnWsVRG4F1CQOKY8Qxmm5kzEJJ8u2zdtn1sbOzBg0HqSMzNy/d6vcIp4ZSuoHCBbWZl5zx4MDg8PJyVnaNka1gREwLbLCn5yO/3A0V0vPrDkkIC5NfV/RgKhSorbcA2TWYLOLWi0Wg4HNZ1/c2ePkcZYNnBQ36/v7z8MPUPA6VpaWkFbdEEih5NyzQPzaRtQSZliZBz5Oixubm506fPnD59Zm5u7sjRY1idtiLQQlkO1kqQoPpgmrZC06v0bSrV6OnpRbKNJtBGMa30ewsEvq/vHnD+twPDrdu2Dw4OvXjxArdVKzHkTEaAEWAE0o0As83MmQqyJozAWkUgTi6lFLPNzOnUZF4nW7dtf/Tosbzq9fsfLgaDQYGn4VSeShbY5unTZ0Kh0LFjx01mS2pss7Ozy+12b9q8BQgS+gBpo5AG+YJvE4vtP1Cq6+EE1bHkayWQZdHluzLbpMMAdKDo0fQq2WZWds74uNbdfQcddGgObeXtYJvUohXZ5tLSEvYCBrKi3YdAvR0Y2puvut1uXEeN1nGCEWAEGIG/GAFmm/j24QQjwAikiIDEMeMZzDZTxDQN1VZ8uxTstE5MTExOTu4p3EsLZ2XnjIz8Njg4RDMFuoI/CWzTZquis3zciIjl5YTg28TQqQBJArpo5L+CJhwOh66H9x8olVtcTQ6lK8n4NrEtypRoepVs02S2NDQ0+l/9wdJWZYtC99F9m1h+xQS1HdOdnV3obxTsmpmZoTFpQT4ts2KLQgGlb1OpAB0bVAiqTTPfDgxT61MBB75kBBgBRmD1CDDbTMOcjkUyAu8YAnFyKaWYbWbOWEj8wthTuNfr9Y6OjsobvWDP2/c/XBQkKHmCwDZpFcG3Ke8DhMIC26QScBmqyWyR921iTNqNG9/ruHEDYtJC9f/67y90PYzLWalMIZ2VneNyuXw+n4yDUBIuKV2BfZt37vwi79vUNC03L79gp7W39y6uClaysh07Cnw+35Urdrk52hb82tjU5PP5hK2koIa8ZljoL7wU4qnK7UKO3F9UH0xfrq/X9fDxr07k5uW73e7Ozi6ovmNHwfT0zM2btwT5PT29NJQR/Fp1/sLz588x3JFQBS+V+zaVCkDI5UuXqrOyc6rOX+gfGNi9u1BYSYtiTWbLW4Ch3d6MiwLQtF0f7p6dnR0Z+Y2uk8dfOcEIMAKMQDoQYLaZOVNB1oQRWKsISBwznsFsM3M6NfErRHBC0r1e3d13lOwL6QpIFpyQuFgR212RbWLkVQBNdoQmZpuwRXN+fn55eTkcDmPcUdg76vF4kyGQH3+yX9fDNLgO6k8T9AxJ0BacrhiTdnBwyOv9M6YrjUk7PDxcsNMquBYFJK9ebQGHMNBRo7aAFHk83lgsRvvLZLY8fPSIMgohgC0u5QXNhfM2qZk0nSTb3Lpt+71796PRKEZ5RSGNTU3Pnz9fXl6m2palfN1lAAAgAElEQVSXHw4EAhRDk9nS2dkVDAb37SvGusqEMiatkQI0Jm1tXR0IRJIsy1/TGGZl59y6fdvr/b/CepnMltOnz0Qi89XVNbK9nMMIMAKMQJoQYLYJ7zj+nxFgBFJHIE4upRSzzdRhfdM10/QWecvE2mxVuq7T4DprzsB9+4oDgQB4UNec8iazBbZN0pNdk7EC920mU3jFMmsaQ/g8QT+4oL325quBQEBYKo+/coIRYAQYgXQgwGzzTU/oWB4j8O4hIHHMeAazzcwZDul4hbx9Mts7OqhXcC0a2NDQGAgEVnQMZqxp+/YV+3w+erJrMqq+Wba51jE0QmxwcKi7+47Rr5zPCDACjEA6EGC2mTlTQdaEEVirCMTJpZRitpk5nZqOVwjLZAQYAUbg/2/v/J+aOvb//y8lkx8+n/kAPwMzTlUYfmphGAczlOoV8mmLFGjx3ooo9V6/9AsEsBVIL3kLgiAFrPoBvW8QLBQqSCGEmJBQCAlJMBSkJHyKr75f2dndEyNf7El5OZ3Osjn72n09ds85+zyvc3aJABEgAkQgCgFSm+qZClJLiEC8EhA0ZiSD1KZ6OjXKnYD9qazsjNvtfvHihdFYw+ZTmggQgV0SOPm3U8PDw2fLz+3SDhUnAkSACMQRAVKb6pkKUkuIQLwSiIhLIUVqUz2dGuOdqb9/YGbG+ga26UtLz2hpuVnf0EjLY8bYNXRYvBMoLin1+Xxx/Rwn57i+o+M2LsEV7z1C7ScCROANECC1qZ6pILWECMQrAUFjRjJIbaqnU2O8owwNPWb3tNTrc2GbRHbdVFx+NsblTKVVp6Vn/LvJ/PU313egNpNTUh88eLixsfFy4dNn+QUGaRVcZixzfVikNMouLGgTjvnss4uoH7h1fbe2ttjtJWFp3OnpaVDyOcf1ExMToZf/ZmdnuYVbeu7c+WVhATObW1rEtXYbTaZAILC1tbW6utrc0gINe+/EydnZWTA7NjbGPjU4f6HS7w/U1V2DI7ETYYiyTdVodS8P9tfW1sHBmVnZw8PD4XCYHRvSupTMfvHFl4FAgFupWOpX7HVJ19pNS88YHR3b3NzkFsXNyzthtVrD4TDr6VdV1X5/IBwOr62tRWfI1QXLBSvVJfVLo9WJIzAhManJbF5fX+dWYN7NOIRzFq887ArAOHqlCTjHxTWQWQs5x/U3b7Ze/fwLqYVXZu7GL41WF3t/KXWNdBxKmy2tS6m/pBYokwgQASBAahMvyJQgAkRghwQi4lJIkdrcIdN9KBbjbW9wcHBo6DEerKQ2YbYd41aNaG2vEibTt36/HzZ1nLZYxscnYrEszvXFUruZDbN7jb534uQvCwvsJqV1ddc8Hk9Z2RmodHhkxG635+WdEBmeLT/n8XirqqrhSNxHNDkltbu7B/YRhQ0kbzS3JKekdnZ+5/P5ij4q1mh1wyMjLpcLzLrd7q6ubjBy+MjRycmfHz0aFLX9V1XVy8vLWN3vG6ikpWdYLDP9/QNQ9u13Mp89s1utVqfTxapNpbqgFGu20WQKBoOPH//g9/uLS0qj+PVadUlXBurq6l5eXj5bfi4zK9tqtcLatgbD+x6Pd3x8wuv1otosPF3k9Xo7O79LSEyqrjb6fL6L//xXQmLSxMTEtMWSmZWdl3fC6XTdu39fo9XFXpe0v8BlcQTevXfP7w8MDw/vrdqcczp3EEFlnyhxm/RA+3f//92cX7ifbXJK6vXr9bh2tHQcSoeBdBxKnVKqS6m/pEYokwgQASBAanMf5nRkkggcMAKCxoxkkNpUz1iI8bbHzThBbTa3tLS3d4DC5KahmJ+WnjE2NsZttNjd04NbzMOuEjduNIMFIIM2QeSAhVAohPtSSs2yjfz4kzKT6dvDR45qtLp//7spGAxy+23iHphPnoxjHJLdA5ONAVqt1v7+gZraOqfTpdfnArS338m02+1er9dgeB8xtra2LSwsFpeUOp1/7KuZX2BoMpthV88bN5rZHT71+lyXy9XZ+R0Wr6u79unZcviTdefwkaNTU1ODQ0MoC43GGqfTlftuHgTHFhe3K80vMDQ0miB0yWoYq9Xa3t6BZlEc1jc0zjmdGCzFZnx6ttzv93d03MacbWXVdouNrL79TmZl5cWExCSQCnikUl0arY4zW1Z2Jr/AwKpxjVYn9eu16pIqQPZxCR6g1+eWn6vARyfgAtue5JRUm+1Za2sbd8ztzk4YomgK3YdhjI9m8ACpX1CK7SnI+eyzi5lZ2WIsXToO2aoxLY5DvT5XqjatVut//vPfy8vL4XAY5LRGq8vMyp62WMLh8PLy8uTkz+z5yA5LqA53xMVx1dratrS0FAgEpi0Wm+3Zr7/+eunSZdgJ1mazhcPhUCi0V+dXcUmp2+2G5zWsj9JxKB0G0nGIJNmEUl1K/cWWpTQRIAIcAVKb6pkKUkuIQLwSiIhLIUVqUz2dyl39pX8mp6Q+eTLO7pFw7FiOw+EwGmtwMs2pTczv6ur2er3FJaWZTEyp/FyFx+OtqDiv0erq6xu8Xu8HHxZi1dx0tqur2+125xcYINzX29en0eqkZrmCYLDoo2Kv19t26xYbA4QYxb379w8dequ9vSMYDELMZ3hkxOFw5BzX5xcY2BjgtMXS2tpmNNbMOZ3R1WZzS8vMjJWd9aJfh48ctdme9fZutx/+6+3re/bMzr7Xij8lJCZNTv6M0/cms9ntdrOyFhpT39Do9W4HPEFtYnGNVnfl6uder/fjT8p+Fw9Wq7W1tW3aYunvHxh8+Q8Uhc32bGVlJRQK2WzPUHPq9bnz8/P9/QOobDVaXeHpIo/HU9/QyFYBaVFtinVptDqpWZCXPp8PY5vR/YqlLhBpS0tL4XAYdQh43d8/AF3JyidOSRZ9VOzz+bq7e5JTUr/+5vra2lqT2QzdYbHMwNhYWFh8OjmpFNuU1hXFL1FtAlhRbUrHodgjGq1OHIfSMQljw+Fw5BcYysrOLC8vt7bdYs+v/AKDw+FgcUnPMrCDwxVaXn6uYs7prKy8ODOz/bAGYux7fn4Vl5QuLi5WVVV7vV54egLnsnTMS7sGALJPGaRI8bGOWJdSfynZoXwiQAQ0Wh2pTfVMBaklRCBeCQgaM5JBalM9nRr9ngcfa4EaYQWhtBQ7DUW1KQ0mgO7q7umBCShM3NEma0ej1U1bLDiL1etzT/7tlFL4iCsIBqUxJTZGwc71pfEQbNguE1eufu7z+crPVYCd8xcql5eXL1+5imqQtV9bWwdvBWu0OoPhfbfb3WQ2g+NAA9SLyfStz+errjZyajMtPWN6evrHH0dBMcLMG6QaTLg1Wh2+eJyXd8Jut+OLx9jp+OEofFw6MTGRkJgE9aLk5mQG+sLVBTP1YHA1FAqhWfCXm+VH90uqNrm6mszmubm5/AJDznH97OwsjC7wGkYIDk5oAKc2Qaqtra2FQqFAIOD3++FtZFiWORQKBYPB9fV1iMZz323C67jSuqL4xY5AdgyIapP99XXT4CZeefAdXRYpptnTljutuD+xGVgWRDgMSKvVWlxSikNuP84vUJvwzrPJ9C3Gb6VjXto14AI3DrnvVAGXUl1ggesvbmzgRQyJUYIIHHACpDbxgkwJIkAEdkggIi6FFKnNHTLdh2Kx3O0SEpN++ukn+NQtyvHsNBQn9NzyMBgk6erqttvtp04VuFyu+voG1ixrRxQzcKTULFcQjmTVEUwWi0tKMcGt0YLvBALpvZ0gDo+MTE7+jAHDp5OTo6Nj0EiYGSOEr6qqV1ZW8EXW3t4+fPEYJ+7glzS2mZae8eTJOPvWqzTOMzo6hg42mc2/LCywGjLnuN5imQEJeunSZZ/PB7Folic2Hu2g2uTiqOgaaxYyuVl+FL/EwSD1C+tC2aPX5wK3WGKbWLzwdJHfH2Bd02h18AEnSjUc51gKnwhwdUXx642pTVRibGtZlYhpHGbcOwvin2gKyyL2399oENUmew3j2KKp10rAuSzGG6VjI8ow4MahtA1KdcHBnNqUWqBMIkAEkACpTfZ6SGkiQAR2QkDQmJEMUps7Abo/ZfC6Hz0xODg4bbG88hgUk/jdJhskYYvDy7Sdnd/9srBw6lQB+xMnGl8Z28SybEH8bnPHsU00uyeJoo+Kl5eXWV3NKVtcpabJbA4GgzdvtmK9nLSGObrUL41WBwE9u92Ob8aCSBO/22TlQZPZPD8/f+xYzsm/nXr7nUyoGmfP3LK6qLXgMNaOUl1Ss1Ccm+Ur+RV7XXAk/B9dYMchJxHF2CaUHRwc9PsDhaeLWINGY836+jrEmaO8SbvL7za5xrMN2HE6ypu0qPqwK1lc7Gm1e7WJ43DHjnAF2fcUWB+lcVTWL24YcOOQqwX+VKoLfsXBJi1LmUSACHAESG3uz7SOrBKBg0QgIi6FFKlN9QwE7uqv9Ccb64hyDKhNdj1V/OoyLT3j++/vfv/9XSiekJg0M2NdWlrC+B6a5Wa3aOGVZvHVUFjjBOJy+N3moUNv9dy5A2u34tqS4nebVqs1Mys757h+YOARigpsG5uQrhLEHsCmu7q6PR4PqwDZXzG2CR+RsovWsodh3Eyj1eEap5xfLpdramoKFiXCsrg+Z+HpIvwetaurOxAInL9QCW/SQuz6wYOHsCiuGIQEa6+MbUrrimKWm+VL/UJHUA5BjrSu3r6+hYVFfJMW/MLFSEGNs4F6qdr8+z8+9fsDnDQ6fOTotMUybbHA6lNKalNaVxS/dhnbTEhMstls8/PzXKcjNEiwSoz9iUWKaXRhN99tirHN4ZGRPT+/2HO5odEkrknLjXlYmlgcBtw4ZBFhWqkuOIDUJoKiBBGIhQCpTfVMBaklRCBeCQgaM5JBalM9nRrLLQG+rnzyZDw5JTXK8RiCY/fbZBePtdvtxcV/bHSxPVNvu/Xbb79huI/7rmxrawu0K1pQWpMWzSrttxl9TdrR0TGX64/1Y9k1aXH9WyWXY1ebmVnZ8/Pz7DJLnE1Um1zAE2PFeDwr+8X9G7kgJO6IKN0DMy09o79/YGNjgwXLbvhps9nEPUtRbXIftm1tbUGITFqX1CwOGDgdcNdN0a/XqiszK/unn34KvfyH34hKN1rkcOFWqPCdKrt6MPCvb2h8/vw5fGoLOdy3eThipXt7in6BEVFtcsOACybjYIDEBx8W+v0B+Aqa+4n9kzu/cGygwmRfVMY1af1+/6NHg+w45B4GSbsGdJeoNvfp/JLugSkdh9JhoDQOWXqYltb1Wv2FpihBBA44AVKb6pkKUkuIQLwSiIhLIUVqUz2dGuPdDpZIefHixQ7264uxCjqMCBxMAqLafC0ORmMNBvReqyAdTASIABH4EwmQ2lTPVJBaQgTilYCgMSMZpDbV06l/4p2GqiYCRGD3BLp7etjVp3ZvkCwQASJABN4AAVKb6pkKUkuIQLwSiIhLIUVqUz2d+gbuKFQFESACRIAIEAEiQARYAqQ21TMVpJYQgXglIGjMSAapTfV0KnvppzQRIAJEgAgQASJABN4AAVKb6pkKUkuIQLwSiIhLIUVqUz2d+gbuKFQFESACRIAIEAEiQARYAqQ21TMVpJYQgXglIGjMSAapTfV0Knvpl6alazAmJCY1mc3r6+u4Wqa4NCUseildBFKj1Smtzym2Ifa1JcWykCOtS+oXbobBLbwptQyLeXLbHkjrkhZnM9l1Qdn8KGkOOHQEmxkIBGpq68DCfvjFrXGKK8pK+0uj1X3xxZeBQAAP02h1rzU2Gk2mQCCwtbW1urra3NLCkoElZKenp9PSM5TMsovi4kK1UcYh2JyZsYJNWK8VT1tc0BWb0XPnzi8LC7jDjeisUl3ScShlyC2dChu0KvmFDaMEESACRECdBEht4j2FEkSACOyQQERcCilSmztkug/Fot+EcH+55JTU69frcenLu/fu+f2B4eFhVJtoh9NpuHFfZla21WqFfQ5x78HklNTu7h7YAxMtcAncUzG/wMDuFQn75rFmuYLwp7QuJb92qcqkdUlbxWXuQG2CBW6TQFzdNCExqbPzO5/PV/RRsUar2w+/lPZvlPZXo8kUDAYfP/7B7/cXl/yxCw5ujJmZlT0xMQH7o16+cjUQCHz9zfWExKS2W7eWlpYMhvfLz1X4/f4bzS3JKamsXwChru6ax+MpKzsDf0qH3PDICOwjyu7aGqW/qqqql5aWPj1bzvWURqu7ebPV4/FidRqt7mz5OY/HW1VVDQdLnZXWpTQOpQyxJV9VVS8vL0N1Ur/wSEoQASJABFRLgNTmPszpyCQROGAEBI0ZySC1qZ6xEP0+VFxS6na7YWLNqovPPruYmZXNhfXAFKc2BwcHh4Yew0+trW2wcZ/RWON0unLfzdNodcUlpYuLi6hAGk2mjY2Nu/fuYcOsVmt7ewcah00dpWY1Wp24B6a0LiW/QJU1t7S0t3ewewxiY9iE1Wrt7x+oqa1zOl16fa5Gq5PWBWGxR48G/X5/OBy22WwQAfvww9Pz8/OhUMjpdM3NzYFfuLkoe6TRWONyuUZHx0Kh0NraGhvZU1KbGq0u9908p/OPfUSV/BJxQWtj8YsdDxwWsb/Kys7kFxi41rIa+9rX3wBGdlC9d+Lk/Pz87zt85BcYGhpNEGZERQ2V6vW5Lpers/M7bIN0bNTVXUPpiENUqb/S0jNmZ2c7Om6jTUzU1tatrKzU/k/QWKPVHT5ydGpqanBo6Hd5DIdJnZXWpTQOpWMejH96ttzv92PbpH5haylBBIgAEVAtAVKb6pkKUkuIQLwSiIhLIUVqUz2dGv0+BFKwqqra6/XWNzTOOZ3sfpusMEA7OJWHnMGX//r7B6YtFlZtzjmd9Q2NXu92ROiVarO1tW3aYunvHwBrGq1OalZJbYp1Kfl17FiOw+EwGmuwqeiXmACPjMaaOacT1SamWRVttVodDkd+gYENzw6PjDgcjpzj+vMXKj0eL6jNrq5ur9dbXFKayYSCjcaaYDDY3t4hhoI5/cYqMVYNKvklVZtKfnH9BfatVuvm5ubGxkZvXx/ILavVKvYX0ONa++DBw4WFxcLTRZlZ2dMWi8vlevudzCtXP19ZWamvb4Aw5urq6qVLl1n4V65+7vV6P/6kDDJ7+/qePbPj+65RxgYcn5CYNDn5M9CGvuP80mh1TWZzIBB48fIfq+3Lys54vV7U0mCwyWx2u90Gw/tsI+HRg8/nw8co0rqUxqESQ70+d35+vr9/AJUtVsr6hZmUIAJEgAiolgCpTfVMBaklRCBeCQgaM5JBalM9nRr9PgSz4epqo8/nM5m+3bHaBAmKEg5m3ibTtz6fr7rayKpNsT0w84Y4GKc2ObNiWZj0zzmdXF3R/ZLaiSWTVZ6c2gR5o9HqhoYeQ5qNX2GUTxqXY0VaWdkZt9vNahhW0iipzVgaH+UYaX8dO5YzOzt7+3ZnckpqQ6NpZWUFZKG0v8A464hGq3vvxEmbzRYOh1dXV9fX1x88eKjR6hISk3r7+jY2Nn777bdAIDA/P5+ZlY1tS0vPmJ6e/vHHUZBb5y9ULi8vX75yFUKy8CkjDBKlsVFbW+f3+89fqFQaG2+/k+lwOAaHhg4deutGc0sgELj4z39h+zc2NjY3N0dHx0DfGgzvu93uJrMZVS42lXNWylBpHCoxhO9yQ6EQ++kp1Mj6xX6+u7W1Jb7ujo2kBBEgAkTgzyJAalM9U0FqCRGIVwIRcSmkSG2qp1Oj32ZgNvwmY5tie6RxHqXYplgcZvlc/Cq6X6KRGHNiUZtoCvyCP1m1yY4NfPGYlZRoQQyg7ava5BiyzcDvQlH1cbFoOJgTYGiht69vZWXl7//4FHM0Wt3lK1dXV1fZQGJaesaTJ+PsYjxPJydHR8egFPKMMja+qqpeWVnB11ClY6Oi4rzH4wE9//Y7mS6XC0Qstq3wdNHCwuK9+/c1Wl1vb5/D4Th85GiMapNjqDQOpWMeG5BzXG+xzMBnrpDJ+YVHUoIIEAEioFoCpDbZ2z2liQAR2AkBQWNGMkht7gTo/pSJfh9S+q4MSsX4Ju1rfbcptoeNAbKxTdGsWBb0mPiNaHS/pHZiyZR+mwcCDGObaIf1i1Wb6BceqSTSoqtN9rtNNLWzhJJfaI1TmygRsb/gSKkjf//HpysrK719fWgNPoactlicThcGNnOO62dnZ+12O677CmDZ0wJjm8gQw+nwfmwwGLx5sxUrkvrFNvLtdzKdTldzS0tCYlJ+gQHf18XXxbl1YtleZu287jhkxwYyPPm3U2+/kwmNZ0+9JrOZ8wsdpAQRIAJEQLUESG2y9y9KEwEisBMCEXEppEht7gTo/pSJfh/CNTMPHXqrodGEa9JCKXbKi3ZwIg45uEAoqAVuTdpDh97quXOHXZNWXCUI1+csPF0krknLmpV+t4lrgbJ1RfcLfcFEQmKSzWbj3urEXzEhrUtJbaJf3HebbrcbhM3339/9/vu7oqTE6sSfMLbJrUnLFmHT0u822QMgLfWr8HSR1+vt7PwO3qTFsYF+sf0FdjgBBpmDg4Piq54vP1VdxY+E3ztx0uVyTU1NofgUG4mxTemQa2/vCAaD177+hi0o9QvGBr5JC37BV5Gjo2OZWdlsbJO1hrIQMjlno9T18OF/uPNLyvDBg4ewrC4b25T6xbaK0kSACBABdRIgtbk/0zqySgQOEgFBY0YySG2qZyC88iYk3Q/QarWyLrBqgVObr7WnokarE9WmdO9BJbNS+STdA1PqlxKNDz4s9PsD3T09SgdgvrQuDF3iYRqtDteknZ+fn5iYgLAYuyat3W4vLt7eLITTLWBE+m0em8nut8nWy6aluNgDMC31q6a2TtwDU9pfXAwQd908f6Hy+fPn8N0j1pWWnmG32ycmJnAtHKOxZmNjA4ecuN0lvsGrtN8mN2JxwWGpXxcv/tPj8YTD4UAg0GgyQcOKi0vtdns4HN7c3Bwb25ad2GBIoNpUclZal3QcShmyW2vabLb8AoMY3UW/uLbRn0SACBABtREgtYk3NUoQASKwQwIRcSmkSG3ukOk+FFPb7Ued7fl9Ew6M3amzhdQqIkAEiAARIAJxRIDU5j7M6cgkEThgBASNGckgtamesRBHd6Y/sandPT2Tkz9jqO1PbAlVTQSIABEgAkTgL0CA1KZ6poLUEiIQrwQi4lJIkdpUT6f+Be5Y5AIRIAJEgAgQASIQXwRIbapnKkgtIQLxSkDQmJEMUpvq6dT4ujlRa4kAESACRIAIEIG/AAFSm+qZClJLiEC8EoiISyFFalM9nfoXuGORC0SACPy5BHKO6zs6bn9VVf3nNoNqJwJEII4IkNpUz1SQWkIE4pWAoDEjGaQ21dOpr7wzNZpMMa47yq6ZOTs7y+6LqNHqeu7c+WVhATPF9Tlhz0Ykg8uWsmuBjo6OwZ6H3BKjsCiuUgPy8k5YrdZwOAz7MbIuGwzvu93ujo7bkCldCxSP51zQaHXnL1T6/YG6umt4DOwK89lnF30+H27ggb+yCdyjkl3FV2mtXbagmJYuWisexuawq9cCc+lCr2yRGNNSv6RlX8tZ8PGzzy4uLi5iP+IwCIfDbrf7bPk5aUV7krlPfknXpFVqMCxuzO48lJaeMTT0eHNzMxwO4yLGUBzXyFWyFj1fr8+dczpxDEcfMDnH9Tdvtl79/IvoNpV+Ff1SOlJ6fu3TNUraBml/casQ4/gULUivUa2tbXjd29ragjORs7m1tQULDkuvhxqt7osvvgwEAnjZFKvmcl5eu/y1tXVcPv1JBN4YAVKb7IlPaSJABHZCICIuhRSpzZ0A3Z8y0e8r5ecq/H7/jeaW5JTUzs7vfD5f0UfFGq0O9wPMLzDgHpjDIyOwH2B+gWFhYfHBg4do/Gz5OY/HW/U/oQ/cezA5JbW7uwf22+Rmt1D28JGjNtsz2OcQpN2NG83cDpZdXd02m+3wkaPSBhgM73s83vHxCa/Xy80CExKTBoeGpqamDh85qtHqEhKTJiYmpi2WzKzsvLwTTqfr3v37Si5otLrDR45OTv786NEgu3qQdDaMRtiEVL3gXpGZWdlWqxW2J2VLSdM7UJtoh9W6mLmbhNQvqcHXclZJbcLOMckpqT/8MDw3N/f2O5nSunafuR9+4b6vySmp16/Xv3LdY1GVNZnNXq/3bPm5zJcD5unkJHq6t2qTNbvn+6yIfmF1XEI8v/bpGsXVC38q9VfsqKXXKPbxQfm5iqWlpfJzFVAj7qALfypdDxtNpmAw+PjxD36/v7hke9uk6P+lpWdYLDP9/QPRD6NficC+EiC1uT/TOrJKBA4SAUFjRjJIbapnIES/l+QXGBoaTRBOZOc9Vqu1vb0DyuJMq67u2qdnyzETp6SHjxydmpoaHBpCVWY01jidrtx38zRaXXFJ6eLiYnFJqZLarG9o/ODDQjALs1KNVldXd+3Spcu/y87MrGyn0wUSVNoAvT63/FwFSgXW36qqao9ne6YOmdwxtzs7o7ig0erqGxrnnE6M1oKR1ta2hYVtd5xOF8aF2EoxDdU1t7S0t3dgRYODg0NDj9EU5BuNNS6Xa3R0LBQKra2tNbe0wAHd3T0bL/+Njo75fD6YZX5VVQ2xaPbI1tY2h8MxbbHAHpLsG4+s2oS5LD4mqK9vWFpa+r/vfwD9NTwywjVAWpfUL41WJ+7tKXUW+XAJo7FmeXm5uKTUZrPhUwMcD7ArqcfjLTxdxIb7bDbbeydOVlSct9vtue/mobMzM1bA2NzSsra2trW1FQgEEIvVan30aNDv94fDYbCg0er2w6/iklK3211Wdgbss7FEzn3402q19vcP1NTWOZ0uvT5Xo9VBz8Ljko8/KatvaExOSeXCYhi1xhhg9LEBnrLXqCgb6rJ7foLyh1YtLS0FAoFpi8Vme/brr7/C2freiZM2my0cDodCobGxP95TAAucX9IBA5a582ufrlFS/kr9hddAaSk2U3qN+viTMpPpW+jEBw8esstfs1ddeMIlvR6WleIIA0QAAA5MSURBVJ3JLzCIT53Ekw4a09p2i33ThG0hpYnAGyNAapO9zFKaCBCBnRCIiEshRWpzJ0D3p0zs95UrVz/3er0ff1IGs8PW1rZpi6W/f0CcaSUkJk1O/oxTzyaz2e12GwzvY11GY82c01nf0Oj1bgc8WbVptVo3Nzc3NjZ6+/pQnULBzKxsl8vV2nYL7Wi0umtff+PxeFGOwk9cA1AqoEoBmTrndPbcuYPWoJTFMpNzXA/hWYwUiS5kZmXbbM9WVlZCoZDN9gw1Z3NLy8yMVaqcsSJIHDuW43A4jMaa1tY2Vm0iN8w3GmuCwWB7ewcbCob4cJPZfOjQW//5z3+vrKwUl5RC7OXe/ftcrKy1tS0YXK2prYMYoM32DKa2Gq0OBRi06saNZgg1a7S6p5OTo6NjIOSCweDt251sA5TqkvolFQ8wcvr7B6YtFnSWo4R/fvlV1dzcnF6fa7VasR9RbbJ+3bjRzIb7hkdGij4qBokyPj5htVqLi0uBPDJk/YLh7XA48gsMbOh+P/yCRy1VVdVerxceXkR/QgGg4PQBtXn5ytVgcHVwaAhHIBLjTsz8AsPc3NzNm63JKalNZnMgEIAAmtLYUBrD3IDB6rAvQBMuLi6Wn6uYczorKy/OzGyLZHgnwuFwwPmF70RotDrRL+mA0Wh10c+vPbxGoV9sQqm/BgcHnz2zP3/+nH08wRYU0+I1SqPVvXfipNvtbjKb8XhObWI+XMG462GMarPwdJHH46lvaGStUZoIvHkCpDb3Z1pHVonAQSIgaMxIBqlN9QyEGG8waekZ09PTP/44CgoQZvwwv+QmtRqtrra2zu/3n79QqdHq4MNImD/hkTBdNpm+9fl81dVGUJvHjuXMzs6CpGloNK2srEA8BFvY0XGbU60wYxNfN2UbAMUhXIMqBb4jnXM6M7OyMbiq0erKys643e5QKBQMBtfX1yFkKnXBZPoWfMzLO2G328fHJ7Cdu0kgIpiyY2wTQ5fQwuKSUjY+jLNMpdgL+6oeGxkT1SbOdz/4sNDj8V77+htQm9gAxKVUV+zug7OgXl6pNqVm2e82FxcXIUgohky3hdPc3PXr9ePjE1NTU5cuXXY4HBxD9AvUJmr+oaHHmJa2QcyM3S+otLra6PP5TKZvXxnbFOvSaHWXL1+BQYthWDiMHUtcQVbDKI2N3avN4pLSbW1fUootkb4TwbVtx3/u7TWK+04VortK/dXb1/d0cjIzK7vwdNHS0lJvbx+cv+x1nhtF4jVKo9Wxz3qAA9tTHBnxeojXAe5I9s+ExKQffxydmJhISExiH1uwx1CaCLwZAqQ22UsEpYkAEdgJgYi4FFKkNncCdH/KxHJTSUvPePJknH3zCtSmNLb5VVX1ysoKrrvT29vncDggkoaTTmlsk22JKA5v3mwNBoPcmhbl5yp8Pt+Vq5+zZbkGwE+cwQ8+LNyOJtU3sK/yohH4gBPfHpS6MDo6htPHJrP5l4UFiDWhkZ0lEJGS2kSz7EwRZ5ncFBlfoWQVBVqAhBiqGhwcnJz8+UZzCwY50T6LS6kuzn6UP8HZGGObUjtsPA0PkDKcmppqb+948mR8aOjxf/3XDZvNlvtuntFYs7GxgScWrrAiNYv2X5mI3S9QL7HHNqNUXXi6aGFhEVQEHMZy0Gh1+IIx+PvKsbFPahNpb21t4RkUxa8Yf9rza5S03lj6SzyhRFPSaxT3HjuUUlKb0ushe56KlULOpUuXfT5fRcV5eIo053TuyYVLqTrKJwJRCJDaZK+HlCYCRGAnBASNGckgtbkToPtTJsqdAH7KOa6fnZ212+3sq3pKMYomszkYDN682YpmuU/IYH7JxuVgAsetbMGKw4TEpLt3762srOBndWj8wYOHKGUhU2wA5LMGQTIFg6tIFGUGHGw01qyvr+P7bFIXWEHSZDbPz88fO5aDDdtxQozLcaFFtMwyxFkmG2/EI/HNRum0UpwcX7n6ucfjdTgcKAbQPqc28ZtDtq7Y01JnYy/OBSGxoNQshCiHhh7fvXdvaOixxTJz+MhRliEWVzLLHhA9LW0AFElOST11qgBfEWf7S0ndRa8LP2AWe5lTm19+VeX1eisrL0In4prJSk8ilNojDhhoIXtGgM3osc3ofr3Wr/txjZI2IJb+UuKDBpWuUVeufu73+0EH4sGi2oxyPWTPU7TAJbgnLPhMDQ/T63O5pbZiycHilCACsRMgtYmTEEoQASKwQwIRcSmkSG3ukOk+FIt+Y3jvxEmXyzU1NZWZlc0eiWvSFp4uwu+v2ts7gsEgvHvJHoxpnP7imrSHDr3Vc+cOxNAKTxd5vd7Ozu+SU1IbGk2wPmdCYlJ//4DP54P3ctEUfOPk8Xi6uroxM0oDOLWJRVj5BJmHjxydtlimLRb8spE9GF3o6uoOBALnL1TCm7Ti27xsKY1WV1Nb9+LFC3g1l/uJ/ROXaYUJNJiVTiJZhux3m263u7u7JyExqbLy4o8/jv79H5+KOoStUZwcv4yx2NbX1zFobDTWrK6u3u7kv9uU1sUaZ9PigiVSZ6FIe3vHixcvsAGsHTbNKhzMx+82WYbdPT1Op6u7u6e5pcXhcExMbL/5DMuZXr9en5CYVFNbNzwykpd34nXV5mv5NTwyEg6HcdDiGqeHDr2FYx4cyX03b2lpiV0wBh1kEw8ePFxYWMwvMKSlZ/zwwzD7RW5//8DU1FRySiocD8ssVVZeTE5Jvd3ZGQwG4RtRJbV57FjO/Pw8++QI7IgDBvLZvlBSm8MjI1ar9feVvXKO6wcGHuEDHdYjTItg8Sc2sU/XKLYKTEv7i13Lmr0eYik2EeUaNTwywnYflOLUZpTrofSxVHSG7PsRUF35uYrV1VWPx4vPFiGHFaUX//mvtbW1hYXFPXm+xsKh9EEjQGpzH+Z0ZJIIHDACgsaMZJDaVM9YiH574x6E49t30n0p8SM68A5XvsEqUKrBah+rq9vRRXYt0JraOm5vT1CJLC4MuN240ez3+2FHFqhC2gDOha2tLfbrTVFt1jc0Pn/+/PKVq9hsNoEupKVn9PcPbGxshEKhiYmJnON69jAx3dvb5/V6T50qEH9ic6RbUErVpkarwzVpHz0ahG9fNVodu05sZ+d3EEZTUhTid5vQmLt3783Pz+MjBqOxxu/3j49PRFmTFuti3WHT4sRX6iwUeTo5yUWtWVOYZhUOZuIro+ySLc0tLevr680tLbDkEo4idk3aRpMJjEjNon0u8Vp+3b///zY2NliVJd2/UaPVXbp0ORhchZe9uRrZP3H/xnA4jF+uwgGfni1fXl7e2tqC0H1aesbY2PayxhsbG4ODg7hmcpSxcetWO7xpzJ7LnNrkXqiG92OV1Ca7Ju0rzxoRLOs4prkTfA+vUVgFm5D2V36BwWZ7Fg6HNzc3cU9gthSmpdcojVZX9FHx9l5TL7d3woO5KDSudiZeD7n3L/BljegMRbVZeLpoeXnZ4XDguV9WdiYQCNjtdgx4ijlsgylNBGInQGqTPZcpTQSIwE4IRMSlkCK1uROg+1Mm9hsDHbljAgmJSTMzsW6eueNa9qrg4SNHHQ4HrHQCNpXk7l7VyNmBRwwYAOR+PSB/trbd8ng8GGI6IF6Tm0SACBwcAqQ292daR1aJwEEiIGjMSAapTfUMhINzY/sTPT11qmB+fv6V74X+iS1kqxa/H3vDarOi4vwvCwts1Jpt3gFJj46O4canB8RlcpMIEIEDRYDUpnqmgtQSIhCvBCLiUkiR2lRPpx6oexs5SwSIABEgAkSACKiBAKlN9UwFqSVEIF4JCBozkkFqUz2dqoZbDrWBCBABIkAEiAAROFAESG2qZypILSEC8UogIi6FFKlN9XTqgbq3kbNEgAgQASJABIiAGgiQ2lTPVJBaQgTilYCgMSMZpDbV06lquOVQG4gAESACRIAIEIEDRYDUpnqmgtQSIhCvBCLiUkiR2lRPpx6oexs5SwSIABEgAkSACKiBAKlN9UwFqSVEIF4JCBozkkFqUz2dqoZbDrWBCBABIkAEiAAROFAESG2qZypILSEC8UogIi6FFKlN9XTqgbq3kbNEgAgQASJABIiAGgiQ2lTPVJBaQgTilYCgMSMZpDbV06n/63//HzXcdagNRIAIEAEiQASIwMEhQGpTPVNBagkRiFcCEXEppEhtqqdT8wsMB+feRp4SASJABIgAESACaiBAalM9U0FqCRGIVwKCxoxkkNpUT6c+ffqUwptquO9SG4gAESACRIAIHBwCpDbVMxWklhCBeCUQEZdCitSmqjr16dOn+QUG0pwH5x5PnhIBIkAEiAAR+HMJkNpU1VSQGkME4pKAoDEjGaQ247JHqdFEgAgQASJABIgAEdgLAqQ294Ii2SACB5tARFwKKVKbB3tokPdEgAgQASJABIjAgSZAavNAdz85TwT2hICgMSMZpDb3hDAZIQJEgAgQASJABIhAPBIgtRmPvUZtJgLqIhARl0KK1Ka6uopaQwSIABEgAkSACBCBN0iA1OYbhE1VEYG/KAFBY0YySG3+Rfuc3CICRIAIEAEiQASIwKsJkNp8NSM6gggQgegEIuJSSJHajI6OfiUCRIAIEAEiQASIwF+YAKnNv3DnkmtE4A0REDRmJIPU5hvqA6qGCBABIkAEiAARIALqI0BqU319Qi0iAvFGICIuhRSpzXjrTGovESACRIAIEAEiQAT2jACpzT1DSYaIwIElIGjMSAapzQM7KshxIkAEiAARIAJEgAiQ2qQxQASIwG4JRMSlkCK1uVu4VJ4IEAEiQASIABEgAnFLgNRm3HYdNZwIqIaAoDEjGaQ2VdNL1BAiQASIABEgAkSACLxpAqQ23zRxqo8I/PUIRMSlkCK1+dfrbvKICBABIkAEiAARIAIxEvj/X/Tp2om2w5wAAAAASUVORK5CYII=;" vertex="1" parent="WIyWlLk6GJQsqaUBKTNV-1">
          <mxGeometry x="560" y="32.93" width="911" height="367.07" as="geometry" />
        </mxCell>
        <mxCell id="WatQzWpxmWLszt0OcihC-14" style="edgeStyle=orthogonalEdgeStyle;rounded=0;orthogonalLoop=1;jettySize=auto;html=1;exitX=0.5;exitY=1;exitDx=0;exitDy=0;" edge="1" parent="WIyWlLk6GJQsqaUBKTNV-1" source="WatQzWpxmWLszt0OcihC-12">
          <mxGeometry relative="1" as="geometry">
            <mxPoint x="220" y="630" as="targetPoint" />
          </mxGeometry>
        </mxCell>
        <mxCell id="WatQzWpxmWLszt0OcihC-12" value="2.推送充电状态接口给支付宝" style="rounded=1;whiteSpace=wrap;html=1;fontSize=12;glass=0;strokeWidth=1;shadow=0;" vertex="1" parent="WIyWlLk6GJQsqaUBKTNV-1">
          <mxGeometry x="135" y="520" width="170" height="80" as="geometry" />
        </mxCell>
        <mxCell id="WatQzWpxmWLszt0OcihC-16" style="edgeStyle=orthogonalEdgeStyle;rounded=0;orthogonalLoop=1;jettySize=auto;html=1;exitX=0.5;exitY=1;exitDx=0;exitDy=0;" edge="1" parent="WIyWlLk6GJQsqaUBKTNV-1" source="WatQzWpxmWLszt0OcihC-15" target="WatQzWpxmWLszt0OcihC-17">
          <mxGeometry relative="1" as="geometry">
            <mxPoint x="220" y="864" as="targetPoint" />
          </mxGeometry>
        </mxCell>
        <mxCell id="WatQzWpxmWLszt0OcihC-15" value="&lt;font color=&quot;#00994d&quot; size=&quot;1&quot;&gt;&lt;b style=&quot;font-size: 15px;&quot;&gt;业务判断&lt;/b&gt;&lt;/font&gt;&lt;br&gt;1.是否缺少orderId和deviceCode&lt;br&gt;2.根据deviceCode是否可以在redis5中的&lt;font color=&quot;#ff0000&quot;&gt;DeviceByDeviceCode&lt;/font&gt;中找到当前设备&lt;br&gt;如果找不到不推送&lt;br&gt;3.找到cfg_device根据deviceId是否可以在redis5中的&lt;font color=&quot;#ff0000&quot;&gt;DeviceUserMapByDeviceId&lt;/font&gt;中找到用户映射关系表数组&lt;br&gt;4.根据用户uuid查找redis5中的&lt;font color=&quot;#ff0000&quot;&gt;UserByUUID&lt;/font&gt;中的用户，取出用户对象判断&lt;font color=&quot;#ff0000&quot;&gt;usersource&lt;/font&gt;是否为4，如果不是4，不推送。" style="rounded=1;whiteSpace=wrap;html=1;fontSize=12;glass=0;strokeWidth=1;shadow=0;" vertex="1" parent="WIyWlLk6GJQsqaUBKTNV-1">
          <mxGeometry x="70" y="630" width="300" height="190" as="geometry" />
        </mxCell>
        <mxCell id="WatQzWpxmWLszt0OcihC-17" value="&lt;b style=&quot;color: rgb(0, 153, 77); font-size: 15px;&quot;&gt;封装数据推送步骤&lt;/b&gt;&lt;br&gt;&lt;font style=&quot;font-size: 12px;&quot;&gt;1.封装密钥对象&lt;br&gt;2.&lt;/font&gt;" style="rounded=1;whiteSpace=wrap;html=1;fontSize=12;glass=0;strokeWidth=1;shadow=0;" vertex="1" parent="WIyWlLk6GJQsqaUBKTNV-1">
          <mxGeometry x="70" y="872" width="300" height="190" as="geometry" />
        </mxCell>
        <mxCell id="WatQzWpxmWLszt0OcihC-18" value="" style="strokeWidth=2;html=1;shape=mxgraph.flowchart.annotation_2;align=left;labelPosition=right;pointerEvents=1;" vertex="1" parent="WIyWlLk6GJQsqaUBKTNV-1">
          <mxGeometry x="562" y="709" width="50" height="100" as="geometry" />
        </mxCell>
        <mxCell id="WatQzWpxmWLszt0OcihC-19" style="edgeStyle=orthogonalEdgeStyle;rounded=0;orthogonalLoop=1;jettySize=auto;html=1;exitX=1;exitY=0.5;exitDx=0;exitDy=0;entryX=0;entryY=0.5;entryDx=0;entryDy=0;entryPerimeter=0;" edge="1" parent="WIyWlLk6GJQsqaUBKTNV-1" source="WatQzWpxmWLszt0OcihC-17" target="WatQzWpxmWLszt0OcihC-18">
          <mxGeometry relative="1" as="geometry" />
        </mxCell>
        <mxCell id="WatQzWpxmWLszt0OcihC-20" value="" style="shape=image;verticalLabelPosition=bottom;labelBackgroundColor=default;verticalAlign=top;aspect=fixed;imageAspect=0;image=data:image/png,iVBORw0KGgoAAAANSUhEUgAAApAAAADaCAIAAACei+UkAAAgAElEQVR4Aey9iVdaS7o+fP+bInsRhwWOy1lcKigoIAKyQEFwQAQHBFGjJhpDjMaZOMRE1KiIAw5JjAOJp+/9fn1P9+3bw+0+9/Y5Obf7HO/f8a3NZm82w95gcpJITmW5sooa3nrreWvXU/VW1d7/wmCy6f+YyVn0GWAqRAAiABGACEAEIAKfGoF/iVoBJOyoEMEMEAGIAEQAIgAR+NQIQMKO4mD41AaA8iECEAGIAEQAIhALApCwIWFDBCACEAGIAEQgDhCAhB0HRopl5gXzQAQgAhABiMDXjQAkbEjYEAGIAEQAIgARiAMEfo2E3T80HsssLGK2iJFkaVEzkDMzmOwY88eYLUQ4/AkRgAhABCACXw0CcUnYSKmx+949aS4rohnoUz+SI2MhzljykDWPJX9Inv6h8ZA/skAYhghABCACEIGvD4H4I2yApJc2P7xj1qQhEQibPhWzXwj5URk1YrbwyBDipPlJ1E6Th5xEKBYeGaJGyE+iIAxABCACEAGIwFeDQBwSNkvaPDhmEOdFtAEISyWzHU04RBoVBYbHh8eEiMJ+EtmIQMRsRCQ5GzkcIi3iT0IIDEAEIAIQAYjAV4NA/BE2W2y7M2gpY0dYXjOYbPpUzGzh/BduTiwPDcETGcLLhscQNRIBIg85hggTASoHPjkDVR6iChiACEAEIAIQga8AgTgjbIAUiDvHepurmJH94XSphLVC2I6IJwIYTxM/yYGoZcmZ6cOEKCxA/CSXIpKIqQOWSvwkAuRSMAwRgAhABCACXx8C8UbYubqOe3Z1aWpESwDaVKJIRGokUrEFK1We8HiCMukDIfJDlsVkseQwUSokkv4nUQoGIAIQAYgAROCrQSCeCBsg7Nza4Tu9LXnMCP5wmtTYqZTg0RBGJOxNFU9kICSQY8hhQgIWwHQjMhCRRAwWIErF8jOkLPwJEYAIQAQgAl8BAnFF2LcFdX1jncpSRkR/OG1qCOERlguJJ34SgRACJscTQkICMeYJoWpMSEjZ8KkGVbYQHeBPiABEACIAEfjKEIgnwr7NM/XcG6zKjrC8ZjDZ9KkhvItZMYQdyaYNSSJ+EgFy5pAwTR6CgAkFiBgiECKNyEmOJzITAXIqDEMEIAIQAYjA14dA3BA2QDJ4LaN32mvZEZfXtKmE2chUSg4TGYhASCrxkwgQObGpAEGcEQPkzOHhiDJDsoXkof8ZUhb+hAhABCACEIGvAIH4IeyUmpa7j/TC7IigA9pUchGM6kIIj5wBC1NloIonS4iaJyQD/c+I+sRShKwSDEMEIAIQAYhAvCMQN4SdUt17Z7CTmxzZH06fGmKkELYLScV+UuWhiicLIfIQAXJquHM+JFvIT7I+WFJ4hvCYkBrhT4gARAAiABGIdwTig7ABwqnuGrM1iiiuX9Olki2E+asJJzY5KSRMRYFU8eTi5DzkMJEnJJL+J1aK0Dyc7yPGEHXBAEQAIgARgAh8HQjEB2Ez8hvN9x6oilIig06fykQ/mkYmPEJIxEgsNYRECVIMicckxPh/SL00pYicRIColwiQ9QyJJErBAEQAIgARgAh8NQjEAWEDhJ2vGblja86huH5Nk0qQIo3BIuaJSIERI2kkf1gSTS0RkyJGfljVsBREACIAEYAI3FgE4oCwbyx2UDGIAEQAIgARgAh8NgQgYaMOc/gHEYAIQAQgAhCBG44AJGzI1hABiABEACIAEYgDBCBhx4GRbvikD6oHEYAIQAQgAp8BAUjYkLAhAhABiABEACIQBwhAwo4DI32GiRusAiIAEYAIQARuOAKQsCFhQwQgAhABiABEIA4QgIQdB0a64ZM+qB5EACIAEYAIfAYEIGFDwoYIQAQgAhABiEAcIAAJOw6M9BkmbrAKiABEACIAEbjhCEDChoQNEYAIQAQgAhCBOEAAEnYcGOmGT/qgehABiEDcIQASCwpLS28j/g8WAxavqCj/Fv4z7przK1EYEjYkbIgARAAi8CtCACDpOTWD95cOluwGFs7QIK/dvuaZsvcJctJ+JeQXj82MG8K+VdpaOL1dsXMmdO3wHnSzMik+tfnZXwyeWNOb21AdPjNN6t6r2rYHnoc0feneO0G3iIE/IR/cXZK69yQvLyUvL6uOzoRrq0VtKuZt/zQ5RplUOsdYPO6y5cp6DFpJUhjynC6368UDLh4P0ppH3BdPuoTh1rxukzld7u0D7/aB17X3ZmXF2W9Upl7TRlQ6X1eTG5I/kScwLBkenZinjo0DE1VFWTeFIDNrJRpDYSLeBwi48gaMjmMFB48H6fzuM6t9oODj+0begPHJN91Pvul2vDVP7DW3W0rY1+wbVDoTytMEAJKW3zDncL6406zISA5YASApifl1zfatxYUJae5NGV1pGvLrTIoPwgZZLdydd5WOkaxabZpuoHTDK37al3jNXv6JDJz24LxqyZaAP9hELWTCBkhKcu9e1d6T9NTrMSshjRxAJe/MZ0tq2dLGTMu84PCtoE96rXkAlc7kWr6msHj41PWkOzPMRmTCBkhKSbfbte2Q/hI2QiVvORqqVILqhtpOx8Lu+ROblHA/xoItlc6xlL1peUA233ZiHV+pkddzK1qqbQeW2Q1J9s14fvkTXY4XVWlhfYNM2ABhF94zOk7rK9N+gecXlXyiVcpLuMqy6jvah16LfZjDDFOAxohUOtMUIZJuFVkfru4MakoizjxAYrlufH/ebky/jj6EcBj41AjEB2Ezm55XHTjSWfjTIhkTHu/mFuM/P/uqmmwVKvILIuysNt7BW34HH/wSj0GQZISd2LUdBE4MaFDpTG7X1xSmIr8gws40Pto5n23jX2vqQ4VSkGSEnd+x5dqZkxIdOAYbUelMVeNNjmcZGx3n9ZVs/wOLyFUTl8Z67o14fqnIL4iwsyvunFuGbbm/SN8Ikoywc/oMjosAOLHYkUrnqGUBklrR616a7s5lUoKP8O9Or73QlwQW31HFwgyfDYH4IOwE04uq3QnCcQQSspk5xUiSv88BhM2s6Cp6sif0nIu23dy+lsTkQHdEU8vaC+fclbs+d/qIlZUZ6Iug0i483stXNBUuHAj3TyqWHbmiAuKxpJEMcixlx+8w1zTxf9Wxt0jur5qgVYCkp9w7qnJPpZLGazrJrMaS/XcVvZKAGkxx/ot3wqFajO8JyVgvAVVjwmN3LifQZCbfzJnb9aGxi24fZPjbG1VnBpNNVTZqjwRIao5i2L50sLp7vrVzvPRk1hCMZAq/s2/W7XSfrr3Ystv0ubj5GEw2QNhsXptt2vXUdbK67h4fsvBwndFUwYMVj7tN3mhz7K+6Xy4tzLVUBtmISjLI6ZryXGCuaeJ/l+esX+bHiqBVgKQLBjyuzQlhcM+hlJzcMOS+WLKRbSTqcF6sDKqwhQsh2W8j0eiqx2UoDNiIXd7ZM+VeQdFA28vF2xtVZwaTTVWWwWQjzJTkhNSQPyY+OlfyW37UyQ250pca03eNxt/IqutZpGcBYWVmVToVLX9pav9Op/dUlHET8M5cWPe+XipEWIDJ3Wru/FMlB7VLhvT3jUpNDHPQdIve8aaWiy+pQUIaOy8rCe8AAGGxREKT0zhx3jV93NozzM8KsgIrWVBpfN766A3qTu9/LCa704FYMXFpbFCXGddMU2edo5v1aklG4MGhlgzyRPcurZhrmvjfcWlpr/U3maBVgKRwH7Y5XtWVBT2/lDoDVlnXmXV0qDCgBrOg6cD6+JF/UUtI9vcNmWrqslVDWn4kC0XG58bHKBrGgQkxJ9OvUlSdGUw2VVl/XYjYuHj42CSkeZwBU9a+fGjX88LzJIuHxp975iZ6ixMDPTk8G4z5dAjEB2EzSgcER2flg/qktNRwLEChpfzgbeX0UKZSl948wtt+V2nXIcQ4UmDm7b+tnBvOUtWn6fpLX3jFi7ZEfAjzEfaRwPEkT9eQWmsunH9dtb+SmYM/IdSSQTKXJdekyTX5cxdVaxOZvnCaXJOMP10+Wn2Uwsq8VdRdfugtaw16AGh0BkhqyvCrKvcYMUFhCEYqj48KK/wbS6GE7Ztz5JUQOlvLDt5Wzg5nKuvTGu9xXe9Ejk7MYx9VZ1BIWTYc9pAYkG+Z3jtzDHfJqlWVMr1hbN+1My9PwR/sgq7JnfPlx3drFVpp4/DYi4tnI1pig5+R3zHuPn82NaRWaCT1d0acZy8c1jzCRihhH8zPOIz1OrGqwzJ37HI/U2dHlwySSnkytVimNk2duZ6P1/rCYpmak+Evi9LqxkM+KyOBY53cPZto4QY1ilpndKVy98i1McrHSYjBv7/sOegS+G0USti+OYeRGJQLLVM758uT99Q1GolucHT9Yn2mA/PYR9WZQV2WwWQ3VrX/b4uZ/Pej3jiH90kfYbe8kcn6CriGYtlpQ+fflZWFxJOSUnne1PEHebU1n9taLH2t6/xjFRfzFYOM6m+b61qZLJAi+kbT8tuailSElVigfq8SFRDFadwGvGr7u65hOz83PTA/CEBdJLp3bhlbklVreJVGef9L6/gUL3DggCPsP7OOP5PL6rmCluruA8vsujib6BsoYbfbV+q1LWV8rdCw2uk4a5Tm4n2DWjJIzimq5fJruQ3PLY692mpfmF/Lzcvyl0Vp9aWylJ16u6Tqntcy2JkTUJjJZtBIRtjcRx2OV6pSfLrDENaMXbbrxf62hxK2b86h5eE6F4vvXVjGluVSNVdgkPYdW2dWhJiDOqrODOqymPLgtsa2enhXkx/UlmDDAaRUN3k4Z5WF50mrm3mydrj0dLSCNHcJzwZjPh0C8UHYAMlI0s9XHL2rOnzNn5nIVfJv4U8sOqm07lbtTKXis3JEMy8+WslM9z8AiZ3bVTvTRCpDMi46ducW+VN9hH1WUpuJQQzSTbyjdzx9AfaTXjKWh8q9TBwNQ0+HHS4E/Pm+xyOK5PL7FcenxfIM3+ozhT14VLU+nIw3mZ6wb1V05NuMSfgUGNEtVR2vZAbvvVHpHEtZyr4ondj0rOpwHgWsglwONwVXg2N2u7YmhPiiKrnOsbH/rA7XKq99y+WaFOGpSNWY07NtwH0GvhX2m3tKFA0UkDTjo/2LsSa/jeglY0Wo3MvE0TD0dNjuEznehbBSUSSXDS95Xg9I/TYqv3Pgct7j4DaiJ+wkQVu7pZWDg5NUv7DlCaBBrzN92dSUQmlmyF9+Ic4cKGHrdT04ztkluh/1WguuhpDf8mODUotnTuWov9dru32ZQUK5R988ksK6lav8VijbqpdVI6yysubvxKXEOhJTO+L/AEnNNWkfea0Ob8eD5Vq1OjcBB4rBZOf1Gx0ndWU4+ElN2rl3jVJ8UpXdY3CcqMvx1Fty1eSlUUNMT1G26zLX++fxIKPizjtrv8nfVeglY6pSuZeJo2Ho6TCvVhhMUVEkV9SMXpo7VOjsDSDsEnubY19OTEDpCTtRXNl4V5CH2yhRr3NcNkrx0Yxe56hlQXLDnbXDgbrgyUcoYXPU44fzvcpwU6IH0zKLU5LhkbRI885gGMPR+0Vi4oOw/U3NkqQZ7SWLR+LjC36/ilhDp46cVS32JLAyb2F//CHB8WF+uZ+SU++fVT0NHAoDCJuRkMLAxwsfYe/nleL8jYhyFz3ctgqsRnrJWB4q8kNp1e3IFFSzG2crj09LaoMeEnrJACnLff5O/Fh/C2GB28pC9zu+mU/Ym56wsWyAmepHQz4hOt7OJTljGUw2lc6xlCXUCAmAnI6JvfOnk8Mapaq0sOA2jjCWTTT0xuXozmZlJGB/5XcXPPvtZX7YhfdOXPNW4lAYQNi3yDZCl6e7JmKMRoQGx+4joyAWyVgeGsJ2bc6q+RKebvq552RIFWQjep0BwjMsXayPNieiNlL0bFzMtQdsRE/YmFaAmXobQ0M2vubZ0hf40aDXOZayWJ7w/zGXuAxfE4McxXc+GsZyNojbflSKigmPekb1v+tbp3zECZACh7btWQ6roLThVUnxuLq+M4HVWNV+zs0Or4UqBskurOxSdK23zV5aRh6UEGvo8sdmx3pVBjv1NvZXKbNftjVW+NEoGzc7NsTEGSiAsG4lsAPPL0rYJh3ekQBSoFk33rHkYTrQS8by0BC243W9VFhY1Kp5fGnu0qaT20UvGSA5Gpd1xlGegLBAQrHxlfV+by5RnJ6wsWyAyWZiaNTWTl8a1PgCg17nqGU/krCJJsDAl0IgrggbW2AhaYmG56LjPcIJnPbgnNhF9t93Oj4qEPgf+CjkFOxPDjEDvWQsM5V8glYBws15+la83Ee+OhJV8u0Wp/jwOeonkE6Ijrey8wOjOSEZUwDbhifQYGSr8ybdwoO3BCZVsRN2DGVDICJ+AiQlXWzrn3E799Bt442Ntb56AXEuWjx8Suwi++87eQ7NfH+jqAjV38AQf3LwTJZeMiaBSj5BqwDh6ufPtxZ6c3EyYzDZUSWnN69s7S7XprMQyfiq50VjXsBGhOTITciqM41tO3fOCUxcsRM2bdlY9rCleBtBTs13+uYH+LYFjTsdIGm2ms5XxRl1IsNSdmqb1DCRkTWkbHfmXnupAZCUrPbG6Usj4QTmT3QRu8j++06X7c1CP5hUhOoHNsSfHNw36CVjEqjkE7QKkOy6TYtjS0JMKBlMdlTJqW3NDm9jdSYLUdROXbaoSDNmQnLkJuSWNiwYJy8C++uO2Ak7WlmQrIthhV3kW2GrMPXg/zcKgTggbICk3+bJWQWB1Q9IaCg5esdt9E9a0dXqswepgmpW4E+cgLuwfCvsHoI5QtAPZbvgB55eMiYqKmEzmOxbqjnh8StOtd9Tx2Cyo0oGqS3cg7dlrWWp9jfiJ2byrY9QwiYdOgNIXsbUmfjFk2yFwo9G67w4NsKOsWwIgOE/we2stCK5emh7c3+tAd9NRFeri/dFfAk38CfKxG3kW2FHuHaFCccOnQU2gINtRC8ZkxCVsBlMdpJiZtVz3CsJ2CiqZJCqt++cT+jLxPdfbc12kq8GhRK2OHDoDCB5qvE3W05Hg7zGj4besR4bYUctS0O6DCYbW2FTETa6wq6VNQR51APudEWl8T8qSvtqGvpZrCqBYbugZLmhaQg/+B3eDYgYgKSm8Ys4nMDrOEBCWddba4/Bv2ZFV6uumnJhISfwV5COS0ZX2JsRrl35+wYtYdNLxiREJWwGk51Yr5m67DDWBFzBUSWDNL7twjrYkcuf7HQ4RSn4JAndAgi54U06dAaQDMmi2eGpV6qL/Wh0aGdiI+xYygKmyuI8HGkqIawTHgCIoHnucMosCU+CMV8cgbgg7IyMybdVC92ElxXk28qPz4vk/ucH3Q9+cZ/Y4gVp5WxRVQK+6ZVodlftzgTvYe8E72EHFush9qCXjGWmmhCQaRUwhXmr76qemIl5Q1TJAElPtZ9ULTzn7ntLG4IOiQRJRthJpGtdAKku2H4nsImJhqA7+mGEHVHnGMsSkkMCSRylRCokBiaQb531vOzG10nofrBzqAj3k4O08jJhVSa+UZeP7mFPifGfkfaw3VSETS8ZU5JqQkCmVcCsbHt+sTnbSXhfo0oGSLp4+OWW4+mo+8yuDbJRkGSEXdAZuNYFEEnXi4sFi4gAMKnOsRlG2BF1jlo2+h62Tk5F2Ogedr1URNgoKUeRXVCAb2lnFeveSxVP1Yo6hJVaVP+vlfLjJpUOz0y0JTwAkJSqBYtjTZxGZC6sGrrsaq/FD2H1Gx0H8nw8FaTnFlcXpuHPb3Zvq+NN2B42sYdFS9joTjO1ZExVqgkBmVYBM79h1zrnFKXivBtVMkBSUapea+w7s/QYArPAEMIGCDvnTuBaF0AKW46t9rv+8xnoXKFROxdG2BF1jqUsQEq0E4fzg1piIIpgr1T93dXDgbqAD5/IA25ziqUaUbUoFTcWkQQDnweBOCBs9LJK9ePK4zP+o/4MZX2atq/YeSZes7Pw9ZnvxPUZ396TUaNJqzMXLpyIX4yw8IGGUWAu8wSfEn/aG3xKnJKwo0j2LfVut66LD12FDbo09KC4nFjZk2kVvS6leyo+PiyowE/HoOfPqXX2SQbCh5XH76oOFtJxpyXWJ1DJoS9OkWFnfwCSk/74tMq9VqBvSpXrMk1j3MW98D3siDrHWJaqXyYqptc8x2NWo0TiOyX+aG/LPV+DHytjFHRN7bxxjNgUMrVY1dHteLnlHA4co83vfBw4Jd434jzbmO8hrorSr7CjSPYhmdni3Nrd7NZqxehBcXk23nPItMpgslPqFzc8+2Y+fhOBXmef5FuV9meeC9fOEzm+IsTwQSVTvDgFIDk1oyeuTWdXU6NYqlUaR+0O92oYYUfUOcayVDaiX2EzUiovmtp/UyXqyCttLKhcVJre10ur8aEZZNf8VWP4d6UwD2GBLNnvNC3/USsiXgRGVSMWn1RT++jS/GC2WqLmCpolZrfZsacoIhBDT1x3jUxVVdVy+Tph61qHwyMnDsoxOKKBc/yUuN53SnxDkkVoRUvYvrPc1JJ9Fkzr1Du8hlYDj48eFC/KwLUiEzaDyWa16GYv2/QifAuAXmesb0gU45dWx4VWGPwqHlRy6ItTijAXGkDSxA6z43Wz3lRWruJJLKqedeNUGGFH1DnGsllNi4vOeVUO3hCfqoT5AJKSZ1hedM5IiSeXlAEU2x6vHS7YWwL3O0iphBAY+HQIxAdhAyQ9QX6neH5HuHcm2t4re9iXQnrhLXqnudJaNL8vPDgXuffLHvankl6th6byOzlz7kq07C7vgY2dFXBt0bvE6SVjVgFJFZn2F5X7XvQ0OGktG0LYIEFeuPVONGnEn0w6nf2SmcrCnXeihw0h7yQizp+jryZdXy9qVzGJ2QmTDTJrckc3KnbOxHtH5WO9LIVdSNKKXudYylL1RYDkcJvHx54fre1ebLqPF9F72BziCDFA2CkVlv65XefO6drG7sTIHWEOyQoIO6W8o2dqe3n7DXovedhaTnr1LD1h00vG2ytQ31975j5DT4OTqDGEsEGCrHvtYn2sle1bSMUkmanocV2sjehClizE+XPX3hun0zlgUqWRbZQhN9jXlrbevNg+mH7Yw5M/WCFpRa8ziKEslY3oCRug97CFq0qD7x624VRSpWUHhnXAqjzTd34nKmEgLJAkeK3v/O+q0pCeSVUvQFIzVJLOVeP4mXn62Dg4LeHmka3PYonF7aumyfOu6VemwenqsnxSvQiLJRQanxvHTtGyAxPi4mxSKi1hoze8qSXjOOdJp/TjZxb0NDiJGkMIGyQUtR5ZZxYEyf6+EYNkZrHxxDo9XUbez8JW2P6t+rfmiX19R3dJCrlvZBVpZlpGT8yzp21DDkmRWjFB0opeZxBL2WSJcc4zPzHASw+YwC8WSU2vvj/u3H/QIoho2VStY2ltzybLojI0jP/UCMQHYX9qFG6mfMC7Jzg+4VQHNv9upp6/aq24gwuel70SaKMAif6q+wN5xcmX2oN3vm8IMrdydV2ze4vPVvqaJMQ7lUGqvHlk1bG2azcrU3AHBllhdANocH9p+UE5fg+QnArDnwcBSNg3dKABCJs1cFS1/YhNmn1/nj4Ba4kRAYCweX0e18bDMmgjMlHBsO/6ddGDNsdLZfGN7BsguUTQONxv1RHObZCj7xoaVAo4xHXZkKcAIBLT4uFUZ4QPHYXkhD8/HQKQsG8qYSfUctzoC0p/kdePf7oO9GuWDBJUfZtBLyj9NaMB205GACSUmF4HvaCUnBqPYZBnfrjmbOTc0AEzHiH9AJ0hYcP+BxGACEAEIAIQgThAABJ2HBjpAyZisAhEACIAEYAIfGUIQMKGhA0RgAhABCACEIE4QAASdhwY6SubJMLmQAQgAhABiMAHIAAJGxI2RAAi8MUQIN54/5kDHzBWwiIQgS+OACTsLzZUfXHbQwUgAl8cAcnLy8+vwxep9PM3E9b49SEACRsSNkQAIvDFEPgi3PlFKv36yAO26PMjAAn7iw1Vn9/YsEaIwE1D4Itw5xep9KYhD/WJRwQgYUPChghABL4YAl+EO79IpfFID1Dnm4YAJOwvNlTdtK4A9YEIfH4Evgh3fpFKPz+2sMavDwFI2JCwIQJfLQIgsaCwtDTkS2I3ahT7Itz58ZUCFq+oKD/iJ61uFLxQma8MAUjYX+1g/ZX1VNicayEAkPScmsH7SwdLdgPxgYdrSfg8mT+eOz9Az4+vFOS129c8U/Y+Aek7vx+gCSwCEbgWApCwP5awc2U9Bq0kyfeVXDL0od9aTmsecV886RJ+/Kyc/K3llRVnv1GZeptFrjpqmErnqAU/aYbMWonGUJgYhiRAWEkVldgXkScPW3seCHLY12vvp1ObSuePqRHU1s1dWrFPJvs/nPxKWYTDkjdgDHxNea+53VLCDrM+QNLyG+Yczhd3mhUZyUE9vO6B+epEXY+wErTaK2/bTLkfSYBkDTttP1+Yn0nQ/ABJMUxYfr6wHTenk9uCyGq/99quDpUyXB8staLX9H9ve/7vbc+Vt/v7A9P5WJUiK1AvQNiZlaK1Z8a/vLb8fc/4eqSiMsVfr+TlZUWv6epYpcAFgrr6K2/L3Rx/BlE/Lvnc8t2OfrOrNIfUXiL1/972/PS6898cNa2Fgc88U6VihA0Qdp5Usuls+5/T7vdHprOHInlGUL+iwgrDJzG/rtm+tbgwIc0N1EjGCoYhAr84ApCwA8PKh4ErHj51PenOxIcbQgiZsAGSUtLtdm07pKlBIwKR+VoBVPKWo6FKJahuqO10LOyeP7FJr+X2pNL5Wmr84pn5E12OF1VpYUiCXEHvqXX8mVyq4VWaFIOvrY9neMlh2X5xfWIRSKVzLGWp8oCMPK68hCuv6jmzjk9XomFJLjEjzBswOk60SnkJV1lWfUf70GuxD3OYwWjcKrI+XN0Z1JSEzw5V9zuvTuo0CItZjxL2FM/fIX2Ebfm9u+OvI8W3EBZIKH3xyvQ7dyhhVw20XR13/bfX+JAT1JNR0j3S3ZWV1u4uKGgAACAASURBVMu4xtaasyPbj05xCa4VUlR1edb954WaXk1Zm1F5cWT7fr4iz5caC2FfvdQNyUrrFeU9vbr/POv+3b0iYlYn6jf5U2Ulep3EvW298qjr8dkAVSpG2Lcran5/3v0fs1JrHc/YKn/l6f7fdUkZ6VPQVFgRhgOJ5brx/Xm7MR1vKZEEAxCBT4EAJOzPQtiZxkc757NtfMYv8WAHTwXY+R1brp05KStoAKXvK/FF2Omdesd5fSW+qmYZGx2XuqrrtJcejY9J/RSEjekDkGLjG6t9ID9EPZSwjxUcX0cCCDunz+C4CIDjW/ylVvS6l6a7c0ncQwiRDLZj62OgUP+TxLvYCvvVhOa7Q2UNk4VIVN9tqzfXgggbINkjq7a/2hWuU9trQwYhk8Fko4TtUUjw7s3San8irZJl99qv9lRy/MvQbKXm73jVMRH2kUqOt1fQY7w605rwzoBSMp7KYLJvlUh/6+0mvAJUqRhh1z/sunLLK3GUblfX/o3kcmAw2VRYkRuO8O9Or73Ql3zsMEKWCcMQASoE4oOwAZKaoxi2Lx2s7p5v7RwvPZk1iAoI8gMIO4Xf2TfrdrpP115s2W363KQAewGEzea12aZdT10nq+vu8SELLyPwdAHBgxWPu03eaHPsr7pfLi3MtVTGJBnkdE15LrYPvOQ/l+esX+avmqBVgKQLBjyuzQlhcpBWVDqD5IYhd9BXlgFT1OG8WBlUYQsmQjJmVCAaXfW4DIUB4ezyzp4p9wqKBtpeLt7eqDozmGyqslQdiIhH3Z718p7ttimv1XHeMfqiXiPLJNmIxRIJTU7jxHnX9HFrzzA/C0cD5InuBXuAn3zT7bi0tNf6W1T8oN2xI8vByQBIFJOXRk2pPzW3z+h4payQSHrcHdOn7Q+e1ghITlGAUNaLcptYMXFpbFCXGddMU2edo5v1akkGoTODyU4WiozPjY9RnY0DE2JOpr/SqDoDhM0SidqcxvEz89Rha5+9Io/kXIlar493oxM2mk2mmrps1RQHrA8QsXHx8LFJSJiGHOBZjVduuQBhAZHyb179QBbeIp9L/Le9Yudxx5NKds1wx+/6hIsHwYSdIjg+797T5txbsf04UUZe1ocQ9i153Xtv60gBKhwgKV0O29Usn8gPMoXnXuuqHE29FmGj0qS1P3iNj/D2hlAyQErW39h+f6cAazJVKkbYanvX1UZ1Md6vblXU/NnbNom7HBhMNhVWZDwBU9a+fGjX88iRWDhZPDT+3DM30VucGLBOeDYYAxGIHYE4Iex8y/TemWO4S1atqpTpDWP7rp15Oe74YhR0Te6cLz++W6vQShuHx15cPBvRBg7a5HeMu8+fTQ2pFRpJ/Z0R59kLhzUPn1b7CPtgfsZhrNeJVR2WuWOX+5k6G3/AqCWDpFKeTC2WqU1TZ67n47W+sFim5uDbYCitbjzkszISONbJ3bOJFm6QVWgkI6kVd49cG6N8Yq+Of3/Zc9Al8G+VhRK2b85hxIcwRqFlaud8efKeukYj0Q2Orl+sz3RgHvuoOtOUDVKeGZjxEPGAIx56a3kwKRIqS3i1fM1Cm+NcJyJYqkh079wytiSr1vAqjfL+l9bxKR7m5gXJOUW1XH4tt+G5xbFXW+0L82u5eTiXlNo7HDvSbHxgxdhOiw+sKGGfGAcXVDVaXkWr7M6xdW6rOgu3L4O6XnT0Rwm73b5Sr20p42uFhtVOx1mjNBe3frH43oVlbFkuVXMFBmnfsXVmRYg5P6PqzOAIB88tjxal1Rou1t7JBQE7qAnU9frgjWWFjTfBSKCBxtzW2FYP72pCl+aYpXJN+qt1CQdhgVLp772NFnypiq2w/2u4SPuw69veihl3+0x56errIMJmKtQ/eA3DeSx06XmkrMGb419hHyiV7FQWOz2Hy3vitLx/JsL23QGSap23XU2XB7pKeuWpt3tTRSbs2nq0rO9PG7qHTV5DA5HqO69pguu3USglZwjPvLZzUxZWF1UqRtjMUslvTs3H7YWpTBaSVeJYtfx9sbKQ1CgqrIiGoGgjpbrJwzmrjByJhdPqZp6sHS49Ha24Gd6gcA1hTNwhEB+EzZBObHpWdTiPAlZBLoebgs9bOWa3a2tCiK+qk+scG/vP6tL8j3Re+5bLNSnCU5GqMadn24DvwPkI+809pd+/B9KMj/Yvxpr8M3R6yZixqdzLxNGw7QOva/eJHF9QYqWiSC4bXvK8HpCiWgEkpfzOgct5j4OTED1hJwna2i2tHBycpPqFLU8ADXqdYylL2cVVdXOXegXOdoCdmVWazcJhz+s3Ok7qynAQkpq0c+8apfjkBpNJ5V6OTtiXzXK8byTo6mcvDSrc30Bfr4+wu8z1qZgCIKPizjtrv8nfGRLFlY13BXl4ExL1OsdlozQdp3MfrVLpnN3biraXKNusm7tslhMLdHSiQFmvX5kYXOKRCTu54c7a4UBdDqWlIs63fCvsv9tLmfK673fb/3O/porJcwcfOpPebb86UFQjLESl/tFrHC0KQEEcOsOOnv3krmvGLUIQNkjhrh9Y/jBUzAwjbKwU8X/IobNohF2r9jF9Rl7RXUfH1WmTDa/aR9gRUjHCZjDZGYKqV0e2H/ZMfz7t/uN0Jf/6zAoQjnr8cL5XGY42QFISM4tTkuGRtAjz+3C4YEwsCMQHYYOcjom986eTwxqlqrSw4DZOXVgLRUNvXI7ubFZGAvZXfnfBs99e5h9NhPdOXPNW4lAYQNi3ElIYuAQfYe+aSvyZASI0OHYfGQWxSMby0BC2a3NWzZfwdNPPPSdDqqABlF5ngPAMSxfro82JCAvcVvRsXMy18wlz0hM2lg0wU29jaMjG1zxbep9zkpBApXMsZQkhIQGQLxz0Wh4t18i1JYXFmUwcYSxb+WOzY70qg516G/urlNkv2xorAiM+g8mmIr/ohH2iIhyboExmv+zQi/2S6ev1EbZJh3cVgBRo1o13LHnkpgEmm4npXFs7fWlQk1iKRueycbNjM3CADghko5dtTXh7Y6r3SxD2D6OlILF4YrHZ017ASOQfeAMrbIDkPHxh+8dUORNhAZRxbSetgW1s36GzepuQIxcWa7XVu7vdPzglAt+mdYCwWaUrO+bfDhQhYYR99Urbj5b1/VmarkXYBM2jB8UP9XPywKYG+ZQ4ORUjbJCQY50w/XCgd1rFE48N370yPqvNCj+mR+4M4WEawg7PDGMgAh+JQJwQNpKSLrb1z7ide+i28cbGWl+9gDgXLR4+JW8koytaz6GZ7x+yo5BTiD85ePFBLxmDnko+QasA4ernz7cWenNJ3raoktObV7Z2l2vTWYhkfNXzojEvwG2EZEwBbBs+4BLPqjONbTt3zglMXLETdgxlqTocQNipsqr2FeOkF72SNPuyxaTPI7Yt+RNd2GUk4n/HZXuzMNAoGvKLTtikW0+AJ7VfdrTghE1fr484g/zJQa3LLW1YME5eBG5YOWIm7JDJB+BLH5LaG6Xej3SJJ+s+eIX9/lFg4wYk8Q/JhJ1W8frCdtGexUxgMxPyp922/50qJ57BkD1sJk/+rdfyQoEurQjCJrD18X2IS5zuWleUFfaxtk/Ikcukb89s/2rJJWphMNnoCjtSquTlJUDYwl7jzzu1ap8rDr3iVV//t7OWIdw3Q5ZDEwZIkW+FraLJA5MgAr8UAvFB2ERrwe2stCK5emh7c3+tAfe+oqvVxfsivoQb+BNl4t4t3wo7wrUrTGYo2wUTNr1kTEJUwmYw2UmKmVXPca8ksCKJKhmk6u075xP6MvH9V1uzneTLTqGELQ4cOgNInmr8zZbT0SCv8aOhd6zHRtgxliVsQRUACWkppUXSCePcO70SX9mjK11XTbmwkBP4K0jHN1AxUSEkR8iPfugsdIXdHrTCpq6XhjgBkiFZNDs89Up1sV/nDu1MzIQdwwqbeqJwLcIOP3TGVFmchyNNJQSAsQSwPWwawmYqNT96beTlLHkbO4SwAcLdPLN529G9ZIpDZ93rCnS69ksdOgNIqm608+pY04Q/+H7C9p0hD0n1EXb+zI7t297ATj9AOEtHtm/MQZ6wqNABRNA8dzhllkTNCTNABD4egfgg7CSOUiIVpuArVJBvnfW87MbXZ+h+sHOoCPfBgrTyMmFVJr59mI/uYU+J8Z+R9rDdgeVpMGHTS8bQp5oQkGkVMCvbnl9sznYS9zWjSgZIunj45Zbj6aj7zK4NDCsMJjtIMsIu6Axc6wKIpOvFxYJFRPSMpDrHZhhhR9Q5xrKMXF3nw8VBcy1xhAqrK7G0RKDKJ876AY54+LKztdq/hkb3kg/k+YSN0nOLqwvT8C1tTEIIyRFN8F/rwgfikGtd6KEz0h52YvgeNnW9tIRd2HJstd/1n2ZgMNmJjdq5MMKm0jm7x+A4qeXhvS6xSTt32SwL2sP+BQgbvdZ1J/xaV4l24nB+UEssfwkkaQJRCbtmuOPqtdbGy6/gon+itoZ/kE5rhxD2reLq/+ft3q7zb15GutZlGvPtQ12LsAHCFvRSXusCHMm/XXT/piuwyCYfOiOnYoQ97bZ9P1NOdGOQUXFyZnvXkU2DUngSSNXfXT0cqAtUSuQBtznFUo2oWpSKd3siCQYgAh+GQHwQdqJies1zPGY1SiS+U+KP9rbc8zX4sTJGQdfUzhvHiE0hU4tVHd2Ol1vO4VL80icjv/Nx4JR434jzbGO+h7iiSr/CjiLZx+6ZLc6t3c1urVaMHhSXZ+O8QqZVBpOdUr+44dk38/3nm2KRfKvS/sxz4dp5Ig9eiaKSKV6cApCcmtET16azq6lRLNUqjaN2h3s1jLAj6hxj2ezm5afrR0trc3LiBLgPhwSNevqyo/9eRYXCd0r8iclxphMTx8rQ09pdI1NVVbVcvk7Yutbh8MgLCRv5JKR16h1eQ6uBx0cPihdl4K0GuRV9Z9bxZVm1mltprBl4ZX08U0a8SMR3rat1AD0lzvWfEt+UZBNDJG29tISdJnaYHa+b9aaychVPYlH1rBunwgibSmcGRzR4bhldkElQndFT8ZML/MBsxnedjHy0m/z0Xv/FKUXE1gMmJ6tpcdE5r8q5xmEfesIGSM7Ypu0fs+UE7CCt4uTCdtqaidXo28P2vzjF0Fy967Ze7dfW4c8CUlT1zVn3nxbkveqyNqPi/Mj2flmIXSWPibDpX5yC38MGSFrbTNfVsboB7zlBhE1Kxfawee36996u3zyUdNXxWpurXVuWq5cNZvwNa2SLUIUBkpJnWF50zkiJsYg04wfFtsdrhwv2FsLuVHJgPEQgRgTig7ABksNtHh97frS2e7HpPl5E72FziPuy6D3sCkv/3K5z53RtY3di5I4wJ3AyE00t7+iZ2l7efoPeSx62lmeSUmn3sOklYxCDJIH6/toz95lv7zxwvCuEsEGCrHvtYn2sFZvRxySZqehxXayN6EKWSsT5c9feG6fTOWBSpZGYD2TIDfa1pa03L7YPph/28OQPVsIIm0rnWMoipV0jSztTdmMOQYq+QQogaZz22v7d9mmvde6842H4PWyxuH3VNHneNf3KNDhdXZYfSicgKU86pR8/s/juYQeOdwGElVwhNK747jQf+V5NStzoY7JRwj5WCKTVtp3OmbP2B8th97Cp66UhbNSXm1WkmWkZPTHPnrYNOSRFasVEGGFT68xmiYT+e9hHke9hUxJ27K8m3dd3dJekkKzv75PJEuOcZ35igJce6Or0I0IUwk6vPL2wvWoJ7OlgL1H536kyrHMSp8SvvLZ/HLehrwjl4HNT1CvOzhSK158Z/+vE+v4YfQmoBGe4WAgb88NfnVv+e7fFZS3JJbWXTMkMJhspl//B2024talS/YfOkHSRXnm00f79Wff/vmr/ZramrTigMz1c2N58evX9cef+gxZBxKNqqVrH0tqeTea/YxZVIMwAEYiKQHwQdtRmfJ0ZuIMLnpe9krSvs3WktcjHNNC3wg68avtjRH1NZW/l6rpm9xafrfQ1SRLwvaQb2EDihtXn1O3jKwWp8uaRVcfart2sTAmeuWINQbe0BveXlh+U4xcsP2cDYV1fKwKQsEPXeTfE0gBh8/o8ro2HZaT1xA3R7UapAQmbyhwguUTQONxv1d1kl+zHcydV82niP75SkKPvGhpUCjgIxWQIIBLT4uFUZ3XExTeNbjAJIkCDACTsm0rYCaq+zaAXlNJY8decBAk7rq3/8dz5Ac3/DJWCPPPDNWcj54YOLx8AGixyExCAhA2fKIgAROCLIfAZuDN8nP0ilYarAWMgAtdFABL2FxuqrmsqmB8i8PUh8EW484tU+vXZDrbo8yMACRsSNkQAIvDFEPgi3PlFKv38gzus8etDABL2Fxuqvr7OBFsEEbguApKXl1/k77p6wvwQgZuAACRsSNgQAYgARAAiABGIAwQgYceBkW7CzA7qABGACEAEIAJfFgFI2JCwIQIQAYgARAAiEAcIQMKOAyN92TkdrB0iABGACEAEbgICkLAhYUMEIAIQAYgARCAOEICEHQdGugkzO6gDRAAiABGACHxZBCBhQ8KGCEAEfmEEQGJBYWlpyFfmvuxIB2u/mQgAFq+oKB++cT1G60DC/oWHqhhxh9kgAl8lAgBJz6kZvL90sGQ33OSPjnyV4Mdjo0Beu33NM2XvE+TAzxJGJyNI2NExon8McmU9Bq0kKeyjPaHfw05rHnFfPOkSfvxckvw97JUVZ79RmXqbRa9kSCqVziHZPvPPzFqJxlCYGIYkQFhJFZXG58axU/Pkoe972OzrtffTNYRK54+sMZEnMCwZHp2Yp46NAxNVRVkf20s/Uh+iOH17AZKW3zDncL6406zISA7Sue6B+epEXY+wErTaK2/bTHnAgujXsitFa8+Mf3lt+fue8fVIRSXpe+cAYaULhM6nvtR946v7FQKS9UO+eE3oiQVCUkE6//DE9m1/AfaJLaDS/Oy1YR/b9n9ye7OaG9z9AJLZMNj4u2MrlvPP9zghVWA/gUr9k9cwnBdoFBZf0t7y03nrCCc0HtzOqO/X/91ru/I2dJGaw2CyQ3SOWB1NZAqv4umC8U+vLD8cmi7GqxTBPSetvOL5Epr6/YHx9KGQ+Co5jcCoSQhf/gdvp1Ma+JQ4QNLaZiw/v5CU4mDSWj8lMb+u2b61uDAhzY318+1RtfpaM0DCDhpWPsDM4uFT15PuTLxrEhLIhA2QlJJut2vbIU0NfXSJ/LEHUMlbjoYqlaC6obbTsbB7/sQmvZb7kUrn2HX4FDn5E12OF1VpYUiCXEHvqXX8mVyq4VWaFIOvrY9neMlh2T6FSlFlUukctSBNBpDNt51Yx1dq5PXcipZq24FldkOSfc05GY38j0mib++tIuvD1Z1BTUn4rFR1v/PqpE6DsJj1KGFP8QIPAlJUdXnW/eeFml5NWZtReXFk+36+Ig+3L8ipeP3a9tenNb3qMpNR+fbY9t1UWQaeSk9v5FSAsKvvmq5e64xpeNXq+itv60Jdab0M/6vMCelXtxV1P3jb3SYelkfBSY+IXkTCBmllu69sf7GXhMxBQRrHvtD585npcNH4yxI2yOYfvbL99ZmiX8Nr1UuP9rv/sV5djvcckFvx8gRF8o6GZzTIXx90/7BUWRDpY94R20gVCZDMviXrP5crc3CjgMKq31xYdjQBrGisj4kFieW68f15uzEdF0JV3a88HhL2ZyHsTOOjnfPZNj7jl+iOwVMBdn7HlmtnTsrChyFm9BbFF2Gnd+od5/WV+EKEZWx0XOqqrtPeT/eQ0xPYh9WLNpDUXkSumrg01nOvYd8PqzeWUjTtBUhqRa97abo7NxIHSAbbrw6VMoQFFOp/eo0PSYtO2b32qz2VHP/uO1up+TspA6fDcHWqNeHWzzI2oySHW59MyeH6k1NBduXpafe/WfOIZ9A3dWiyklbz4RJKugxXb1DHQHgSOSacsAGSohhuvzpt7s4OLSu92/7PXV1/WVpKc8MvS9hZrU1krG7Lav/ba5oo9StQ2N6CpuLQseo0772tIwWh6pHbFWM4QVr7N2/7nAAdeQDCrnvQceWuEeETBQaTTWN9ogqEf3d67YW+JPrwRRT5FQbig7ABkpqjGLYvHazunm/tHC89mTWICogHDyDsFH5n36zb6T5de7Flt+lzkwK9ECBsNq/NNu166jpZXXePD1l4GYE+AQQPVjzuNnmjzbG/6n65tDDXUhmTZJDTNeW52D7wkv9cnrN+mb9qglYBki4Y8Lg2J4TJQVpR6QySG4bcQV/CBkxRh/NiZVCFLVwIyVh/BaLRVY/LUBgQzi7v7Jlyr6BooO3l4u2NqjODyaYqG/XZQB2b9fKe7bYpr9Vx3jH6ol4jyyTZiMUSCU1O48R51/Rxa88wPwtHA+SJ7l1an3zTTf5zXFraa/0tKn7Q7tiRBebvEsXkpVGDD0PY97ArJJIed8f0afuDpzWCwoBjDSCU9aKDi1gxcWlsUJcZ10xTZ52jm/VqSQahM4PJThaKjM+Nj1GdjQMTYk6mX6WoOgOEzRKJ2pzG8TPz1GFrn70ij+Rcoa833aJ3vKnl4uMdSEhj52Ul4V06SosQVrKg0vi89dEb1J3e/1hMdqfT10sjOWp7fSO12Lh4+NgkjNhVeFbjlVsuQFhApPybVz+QhSOJpHQ5bFezfCZOiiBTeO61rsr9GZT3O7GC/t5epfwfr2kctz5GyUZFzelO1/uTzt865LqcwNNNEDZAUjT2jqtjTSNOVwwmO1Gnw/gSIGwmjra/FoSdwE5lsVOFPcarE7XeF2axU5MS/MIBksrTKk/dne9POv+/2apqbV2oS5xT9c0Z6n4n2kXAUqoQVPk6Aw1hU7UIICml9cqT7Y4f3pi/nZfV6dU/eVvu5uBPitlw9Updj7cFJKTl5GWl4z0HRXJbxidwTsnTaXiiDH9Z+b2Oq70aEZEqq31PmjbR4wyQnIfr3T/M8FMQFsgQHJ92vzZkEu1lMNlU1ifnAUxZ+/KhXc8jR2LhZPHQ+HPP3ERvcaJf2/A8v5KYOCHsfMv03pljuEtWraqU6Q1j+66deTkxNS7omtw5X358t1ahlTYOj724eDaiDRx4ye8Yd58/mxpSKzSS+jsjzrMXDmsevgjwEfbB/IzDWK8Tqzosc8cu9zM1MSmmlgySSnkytVimNk2duZ6P1/rCYpmagz8AKK1uPOSzMhI41snds4kWblCXopGMpFbcPXJtjPLxB4/Bv7/sOegS+HkolLB9cw5jMd6VCy1TO+fLk/fUNRqJbnB0/WJ9pgPz2EfVmUFdNkj5SIt4wBEPvbU8mBQJlSW8Wr5moc1xrhMRLFUkunduGVuSVWt4lUZ5/0vr+BQP2/gHyTlFtVx+LbfhucWxV1vtC/NruXn4mF5q73DsSLOJocTHslrcp4oS9olxcEFVo+VVtMruHFvntqqzcPsyqOvFCbvdvlKvbSnja4WG1U7HWaM0F0eyWHzvwjK2LJequQKDtO/YOrMixFx2UXVmcISD55ZHi9JqDRdr7+SCgB3UBOp6edX2d13Ddn5ueoB7AvjTtojBEfafodsHsnquoKW6+8Ayuy7OxtHwETZ1vdSSo7eXyQa3NbbVw7ua/ICqpH6Sa9JfrUs4CAuUSn/vbbTgK2aApFrnbVfT5UQpkF556u3eVPmtgG5/bsvKCehEqu+8pgnc3+AjEtPbJ6pBTZnR5zD/x4qYg2f2pdaq2amsEtTr/rY9h6iFwWSzmhquvE2ODu23r7qvzsx/WFbq83E+ZguOg7e3sU1uYg+byZf//qL7T/Oy7rqytva6PafxR9IeNkDSO+a6rl7VG4j+T4KC0IGasClbhHCl/37R/ecFuc1X79FmO5mwb/Gk315Y/+0BvyJSzwlBklADC8RA2CavQzmA4qx4e2wj48xgslM09T9cGB8Wsfk9xquj2jp8loAJp7I+WQeAlOomD+esMnIkFk6rm3mydrj0dLSCNN8Kz/ZriIkPwmZIJzY9qzqcRwGrIJfDTcFnWxyz27U1IcS7SHKdY2P/WR2+U5XXvuVyTYrwVKRqzOnZNuAeOR9hv7mnzMCMDdKMj/YvxpoKsJ/0krE8VO5l4mjY9oHXtftEji8oY5JcNrzkeT0gRbUCSEr5nQOX8x4HH3bpCTtJ0NZuaeXg4CTVL2x5AmjQ6xxLWUxChP9VdXOXegXOdoCdmVWazcJhz+s3Ok7qynAQkpq0c+8apfjkBpNG5W6NTtiXzXK8byTo6mcvDSrc30Bfr4/Ausz1/vMyIKPizjtrv8nfGRLFlY13BXl4ExL1OsdlozQdp3PfEEylc3ZvK9peomyzbu6yWU4s0NE5B2W9AEnNNWkfea0Ob8eD5Vq1OjcBNz2DyaZvUXaPwXGiLsdxviVXod6IEr/O9O2ll0xvI7SjJjfcWTscqAsixQj9JJi6CMIGKdz1A8sfhoqZ1yXsC/0dHFiUGLxNNvzZF/WbiDNlV2cN7cHDfaq+8crb/T8rSou8pKFR+vLA9pOzqshH9oCZUSbkyIUck910ddo45AvLhRxxnv8ks7i/7eqVugG3L8/aekUi7Fs82e+83X9cUO+/6Pj+Vee3y3V3BIENXQITSsKmblGZ1Xj1RtuKN4Rrab0irbDRXQmj7k9ntqsz87eL6od1eWxSz/lYwr7Q38Ef2BxjEM6o9W8XOHZsf31Us3nU/U3X9foABghAOOrxw/leJYEPEQBISmJmcUpywHNGJP3aAvFB2CCnY2Lv/OnksEapKi0suE3qhei5yqE3Lkd3NisjAfsrv7vg2W8v8w9SwnsnrnkrcSgMIOxbCSkMXIKPsHdNxIiGCA2O3UdGAdYP6CVjeWgI27U5q+ZLeLrp556TIVVQJ6aXDBCeYelifbQ5EWGB24qejYu5dj7RNekJG8sGmKm3MTRk42ueLX3wThWVzrGUJdQICYB84aDX8mi5Rq4tKSzOZOIIY9nKH5sd61UZAlqEigAAIABJREFU7NTb2F+lzH7Z1lgRE/lFJ+wTVTG+qAJlMvtlh17sl0xfr4/ATDq8qwCkQLNuvGPJIzcNMNlMTOfa2ulLg7ooJp3Lxs2OzcABOiCQjV62NeHtjaVeJLuwskvRtd42e2kZeVBCXEOgbxFa74aYOLkDENYt1Ivr15m+XnrJGCZUE5RfgLBZpSs75t8OFCHXJewjlYKwfrgj91jbJ+TUGOr/5rXs1gexZmKZYMwm1uD+5JQG3T9J5Ie1F2VE3+F2cpdgMNnN49ar9SpiKc9AD5z7T4kDJKVpzHzl7Tzt5yt5+eLqiqVV89XrRgs+pyREURI2dYtqR1B/Q8CtjdYbcIljkm9nc0ydyl1nxz+83f9+v5Q4xfmxhH2krKHAGas3t7X5n17b1WttK+H7DJ6cEQ2PGKAh7Ij5f52RcULYSEq62NY/43buodvGGxtrffUC4ly0ePiUvJGMrmg9h2a+f5CKQk4h/uTgHkYvGesxVPIJWgUIVz9/vrXQm4t3dwaTHVVyevPK1u5ybToLkYyvel40km6MEJIxBbBt+IBLPKvONLbt3DknMHHFTtgxlKV6TgDCTpVVta8YJ73ohvTsyxaTPo/YwONPdJG3qJ980+24bG8WxkR+0Qn7lRJbGKG0wZPaLztacMKmr9dHYEbCux7atNzShgXj5EVgf90RM2GHEBvgSx+S2hulXlInBEhKVnvj9GVASfoWhdQb0iL6euklY6Jo5INk3cessAlVr+8SV8nxJwuEE/YRmoptsv78IvTWFlEp2nP48j96OxyCoD5JRdj6cevVmqSQqJd0rQsghfMe2/tZfmAHJFN4dmF7255Nrg51I8dw6CykRSGk6zvsFkrYWC0ASeGZmn8gbR+ElA1RJgaXOCXO/hqTeO43tr/eLw6/IxBSV8SfACnyrbBVEVNhJIZAfBA2YS1wOyutSK4e2t7cX2vAva/oanXxvogv4Qb+RJm418i3wo5w7QqTGcp2pLHSv3anloxJiErYDCY7STGz6jnulfh9rbFIBql6+875hL5MfP/V1mwnMU1mMNmhhC0OHDoDSJ5q/M2W09Egr/GjoXesx0bYMZYlbEEVAAlpKaVF0gnj3Du9El/Zo6s3V025sJAT+CtIxzcyMVFUZBD90FnoCrs9aIVNXS8NgQEkQ7Jodnjqlepiv84d2pmYCTuGFXaAg8lIAiQ1jV/E4QReIgESyrreWnsM/tUhPZIh9ZIlo5wUvP0fkkovmd5GqHCmyuI8HGkqCRFL/xNEPnTWva7wE2csh86iErZ/k9VrXpUHrguHKAYENX+KmbBpV9hFKy9t/94T8NMAhLN4aPvPwcKQGj+AsIV9pqvj2lrcZZLZ2ky4xAGSWlBeLA/uObvntlct/p4TimRKfpO2TIx7uasH26/2aqqIKYi87kdv6wN8a4k4voc1IWQa4Y9Eip8d277tjXyIIaTt4T8BImieO5wyS8KTYAyBQHwQdhJHKZEKU4jOlG+d9bzsxtdn6E6zc6gI78QgrbxMWJWJby/lo3vYU2L8Z6Q9bHdgeRpM2PSSMRCpJgRkWgXMyrbnF5uznYSvMqpkgKSLh19uOZ6Ous/s2qBnIEgywi7oDFzrAoik68XFgkVEGDipzrEZRtgRdY6xLCNX1/lwcdBcSywgsLoSS0sEqnzirB/giIcvO1ur/cMuuj96IM8nbJSeW1xdmIZvtWISqMjGf60Ln4GFXOtCD52R9rATw/ewqeulITCAFLYcW+13/acZ0EPFjdq5MMKm0tm3l1zLw3tdYpN27rJZhm+10tabUrVgcayJ03CsGIVVQ5dd7bX+81D0SKJ752/C9rDxM9U09fp3x6mxorcRSthIiXbicH5QS7i+iE5IH4h0rcs0hu9S+a914dZHby5RX+sKIRIyzQBmwazb9tNzcT4+jJTq1aezYgGOc3pTw0/e5j6cwDCdqVbYNHvYAMnsX+7+x3Il4VG7xan6zUX3sT4wX8eEfwBhJ8pqv/NazntLuJkZ+XzB81UzcegMIKkWR/eVsypwtbpQ8q9e66bK33N817p0bfgsObmunnytC70vd9Zowbf/izoNV2daI37XjowkautgTwbWHPCRhJ2qv7t6OFCXG95bwG1OsVQjqhal4sYKz/MriYkPwk5UTK95jsesRonEd0r80d6We74G71uMgq6pnTeOEZtCpharOrodL7ecw6V4V2Pkdz4OnBLvG3Gebcz3EFdF6VfYUST72D2zxbm1u9mt1YrRg+LybHxkIdMqOsGvX9zw7Jv5+ASfXmef5FuV9meeC9fOEzn+jGGdEpVM8eIUgOTUjJ64Np1dTY1iqVZpHLU73KthhB1R5xjLZjcvP10/WlqbkwefgE3QqKcvO/rvVVQofKfEn5gcZzpi/u47rd01MlVVVcvl64Stax0Oj7yQsJGvvWmdeofX0Grg8dGD4kUZeKtBbkXfmXV8WVat5lYaawZeWR/PlBF7ur5rXa0D6Clxrv+U+KaEOBdNXy8NgQEkTewwO143601l5SqexKLqWTdOhRE2lc4Mjmjw3DK6IJOgOqOn4icX+IHZDO1KN6mm9tGl+cFstUTNFTRLzG6zY09RhKNB3yIGRzRwjp8S1/tOiW9IiDPzNO1FuxZ6SvwDbYT1zKymxUXnvIp0sSqWYRQpqvrmrPtPC/JedVmbUXF+ZHu/LCS2h0Fu5ZsT238tynvqeEaj4gJ9cUo5MfGlJ5KQ1Gx94z+87QtCP4Eh3Or/d2b97USVWck1GWvOjmz/PcMnDrtgmlMRNlMg/4+L7j/Oy7vreKb2Ot9p7cCbzlKkqj9eWL6dklrreKZW2dFe9887KiU+MqSVlupVXL2K23a/9crbuqhBw41lfjoP0TmEGgGS0Ths+N53gv2no+ahHi15DztNXvdnr+XbabReQ1O1e9vys1upwHsOyPW/guYO+loV+UtP9w9LwgJ8+gIy0Zeu/O1ZTZ+a19ZW+5vXtj/aS4keS68VhtXHEDZAUvIMy4vOGSkxqpPWTqDY9njtcMHeQugTS7/6KvPEB2EDJIfbPD72/Ght92LTfbyI3sPmEPdl0XvYFZb+uV3nzunaxu7EyB1hTuA8IZpa3tEztb28/Qa9lzxsLc8kpdLuYdNL9nfTJIH6/toz95lv7zxwvCuEsEGCrHvtYn2sFVuYxiSZqehxXayN6EKWLMT5c9feG6fTOWBSpZGYD2TIDfa1pa03L7YPph/28OQPVsIIG1DoHEtZpLRrZGlnym7MCZ7tAiSN017bv9s+7bXOnXc8DL+HLRa3r5omz7umX5kGp6vL8Cs0xHMFkvKkU/rxM4tvhztwvAsgrOQKoXHFd6f5yPdqUtKpFpSwjxUCabVtp3PmrP3Bctg9bOp66QkMZBVpZlpGT8yzp21DDkmRWjERRtjUOrNZIqH/HvZR5HvYVHvnAEnNUEk6V9H2Th8bB6cl3DxSj0VYLJoWISyWUIi9xhW7O16c7eenqC5x9B42tWS8t0e2kT81WWKc88xPDPDSAwoT9qUKoDf4heL1Z8b/OrG+PzadPRSRX5kJEFamQLT6zPTXE8v3Ht+rSUnWpyeS0NSE4mcHtvdPKvy3HBF2XrVky9n23Ynl7/voK1ErSJIxbakIGyCpZQ3KM7f5/Rvzt0+kqqagV5MChJ0vq3Y52/7ntPvH47a3E9X1pEmM/F4HcXadCPxj3H/tM1TnsLUsQNiJGTkVvNysZBaoqydc4j4nR2qJstrtRLH64cj0drK6PrjnoC95XUZf8vr9gek0GGcGk51aVrmybPyvE/QFsYeD5aW4fyj8hakh0wi/9T90hQ2Q1PTq++PO/Qctgoj736lax9Lank2WRdWFfj3x8UHYvx57BLWUO7jgedkrCWxnBqWSZqC/5njfCjtw6OzXDMVNaPutXF3X7N7is5W+JkkCvnq7CYp9lTrc1uquvE09kVal8dJekCpvHll1rO3azcqU4DUA1gR0c3Bwf2n5QTl+VTVemvYp9ISEHVh/fAp8P1gmQNi8Po9r42EZafX8wdK+4oKQsG+acUFyiaBxuN+qgw7MT2EaZk6B/+XnyopFp+XnbZkgnidGIEffNTSoFHCwL7KEIwYQiWnxcKqzOuLiOzz/1x0DCfumEnaCqm8z6AWlX3dH/ODWQcL+YOhgwXhEIMvYjDnSfz41/2GlzsrFj8V8pS43kGd+uOZs5NzQgfozdyFI2LAfQAQgAhABiABEIA4QgIQdB0b6zJM4WB1EACIAEYAI3EAEIGFDwoYIQAQgAhABiEAcIAAJOw6MdAMnelAliABEACIAEfjMCPwLMzkL/kEEIAIQAYgARAAicMMRgIQN5ysQAYgARAAiABGIAwQgYceBkW74pA+qBxGACEAEIAKfAQFI2JCwIQIQAYgAROBDEPg/37/PQFSwCgwBSNgf0k1h74EIQAQgAhABSNifuQ9AwoaEDRGACEAEIAIfggAkbEjYH9JvPjNqsDqIQFwggKSUFpULkpIy40JbqOQXRABJryzhlty+ZleBhP2ZTQZX2HB+ABH4ChFAkvLyVUP3nx4sPTSlXHMU/sxjEKzuJiCAcLrsa56phwOVBbmx6wMJO3asfpGckLA/drDOV/YbGxXssDGxxLrjemEvw+ORrNYH7osnVul157DhZi6x7mwfeNHPb++drjhXB0yaDNb1llBUOofX9TljsuvlWiOXhSNGVF141/Tkm270I9lvuyb2Wzq6y9Ou2V4qyUQVVAGWQNT6tPXRSRf6XepJaUn+9XCmEvvx8fQtQpJyC5sdDufGHYM6Oy2oh2vs5qs39Q1JmcmNjVfe9tnK0BaVaWoet/LSw6xAo7P0bvvVVk1ZUiaSJNg6tb1/LGAmZyE8+bdeo70ElZ9t1BMffsYCV+uyotiqEPa3+Yt4u384aLt4LFPlB1qkGO78v7c9vx8owdRDJLV/8xpHuaGN8qeqtT95jfeLQlORtDLnvu27iYqQViNJBfZ1G6H51Uu1KjadkaSs7Krq9eemv7y2/n3fdGIXizIDlZbZjJgJwiFNECr/4DU7a7KJJCQpp2PO8vOGnBhJsCSeufWnc6M9uKWSwbarozoFtZI01keSslhFupaHrsWFKVlhQAFCk4gBSNgRYfl0kZCwAw//h6EsuX/qmu/NDntIyISNJGVze3dc20/kWYHn9sOqYyZnoZK35hul9UK5Xm2ZX9w9f9KrvJbbk0rnD1bpFylYMdnl2JBmhCFZeNfkOGlQKcvL6ypkgw2jXot9hJsYlo1GByrJNEVQyskX2U6sj52qmgaB0CjvObDMbsryrjlXoK/ig1PpW3Sb2zO6unNXxw+fHdY9MF+d1GuTMhMbG6687dOC0A5peGyNnU0x/fPaWq6ONbVJmUiu5PzI/LdnkuykTKRG84O3sSMVlZ9QWNqg4GN/jab6/zzv/qOdnxqbBYX9bVfHjUNocYHJpDo7sv3olPLwsorhzqsL28+7Kokv5gMIG0nKkt5r+/l1U1fYbAxJyi4W+dUemOyInbATuLLLs+6/LKn6dZUdHXXvXtp+WKwqxHWmIWwkKb//qfWfzyT5eGakRPqvF5ZdXdCqF8mq3Htl+8vD8pDZbVTCjmp9JEXU+Hh//mF7Jq4AfReFhE2Pzy+eCgn7sxB2bsfYzvlsp5gZ22NAb+bgqUAWx+xy7TyRp4WOvDRC4o+wj1XFPuiQpKz8/lbHRYMo/Rrtpac3KqBS2pod54GKEpTqiUujLozhqIp/0niaFiFJOcI+99JMX35yBIhk9zquDutqkjKR2vp/ek2PgpdozOSsDyDs22rdT97G9pRMRKj845Omox2lKCkzVd90dVQXsiRFsstX3N3fLUp47Ai6RUQMJeyDWin+4KQ0Nv7kNQwV+IujhL1h/M15h0OExnwAYSeUyf/tzHrewYlYOxGJqhHzCrtmuOPqUKPxTVaYyVnpOt17r3G01K8zDWEzk7OSa9TfeTscQnRcQpKyNPaOqx2VhDRNRJKya0c6rk71PWEzjKiEHdX66OxKODy9tmEoi2lghIRN9JDPE4gPwkaScvJqH9ifHqzunm/tvHw672iVcAnyQ5Ky0oTWO3M7Tvfp2guXvdeYjz8qWKdPE5h7Z7afut6srbsf3+/h5wb6IiKyr3h22pWGXodnzf1qadFhqIpJMlJom/ZcYK5p4n+X53xA4X8sCVpFkvIq7x64tqbFJE6l0RlJ0w+7L572KgINTJZ1Oi9W7tVjCyZCMtZFEMnYmme71ed7xGLSKq29M+4VFI2dx/d7yvH2RtWZmZxFVTZqd0TdgA3KHnfblNfqOO98tKGrVxQEmpCUmVItaXOaJs5R93LPiDAHRwMpqh66tGJOb+J/x6W1Q+NHEl1h44SNGlRRN31prOf5U5nJWSmSapPT9NgneXBKWpLnT4oqmaYsMzkry2ZwvFGX42MlwspJKypg410LoW6Rr9dlpoiqTCvGR2/Q9g5MSktJjlxEqpq4NDVqK03rbdNn5tEtnUae/4tg5ataZlw8nOiojmiy8h7jlVspTMpEJHV/8xruBrCS/sYbcP/iXmjbltoPJkYGbbWq013L+5PO3z5RNhb6nyOkUvVHb+swJzOxXvenYfnygbYlOROlpWC/N5JaMua0/PhCKQuebCHVdd9522brhavOjvdvLH/caHgkzyd8AyGEfVtV/95rtBf7tUIJ26kYX+z+8wiPiTbq/2fvTZwSWdK18d9/U3YFbWOAa7iLoYKCIiIgIQi4tIiFIovYbt3aSru0e7m1C+6IC9ra7Uq3Z+43994zc+ee+Wb7Zub0zJxp5+/4RVFkUSxV0Ns57ZyKIIy0KvPNN5/MyiffN9+sCnKJw+yMkoaaC7f53bn5l6hc3qALcYnD7NwnK7YftqrKQC9HBI2VkB5C2Fi9B36z3jcmtRgl+1Y/MDvDNmu/XaxIBosMuED2f7y2dZVf5xDCvl9Y6b1o/+9ev9MIZvOGN9vfzYhT2GlwZvnpRfsZkhOkFV/+iyv7t71F4U4mmj7CJVD1Plk+nKAyLR07msvIF/F0YuXT0RUPOt7NT/S3hSHscJS+6JU7Qtj5HVMHl+iAvUqhK1cizaMe196CktgWKrSP710tjfVr1I0K/eDo1vWKozHgcMu3PndfLU8O6NQNsvrHg86rzdlHucD48BH20dz0LFLfKNVYbeiJy72qA+t3FrVkOEkkVNZLlfUtU5eu1XGNLy1V1hdk+YcyRqtbI6XJOQlFHeMHl2NIaVBH0khmZ4qfvHRtj5YSk4jYseQ5svoW3X6XOHl33LfmQAgCK+yY3LtamniqUzXIHvYPb1xvTFtxj31UnVnUZYOUj/T+ebhI1v/G6pislNSUlGjLdQut6FVDBbEFIKh8cmUdeaGU15WWt1b3vLI9nyrFN/7hZF6RVlSqFTU4reihVu5Ll2pFucCACCVsH9sFLF2BrO/aOrJcragVlSHKrhPblFOKO/SiSmZRl8XaK1I43lqeDolzMgIrvAAO1C3C8hRJey5toyvVVfWiMqTKfmSb3pRlEaMOa0Krw1lXh5SWNkibN9rQy0YFzz9yWNSSo7coIR3mNHSsHT+pKwqoSuqvXFPT7aaikJ0GC6t+7W20pforhZN5ao3IoBFNLbff7uke+dIGjagC9AJGBictb2ZrHteVtbSo357Y/+GU+d0eWdIrL2bj5psNb9qKh7cMvTlpGof5/Yw4HpAWKyFd3me69VrfOKT64kyybj7Cbvv1SsN4c6mhvnJpzXJ73tQN0MCY8rhGnZKZlJKVIxTNrdnerVQWAbEYcW4qpI0NPxzXqDihhP1AXP3r6/bfLlR36MpMZt2h0/i34D3s7MaG769b0YroW7YfQtiZ9gX77UIFMQXB+dhiiFj6kAkbTsjtXba+d6tlYCHot8ivkWF+elkncvsyYKn7VmPZZtR6+6oOIZ4sUufiffR2XvME66Mach/hgFP1flB3sEX1E8czdhX5Ip5O1c3Mrh8vvhgRgyUXQ9jhKH3RK3eDsFnKyW3PegOYO+Bkfk5RaTJY5RVY9zD7FYz4RN3c1uGqNsM/E+W1uVyuyQpwN14+5vS4m4F7ykfY5301/jUsnGEaObweaeLjoNNLxvNQuZeJ0DBfdNi8EhiUMUkuHVz0vO5VYlrB7HRRz7HL+bQATPehFnYwYXPF5rb21kIADrd+ccezqg1+vKl0jqUs5XDU6mZumlR5gABScjNL8hIB7Lm9CHqmEwIQuE31M28bFWBxg8ukcvPSEzansqKxT5IHKuI0N6A3jQrQ+/SS6cvC7IwcU/2w14a+aXMsa7S1+QmgC1gJ6fQtyu5sRs90ItDe+yrN+A2iKwbgYIRtsdT7eQvOknS/tXWb/IOQXjJ9i7ABk6TvWj/u1eVT9hRpig/PQ+USx8jg2tADuiyn1XDr1T/y4QwniFyX9h1tunrA5NJlWlETKs6woPbfDwjI8iuMtfszD6/clveXpjVNwGr0EbZtv45Ao+Ly2n7Z4s9ABJ3hRv8/93RNYB5gJaRjhL1TJUgtO7owLytCXeKVva23r2ofgrGB2ZckwobTRK6X9t8NC/Eoeiwga1dZCpYCZM0/0ML+AMLmIY3fX7fMSoNWDDCnaHbf/odR1c5J+y9sQb76+yLlr7ztv12o9WyZ/vrK/O2Krlsc2N729VFTN/CaYPQM+iikOTT/wmyB7vnxXKc2PA/MzuBkl6SQwhgZwg5H6YteuRuEDedaxw+uXkwM1mp0gsIiNmneZCWkVzy9cM12ZifnJOC/sv4Fj6cN7DVK+s9d84GgMJidfp+TzgISfIR90ELMpOxKZPZgxFiBg04vGc9DRX4YrW6jOrGy5OH0iuesXxP04NFLhtllyIvrjRGEw06DOZrO7Wu0TUKMA3rCxrPBCZlsHA3l2LrH1URymLMS0ql0jqUsoUZIAs6XPvZah5dVyocl+YKcBwBhPJto3IJuyjNSMtn4r0L57Ka10bfvSMj5OMLGi8MJ6Q9wyVrN5E2zlvA3+MiJSnIsZeNzisrb1dbNlukb6+CzEuI4AH2LhGMWdFtGRO7A7LT7mL+ETNgt9aXgX3Zh7aaxu73g07H6soRN2pOGq7XvwBY4zC5ED+yXxjwLapouS9M42nZ1vKFN+xtzLtG5RALm5JinzbdHNQpAjT7CDoS/wezC52utlzZ/4Ddm2r6sfyQVKKXF9Q2Kg4P279cUYuB8wgm7mJ1pmrb9aVj4INgl3jRmu92U424ATAFt7XtA2DA7o2aw9fa0oSXT3ws/LmHXGlIykwoqTl7bfzNQTAwqAqVco/4Hr/32dT1C+BGxtXuG/rnl1mu+6C1XiworqyperFtuXze2gxWMz8LWqAlgSX1ESI6aoCHs8LIMYYdj8kWv3BHCZmekV3b1TLudB9i28dbWRld9BREXLX16Qewi+887eV5axP7nMAo5BZunIVjTS8YzU8knaBVmlxrmr3YWuonIT5wyaXRmJaSnGZw7ByuazLR4xdiaZ6sReAiju8Rz6lqfu517V4R8V+yEHUPZEIiIf2F2eqpSbnIax73YhvT0qaGluYDYZisdtxD70/4zWjcmvdTfR7gQKlqlt7BZPOHDRWT8OrALjsZO2DGUxXWD2RmZ5oeTN0bCFU/fIqq2+KWFePWDTV56yfRYfWnCJo4MwUryrm1274r9V91lw1tN3ZlpgnbkTZv4xUv7Xl2krYSE9Ae6uh+8zU8AzeB72OPCoMGAN9Nv2pKCzh6Iqr/1WrfUfsmAsNMSdXXvTnX1larfg73k8AA6mHSsC2YXzR7Y/zgkysjIxn+GUcuPZmEHjopd6R+BFQPRZF8nlrrP7X9wFBN7+dhFdtH8kf0dKg7sjmdLL6/tb815eFmMsEnHush9RBZOn4bZxZiF3RXBwg4vyBB2OCZf9MrdIGwCApiTl8ZX6566tw83G4D3FbNWFx0VYmVx4CfPALssPgu7MxOsOglReAIPOgtsAAdPnfSScQlRCZuVkM5Vz6x7TjoVATdgVMlwOuLYuxpvFksHXu3M2AhbLQJhVwaCzmB2Qc3YxY5ztqG6pgRHo3luIzbCjrFsCIDh/8LcrJQSgWICmXlrUIHgIMwe3VWJpPyCwK8oDWyg4kKoSC6UsElBZzA7W/bCgnrqVLXFhbhkS/1UbIRNXxZmZ6SKBQX8gL8R5pRa39geIdm4tvQtwizsHTm518hA4UFnBPeTb7ES0ukl02OFTesJOpvzeFAvDBEb4790LnFqMmgas70bVq0d1zaw07iNDb911Bxet81KMA6G2VmyugqrNDD4YZXub17kGfD6fBBhY0e9L+1v2vy2O0HYcJLIdWbZfKT6XxJh01rYGGETxOkPsgMucTi/dLy/qoGIZUlIx86aH6vlYBrB9uMPVUTsOt4i/NB5hKCzQvkvve2bav+KBNvDvmjslwqUmupfXLZ/2y8IOZ3lA6145dT+q26/mwHvO5hd7Dy1f9vp98T4sgleHNu/e+LfwvtMhC1pQo8nrVWxDBiGsGNB6TPmuRuEzS3SyqpkgXVl/qNpzys7sM+wnWbnQBHhb0wvF0oVGWDjioftYU9Jwb/4HjYStIe9R0XY9JLxbqBaEBAWtm8OlZpWr7dJvBtVMszOwqgaXRp2Xz5rCHpugySz03mWwLEumK20bV4vtMuJIcLRzW2HEXZEnWMsy8rTm4dePLbWEt2B18UpKSnTFBIv1cJi0G7MSJV/ksL2ZY+qeUQfZeQXVRWlgi1eXAIVyZEJG2anZ/cEjnXBbH7zie1ZXyDAKkFfPxNG2BEl05eF2RmVC1Z0Q5YKdGYVyvpvLCat37ajb1F2F4Keh+5h15b40aAnbHrJ9Fj5JnFh3fjx3JOHhAuKGAyxJBpHbXhUWkhmejLA7q4YLn2EBys0f1pr/gU4fAWzs7uX7e9XKrN8bAez07C95MsGE+j9DyLs+wLFf3rb3bpQCxtmp+ufW75fa/7hHM+vAAAgAElEQVQVibBp9rBhdmZRebGqMvDrRwMWNpxT+dbb/rLJvziD2Tm9y+23S9J0QNhZLU23V402ECpRZG2+vao3grNqoce66uvfeVsIFwIRdAaz00Q2wz/C9rCpCTund6X9H8vSXKDG/SL5f1zbT5v9etL3UUiHUv0LpyOP1yLHQMAcAb+qoUIhJx4KhrCpYPxC1+8GYXN8FupIh0mGR4mPHO64F6rB08IqtE/snaOOLlV1vVRrtaOvdpyDArDLxcq3jQWixHsHnVdb893BUeKUhB1Fss8cz0TWdvZ37A2NUixQvCYbTENkWsUiP+tfbHk8FjGIj6XX2Sf5fsXQiufatTevDLZEMckUL06B2fnVI2eu7TVbk0Fa1ahqGXXM7q2FEXZEnWMsm2VYfrHxcnEdDUTp+7RNqKudvDF1P5WI8SjxuRb0skEKYpR8kc+WwSl5pU5U2ihFNtpQT3U+0Uc+CWnWJtTbjCClpVpRqbaY8JFghB364hQB7mzHljVzZvR1k8FUJtKUVto1HZvGiTDCjig5almuWjt8Y3HMVMlqRWUGucVtQQ/VhcBzE6VFRZW9VyBKvNkXJb6tCI4SD3jXQ59tLEr8I7HCRWXqXyw452tyI3ukQ6vzgU9cLDQb3l8iq81lBixQvLgYtJeeDDKN+ttTy58XKhLZaTBf8Z8Xtr9d1TWD/s3U1f3Ja/nFsMykK7O21357bv/OURIIovYd6yL4jNAET2B72ODFKYih6sBtu/VotUArwsJmJaQ/qNb+5br9PYmwH5RX/891+3dYlHhpq1n3cscUcqyLXBd5DxtmZ5umzbevkFWz2KArd4wi77xtm2qSuyVb/PKV/Y8rqu7aUpNJ8x+v7d8N+YPXsKPMfPk3vhendNWWmVpr3pza363KiMh2grAxYubwBp229+6akKBUmB3BwsamkSrNd9e2X00p7brSVmP1yUH7+32NGqBB30fkxlKlYXZ6LrKy4JwJCdvE88OCrrH143mHkeg7hrCpkPxC1+8GYcPs/GLD2Ojqy/WD6233ySJ2Dhs7dukfRuz05PKOHvTAuXexvn0w7ngsyQ1EXWInnsusj6bcS7v4ueRHInAuGXtgaPewsbLUkv21J1XoBjeX3dieMXm3OISwYa7KvnG98bwFN0xjkpyg6XRdrzsaQ0wlIv7cdXDhdK71mnRpYGbEWpSlbn628WLnYnP3aGqou6TasRpG2DCFzrGUjS+xDy7uTzpMIe/lgNlZBWZNz4Fp8o1t5so0hJ3DDjlbLDOtt4xfWSZftzyerhLmh9IJnFSgmDKMXmK70eR96KBXk3qa2h6VpJDbmyPQzRiGzyzTFy39qKKwVjUWRthUkmHasjA7I0OjMG8go5eWyRNj77S8OJ88rtISKylbhJ3SlkqNTmTkwv9a0yKwZYv1Ee0etu+EN6VkMOoiYwXuViHo0dzYE2FGQGH8VtS/cFJh9wTy+3PMXXxLIr8oZIC9hsX+lyHMDw8nl5947UEeY3ZGaaP6dKft3aXtew9y2FNaAIxRLH80wvb7q732f5y0/nJWhfADjSITNswpXjuxk3WG2RmixppL3znsb+eVNU2RX02KY0ImbEyrlPy2/oe/3MfOcP9ms2FKxwtxXKeWVjiXjb8/s/3lEHn5pKwY+PCwsuz0DKlsc8X4+7P2f73p+GFTVU3aqCYTNish/X5h5fW5/dcDAnLoGRVhw+x0nrJq19n654v2v520vp1Q1JOWZVH6KHhlFj4SYHZmusIxunboaJaQ986JnKn1c4vrBx3KQCwhQ9gEOD9O4m4Q9o+DxVdXi7B/wfOqUxFY1391GkabAhiFfyoE7uc1WmcOFpadXU1VCWBp+1Mp87OtF2Zn1A+bbl81tBLuwK/1kYHT1PrBdXR932HVphDbQCRtMY/Uk8PFpWcicGSUlZDOEPaPPLYZwg61837kDqCqDmanl3QfubZGhCRrkiozc51BIBwBOElYph/osesJB2Z4HubKl0YAzqk4v7B/N1j8lS+b4FzE2t+nLheQ33VDBgdmV7UsHk9YlWTjmyFsMkQ/Qpoh7K+VsLm6ru2gF5T+CKOBqYJBgEHg8yIAs9Mqeozvw76s9Xlr+RGkwTzb0Praw6KgCZMh7B8BeXIVDGEHjT8yNEyaQYBBgEGAQYAGAYawacD5ErcYwmYIm0GAQYBBgEHgYxBgCPtLsDKNTIawP2aY0gDK3GIQYBBgEGAQYBD4EggwhM0QNoMAgwCDAIMAg8AdQOD/i2Nx6X+shHT6DMxdBgEGAQYBBgEGAQaBL40AQ9hR1itfugMY+QwCDAIMAgwCDAKxIMAQNkPYDAIMAgwCDAIMAncAAYaw70AnxbLyYvIwCDAIMAgwCPx7I8AQNkPYDAIMAgwCDAIMAncAAYaw70An/XuvGZnWMQgwCDAIMAjEggBD2AxhMwgwCERAAHqQm1dUdB/mxDKPMHl+zghAHEF+fs49ZqhEO3L16YOEIewIU9Wnw8pIYBC4uwhAcEpmVe/TxaNFh4HDzMJffha+u0MF1xzKbnWseyYcnaLM5Lvelq9cf4awP5Wws+QdhlopO2xe41ncrs1BPrgOJTcOuK9nLeJPX4fyLO7dIy/2+e2D89VVZzdSnXT/w8wgKp1/2sGappZqDXkPAGKEMtk9yOw37dhHst+Yxw4aW62F3A9sL5VkogqqxAOByLBoGD4zT5wgPWMV+emfOlqoKvrQ61QtgtQ1MzfYB8WJH/qqOt8HKZRa2vXWam9MIeqC4Iyabdv0lAAmYQ7ByTn1M6hzs6tRmZoQ1N6aQfPtmUYHc+Jra2+9LVMlEUZdYWvTP6+aB3hBtyC4YPnE/u2jHKJqIlH6yIh/7hr7/LZPOHErlgSk0vzTi326m/jdnqiU5ObcT9V16//itd966y3cIK3iWNzkktKVReS3r6x/PUIuHOLy5ECG8m7j7UuVgiSKrA/93VDJz8RSkmS+tZm+pRCtzrgaFDhzUkRi5wvkd6+tfzlEXj0tFYU1ma+qHNHzEinaRW5jSJqm9yE48UFOTaNjZ2F+TJaVGFKQ+fczIsAQdtCU9BHISvovXLPtaWEPAJmwITixsN3t2kVlSYEZ4SPqwotgknfQ+gqVqLJe3YbO71/N2mUf5Lqk0vmjVfosBYVjFnSzIjkMyeweBD2rrVYU8quLK7tqn3mtjn4eKywbjQ5UkmmKxLG4UIbQfmYbXa1S6PilTZX2I+v0ljTjA9cK9FV89F2qFkGp2XxFIV9R0XFpG50sw9LSLHw1CcGZ2l3bxGgRsWSEOEL7G1sXkkpW416+7dnaXq+2kMhG3FU9bbs9q9HCHJYOI+wJQehghpKL91/Zf+coDFl10RA2J4+nkxfp5EW24RZ6GiPUICeg1GwtVlx6cmb//bgYE1WRRQwhKJnnmG97f2k8XkDCCRvKKj09s//hRVWXVoAYFK+P2r+fL8sB44qekunvRpC8WJbL8sNFT9j0OuNtp8Q5s/T1a6xFjzTFRqT6zYn9TxPFqaBFeFn9qO12XZoXfJEMKVU6eu8/KKkbPZxzICkfLpyqUuZ6CAIMYf8ohJ2GDO9dTbcI4z7HUA5eCnBzTDuuvRkZJ3T2DOlp8r93j7BPlDwfdBDMzew0oNe6sjDTgdzAkDQVvYVkC/mXgzSgV4GKYIVq7AbR8T8A5xCBn/Ff+hZBcAFybnP0hFq0+YMt6JEimxiEctXETbO2INAiCE4qfeRenGzPAuxC1lna23p7XC2HOZBS84MXeRZqRicq+1tvLxrbMwIC8eI0hE3Ip6cxIlvEBAQXOF/Z/6c7N+Su7HHrD/t13cXJiY314YSd19p0e1FrBA8OR6N7520eyPErj1Gyr7EhMvF/6Qk7VHKNFpOc65dM31J6nbF1JEyJM89kwFoEHo10pBFrNWggrvlHEzZ97+PCYeHjyfVNfeGnTqoRMWcuxrG4d4OwITgpU9nvWDxa27/a2TtZnJ02lOcS5AfB3ERhW+e02+m+WN/ccdj1WezAlAHBXK6gxT7peuE6W9twj/ZZBamB8QSJBlc97hZFgx09XHOfLs7PNJXFJBnKtEx4rnHXNPHX5bnslvurJmgVglNEPR7X9pg4IUgrKp2hhPo+9/WiXRpoIKvc5Lxe7VXhRg8hGR/BUPnQmsdlyAsI55a0dUy4VzE0sPbyQXuj6hzH4lKVjfq0QDA3Tafo2G2Z8NrQK9PQpk4rTws0AeZwysVGJzJ2ZZk8ae7oF6YDNKDs8ifBXlzM+31jbVX7W4RZ2ICwsQkrjGYSxOXICvIck4z0jEl4af6CUSXHsbhUZeNY3BSrHj1X84FJDcUnc7PT2WBoQdQt8s2qnARRGbLSPHyOudO7n0vI7nRIohy7Qeo1xci6ceKybWhbp5Gmfhas/EOCgrDhGs30jV6Z5ccnswtBT/0rIVBQgiwcPzeKI3a3wIbcuhUimAOVV//Rq+9JDww5LD+v4ptL+7fdueHOj08h7GyjnnB344nbK52eWHP4NpipCLtIKarw+bQiEnb107bbXbkQiIKSc5sbhZVg8GCUfKTUV8pOdy3vzkz/NVv1MDswb+CEjSirLvYs787a/gtV1GUG7oZKTsyu0wrKU/1whRD2vbzy64v2/+rOw3Gj15keZ6xeXwf5e7Oi+s9e42gRVi+ULfkmeO8A24Pwtm+rAp2YViZxvjD+6cL2/Uvj9WhFFYAClxal9/GOYMlbl44degFehPw3QdI3uuKZGXtU8CBQIzkDk44FgTtC2DnWyYNLtN8ir1SVyfWGkUPX3pwiEXR8rmV872rp+WO1slbW0D+yeb08UBsIlskxjbqvlif6NEqtVNc14LzcRG3ZwIDwEfbR3BSK6OokKpN15sTlXtYQJgK1ZIhdJJBrJHKNceLStTKq9qUlcg0PPJYYrW49E3JS43m28f3LsSZ+UH/QSIaTSh+/dG0NCQFVxAmfLnmOLCL/5lAoYfvWHAhhJ+VZJ/aulsafaKq00rreoY3rjSkT7rGPqnMcddkg5SOF4UA8Sd8b6+B4ubi6UKAWaudb0Ku6cmILIL/8yZV1ZFFeqRWUIYruU9vohMDvqk3IzFfzhWp+/YoVPVBX+tJCNT8b8EEoYfvYrpbwxxZInlxbR5YUMg1fZJB1ntimVsW4Uw6KJjmOuizWXkGl462l3yHMSgnMxQEcqFuE5eGJuy9to8sKuY4vaqpsP7JOb0gyiFGHNaHVsaqrbSoW1ooNa23oZYMM8GgcteToLQIEFtHChlKwbWxrfZJvSZGiWLFNTxUHbWDf19rXjh9rQ01zvNVZRv3thpQHc6Ai2a+9DVZgyeHSTDOW21c6A9HjpEHyKYR9PysP95ljf5USz0v7+z1FOWBZXDEqwiY6KyJhY5uyu/KSYFFEER9hIxdodbe2GGmuunxp/+eatAj0oI+wjW9mVb3aYsTnfP7HqgR3AsWxuPSSyYQNsdK7l6zvd5VSsBAkFIioMwSn0OAcUi9UrvqT1zjm8wlBCZlKFV+v4k++aL9119h9ab2KXw6esrj8im8u23+3WNVZIzA0Kc6P7e+Wy4kWxbG4NL1P6AzBRXXjxzM2OXGFSCTXTM2uHy++GCoNtviJDEwiFgTuBmHHyca2PWt1gEchTm4Wj58IVmo8s9u1MyYGIz6hBt06XK4BUR7ZrTsu13g5uAtXjDg9uwbgzfMR9vmTav82HpSMDB9ejzz0+9boJeP4UrmXidAwLDpsf1YBDEq8VBTJxf2Lntc9MkwrCE4s6TpyOZ/wwGRBT9hsUUurtZkHwGHr5nc8ATTodY6lLOWoUtXMkKw3iJuWXpTBAbBndyPoWU0xAIH9sHbmbYMMLG5wmVRuXnrCfiApa3gsygYVPdDXoTcNshSwmPPRBpVk+rIQnJRlrB322lCvaXBJrdFkxYMuiGNx6VuU0WFAzzQloL33FKrxG0Rb6NfKZ2FbzDqMOLEuxsLBbN1G/yCkl0yPlV8ghYWNbWO7bOPDhXEwB4rnm65sncEb2FBCfdf6cU9NJi4n9r/3BPJfedu/m9ccbpr++qrt26WaLhE5uo0y6IyogkxjxEVyAoKT1U+N/zw3DBaFhjV9ImHfi0/icP2/+2CVjFHydeMjMESTGup/8Br6s/096Lur7wI2KEZm3od2MOeEECe5FXEsLrmluU0N318bUbF/JJBzRiRsepxD6iUTNiGZyiWeWC5Ge0qJeTKpsf69t/FR8HNECKFKQDBPM3o896g6PAMWmJZWkJgQ2nfhOZkrNAjcDcKGMk1jB1cvxvu11aqivNz7pHkzjsUt7zt3oe0ZnNR4/FfyeN5z2Frsf7TET85cczYiKAyCuffiE+OABB9h7xuJmRQWG9D9YUSEQ0YvGc9DQ9iu7WmNUCqom1zxnPWpgiZBeskQLDAsXm8MNT6AOdB9ZcfW9UyrkOhFesLGs0GspPs4GvLRdc+OHuyf0escS1lCjZAElCPu9VqHl6oUtYV5BWksgDCereS5Gd2oSOUm3cd/ZXLHTUtDaUy0Sk/YQGcuC5esVk/eGDT5MUmOpSyckVdmUVo2WqZvrAODhcRxAPoWFY+a0S0JEX0DwZx78dzAqMMsbGMdGKIQnKvdQLqs2Z+Olb9FFIQdx+Lynrage/JMmAOJFMM3zRrCMYMvHT6KsCE48eGI+dbbdtEtrBbkSCpLF9fMt68brMQKmzpKHFc4hMaIi0QCgjk5tXV/8prc2jTiIpH4RMImItVvvVYn2NLy2dDVVcD+hoSK77xtKBixvruBcHRIrn5H2tQPIU5CTzyBE7aem8TJLT15bf9NfwExqMg5wwk7Ks4h9X4QYeNVQywuG1+7qDTkFpEVo0nTEDZNKeZW7AjcEcKGE1Mk9u4pt/MA2zbe2lrv1ImIuGhJ/wWxi+w/7+Q5Ngv9UzYVoeIY4XvYAX8yyY8Xx+LSS8YlUMknaBWC+fq5q535R1ng4Y9Fckrj6s7+kjqFA0tH1zybDWBpj825IQfGQlzi6TXGkV3n3hWBiSt2wo6hLNXYgmBukryidRUZ92LHiqZPm4z6bGI7UzhmIQ4a4Qn0prVRHBOtRiHsrKL6eWT8OnCWCY2dsGMo6x8ncGJ6a8PkDUK44ulbRGXT+6WFePWDRx29ZFxCFPnUhH1PrZm6eahI56S06dETJX7ii+hTKKHuIyxsCM6b89jfTQu5YIRDaeLLa/ub1gyA3qda2Cx+xdvz9l928xJAFYTOPi9U5KAzIk84+ZEd1wmZuQoxT6FT/yaUsAPHuqASxXde0xwYsThhE4e+PpSwiV3526uHdmDEE9riiXCdo+L8KYR9L5M/NYv8+TJwRu6WtAQJ0Y3qXwjO91nYKqoMzPVPROBuEDbRSOh+enK+QtO3u324Xg/2/DBrdeFpuVDKD/zK08BOic/CjnDsCpdJT9j0knEJUQk7jsVlK6fWPCePpIHzM1ElQ0l6x97VmL5Y8vTVznQbcVIlAmFLAkFnEJytGj3fcaL1iio/Gnp0IzbCjrEs0RdUCSg+ObEoXzaGzLzVVwPLHrNHXVUl4jxe4JebQtoEjWNxqUgolLBJQWcQnCpdMKMeXbWmwC/ZVDsVG2HTl4XgpGRhPo8XeBEEFF9seWPrMPg9vfQtwizs7QhH1Pyjjpaw6SXjEqiw8sunJmwopbTzrbVNkyKesU5NCELObkEsldV5PPCwkKpzI16H4PzVU/t/d/g9BD4G5S0c2/+3N4/Qh+ocNiGQ7CgmLvqLJxasuNv/31wZsSsUmoEiSpzIFk5+cSxuaIhWQeV/ey0rlf5FZCQL2zRbRr5LovNgCztUcmLOw9piCSBmrKUXDX1inkKl+MVl+7ePeSGn4HC1w3WOinNovaSgMwKKiC5xCE61zVnf79f11xRUiXnY8qW17m8fQ9iixpnjCbOUqI5JfF4E7gZhs3nVUpmYOOwP5dimPaftYLWL7Qc7+/KBDxZKLikWV6SBTc0cbA97QgL+jbSH7aaysOkl4z1BtSAg28EQq6xl5Xp7uo3wkUaVDMEpkv7THfTFkPvSURsUBBQkGebmtgWOdUGw1LJ5PW8tJ0YJuwbdDiPsiDrHWDYuq67t2UKvWU2YU3hdD4oKRaocItYP4kn6b9qawfSH7cseKXKIPkrJKqjMSwZbvLgEKpIjEzZ2rKsrcKwLgvOaTmyOx4HzPA8aamfCCDuiZPqyEJxYMW9F1yXJQOe4vIq+G0ur2h+ARt+ijEfN6HnYHrYvXhfjM1rCppdMjxV+l+pYl49KMzU7tmdPJE2ntkfNgRUkKFhYO3Y811tLuK/w6/R/ITite6n9H0tlhA/pHq/iF9ftJ3q//FiCznxHkjT1YQY0xEq3ouZ/utWaSOFsQO2PsbB9h6/qjCB2NaEGO9Y1CE5bYIRNv4dNeq1KiIWNS24B61FccvixLgjmFpub/hHzHnZUnP3HuoCtkt78MPxYV8OwFY8cJPcpBPMWX9p/0xN4jrj1deEn98hFIqahJP3jteOemqzwu9B9XoFMW15ZnkQ8UMGOpfAizJVwBO4GYT9QTq57TkZsiFTqixIfPthxz1WBEI+4XMvE3jk6YFfKNRKVqR093XH2F8UDd2tO2/NAlHjngPNya66DOGZKb2FHkewbcGlNzp397fbaWgkWKK7IAE8LmVbjWNxE3cKW59AsBNEl9Dr7JN8rcyx7rl17swrw5OP9h0mmeHEKBGdWDZ25tp2Whw0SWW01MuRA3WthhB1R5xjLZjQuvdh4ubg+owieQOO1mskbU/eT0lKlL0p81ohe1hFWhS/y2TIwUVGh5gvrxM3rJtSjyCP6yNfe5DY96jU0GwRCLFA8PxW0GiPs0Ben5OPOdghOlqBm9HWj3lhcohJIraqODWQijLAjSo5all2lHr4xD05XSjV8UaPU7DajB8p8oFWUFvHKe65AlLjeFyW+JU0HUxU9YUeRTIsVzYtTiIc//2kLeoA8C0MJz5D+cGHBOaciHVIiCtIkEmWq766t307IbDUCY7P85UH7+z1VNXgWcML+vxMSPQhOxhKSTPLeLSyp/oPXfGIvqfO9R0UnysDtTh7S+Hdv20ErPxArLufxCMm0L05JLirCa2x52nzrbV7QYmHSDcVgGZGFvWbkj8vKLq2gWa849bS/eyEmjHiMsE9bvpmr7tYK/FHi6yFR4pQWNuSTjL+SBZf8/aI4F6xFyL4E6H7mgNP63l1NBKXS6xwF56yy8zP77xcUHTUCBFFeYy9OKSGMBLz7eK1N7y+RFX2xD5n8It94huDkthnr7UnTAlLSWF1sNatPnMa/fqCFDcGJ2YalBeeUjJiZfWMVrxcqsD9fP553NBFreprhxNyiQuBuEDYEZ/IbR0dWXq7vX2+7Txawc9g80rlVbmKptXtm37l3sb61PzbQJc4MxCJip7RLTB0Tu0u759i55H5bSRrpbsgGMGmE+cwROsn+gcgWaZ6uL7svsWhwEjWGEDYUL29fv94YacYNU0wrap39klnKDtf1+kBdiLlDxJ+7Ds6dTmePUZVMYj4oVWFwrC/unG/uHk0+6xAoBldJWtHrHEtZuMgysLg34UAyAf34ZcLJvFZ1937rpNc2c2V6Fn4OWyJpXTOOX1kmXxl7JyuLc0LPSkHsbNmEfvTS6juHHQgcC3o16aHe1F6YSG5ver52qmnozDx90dKHSvM1yrEwKqKSDNGWheCkVJW0bQ0ZvTRPniC9k1J+NmnkwBwOdYuwU9piMbKCjFxgZXvGJAUZgfbSEzZWlloy6MHIWNG8mhQvGMfi3lPXTN3YyEfbiVvYmE+QIjOeubEeQUqgseQMEdMQzM2RV7qcLX++aP/bScubsUodifJxwiY2bv3HqYPftwXByVXm2l8eW/FXjRJv41I8MYUWJBEJ/atJw8v+603HP0b9Bywh2PcizyXsRZ7fHxsvhySVwGuNhbJiryatbqlWXuyZ//a67b/nqhpJI9Z3l5qwSZL/emS8eFZO82rSe3nlV+f2X/fn48uXaDrT48xJE5WvLRv/cGb9q8f3alLgPyB6DWLndI4Zfn/W7juHHXj7DZReMDxh+O7U+vfXpl9MVyprVH8i4UwUp0pAcFJK5dNR5+FgkyhknwUvklSLLq4f2OXpVBKY67EgcDcIO5aW/Bvm4ffOe04fSQPbqP+GbQxeITEN/BoQuJdVZ5k+WFhe7XwojQd24degGKPD14kAlKRoHFhD1/cd5urE4HU8rjC2wdd7uLg0WAKOm36dDfn6tWIIO2D3fFW9BcFcQafHtfWsmGRNflUaMsr8GyMAJRSKGvq7bXWMA/PfuJc/V9OgTL2lr7daxCO/hIcsHIKlxoXjibbKiMY3OSeTpkeAIeyvlbDjVZ3bQS8ope9I5i6DAIMAg8DXiQCUbX627mzgfaWT7dcJWkStGMJmxhCDAIMAgwCDAIPAHUCAIew70EkRl1rMRQYBBgEGAQaBnxUCDGEzhM0gwCDAIMAgwCBwBxBgCPsOdNLPagnJNJZBgEGAQYBBICICDGEzhM0gwCDAIMAgwCBwBxBgCPsOdFLEpRZzkUGAQYBBgEHgZ4UAQ9gMYTMIMAgwCDAIMAjcAQQYwr4DnfSzWkIyjWUQYBBgEGAQiIgAQ9gMYTMIMAgwCDAIMAjcAQQYwr4DnRRxqcVcZBBgEGAQYBD4WSHAEDZD2AwCdxgB6EFuXlFRyPfcflZTGNPYGBGAOIL8/Bzmbd4xwvV1ZmMI+w5P1l/nkPqptIJg7r2f04dSIDgls6r36eLRosPAfKLjpxp1n1IvBHNZ1COW/u5H1AtltzrWPROOTlEm8wHAuzrtM4T9qT2XJe8w1Erxb9mSn6LQ72EnNw64r2ct4k9f4ZK/h7266uxGqpPuc8hVR01T6Ry14BfNkKaWag15DyJ9z/GBQGRYNAyfmSewb0tX5KeH9hoEpytWzOhVcw3/w6CIKvmLNplGOA0avi+1J+fUz6DOza5GZVEiDP0AACAASURBVGpCEBo1g+bbM40O5sTX1t56W6ZKYgWEb20O+fL0v950vDakYNVlS77x2sPv3s6VEmuF5JLSlUXkt6+sfz1CLhzi8uSgeunv0uAQ/n3oW2/jo5Qg4TTFaW5BMDetrHx9Gfse9l8OkNcDpWXhX4+G0+p7G351Ynvva/7/fcIjC+SrKkf0vMSwEVvebSSw+uHM9O1yzRNxasiDD8EZ3S+stxfIs6IIbYl4t6Kn5Xa7kg9zIJi/fWF/N4J92BsqqPxvb/Ngnl8ITe9DcOKDnJpGx87C/Jgs6wM+dk5uMpP+aRFgCDtosvuIzpD0X7hm29PCHloyYUNwYmG727WLypIiPJwfWikmeQetr1CJKuvVbej8/tWsXfZBTlEqnT9Uk8+bXzhmQTcrksOQhDKE9jPb6GqVQscvbaq0H1mnt6QZwWsUCE6XzrdOnzUqI01/VHrGIpmq7Je+ToUGXu+9fNuztb1ebWEIDcSxuKqnbbdnNVqYw9JhhD0hiHXI8a3Nt6/rB+RFOtKvPAt7QCB2eqX/YsXL1/bfPhf78xSn419UhLJKT8/sf3hR1aUVIAbF66P27+fLckBX0t+lRzKRV0DWZ2DGfHuma0qItVE0wuH8ipvL9t8tVHVqi1uM1W9O7H+dK80GOuMF7ytrvve2uo0CXAclD1u+ED/9qO12XZoXXCSOxS3vNt6e1vX5EKvXlKELbe8vm58VBgr6llzp7Wjb30+b+gojtAWCI9zNQBpvT9TVMAdKLbt82fbHF+JUmANVqv/qrWth+4VE7X3oQUnd6OGcA0kJU5toF5P4ahFgCDvoKfqIfqIivyDCTkOG966mW4Rxn+MhCZIMc3NMO669GRknwmNP1Rwqnany/zjXqSiKgzSgV7oyrr+BsEI1doPoPtCSjtiELyc5YnUfdJEKDd9cn1T6yL042Z7FitDp0t7W2+NqOcyBlJofvMgzXoQ8ETXBCPtEpaQdohBcsHxi//ZRToiEvNam24taIxiEHI3unbd5IMdfNf3dEFE0/0IZpa/P2//Dlh2+TKEpRXVL/qT19lhdA6guUat750UcwXAVWgy355i7IqIQOsJ+qVKAUhC70PnS/pdnRRGFxH7xXrX2n9464wMOJFT8L1r/0q0ogzmchvrbl9VVoK5Yeh8WPp5c39QHLyBiV4PJ+RMicDcIG4KTMpX9jsWjtf2rnb2TxdlpQ3kuQX4QzE0UtnVOu53ui/XNHYddnwUeQt/sxuUKWuyTrheus7UN92ifVZAaIGlINLjqcbcoGuzo4Zr7dHF+pqksJslQpmXCc7175CX/XJ7Lbrn/2SZoFYJTRD0e1/aYmGQW0OgMJdT3uYO+hA2xyk3O69VeFT5PEZLxcQOVD615XAbgE4tjcbklbR0T7lUMDay9fNDeqDrTlI06RjEHo07Rsdsy4bWhV6ahTZ1WnkbqIw6nXGx0ImNXlsmT5o5+YTpAA8ouf3Jjm/2mnfxDb6ytaj+SKVY9eq7mA5Maik/mZqezQRdD6poZUBx9VZ0PZi4/OHBiWq2yc6918tI0uCAraqqZudFXZcYmGabU2TeuOAmiMmSlefgcc9R3P5eQHfWQRDl2g9RripF148Rl29C2TiNN/Sxo+KqWIAvHz43iiJ0isCG3boUI5kDl1X/06nvSA2RT+sh4e6Jqllae7JrfvW77dkFpyAu4Rj+FsKuftt3uyoUAfCg5t7lRWJnmr5r+LgQnFumqL9xt787M/zkjlddr/uk19GcH1AZdmdQwbLo9UCmJrk8Uvby0v2lNJ3CA4NzpPfufh/m43R/H4qaVSZwvjH+6sH3/0ng9WlEFVILgRAtqv10o4xI651b8h9e2psDqhWBuPDeJw00SdyC3Zxq9L83hJrHjsakj4gbBrbd9W+XXGbOwyYQNJ9vn7bc+gxgrrtL8E+wvhK+QaO5CJYrvvIa+LA6rRvvdE+kLj7aRxcF6jWTl0/R+ACWWvHXp2KEXEFeIRIKkb3TFMzP2qOBBKP5EHibxEyJwRwg7xzp5cIn2W+SVqjK53jBy6NqbUxAbTrmW8b2rpeeP1cpaWUP/yOb18kAtsbUWl2MadV8tT/RplFqprmvAebmJ2rKBaeIj7KO5KRTR1UlUJuvMicu9rMkAg5VaMsQuEsg1ErnGOHHpWhlV+9ISuYaX6i+L0erWMyEnNZ5nG9+/HGvCNpwCPxrJcFLp45eurSEhoKg44dMlz5FF5J9bQwnbt+ZACoDOedaJvaul8SeaKq20rndo43pjyoR77KPqHEddNqA5uRWkNMST9L2xDo6Xi6sLBWqhdr4FvaorJ7YA8sufXFlHFuWVWkEZoug+tY1OCPCNfyghM1/NF6r59StW9EBd6UsL1fxsgmkElY63ln6HMCuFBCCoGkrN5isK+YpC+XhLOGHfE1QOvLUOL8oqNQJxm8q+ayQTdhyt5DhqnTE0eOLuS9voskKu44uaKtuPrNMbkgxiXGGE3epY1dU2FQtrxYa1NvSyQZYF+ohacnQ0WFzovta+dvxYG2rm4n2UZdTfbkh5MAcqkv3a22AFnok4Fhcj7FPkDap+rCtGDIqLY/sPW7JioPOnEDa2dborLwHkFzJa6O/CRbL/urb/33mFvaa4pbVmf8MYkbDhYsW315YDXSohHIKTTDO2W2dFLqgXEih+4zU75WCc5Fd8c9n+u8WqzhqBoUlxfmx/t1zO82WG4CTbnJ28B++jYT/pQlzRCeBUYjf6X2868D1sKCFTqeLrVfzJF+237hq7L61X8cvBiA0lbFbOpNv+9+cCfMENpWZrfd7yruetEQib+i7mCfeaUBEnr7XJ21rwbFPfnc5RD5jfTwmJBQpN75NwK6obP56xyYkrRCK5Zmp2/XjxxVApcJYQt5jE14DA3SDsONnYtmetDvAoxMnN4vETwRqQZ3a7dsbEYN2dUINuHS7XgJiX7NYdl2u8HNyFK0acnl0DcHz5CPv8SbV/FoCSkeHD65GHuXjf0EvG81C5l4nQsN0jr2t/VgEMypgkF/cvel73yDCtIDixpOvI5XzCAxMrPWGzRS2t1mYeAIetm9/xBNCg1zmWsriECH9VmPGqBJwEcdPSizI4APbsbgQ9qykGILAf1s68bZCBxQ0ujcoJDMFJWcbaYa8N9ZoGl9QaTVY8gIKsRlYnEk7YGfZm9FJHzD5ptiaUZGHTS6bXOaPDgJ5pSkCL7ilU4zeIFuxH+ixsi1mXhGsIpZZ2vbV1G/3DjF4yPRrYkEio71o/7qnJJDc/ljRG2CSbm1tb9w9SvJKPsNU6YE1yuEkcTiLBBP6GULjECUq+F48ZpvjvPlhx0t/FjMKLWgQsLAS25tswCxuCM3qXbT84JfnBXc/V1f7Da3gKfO/iTuPtSY0WhF4nlovRnlLi2U9qrH8PAtaiEDYrtVjMU4h5Rofx9qKhz5dWiHmS7KD4alqXuFrjwyExPVvfrf/ea1qvCtr/9q+fqPcgcHcIeYcCYgl2Ltu3VVxlf+uOOsmMtk4LE9tm7L/vz4+l94k8EMzTjB7PPaomrhAJLDAtrSAxIeB3IW4xia8BgbtB2FCmaezg6sV4v7ZaVZSXez/4oS3vO3eh7Rmc1Hj8V/J43nPYWuy3ZsRPzlxzNiIozHf4JzEOSPAR9r6RmGdhsQHdH0ZEeN/QS8bz0BC2a3taI5QK6iZXPGd9qqDplV4yBAsMi9cbQ40PYA50X9mxdT3TKiSGCz1h49kgVtJ9HA356LpnR58LbDufYUqlcyxlCTVCElCOuNdrHV6qUtQW5hWksQDCeLaS52Z0oyKVm3Qf/5XJHTctDaVBWlERNi4BzsgrsygtGy3TN9aBwcLwsPyIhF3oMKF7sgzCAlNryIRNL5le5+JRM7olISJ3IJhzD/OX+lvkI2xjHRiEEJyr3UC6rNmfBY1PIuxTtYpAw2ePLkj8OodHid9e6fQgM6451R42Qcmlj/wB0rdeqxNsD9HfVQ9g1jnhTo9Tad+HEXZSje7/XRunRcB0Jvwr3OL9C/s3ZuzhguDsiV37n54VsUJ0ZnHZ+BpCpXkHNvXpCRtvbByLiy1ifCH3xBVygoawyXb57YVxv5WXFKzVxxA2nDu9b79ozmibaZ0q4agHTK6aTMdG0KYAWT2qNA1hUxVhrn8lCNwRwoYTUyT27im38wDbNt7aWu/UiYi4aEn/BXkjGbNoPcdmoX8aikJOIf5kMBHg3UMvmchDHyUOwXz93NXO/KMs0hMbVXJK4+rO/pI6hQNLR9c8mw2kLb0ohJ1eYxzZde5dEZi4YifsGMpSDVwI5ibJK1pXkXEvtiE9fdpk1GcTU6dwzELeop79ph29aW0UfwBh4/VCcGJ6a8PkDVIbFvwckbCLQgk7aA+b3JZwyfQ60y8v8D3scCXxGuklE3kixsz7LOy6j7ewSSYdxJf/j9e8WB4gbLI1qRDzFGWZIUH7UQk7ITMXK6hT/yYSYdPf9XcxtsUbtIcNxfPm9ux/HOUT+81Ex0FwknHSerspzfdtAXzrNa9UBkj9XiZ/ahb582XgQNrtj0XYtye1nT67XFqUkQr8TITaeCLchiZnCL8LwandS/ZvH5UMbTZ2pnKKrM3eVuHiS7tbG2gyWQJVGoLzfRa2iioDc/2rReBuEDYBH3Q/PTlfoenb3T5crwfeV8xaXXhaLpTyA7/yNLAH47OwIxy7wmXiQWeBDeBgwqaXjEugWhCQaZWtnFrznDySBrbfokqGkvSOvasxfbHk6aud6TbyvEmWjE3fkkDQGQRnq0bPd5xovaLKj4Ye3YiNsGMsS/QFVQKKT04sypeNITNv9dXAssesVVdViTiPF/jlpgAvKC4qIgVCcFKyMJ/HC7giofhiyxtbh+98MFmHiISNOZ9fqwqB4ZuANBAWdlTJ9DpjFvZ2hENouEr0hE0vmQYNv3CWyuo8HnhYSG5+LGmMA0It7LYFMmFTW5P+qilc4lhYmS/SzZ8NOxxsWan0LwXo79Jb2BDMKTI1/fPiYQd43kNamlCjxaO7hR3I7Uu1CvjDITjVNmd9v1/XX1NQhfu0W+v+FiDssKCzPOn/8bZvKIMWkR9tYZODzkIUJv4Np2TiFpX93fjc9v2zKuexpg7msOvrfvtUdXDdhgZ7qshCIqYhWNQ4czxhlka8y1z8mhG4G4TN5lVLZWLiBQVQjm3ac9oO7DNsp9nZR2xuQcklxeKKNLCqzcH2sCck4N9Ie9huKsKml4z3K9WCgEyrEKusZeV6e7qN8KBGlQzBKZL+0x30xZD70lEbFF4UJBnm5rYFjnVBsNSyeT1vLSfGHLsG3Q4j7Ig6x1g2Lquu7dlCr1kdYu48KCoUqXKIWD+IJ+m/aWsGUzZGnEeKHECcUEpWQWVeMtgAxrWNSIEQnFgxb0XXJcmgbFxeRd+NpVUdalVEJGyWQvX8xtzdVZiWlpokEjZvmIigs6iS6XXOeNSMnoftYYNT4PSETS+ZBg38FgQX1o4dz/XWEk4morvpExhD0O9hfyxh+w5u1RlBHGhCDXasi3ibB/1d+j1sKLXE86r9lx05IbvpREuhBIH7zP6NuejZlv2PgwVENgjmLb60/6bHH4+CnYCoryOfcws91qWrfec1Pg8+LkhP2A3DVjy+j1AGT4QEnYXcJf79CMLGJC/rL33xfZBU9Sen4Rfepsfg1AMhmT4BJekfrx331GSFZ4Pu8wpk2vLK8iTicQu2YcKLMFd+TATuBmE/UE6ue05GbIhU6osSHz7Ycc9VgbCyuFzLxN45OmBXyjUSlakdPd1x9heBhXZcTtvzQJR454DzcmuugzjASm9hR5HsG8ppTc6d/e322loJFiiuyACWPZlW41jcRN3ClufQLPRHIcUi+V6ZY9lz7dqbVQRbophkihenQHBm1dCZa9tpedggkdVWI0MO1L0WRtgRdY6xbEbj0ouNl4vrMwoiAtyHQ7xWM3lj6n5SWqr0RYnPGtHLOgkRVobFRVsGJioq1Hxhnbh53YR6FHlEH/kkJLfpUa+h2SAQYoHi+amg1ewq9fCNeXC6UqrhixqlZrcZPVDmg7scfkEgSvyiTuWLGOdLMvE3pkFwavGAfsJ37mvmVUN1p46wsONYXHrJvihxap155T1XIEpc74sS35Kmg2mOnrCjSKZFA58d0h8uLDjnVJmhqxb6uQNjiJeId1b9WIe93gSLEt+sDIoS/1jChrJKX7+2/3FZ2aUVNOsVp572dy/ERJgk/V2YL/sWixKXt9cIjK01xxvGv5Nc4tjrvS71kyry61wK+GBl4Nu6Tmwas77fbP6lt21REgAEgpPbZqy3J00LSEljdbHVrD5xGv8KLOw4FhfGY8gXqh5piluQau+J/d2KJORYID1h81qb3l8iK/piPRYonl8ExiQ9YafxC/HXsGBR4sSbaiSZ+AqY/m5688PbU/OffS+Yg3jS/7yw/u1K1wSC++h7H78LwYnZhqUF55SMmD99481/t8D+fP143tFErLxjkcnk+dEQuBuEDcGZ/MbRkZWX6/vX2+6TBewcNo90qpWbWGrtntl37l2sb+2PDXSJMwNRjtiJ5xJTx8Tu0u45di6531aSRrpLu4eNlaWW7B/ibJHm6fqy+9K3dx4I7wohbChe3r5+vTHSjD+WMUlmKTtc1+sDdSGGFBF/7jo4dzqdPUZVMon5oFSFwbG+uHO+uXs0+axDoBhcDSNsiELnWMrCRZaBxb0JB5IJyMmPA5zMa1V377dOem0zV6Zn4eewJZLWNeP4lWXylbF3srI4JzC3AiSzZRP60Uurb4fboMn3OychOClVJW1bQ0YvzZMnSO+klJ8d6MHw/WCs+JGCeGUV9k7m1MwsQRYngQNptGTCppcMwRwOtc7YXbEYWUFGLjCtesYkBRmBFtETNr1kejT8dxOkyIxnbqxHkBKAAr9F89dH2KqmStnJruXdWaRz2B9N2DAnRSR2LmGv+fz+2Hg5JKkk1mpYOBj93SRBbfWl2/zu3PxfqExZr/mBRNj6URs5gOtfbzpuvaY54F3DGxuv0nzvtd++VClDxmR6wfCE4btT699fm34xXamsUf2JRNjYmwPEko1l5Pdn7f960/HDRlUVSWdcMj1hQ+yczjEDXpzYHfe/6Yx0DjukR8JbhDXqoKrcF+NCfzdOWfOD1/4XB/YOFihB+NJrvz2oqiAFx4TUFfIvBCelVD4ddR4ONokivnwmqRZdXD+wywNH20MkMP/+tAjcDcL+aTH6yWrn9857Th9JA9u3P5kmpDX4ndYBrtOhNw2Vn+NN1D85Dvey6izTBwvLq50PpfGxTdk4YZNPCv3krQhXAKoOIuzwDJ/9CgQn6Z6Zbl/VGv8tBgYVPlCSonFgDV3fd5irE4NXNngRbBuu93BxabAEHAqlEsVc/6kQYAg7YBX9VH0QsV4I5go6Pa6tZ8Uk6zliTuYiPQL3snJxnzlfJdKvm9E9WWZs9EYv9mu4CyUUihr6u211MTow6TdNv4YWYYZjWJT4j6AYlFF6dmH/7mlBjEufH0Glz14FlKm39PVWi3jENn9IFRAsNS4cT7RVRjS+QzIz//4kCDCE/bUSdryqczvoBaU/yfj4N6iUgzTgJ8rQK5PDqZbyP8CH/G/QfHITGMImo0FOQzC3vBN5f2kYBK9UIt/9maShbPOzdWcD7yudEn8mvUDfTIawmdHJIMAgwCDAIMAgcAcQYAj7DnQS/ZqLucsgwCDAIMAg8HNAgCFshrAZBBgEGAQYBBgE7gACDGHfgU76OawcmTYyCDAIMAgwCNAjwBA2Q9gMAgwCDAIMAgwCdwABhrDvQCfRr7mYuwwCDAIMAgwCPwcEGMJmCJtBgEGAQYBBgEHgDiDAEPYd6KSfw8qRaSODAIMAgwCDAD0CDGEzhM0gwCDAIMAgwCBwBxBgCPsOdBL9mou5yyDAIMAgwCDwc0CAIWyGsBkEfqYIQA9y84qKQr4F93OY9Zg2fl4EII4gPz+HeQP550U1ojSGsH+mk3XE0cBc/JkgAMEpmVW9TxePFh2GGD8c8iMgA8FJ8H3mebx7CEDZrY51z4SjU5TJfFrwy3YfQ9ifim+WvMNQK2WHfQAq9HvYyY0D7utZi/jT16Hk72Gvrjq7keqkD/mCfRyLS6XzjzAp01SRppZqDXkPwpCEYA67tAz/8vT4cXPHoCiT6/9UNo20H+cWlc6fUjuvvyXoe94K1eRN4Ovg2T0I/i2T2W/aZy5a++cVpbzA50wgOL/5lW2wM4dGAQhOzqmfQZ2bXY3K1ISg8Z/AR9rHd164zpzru8OPWwuSgu7SyIzlFgTnidsXZrfPdzzXu0feF3YpuRQEF2gnzlx723rwHXTy3Y9O07SIU/di98hL/rk8l93ywNCiKfvR+vyEBfl2j8vZxwPPF1QxtO7Z0ecG2kulW55pl0DJ5R4VAQlEfghOfJBT0+jYWZgfk2UFRiORgUl8LgQYwv7UKUnSf+GabU8LG8RkwobgxMJ2t2sXlSVFfzyidi0meQetr1CJKuvVbej8/tWsXfZBjk0qnaNW/UUzCMcs6GZFchiSUJbo0YVtdFkh0wrKjMre17bnU4KEsGxfVDcq4VQ6U+WP5XpUwkbPaqsVhXxFobC+om3Pgr5U8xP94yoWwr6Xb3u2tterLQxZO0IZzQ739fJEn1apq6x7/Gzjan28JTXSh5NjaUV4HrhydM1z8LhRV1qhElWoBLkZ5DwQnK8aOd7ccdZ9vu9l0beIU/fC5VlrqcSUAT9lTjJA8gujQW77j5P+aMJ+kCPF8VE92YtI2Lj+0IOSutHDOQeS8nU8mz8Oqj9yLQxh/yiEnYYM711NtwjjPsdQDl4KcHNMO669GRnnA5YCd4uwU9r06JWuDFjVHKQBvamr+JD2frmH6qch7BMlYSfFFVY+vbF26FP8k2Y0CxuCk0ofuRcn27PCmDityelyz8gS/AMpvmpi3bPZkP0B44oe5wxkw+V+Xvo5HgH6ioi79C3yEfas4kHkBtKXJaq4Q4mPJmyijVnIFg1hx7G4sPDx5PqmvvBTJ1WiRiYRgsDdIGwITspU9jsWj9b2r3b2ThZnpw3luQT5QTA3UdjWOe12ui/WN3ccdn0WO/AQQjCXK2ixT7peuM7WNtyjfVZBamA8QaLBVY+7RdFgRw/X3KeL8zNNZTFJhjItEz7PHuEs2j3ykl1qBK1CcIqox+PaHhODqTCOxaXRGUqo73MHfQkbYpWbnNervSrcJCIk430JlQ+teVyGvECTuSVtHRPuVQwNrL180N6oOsexuFRlQ8ZN+L8QzE3TKTp2Wya8NvTKNLSp08rTSH3E4ZSLjU5k7MoyedLc0S9MB2hA2eVPbmyEm9f/7eoba6va36KCwVZ0T54JJnpIqhy/QbRF/rtZnQj6qrpUKu1wmyYvWgdfVInyAk45CKasF+sFiXLsBqnXFCPrxonLtqFtnUaaSugcx+ImiMuRFeQ5pjPSMybhpfkrjaozBHM55eUtTmT00jxx3NzpKM0mOVfo641uYZMIG4ILjZc2R3eufzBEJ2wJsnD83CgO78HiR8eupZ4cAmeusKxayyMsTuwpM3dNuZfdZ2trrmfdCA+Y9XEsLj4mZZV9w6unG+4jdORxWbq/FyA4kcVJjeek8kzbLveYxJeO56Tej/c/hpB8bBs8Sq5thwAoAFqUkqkaeLZ8vO4+QZ93C3Vj2x5nbXpgtIc3hLhC3yJ6wqYv+0kzEvWcA3H1A3vXY/oCogkQXNayeu18UoM/+zTzBjaeqSXHsbj0hE1fFtcnKmFDLHnr0rFDLyD0JxIJkr7RFc/M2KMCihUSkZNJ0CBwRwg7xzp5cIn2W+SVqjK53jBy6NqbUxDzRa5lfO9q6fljtbJW1tA/snm9PFAbCKXJMY26r5Yn+jRKrVTXNeC83ERt2cC88A3To7kpFNHVSVQm68yJy72syQDTAbVkiF0kkGskco1x4tK1Mqr2pSVyDS/VXxabwraeCTmp8Tzb+P7lWBM/qBtoJMNJpY9furaGhMTOtPDpkufIIvLPgKGE7XtKkQKgc551Yu9qafyJpkorresd2rjemDLhHvuoOsdRlw1SnhVY8RDXIZ6k7411cLxcXF0oUAu18y3oVV05wVL55U+urCOL8kqtoAxRdJ/aRicE+MY/lJCZr+YL1fz6FSt6oK70pYVqfjaYlIscJnRPlgHmcZztagX+9mKEfYb0zquqagWlzfKuE9vMTmU66N846noBYbc6VnW1TcXCWrFhrQ29bJBlASQLJE+urSNLCpmGLzLIOk9sU6ti3N0XVec4nrj3yjq8IKvU8vH2js+LuEFNoKz3wwg7tazrxtbdmoZ3RFSXOHRfa187fqyNsMkt7DpxLXdnAyWJnvUnctvG9q5ePO9VK3Wyhv7RzWvnSFMSyOwb7e7nI4O66lpZw9Ox7eutabN/1HGaHICPyatbYg8bShbiHldN/2E4Yd8r6EQPffVW1cqbRgYXD2InbPoW+Qh7TpWELSb8P3YSsVyjLwt9woxEM+dAcJpi6NyFWlMBsFBh77zntEOSBHqBbq6jkRwbYVPPhL5HPjphw0V148czNnno4GFxk2umZtePF18MlX4dvrFwDe/ElbtB2HGysW3PWh3gUYiTm8XjJ4KVGs/sdu2MiYFVnVCDbh0u1wDLILt1x+UaLwd34YoRp2fXAPbJfEP8/El1Kt5bUDIyfHg98tBvr9BLxotQuZeJ0DDM8t6fVQCDEi8VRXJx/6LndY8M0wqCE0u6jlzOJzxAQvSEzRa1tFqbeQActm5+xxNAg17nWMriEiL8VdXM3OiVgO0gblp6UQYHwJ7djaBnNcUABPbD2pm3DTKwuMGlUbmXoxP2TaMCjI34Ot30jUEF/A309fq432LW+WdDKLW0662t2+gfDA8kZQ2PRdmgCQ/0dehNgywF0LlvCqPSOeNRM9Zeomxj3cxNo4Iw0DHLeYAeQQAADNZJREFUnrLe6IR9Wl3ETbrPTUrI4VXNtqBX9ZWg+dEJO6G+a/24pyYzvAfpKSoHe44CTxlbO7ftWdWCHsTG5OGKBoCT9HDF5Xmh9i3XIFZOllDKF0plPW6Xe67el+YLpfmZ6SE65Jl2wwk7u2Xb5Z6WgpGThWy6Yraw6VsUIehsui0RMCV92U+ZkejnHHb1zJZnowE8R9hEsT0iAmt3+nmDXnIMFjblTIj3VAyEzdOMHs89qg7pWXwee5BWkJgQ8H6F52GuREXgbhA2lGkaO7h6Md6vrVYV5eXeB9SFN6+879yFtmcQy+SSx/Oew9Zi/8QqfnLmmrMRQWEQzL0XnxgHJPiG+L6x0J8ZgsUGdH8YEcUiGc9DQ9iu7WmNUCqom1zxnPWpgqZIep0hWGBYvN4YanwAc6D7yo6t65lWIdGX9ISNZ4NYSfdxQOSj4bGgVDrHUpZQIyQB5Yh7vdbhpSpFbWFeQRoLIIxnK3luRjcqUn00c5+bdL9M7rhpaSiNifyiE/aZqgDMs1Cx3HFj0kv8kunr9RG2sQ4MFQjO1W4gXdZsctMgFpeFq61Wk6O18TxUhF08aka3AwF0kEg+dNPyELSXvt6ohE3ePpg5edhQFXDjfznC9j1HgeBKSPB40XNkAtD5xqSDT/SCZHjDs63PCerfqNN9RMIu6XoZ5KiXj+98PsJ2eVaby7DFhP+Xn0sE4tET9qfMSPRzDsSp63NfTyBFPpITGpcCe2FxLG6UeQNztlHOZjEQNmVZfLRH7UEIpiRs8jPFpD8agTtC2HBiisTePeV2HmAHQra21jt1IiIuWtJ/QXa1+faSj81C/2QRhZxC/MnBzl56yTjoVPIJWoVgvn7uamf+URaYzuJY3KiSUxpXd/aX1CkcWDq6Fhz7Q0jGFfA9/+6ASzy9xjiy69y7IjBxhR3eoNI5LoayVEMNgrlJ8orWVWTci21IT582GfXZLNBk4ZiFTDOz37SjN62N4qAJnYr8ohP2q+p8UBEkkDluTE2AsOnr9REnQnjXQ5uWVVQ/j4xfB/bXUdLxKjwzlc4h1yGh7BmpvfT1RiVs9LVOJs7jKSp7vbY+WxZZ7RgIu+7jLOyQMQPxexc8gacsdExGOjIUdbqPSNghxOnb8I51DzukLBmoOBaXfg+bviz0CTNS6AMbPOdAcKrMceaat6fDHCi/c9Zz0l4esErp5w16yTEQNmkaCdYKhy5qD0Jwvs/CVoVAzfz7uRC4G4RNtBa6n56cr9D07W4frtcDrxG26lx4Wk4sk7FEeRrYKQmxDAhReIJ+iNNLxiWETGSEfPIUxlZOrXlOHkn9vlb/SplaZ2xxnaR37F2N6YslT1/tTLeRDzuRJWM5JYGgMwjOVo2e7zjRekWV32jQoxuxEXaMZYkGUiWg+OTEonzZGDLzVl8NTnlilq6rqkScxwv8clNA4DcuKoTkCPnRg85CLezWIAubul4a4oTgVOmCGfXoqjUFfp1NtVMxE3YMFjblQiH3CYIeKQLBXwrVFNnJ34OgvqAzCE4SjLSirzUlYKj7bLIo57AhlsrqPB54WEjASySwMKvl3kC9XFG5ujYfeLlDnqNIFvZgwML+fITt8wkPlQCHDbf+RewucfoW0RM2fVkCtI+YkejnnDgWN75qYsOz3ZjLwbYhNodK4gPrWvoZiV5yQfu+y9kXWNpWjGx4th6CUwD0ZfH2xkDYosaZ4wlz0Al7Aism8ekI3A3CZvOqpTIxsb0E5dimPaftwD7DHmlnXz54pKHkkmJxRRrYPvTtvU1IwL+R9rAp15X0knH0QyYyokvItAqxylpWrren24gTilElQ3CKpP90B30x5L501AaFCAVJhrm5bYFjXRAstWxez1vLCTXYNeh2GGFH1DnGsnFZdW3PFnrNaiKECq/rQVGhSJVDxPpBPEn/TVtzpX+uwfaSjxQ5RB+lZBVU5iWDjUlcQgjJEU3wH+sCtBRyrAsLOiPtYT8I38OmrpeWsPOaTmyOx/5ohjgW90FD7UwYYVPpnNFhQM/UAjDqHjysnblplAftYVMSNsf4EPXWSUC8Htb8t7oyEJSQDQgbo+f8iv631ifWwG5LdAsbLqwdO57rrSUcVATO2EGmPVQOcI5XTJKPdfliQZ4TarA1s9geNqBz8pjEFPt8hH1fMrzqORttU2Wl5qQImtrRkwhBZxRjkr5F9IRNX/ZTZqSo1AixdY8xr7hKv3C93FVFeOmxaHzauY5ecuLDZdfBXBVYJacZ1lyHMzIwrujL4oMEK7I3JgbeLGLkEAkoSf947binJsjrg9+F7vMKZNryyvIkMAkQpZhE7AjcDcJ+oJxc95yM2P7/dq6EJ5EkCv+c1o5rNOIxRvGOM4CKighIxPVab1hRRBmv9UC8BbFHYWFs20FAVHZ0HRWdZH/ZprqlacHucRwmyuQlxhCael31VdX76njf0yuVdJT46qn/eLclGlaWVm6yh64J64RW3a7QGceJf/3kwjt2WVo2shGLEp+0khHfroUVoX5jmApbpk+NCgdI/8nReFeXAgWKa4qj/i7OheV2unzhs9HaWLSnUJ1py+n1Nm/4LhD6oInOMaZfkWWexCkYLm5ZuQockabeHoWqq1W/YiOODxII+9E6P7FscZ/n78NzN7WjiTIKU6vMjnbHf8bpOblcS0eJfzAQkW5FNCiJjtY2We1NTW2S2u6GIcpIhDUVbB/R7c0f6Se+Dg4NSmtRoHjVm2irsRL5ZMS87lE3t0vq9S0zl+aNbRmbWo6WdQ3NoChxyX2U+JGymHUKKEqc972ChJ2vIEaJL339BlmNTqoc01kO9fYEwuarc1pl4+zt2MqeWonqjKLit/ZqY6sZWk7GdxSPFddZbszrHg1qr0E7d2Xe2JKwCeAeEDae37AzQlz+LmOxomVdq9uNNIYo9h79KcTs3URahqio1+Uid3Xi+FB/rHhoOYgSpyA9RdesjaITp7DeuWx0MxRxr8/qWjpUPfNrPhQlzq6h40b7dxF2brU2FiUe3O1l0pjIoyICvLzhPXVAx5kf+bx/GJ2Jd9h8Y1K4RTRhCyVOEUDjRzzSN3wOijMtaFr84t/zOcPnY/LYeTiaaIIeSdgyVjhoC956t+baWjpVvbatwN3HhU52HgmXZeZ4unzJGz63DffUM30kq+Yu+zA8t3TQ4yK3Vaxn5pyrY9UTG9TnPdsAOwsYm/D/uxBIDcLGcLGkb33t4zl1cnd0fOFCOuxKVoCBtInysemdEzJ0Q/lONq1TDeLYKEdPa4wWe9ATvEa65AVzTSHnqeAdtrBlBmgsq659kfIeR+i781iqv3gXlqkep+4O14aYjemTLGdoLYE7ytrNnRWM5pW5nw6cXpMkOWPQ5XOYD3ujGbRRbv/1p+A/jmWLVLO0n0DYfHV+Sln8ncnqDtltejFLivS0xPD8yuG26ZNhx1fzzq1xOVGHrVAMHxi2bk2OS8Oso1lWlkAYWaUqe/96ZIy+4Y4l48TwnGx5g36f1jSf06lJWUVfhggR9oW2TtU8ERrZjgwveRJ02PzvFSBstE0squrYHli5GnXe/DlPKKvatZsJhI3x1lmU09hwr8M+f1yHzUvYeE52PdKsIw03XbaE014uYadliNLR7Xhsk83ssOPDBR7mj8Oylfqd8O7mjLQgNhHo43RRjgxlLPAEr8jD4OpfRm5qUjRia0emnMfe4+sDKrDymA77eUfiifeyaCpxk2jiot/yJRVva3KzcjCNI/FInH9MCrXokShxTmpSpKQXQuMHPJKgz2G8SoZ68yB8F/hkk8bPMkFfJ2gZZaSoMU4iJT3dg1P6iug6D/W+YNl7X4eLpXqn8/CK0c1zMzxieF5B8+I6ebY0UMc9EmDZKK+LcFOnE+p4aQD7A/jwFARSg7Cf0pJf8DcSJMF8r4R8+vHUzu1reocdCzrjPoLPfAikl3SbnKcu7/5krzKT3UNz9kN8BV/8e1xHBMIeRjD24pWBCjAIYHmaPusBQZ3YRltzH64w7n+AFyhmz9yepZroCTxA9zwEgLCFyOB5mCalFIaLpJPhgG9Zxtk9J8XyL2YECPt5HYplv63rWZg2d7/+I0q8qJE5M5erBk3Eld8zU55Si4zndVAKlcLE/ab52da6SpynXzBcaXB9to80P7r5TqGWvnhVgbBfK2Fn6iaPHiQoffGx8jorAIT9OvslibXK7fEyd0D+0MWec01XHVNbJPEtYOrnIYCVji5TZE/lK3W2P6/hSbcMhA1jCBAABAABQAAQSAEEgLBToJOSvkwDg4AAIAAIAAIphwAQNhA2IAAIAAKAACCQAggAYadAJ6XcMhAqDAgAAoAAIJB0BF4vYWdkg2IPFhOAACAACAACgMA9AkDYMBQAAUAAEAAEAIEUQOB/16x5uIyH6TMAAAAASUVORK5CYII=;" vertex="1" parent="WIyWlLk6GJQsqaUBKTNV-1">
          <mxGeometry x="612" y="650" width="556.7" height="185" as="geometry" />
        </mxCell>
      </root>
    </mxGraphModel>
  </diagram>
</mxfile>
